<svg width="523" height="446" viewBox="0 0 523 446" fill="none" xmlns="http://www.w3.org/2000/svg">
<path d="M21.346 441.808C21.346 442.08 21.17 442.24 20.946 442.24H20.146C19.922 442.24 19.746 442.08 19.746 441.808V432.512C19.122 433.04 17.474 434.128 16.818 434.496C16.642 434.592 16.418 434.656 16.258 434.48C16.018 434.208 16.226 433.952 16.434 433.808L18.306 432.496C20.322 431.072 20.562 430.56 20.93 430.56C21.186 430.56 21.346 430.736 21.346 430.992V441.808Z" fill="#1D1D1B"/>
<path d="M4.06 440.48C6.30228 440.48 8.12 438.662 8.12 436.42C8.12 434.178 6.30228 432.36 4.06 432.36C1.81772 432.36 0 434.178 0 436.42C0 438.662 1.81772 440.48 4.06 440.48Z" fill="#1D1D1B"/>
<path d="M126.022 355.338C125.99 355.61 125.846 355.77 125.574 355.77H119.094C118.694 355.77 118.438 355.674 118.438 355.274C118.438 354.058 119.734 352.33 121.59 350.89C123.286 349.562 124.198 348.458 124.23 347.114C124.246 346.522 124.006 345.018 122.31 345.018C120.886 345.018 120.118 346.042 119.494 347.002C119.286 347.322 118.982 347.274 118.838 347.178C118.342 346.842 119.062 345.882 119.702 345.242C120.134 344.81 121.174 344.09 122.614 344.09C125.078 344.09 125.99 345.642 125.99 346.97C125.99 348.074 125.782 349.162 123.91 350.442C121.974 351.754 119.942 353.162 119.942 354.33H125.302L125.43 353.93C125.526 353.642 125.606 353.466 125.846 353.466C126.102 353.466 126.182 353.658 126.15 353.93L126.022 355.338Z" fill="#1D1D1B"/>
<path d="M106.79 354.01C109.032 354.01 110.85 352.192 110.85 349.95C110.85 347.708 109.032 345.89 106.79 345.89C104.548 345.89 102.73 347.708 102.73 349.95C102.73 352.192 104.548 354.01 106.79 354.01Z" fill="#1D1D1B"/>
<path d="M226.384 260.276C226.384 258.484 224.112 257.764 222.512 259.78C222.256 260.1 221.968 260.052 221.84 259.956C221.536 259.732 221.744 259.236 222.24 258.772C222.688 258.356 223.552 257.62 225.088 257.62C226.64 257.62 227.888 258.356 228.048 259.572C228.256 261.124 227.088 262.404 226.272 262.66C226.592 262.58 228.352 262.836 228.8 264.404C229.728 267.604 226.64 270.996 222.32 270.74C222.048 270.724 221.584 270.692 221.568 270.388C221.552 269.972 221.984 270.036 222.528 270.02C225.2 269.94 226.88 267.924 227.184 265.764C227.376 264.452 226.64 263.204 224.64 263.54C224.352 263.588 224.064 263.54 224.016 263.252C223.968 262.964 224.256 262.82 224.48 262.692C224.736 262.548 226.384 261.716 226.384 260.276Z" fill="#1D1D1B"/>
<path d="M209.53 267.54C211.772 267.54 213.59 265.722 213.59 263.48C213.59 261.238 211.772 259.42 209.53 259.42C207.288 259.42 205.47 261.238 205.47 263.48C205.47 265.722 207.288 267.54 209.53 267.54Z" fill="#1D1D1B"/>
<path d="M323.444 179.556C323.38 179.332 323.54 179.044 323.796 178.692L329.012 171.54C329.22 171.268 329.444 171.076 329.716 171.14C330.1 171.236 330.068 171.588 330.068 171.988V179.044H331.716C331.988 179.044 332.148 179.22 332.148 179.444C332.148 179.668 331.988 179.844 331.716 179.844H330.068V183.828C330.068 184.1 329.892 184.26 329.668 184.26H328.868C328.644 184.26 328.468 184.1 328.468 183.828V179.844L323.956 179.828C323.588 179.828 323.476 179.684 323.444 179.556ZM324.724 179.044H328.468V173.764L324.724 179.044Z" fill="#1D1D1B"/>
<path d="M312.26 181.07C314.502 181.07 316.32 179.252 316.32 177.01C316.32 174.768 314.502 172.95 312.26 172.95C310.018 172.95 308.2 174.768 308.2 177.01C308.2 179.252 310.018 181.07 312.26 181.07Z" fill="#1D1D1B"/>
<path d="M433.582 85.1501C433.742 85.1501 434.014 85.2301 433.982 85.5821L433.918 86.1581C433.886 86.5101 433.582 86.5901 433.422 86.5901H428.542L428.366 89.5501C431.278 88.0461 434.19 88.9101 434.19 91.9661C434.19 94.3181 432.19 96.7341 430.03 97.4221C429.326 97.6461 427.518 98.1421 427.55 97.4381C427.566 97.0861 427.982 97.0861 428.366 97.0381C433.55 96.3981 433.662 88.3501 429.326 89.9181C428.526 90.2061 428.158 90.6701 427.79 90.5261C427.47 90.3981 427.534 90.0941 427.55 89.6941L427.822 85.6141C427.854 85.4061 427.902 85.1501 428.302 85.1501H433.582Z" fill="#1D1D1B"/>
<path d="M415 94.5902C417.242 94.5902 419.06 92.7725 419.06 90.5302C419.06 88.2879 417.242 86.4702 415 86.4702C412.758 86.4702 410.94 88.2879 410.94 90.5302C410.94 92.7725 412.758 94.5902 415 94.5902Z" fill="#1D1D1B"/>
<path d="M4.06 436.42L5.99 434.8" stroke="#1D1D1B" stroke-width="0.95" stroke-miterlimit="10"/>
<path d="M9.82999 431.57L516.5 5" stroke="#1D1D1B" stroke-opacity="0.3" stroke-width="0.95" stroke-miterlimit="10" stroke-dasharray="3 3"/>
<path d="M518.46 8.03L517.34 4.39L513.95 2.67L522.56 0L518.46 8.03Z" fill="#1D1D1B" fill-opacity="0.3"/>
</svg>
