<svg width="578" height="405" viewBox="0 0 578 405" fill="none" xmlns="http://www.w3.org/2000/svg">
<path d="M153.757 272.832C153.757 273.102 153.583 273.261 153.36 273.261H152.566C152.344 273.261 152.17 273.102 152.17 272.832V263.606C151.55 264.13 149.915 265.21 149.264 265.575C149.089 265.671 148.867 265.734 148.708 265.56C148.47 265.29 148.676 265.036 148.883 264.893L150.74 263.591C152.741 262.177 152.979 261.669 153.345 261.669C153.599 261.669 153.757 261.844 153.757 262.098V272.832Z" fill="#1E1E1C"/>
<path d="M152.549 185.172C152.517 185.442 152.374 185.601 152.104 185.601H145.673C145.276 185.601 145.022 185.505 145.022 185.108C145.022 183.902 146.308 182.187 148.15 180.758C149.833 179.44 150.739 178.344 150.77 177.01C150.786 176.423 150.548 174.93 148.865 174.93C147.452 174.93 146.689 175.946 146.07 176.899C145.864 177.217 145.562 177.169 145.419 177.074C144.927 176.74 145.641 175.787 146.277 175.152C146.705 174.724 147.737 174.009 149.167 174.009C151.612 174.009 152.517 175.549 152.517 176.867C152.517 177.963 152.311 179.043 150.453 180.313C148.531 181.615 146.515 183.012 146.515 184.171H151.834L151.961 183.775C152.056 183.489 152.136 183.314 152.374 183.314C152.628 183.314 152.708 183.505 152.676 183.775L152.549 185.172Z" fill="#1E1E1C"/>
<path d="M173.619 104.685C173.619 102.907 171.364 102.192 169.776 104.193C169.522 104.51 169.236 104.463 169.109 104.367C168.807 104.145 169.014 103.653 169.506 103.192C169.951 102.78 170.808 102.049 172.333 102.049C173.873 102.049 175.111 102.78 175.27 103.986C175.477 105.527 174.317 106.797 173.508 107.051C173.825 106.972 175.572 107.226 176.016 108.782C176.937 111.957 173.873 115.324 169.585 115.07C169.316 115.054 168.855 115.022 168.839 114.72C168.823 114.308 169.252 114.371 169.792 114.355C172.444 114.276 174.111 112.275 174.413 110.131C174.603 108.829 173.873 107.591 171.888 107.924C171.602 107.972 171.316 107.924 171.269 107.638C171.221 107.353 171.507 107.21 171.729 107.083C171.983 106.94 173.619 106.114 173.619 104.685Z" fill="#1E1E1C"/>
<path d="M214.722 55.2012C214.658 54.9789 214.817 54.693 215.071 54.3437L220.248 47.2459C220.454 46.9759 220.676 46.7854 220.946 46.8489C221.327 46.9442 221.296 47.2935 221.296 47.6905V54.693H222.931C223.201 54.693 223.36 54.8677 223.36 55.09C223.36 55.3123 223.201 55.487 222.931 55.487H221.296V59.4408C221.296 59.7107 221.121 59.8695 220.899 59.8695H220.105C219.882 59.8695 219.708 59.7107 219.708 59.4408V55.487L215.23 55.4711C214.865 55.4711 214.753 55.3282 214.722 55.2012ZM215.992 54.693H219.708V49.453L215.992 54.693Z" fill="#1E1E1C"/>
<path d="M290.124 10.5352C290.282 10.5352 290.552 10.6146 290.521 10.964L290.457 11.5356C290.425 11.8849 290.124 11.9643 289.965 11.9643H285.122L284.947 14.9019C287.837 13.4093 290.727 14.2667 290.727 17.2996C290.727 19.6338 288.742 22.0315 286.598 22.7143C285.9 22.9366 284.106 23.4288 284.137 22.7301C284.153 22.3808 284.566 22.3808 284.947 22.3332C290.092 21.698 290.203 13.711 285.9 15.2671C285.106 15.5529 284.741 16.0134 284.375 15.8705C284.058 15.7435 284.121 15.4418 284.137 15.0448L284.407 10.9957C284.439 10.7893 284.487 10.5352 284.884 10.5352H290.124Z" fill="#1E1E1C"/>
<path d="M360.235 9.50557C360.489 5.78993 363.188 2.88411 366.157 2.36011C366.427 2.31247 366.967 2.24895 367.015 2.63005C367.062 3.0429 366.586 3.0429 366.157 3.13817C363.601 3.7098 362.219 6.47272 362.013 8.8863C362.982 8.01296 363.855 7.60011 364.776 7.60011C366.665 7.60011 368.38 8.90217 368.38 11.0934C368.38 13.3959 366.538 14.8091 364.427 14.8091C362.219 14.8091 359.98 13.2053 360.235 9.50557ZM361.997 10.1566C362.14 12.9671 363.236 14.0151 364.601 14.0151C365.872 14.0151 366.618 12.9195 366.634 11.2999C366.65 9.88666 365.999 8.39405 364.601 8.39405C363.903 8.39405 363.077 8.91805 361.997 10.1566Z" fill="#1E1E1C"/>
<path d="M438.714 31.6348C439.048 31.6348 439.429 31.5713 439.46 31.9524C439.476 32.2382 439.222 32.4288 438.889 32.7622C437.904 33.7467 435.284 36.1285 435.284 43.3534C435.284 43.8456 435.014 44.1791 434.459 44.1791C434.062 44.1791 433.601 44.0362 433.601 42.8453C433.601 40.1618 435.459 35.2076 437.491 33.0639H432.013L431.791 34.3025C431.743 34.5883 431.648 34.7312 431.41 34.7312C431.156 34.7312 431.013 34.5565 431.029 34.3025L431.108 32.1271C431.108 32.0159 431.061 31.6348 431.6 31.6348H438.714Z" fill="#1E1E1C"/>
<path d="M489.173 90.8517C487.935 90.2166 487.125 89.0415 487.093 88.0729C487.03 86.2151 488.379 84.786 490.523 84.786C492.603 84.786 493.794 86.231 493.794 87.7871C493.794 88.851 492.714 90.2325 491.523 90.6135C493.222 91.3916 494.413 92.6302 494.413 94.0751C494.413 96.1711 492.905 97.4097 490.348 97.4097C488.173 97.4097 486.474 96.2029 486.474 94.2974C486.474 92.8048 487.331 91.5028 489.173 90.8517ZM488.062 94.3292C488.062 95.7106 489.221 96.6951 490.602 96.6793C491.92 96.6634 492.826 95.8377 492.826 94.5039C492.826 93.5352 492.254 92.4872 489.951 91.4075C488.697 91.8839 488.062 92.916 488.062 94.3292ZM488.522 87.5648C488.522 88.5493 488.951 89.1209 490.555 90.1054C491.555 89.7402 492.349 88.6922 492.349 87.676C492.349 86.7709 491.873 85.5165 490.46 85.5165C489.078 85.5165 488.522 86.7391 488.522 87.5648Z" fill="#1E1E1C"/>
<path d="M510.127 166.484C510.127 164.182 511.969 162.769 514.081 162.769C516.288 162.769 518.527 164.373 518.273 168.072C518.019 171.788 515.319 175.17 512.35 175.694C512.08 175.742 511.54 175.805 511.493 175.424C511.445 175.011 511.921 175.011 512.35 174.916C514.907 174.344 516.288 171.105 516.494 168.692C515.526 169.565 514.652 169.978 513.731 169.978C511.842 169.978 510.127 168.676 510.127 166.484ZM511.874 166.278C511.858 167.691 512.509 169.184 513.906 169.184C514.589 169.184 515.462 168.707 516.51 167.453C516.367 164.611 515.272 163.563 513.906 163.563C512.636 163.563 511.89 164.658 511.874 166.278Z" fill="#1E1E1C"/>
<path d="M499.857 248.702C499.857 248.972 499.683 249.131 499.46 249.131H498.666C498.444 249.131 498.27 248.972 498.27 248.702V239.477C497.65 240.001 496.015 241.08 495.364 241.446C495.189 241.541 494.967 241.604 494.808 241.43C494.57 241.16 494.776 240.906 494.983 240.763L496.84 239.461C498.841 238.047 499.079 237.539 499.445 237.539C499.699 237.539 499.857 237.714 499.857 237.968V248.702ZM513.707 243.621C513.707 246.797 511.627 249.131 509.372 249.131C507.117 249.131 505.037 246.797 505.037 243.621V243.049C505.037 239.874 507.117 237.539 509.372 237.539C511.627 237.539 513.691 239.874 513.691 243.049L513.707 243.621ZM506.784 243.319C506.784 245.892 507.848 248.337 509.372 248.337C510.88 248.337 511.96 245.892 511.96 243.319C511.96 240.731 510.88 238.333 509.372 238.333C507.848 238.333 506.784 240.731 506.784 243.319Z" fill="#1E1E1C"/>
<path d="M449.147 306.852C449.147 307.121 448.973 307.28 448.75 307.28H447.957C447.734 307.28 447.56 307.121 447.56 306.852V297.626C446.94 298.15 445.305 299.23 444.654 299.595C444.479 299.69 444.257 299.754 444.098 299.579C443.86 299.309 444.066 299.055 444.273 298.912L446.13 297.61C448.131 296.197 448.369 295.689 448.735 295.689C448.989 295.689 449.147 295.863 449.147 296.117V306.852ZM460.266 306.852C460.266 307.121 460.091 307.28 459.869 307.28H459.075C458.852 307.28 458.678 307.121 458.678 306.852V297.626C458.059 298.15 456.423 299.23 455.772 299.595C455.597 299.69 455.375 299.754 455.216 299.579C454.978 299.309 455.184 299.055 455.391 298.912L457.249 297.61C459.249 296.197 459.488 295.689 459.853 295.689C460.107 295.689 460.266 295.863 460.266 296.117V306.852Z" fill="#1E1E1C"/>
<path d="M374.677 330.901C374.677 331.171 374.503 331.33 374.28 331.33H373.487C373.264 331.33 373.09 331.171 373.09 330.901V321.676C372.47 322.2 370.835 323.28 370.184 323.645C370.009 323.74 369.787 323.804 369.628 323.629C369.39 323.359 369.596 323.105 369.803 322.962L371.66 321.66C373.661 320.247 373.899 319.739 374.265 319.739C374.519 319.739 374.677 319.913 374.677 320.167V330.901ZM387.717 330.901C387.685 331.171 387.542 331.33 387.272 331.33H380.842C380.445 331.33 380.19 331.235 380.19 330.838C380.19 329.631 381.477 327.916 383.319 326.487C385.002 325.169 385.907 324.073 385.939 322.74C385.954 322.152 385.716 320.66 384.033 320.66C382.62 320.66 381.858 321.676 381.238 322.628C381.032 322.946 380.73 322.898 380.587 322.803C380.095 322.47 380.81 321.517 381.445 320.882C381.874 320.453 382.906 319.739 384.335 319.739C386.78 319.739 387.685 321.279 387.685 322.597C387.685 323.692 387.479 324.772 385.621 326.042C383.7 327.344 381.683 328.742 381.683 329.901H387.002L387.13 329.504C387.225 329.218 387.304 329.044 387.542 329.044C387.796 329.044 387.876 329.234 387.844 329.504L387.717 330.901Z" fill="#1E1E1C"/>
<path d="M301.907 309.802C301.907 310.072 301.733 310.23 301.51 310.23H300.716C300.494 310.23 300.32 310.072 300.32 309.802V300.576C299.7 301.1 298.065 302.18 297.414 302.545C297.239 302.64 297.017 302.704 296.858 302.529C296.62 302.259 296.826 302.005 297.033 301.862L298.89 300.56C300.891 299.147 301.129 298.639 301.495 298.639C301.749 298.639 301.907 298.814 301.907 299.068V309.802ZM312.597 301.275C312.597 299.496 310.342 298.782 308.754 300.783C308.5 301.1 308.214 301.053 308.087 300.957C307.786 300.735 307.992 300.243 308.484 299.782C308.929 299.369 309.786 298.639 311.311 298.639C312.851 298.639 314.09 299.369 314.248 300.576C314.455 302.116 313.296 303.387 312.486 303.641C312.803 303.561 314.55 303.815 314.995 305.372C315.916 308.547 312.851 311.914 308.564 311.66C308.294 311.644 307.833 311.612 307.817 311.31C307.802 310.897 308.23 310.961 308.77 310.945C311.422 310.866 313.089 308.865 313.391 306.721C313.581 305.419 312.851 304.181 310.866 304.514C310.58 304.562 310.295 304.514 310.247 304.228C310.199 303.942 310.485 303.8 310.707 303.673C310.961 303.53 312.597 302.704 312.597 301.275Z" fill="#1E1E1C"/>
<path d="M251.997 249.292C251.997 249.562 251.823 249.721 251.6 249.721H250.806C250.584 249.721 250.41 249.562 250.41 249.292V240.066C249.79 240.59 248.155 241.67 247.504 242.035C247.329 242.131 247.107 242.194 246.948 242.019C246.71 241.75 246.916 241.495 247.123 241.353L248.98 240.051C250.981 238.637 251.219 238.129 251.585 238.129C251.839 238.129 251.997 238.304 251.997 238.558V249.292ZM257.05 246.481C256.986 246.259 257.145 245.973 257.399 245.624L262.576 238.526C262.782 238.256 263.005 238.066 263.274 238.129C263.656 238.224 263.624 238.574 263.624 238.971V245.973H265.259C265.529 245.973 265.688 246.148 265.688 246.37C265.688 246.593 265.529 246.767 265.259 246.767H263.624V250.721C263.624 250.991 263.449 251.15 263.227 251.15H262.433C262.211 251.15 262.036 250.991 262.036 250.721V246.767L257.558 246.751C257.193 246.751 257.082 246.608 257.05 246.481ZM258.32 245.973H262.036V240.733L258.32 245.973Z" fill="#1E1E1C"/>
<path d="M251.997 173.052C251.997 173.322 251.823 173.48 251.6 173.48H250.806C250.584 173.48 250.41 173.322 250.41 173.052V163.826C249.79 164.35 248.155 165.43 247.504 165.795C247.329 165.89 247.107 165.954 246.948 165.779C246.71 165.509 246.916 165.255 247.123 165.112L248.98 163.81C250.981 162.397 251.219 161.889 251.585 161.889C251.839 161.889 251.997 162.064 251.997 162.318V173.052ZM264.402 162.365C264.561 162.365 264.831 162.445 264.799 162.794L264.735 163.366C264.704 163.715 264.402 163.794 264.243 163.794H259.4L259.225 166.732C262.115 165.239 265.005 166.097 265.005 169.13C265.005 171.464 263.02 173.862 260.877 174.544C260.178 174.767 258.384 175.259 258.416 174.56C258.431 174.211 258.844 174.211 259.225 174.163C264.37 173.528 264.481 165.541 260.178 167.097C259.384 167.383 259.019 167.843 258.654 167.701C258.336 167.574 258.4 167.272 258.416 166.875L258.685 162.826C258.717 162.619 258.765 162.365 259.162 162.365H264.402Z" fill="#1E1E1C"/>
<path d="M297.887 113.102C297.887 113.371 297.713 113.53 297.49 113.53H296.696C296.474 113.53 296.3 113.371 296.3 113.102V103.876C295.68 104.4 294.045 105.48 293.394 105.845C293.219 105.94 292.997 106.004 292.838 105.829C292.6 105.559 292.806 105.305 293.013 105.162L294.87 103.86C296.871 102.447 297.109 101.939 297.475 101.939C297.729 101.939 297.887 102.113 297.887 102.367V113.102ZM303.353 107.036C303.607 103.32 306.306 100.414 309.276 99.8904C309.546 99.8427 310.085 99.7792 310.133 100.16C310.181 100.573 309.704 100.573 309.276 100.668C306.719 101.24 305.338 104.003 305.131 106.417C306.1 105.543 306.973 105.13 307.894 105.13C309.784 105.13 311.499 106.432 311.499 108.624C311.499 110.926 309.657 112.339 307.545 112.339C305.338 112.339 303.099 110.736 303.353 107.036ZM305.115 107.687C305.258 110.497 306.354 111.545 307.719 111.545C308.99 111.545 309.736 110.45 309.752 108.83C309.768 107.417 309.117 105.924 307.719 105.924C307.021 105.924 306.195 106.448 305.115 107.687Z" fill="#1E1E1C"/>
<path d="M373.647 101.632C373.647 101.902 373.473 102.061 373.25 102.061H372.456C372.234 102.061 372.06 101.902 372.06 101.632V92.4062C371.44 92.9302 369.805 94.01 369.154 94.3752C368.979 94.4705 368.757 94.534 368.598 94.3593C368.36 94.0894 368.566 93.8353 368.773 93.6924L370.63 92.3904C372.631 90.9771 372.869 90.469 373.235 90.469C373.489 90.469 373.647 90.6437 373.647 90.8977V101.632ZM386.242 90.9454C386.576 90.9454 386.957 90.8819 386.989 91.263C387.005 91.5488 386.751 91.7393 386.417 92.0728C385.433 93.0573 382.813 95.4391 382.813 102.664C382.813 103.156 382.543 103.49 381.987 103.49C381.59 103.49 381.129 103.347 381.129 102.156C381.129 99.4723 382.987 94.5181 385.02 92.3745H379.542L379.319 93.613C379.272 93.8988 379.176 94.0418 378.938 94.0418C378.684 94.0418 378.541 93.8671 378.557 93.613L378.636 91.4376C378.636 91.3265 378.589 90.9454 379.129 90.9454H386.242Z" fill="#1E1E1C"/>
<path d="M433.467 148.731C433.467 149.001 433.293 149.16 433.07 149.16H432.276C432.054 149.16 431.879 149.001 431.879 148.731V139.506C431.26 140.03 429.625 141.11 428.974 141.475C428.799 141.57 428.577 141.634 428.418 141.459C428.18 141.189 428.386 140.935 428.593 140.792L430.45 139.49C432.451 138.077 432.689 137.569 433.055 137.569C433.309 137.569 433.467 137.743 433.467 137.997V148.731ZM441.712 141.411C440.473 140.776 439.663 139.601 439.631 138.633C439.568 136.775 440.918 135.346 443.061 135.346C445.141 135.346 446.332 136.791 446.332 138.347C446.332 139.411 445.253 140.792 444.062 141.173C445.761 141.951 446.952 143.19 446.952 144.635C446.952 146.731 445.443 147.969 442.887 147.969C440.711 147.969 439.012 146.762 439.012 144.857C439.012 143.364 439.87 142.062 441.712 141.411ZM440.6 144.889C440.6 146.27 441.759 147.255 443.141 147.239C444.459 147.223 445.364 146.397 445.364 145.063C445.364 144.095 444.792 143.047 442.49 141.967C441.235 142.443 440.6 143.476 440.6 144.889ZM441.061 138.124C441.061 139.109 441.489 139.681 443.093 140.665C444.093 140.3 444.887 139.252 444.887 138.236C444.887 137.33 444.411 136.076 442.998 136.076C441.616 136.076 441.061 137.299 441.061 138.124Z" fill="#1E1E1C"/>
<path d="M435.137 223.962C435.137 224.232 434.963 224.391 434.74 224.391H433.947C433.724 224.391 433.55 224.232 433.55 223.962V214.736C432.93 215.26 431.295 216.34 430.644 216.705C430.469 216.801 430.247 216.864 430.088 216.689C429.85 216.419 430.056 216.165 430.263 216.022L432.12 214.72C434.121 213.307 434.359 212.799 434.725 212.799C434.979 212.799 435.137 212.974 435.137 213.228V223.962ZM440.555 216.515C440.555 214.212 442.397 212.799 444.509 212.799C446.716 212.799 448.955 214.403 448.701 218.103C448.447 221.818 445.748 225.2 442.778 225.724C442.508 225.772 441.968 225.836 441.921 225.455C441.873 225.042 442.349 225.042 442.778 224.946C445.335 224.375 446.716 221.135 446.923 218.722C445.954 219.595 445.081 220.008 444.16 220.008C442.27 220.008 440.555 218.706 440.555 216.515ZM442.302 216.308C442.286 217.722 442.937 219.214 444.334 219.214C445.017 219.214 445.89 218.738 446.938 217.483C446.796 214.641 445.7 213.593 444.334 213.593C443.064 213.593 442.318 214.689 442.302 216.308Z" fill="#1E1E1C"/>
<path d="M375.039 268.731C375.007 269.001 374.864 269.16 374.594 269.16H368.163C367.766 269.16 367.512 269.065 367.512 268.668C367.512 267.461 368.798 265.746 370.64 264.317C372.323 262.999 373.229 261.904 373.26 260.57C373.276 259.982 373.038 258.49 371.355 258.49C369.942 258.49 369.179 259.506 368.56 260.459C368.354 260.776 368.052 260.729 367.909 260.633C367.417 260.3 368.131 259.347 368.767 258.712C369.195 258.283 370.227 257.569 371.657 257.569C374.102 257.569 375.007 259.109 375.007 260.427C375.007 261.522 374.801 262.602 372.943 263.873C371.021 265.175 369.005 266.572 369.005 267.731H374.324L374.451 267.334C374.546 267.048 374.626 266.874 374.864 266.874C375.118 266.874 375.197 267.064 375.166 267.334L375.039 268.731ZM386.967 263.65C386.967 266.826 384.887 269.16 382.632 269.16C380.377 269.16 378.297 266.826 378.297 263.65V263.079C378.297 259.903 380.377 257.569 382.632 257.569C384.887 257.569 386.951 259.903 386.951 263.079L386.967 263.65ZM380.044 263.349C380.044 265.921 381.108 268.366 382.632 268.366C384.14 268.366 385.22 265.921 385.22 263.349C385.22 260.76 384.14 258.363 382.632 258.363C381.108 258.363 380.044 260.76 380.044 263.349Z" fill="#1E1E1C"/>
<path d="M313.869 229.222C313.837 229.492 313.694 229.65 313.424 229.65H306.993C306.596 229.65 306.342 229.555 306.342 229.158C306.342 227.951 307.628 226.236 309.47 224.807C311.154 223.489 312.059 222.394 312.09 221.06C312.106 220.472 311.868 218.98 310.185 218.98C308.772 218.98 308.009 219.996 307.39 220.949C307.184 221.266 306.882 221.219 306.739 221.123C306.247 220.79 306.961 219.837 307.597 219.202C308.025 218.773 309.058 218.059 310.487 218.059C312.932 218.059 313.837 219.599 313.837 220.917C313.837 222.013 313.631 223.092 311.773 224.363C309.851 225.665 307.835 227.062 307.835 228.221H313.154L313.281 227.824C313.377 227.539 313.456 227.364 313.694 227.364C313.948 227.364 314.028 227.554 313.996 227.824L313.869 229.222ZM323.066 229.222C323.066 229.492 322.891 229.65 322.669 229.65H321.875C321.652 229.65 321.478 229.492 321.478 229.222V219.996C320.859 220.52 319.223 221.6 318.572 221.965C318.397 222.06 318.175 222.124 318.016 221.949C317.778 221.679 317.984 221.425 318.191 221.282L320.049 219.98C322.049 218.567 322.288 218.059 322.653 218.059C322.907 218.059 323.066 218.234 323.066 218.488V229.222Z" fill="#1E1E1C"/>
<path d="M326.409 157.901C326.377 158.171 326.234 158.33 325.964 158.33H319.533C319.136 158.33 318.882 158.235 318.882 157.838C318.882 156.631 320.168 154.916 322.01 153.487C323.693 152.169 324.599 151.073 324.63 149.74C324.646 149.152 324.408 147.66 322.725 147.66C321.312 147.66 320.549 148.676 319.93 149.628C319.724 149.946 319.422 149.898 319.279 149.803C318.787 149.47 319.501 148.517 320.137 147.882C320.565 147.453 321.597 146.739 323.027 146.739C325.472 146.739 326.377 148.279 326.377 149.597C326.377 150.692 326.171 151.772 324.313 153.042C322.391 154.344 320.375 155.742 320.375 156.901H325.694L325.821 156.504C325.916 156.218 325.996 156.044 326.234 156.044C326.488 156.044 326.567 156.234 326.536 156.504L326.409 157.901ZM337.527 157.901C337.495 158.171 337.352 158.33 337.082 158.33H330.651C330.254 158.33 330 158.235 330 157.838C330 156.631 331.287 154.916 333.129 153.487C334.812 152.169 335.717 151.073 335.749 149.74C335.764 149.152 335.526 147.66 333.843 147.66C332.43 147.66 331.668 148.676 331.048 149.628C330.842 149.946 330.54 149.898 330.397 149.803C329.905 149.47 330.62 148.517 331.255 147.882C331.684 147.453 332.716 146.739 334.145 146.739C336.59 146.739 337.495 148.279 337.495 149.597C337.495 150.692 337.289 151.772 335.431 153.042C333.51 154.344 331.493 155.742 331.493 156.901H336.812L336.939 156.504C337.035 156.218 337.114 156.044 337.352 156.044C337.606 156.044 337.686 156.234 337.654 156.504L337.527 157.901Z" fill="#1E1E1C"/>
<path d="M395.259 163.342C395.227 163.612 395.084 163.771 394.814 163.771H388.383C387.986 163.771 387.732 163.675 387.732 163.278C387.732 162.071 389.018 160.357 390.86 158.927C392.543 157.61 393.449 156.514 393.48 155.18C393.496 154.593 393.258 153.1 391.575 153.1C390.162 153.1 389.399 154.116 388.78 155.069C388.574 155.386 388.272 155.339 388.129 155.244C387.637 154.91 388.351 153.957 388.987 153.322C389.415 152.894 390.447 152.179 391.877 152.179C394.322 152.179 395.227 153.719 395.227 155.037C395.227 156.133 395.021 157.213 393.163 158.483C391.241 159.785 389.225 161.182 389.225 162.341H394.544L394.671 161.944C394.766 161.659 394.846 161.484 395.084 161.484C395.338 161.484 395.418 161.675 395.386 161.944L395.259 163.342ZM404.027 154.815C404.027 153.036 401.772 152.322 400.184 154.323C399.93 154.64 399.644 154.593 399.517 154.497C399.216 154.275 399.422 153.783 399.914 153.322C400.359 152.909 401.216 152.179 402.741 152.179C404.281 152.179 405.52 152.909 405.678 154.116C405.885 155.656 404.726 156.927 403.916 157.181C404.233 157.101 405.98 157.355 406.425 158.912C407.346 162.087 404.281 165.454 399.994 165.2C399.724 165.184 399.263 165.152 399.247 164.85C399.232 164.437 399.66 164.501 400.2 164.485C402.852 164.406 404.519 162.405 404.821 160.261C405.011 158.959 404.281 157.721 402.296 158.054C402.01 158.102 401.725 158.054 401.677 157.768C401.629 157.483 401.915 157.34 402.137 157.213C402.391 157.07 404.027 156.244 404.027 154.815Z" fill="#1E1E1C"/>
<path d="M139.536 272.09C141.778 272.09 143.596 270.295 143.596 268.08C143.596 265.866 141.778 264.07 139.536 264.07C137.294 264.07 135.476 265.866 135.476 268.08C135.476 270.295 137.294 272.09 139.536 272.09Z" fill="#1E1E1C"/>
<path d="M136.406 184.43C138.648 184.43 140.466 182.635 140.466 180.42C140.466 178.205 138.648 176.41 136.406 176.41C134.164 176.41 132.346 178.205 132.346 180.42C132.346 182.635 134.164 184.43 136.406 184.43Z" fill="#1E1E1C"/>
<path d="M159.826 112.47C162.068 112.47 163.886 110.675 163.886 108.46C163.886 106.246 162.068 104.45 159.826 104.45C157.584 104.45 155.766 106.246 155.766 108.46C155.766 110.675 157.584 112.47 159.826 112.47Z" fill="#1E1E1C"/>
<path d="M206.566 57.27C208.808 57.27 210.626 55.4747 210.626 53.26C210.626 51.0453 208.808 49.25 206.566 49.25C204.324 49.25 202.506 51.0453 202.506 53.26C202.506 55.4747 204.324 57.27 206.566 57.27Z" fill="#1E1E1C"/>
<path d="M274.616 20.48C276.858 20.48 278.676 18.6846 278.676 16.47C278.676 14.2553 276.858 12.46 274.616 12.46C272.374 12.46 270.556 14.2553 270.556 16.47C270.556 18.6846 272.374 20.48 274.616 20.48Z" fill="#1E1E1C"/>
<path d="M351.666 14.8305C353.908 14.8305 355.726 13.0352 355.726 10.8205C355.726 8.60589 353.908 6.81055 351.666 6.81055C349.424 6.81055 347.606 8.60589 347.606 10.8205C347.606 13.0352 349.424 14.8305 351.666 14.8305Z" fill="#1E1E1C"/>
<path d="M423.016 41.5903C425.258 41.5903 427.076 39.795 427.076 37.5803C427.076 35.3657 425.258 33.5703 423.016 33.5703C420.774 33.5703 418.956 35.3657 418.956 37.5803C418.956 39.795 420.774 41.5903 423.016 41.5903Z" fill="#1E1E1C"/>
<path d="M477.826 97.4409C480.068 97.4409 481.886 95.6456 481.886 93.4309C481.886 91.2162 480.068 89.4209 477.826 89.4209C475.584 89.4209 473.766 91.2162 473.766 93.4309C473.766 95.6456 475.584 97.4409 477.826 97.4409Z" fill="#1E1E1C"/>
<path d="M501.606 173.201C503.848 173.201 505.666 171.405 505.666 169.191C505.666 166.976 503.848 165.181 501.606 165.181C499.364 165.181 497.546 166.976 497.546 169.191C497.546 171.405 499.364 173.201 501.606 173.201Z" fill="#1E1E1C"/>
<path d="M485.646 247.96C487.888 247.96 489.706 246.165 489.706 243.95C489.706 241.736 487.888 239.94 485.646 239.94C483.404 239.94 481.586 241.736 481.586 243.95C481.586 246.165 483.404 247.96 485.646 247.96Z" fill="#1E1E1C"/>
<path d="M434.926 306.111C437.168 306.111 438.986 304.315 438.986 302.101C438.986 299.886 437.168 298.091 434.926 298.091C432.684 298.091 430.866 299.886 430.866 302.101C430.866 304.315 432.684 306.111 434.926 306.111Z" fill="#1E1E1C"/>
<path d="M360.456 330.161C362.698 330.161 364.516 328.365 364.516 326.151C364.516 323.936 362.698 322.141 360.456 322.141C358.214 322.141 356.396 323.936 356.396 326.151C356.396 328.365 358.214 330.161 360.456 330.161Z" fill="#1E1E1C"/>
<path d="M287.686 309.06C289.928 309.06 291.746 307.265 291.746 305.05C291.746 302.835 289.928 301.04 287.686 301.04C285.444 301.04 283.626 302.835 283.626 305.05C283.626 307.265 285.444 309.06 287.686 309.06Z" fill="#1E1E1C"/>
<path d="M237.776 248.55C240.018 248.55 241.836 246.755 241.836 244.54C241.836 242.326 240.018 240.53 237.776 240.53C235.534 240.53 233.716 242.326 233.716 244.54C233.716 246.755 235.534 248.55 237.776 248.55Z" fill="#1E1E1C"/>
<path d="M235.996 172.31C238.238 172.31 240.056 170.515 240.056 168.3C240.056 166.085 238.238 164.29 235.996 164.29C233.754 164.29 231.936 166.085 231.936 168.3C231.936 170.515 233.754 172.31 235.996 172.31Z" fill="#1E1E1C"/>
<path d="M283.666 112.371C285.908 112.371 287.726 110.575 287.726 108.361C287.726 106.146 285.908 104.351 283.666 104.351C281.424 104.351 279.606 106.146 279.606 108.361C279.606 110.575 281.424 112.371 283.666 112.371Z" fill="#1E1E1C"/>
<path d="M359.426 100.89C361.668 100.89 363.486 99.0948 363.486 96.8801C363.486 94.6655 361.668 92.8701 359.426 92.8701C357.184 92.8701 355.366 94.6655 355.366 96.8801C355.366 99.0948 357.184 100.89 359.426 100.89Z" fill="#1E1E1C"/>
<path d="M419.246 147.991C421.488 147.991 423.306 146.195 423.306 143.981C423.306 141.766 421.488 139.971 419.246 139.971C417.004 139.971 415.186 141.766 415.186 143.981C415.186 146.195 417.004 147.991 419.246 147.991Z" fill="#1E1E1C"/>
<path d="M420.916 223.22C423.158 223.22 424.976 221.425 424.976 219.21C424.976 216.996 423.158 215.2 420.916 215.2C418.674 215.2 416.856 216.996 416.856 219.21C416.856 221.425 418.674 223.22 420.916 223.22Z" fill="#1E1E1C"/>
<path d="M358.896 267.991C361.138 267.991 362.956 266.195 362.956 263.981C362.956 261.766 361.138 259.971 358.896 259.971C356.654 259.971 354.836 261.766 354.836 263.981C354.836 266.195 356.654 267.991 358.896 267.991Z" fill="#1E1E1C"/>
<path d="M297.726 228.48C299.968 228.48 301.786 226.685 301.786 224.47C301.786 222.255 299.968 220.46 297.726 220.46C295.484 220.46 293.666 222.255 293.666 224.47C293.666 226.685 295.484 228.48 297.726 228.48Z" fill="#1E1E1C"/>
<path d="M310.266 157.161C312.508 157.161 314.326 155.365 314.326 153.151C314.326 150.936 312.508 149.141 310.266 149.141C308.024 149.141 306.206 150.936 306.206 153.151C306.206 155.365 308.024 157.161 310.266 157.161Z" fill="#1E1E1C"/>
<path d="M379.116 162.6C381.358 162.6 383.176 160.805 383.176 158.59C383.176 156.375 381.358 154.58 379.116 154.58C376.874 154.58 375.056 156.375 375.056 158.59C375.056 160.805 376.874 162.6 379.116 162.6Z" fill="#1E1E1C"/>
<path d="M389.273 211.771C389.241 212.041 389.098 212.2 388.828 212.2H382.397C382 212.2 381.746 212.105 381.746 211.708C381.746 210.501 383.032 208.786 384.874 207.357C386.557 206.039 387.462 204.944 387.494 203.61C387.51 203.022 387.272 201.53 385.589 201.53C384.176 201.53 383.413 202.546 382.794 203.499C382.588 203.816 382.286 203.769 382.143 203.673C381.651 203.34 382.365 202.387 383.001 201.752C383.429 201.323 384.461 200.609 385.89 200.609C388.336 200.609 389.241 202.149 389.241 203.467C389.241 204.562 389.034 205.642 387.177 206.913C385.255 208.215 383.239 209.612 383.239 210.771H388.558L388.685 210.374C388.78 210.088 388.86 209.914 389.098 209.914C389.352 209.914 389.431 210.104 389.4 210.374L389.273 211.771ZM392.404 208.961C392.34 208.739 392.499 208.453 392.753 208.103L397.93 201.006C398.136 200.736 398.358 200.545 398.628 200.609C399.009 200.704 398.978 201.053 398.978 201.45V208.453H400.613C400.883 208.453 401.042 208.627 401.042 208.85C401.042 209.072 400.883 209.247 400.613 209.247H398.978V213.201C398.978 213.47 398.803 213.629 398.581 213.629H397.787C397.565 213.629 397.39 213.47 397.39 213.201V209.247L392.912 209.231C392.547 209.231 392.436 209.088 392.404 208.961ZM393.674 208.453H397.39V203.213L393.674 208.453Z" fill="#1E1E1C"/>
<path d="M373.13 211.03C375.372 211.03 377.19 209.234 377.19 207.02C377.19 204.805 375.372 203.01 373.13 203.01C370.888 203.01 369.07 204.805 369.07 207.02C369.07 209.234 370.888 211.03 373.13 211.03Z" fill="#1E1E1C"/>
<path d="M352.203 197.571C352.171 197.841 352.028 198 351.758 198H345.327C344.93 198 344.676 197.905 344.676 197.508C344.676 196.301 345.962 194.586 347.804 193.157C349.487 191.839 350.393 190.743 350.424 189.41C350.44 188.822 350.202 187.329 348.519 187.329C347.106 187.329 346.343 188.346 345.724 189.298C345.518 189.616 345.216 189.568 345.073 189.473C344.581 189.14 345.295 188.187 345.931 187.552C346.359 187.123 347.391 186.408 348.821 186.408C351.266 186.408 352.171 187.949 352.171 189.267C352.171 190.362 351.965 191.442 350.107 192.712C348.185 194.014 346.169 195.412 346.169 196.571H351.488L351.615 196.174C351.71 195.888 351.79 195.713 352.028 195.713C352.282 195.713 352.362 195.904 352.33 196.174L352.203 197.571ZM362.686 186.885C362.845 186.885 363.115 186.964 363.083 187.314L363.019 187.885C362.988 188.235 362.686 188.314 362.527 188.314H357.684L357.509 191.252C360.399 189.759 363.289 190.616 363.289 193.649C363.289 195.983 361.304 198.381 359.161 199.064C358.462 199.286 356.668 199.778 356.7 199.08C356.715 198.73 357.128 198.73 357.509 198.683C362.654 198.048 362.765 190.061 358.462 191.617C357.668 191.903 357.303 192.363 356.938 192.22C356.62 192.093 356.684 191.791 356.7 191.394L356.969 187.345C357.001 187.139 357.049 186.885 357.446 186.885H362.686Z" fill="#1E1E1C"/>
<path d="M336.06 196.83C338.302 196.83 340.12 195.034 340.12 192.82C340.12 190.605 338.302 188.81 336.06 188.81C333.818 188.81 332 190.605 332 192.82C332 195.034 333.818 196.83 336.06 196.83Z" fill="#1E1E1C"/>
<path d="M13.5061 81.1102C14.5561 85.5802 15.6461 90.2002 16.7161 94.8302C17.1161 96.5802 17.5461 98.3302 17.8161 100.11C18.2661 103.03 18.4961 106 19.0261 108.91C19.5061 111.59 20.3761 114.21 20.8661 116.89C21.9561 122.82 22.9261 128.76 23.9161 134.71C24.4661 138.03 24.7661 141.41 25.4961 144.69C26.0161 147.03 27.0661 149.25 27.9361 151.67C33.2361 150.39 38.2961 149.17 43.8361 147.84C43.5861 145.44 43.3561 142.73 43.0161 140.04C42.5261 136.18 42.0161 132.31 41.3861 128.47C40.9461 125.78 40.1761 123.15 39.7261 120.46C39.1461 117.05 38.1061 113.75 37.9161 110.23C37.6661 105.41 37.0361 100.58 36.2461 95.8102C35.7661 92.9102 34.4261 90.1702 33.8961 87.2702C33.0261 82.5302 31.2661 78.0002 31.1461 73.0702C31.0961 70.8902 30.5761 68.5302 28.7161 66.7102C27.3761 65.4002 26.3361 63.7102 25.4661 62.0302C23.4161 58.0902 25.4761 53.7202 29.0261 51.7702C31.9361 50.1702 34.8961 49.6302 38.1261 49.8402C41.0261 50.0302 43.2161 51.3702 44.4961 53.9202C46.1761 57.2802 47.3061 60.7102 45.9961 64.6102C45.3261 66.6002 44.2561 67.9202 42.5261 68.9202C39.4661 70.6802 38.9861 71.8302 39.7361 75.2902C40.5461 78.9902 41.5661 82.6702 42.1061 86.4102C42.8861 91.8202 44.8161 97.0302 44.8461 102.58C44.8461 104.11 45.6261 105.65 46.1061 107.17C47.0861 110.28 48.3761 113.31 49.0461 116.48C49.7261 119.66 49.7861 122.98 50.1561 126.23C50.4361 128.65 50.7861 131.05 51.0861 133.47C51.6761 138.26 52.2561 143.05 52.8561 147.91C60.3961 152.05 64.8861 158.85 68.1561 166.54C72.5161 176.8 76.5961 187.19 80.9361 197.46C83.5661 203.67 85.7361 210.14 89.4961 215.76C92.4461 220.18 94.6561 224.92 97.1161 229.58C99.7561 234.58 102.786 239.41 106.006 244.06C108.446 247.58 111.656 250.26 116.276 250.83C119.396 251.21 122.456 252.06 125.546 252.7C125.856 252.77 126.256 252.76 126.456 252.96C126.856 253.36 127.146 253.87 127.486 254.34C127.006 254.67 126.496 255.33 126.066 255.28C123.656 255 121.226 254.73 118.876 254.13C115.806 253.34 112.806 252.27 109.786 251.29C108.226 250.78 106.996 249.95 106.236 248.35C105.256 246.27 103.396 244.81 102.086 242.9C98.0661 237.04 94.7261 230.86 91.7361 224.44C90.6861 222.19 88.9961 220.24 87.7361 218.07C85.9461 214.96 84.0561 211.88 82.6261 208.6C80.7661 204.36 79.3561 199.92 77.6861 195.6C76.6961 193.04 75.5761 190.53 74.5361 187.99C73.3061 185 72.1361 181.98 70.8661 179C70.2561 177.56 69.4061 176.23 68.7661 174.8C67.0161 170.83 65.4561 166.77 63.5561 162.88C61.7461 159.16 59.1561 155.91 56.1061 153.11C54.9661 152.06 53.4861 151.3 52.0461 150.67C50.7161 150.08 49.9161 149.28 49.9861 147.84C50.2261 143.18 48.8361 138.7 48.5361 134.07C48.0661 126.83 46.4161 119.67 45.2361 112.48C45.0961 111.65 44.8561 110.79 44.4761 110.05C42.3561 106 42.0961 101.55 41.5861 97.1402C41.4461 95.8802 41.1661 94.6402 40.8761 93.4002C39.6361 87.9902 38.2261 82.6102 37.1761 77.1602C36.7661 75.0202 36.7261 72.6302 37.2461 70.5502C37.5761 69.2402 39.0861 67.8102 40.4061 67.2702C43.4161 66.0402 43.4461 63.4002 43.8161 61.0202C44.1861 58.6302 43.2361 56.4002 41.6561 54.5402C40.1061 52.7202 38.2561 52.0402 35.7461 52.3902C33.1161 52.7602 30.9061 53.8402 28.7861 55.2302C27.2961 56.2102 26.8261 59.1402 27.7261 61.0702C28.0361 61.7302 28.3961 62.4902 28.9561 62.9002C33.3461 66.1002 33.8761 70.8002 34.0761 75.6702C34.1261 76.9302 34.3661 78.2002 34.6761 79.4202C36.3761 86.1702 38.1561 92.9002 39.8161 99.6502C40.1361 100.97 40.2361 102.39 40.1561 103.75C39.8561 109.2 40.9661 114.44 42.1961 119.7C43.1561 123.79 43.6061 128.01 44.2761 132.17C44.7561 135.18 45.3161 138.19 45.6861 141.22C45.9961 143.72 46.2561 146.25 46.2261 148.77C46.2061 150.97 45.7161 150.85 43.4761 151.01C40.2261 151.25 37.0061 151.93 33.8161 152.62C31.9561 153.02 30.1961 153.8 28.3661 154.38C26.4461 154.98 25.1961 154.38 24.7761 152.41C23.8361 147.96 22.4461 143.62 22.0961 139.03C21.8661 135.91 20.9261 132.84 20.3561 129.74C20.0161 127.9 19.8661 126.02 19.4961 124.18C18.5861 119.71 17.5161 115.27 16.6761 110.79C15.8661 106.47 15.2961 102.11 14.5261 97.7802C14.2561 96.2302 13.6161 94.7502 13.3061 93.2002C12.5061 89.2702 11.7361 85.3302 11.0761 81.3702C10.8661 80.1002 11.0761 78.7302 12.5361 78.1702C15.4161 77.0702 15.6661 74.2202 16.0561 71.9602C16.4861 69.5202 15.4961 66.9502 13.6361 65.0102C13.3161 64.6702 12.6961 64.5902 12.1961 64.4602C7.96608 63.4002 2.72608 66.3802 2.62608 71.4902C2.54608 75.6102 3.83608 78.3402 6.91608 79.5502C8.17608 80.0402 8.42608 80.7502 8.47608 82.1902C8.58608 85.2102 9.10608 88.2502 9.77608 91.2202C10.7761 95.6602 12.4461 99.9802 13.0861 104.45C13.9761 110.6 15.7061 116.57 16.0561 122.86C16.4161 129.27 17.6561 135.69 19.1161 141.96C20.0361 145.89 20.4661 149.88 21.3561 153.79C21.7761 155.65 21.4461 157.48 20.4861 158.61C18.4461 161.02 18.1761 163.86 17.8561 166.63C17.5761 169.12 17.9561 171.69 18.1161 174.22C18.3061 177.18 18.3761 180.17 18.8361 183.1C19.6061 188 20.6761 192.85 21.5461 197.74C22.3561 202.32 23.5661 206.76 25.0461 211.2C26.7761 216.39 27.8461 221.82 29.0161 227.19C30.9361 235.97 32.7261 244.78 34.5161 253.58C34.8061 254.99 34.8961 256.45 34.9261 257.88C35.1061 265.27 35.1361 272.67 35.4361 280.06C35.5661 283.32 35.9861 286.62 36.6661 289.81C37.9661 295.91 39.5761 301.95 41.0061 308.02C41.2261 308.94 41.1061 309.93 41.2561 310.86C41.4261 311.88 41.6361 312.91 42.0061 313.87C42.5261 315.24 43.2961 316.52 43.7761 317.91C44.9261 321.2 45.7261 324.64 47.1061 327.83C48.6061 331.29 49.1961 334.92 50.0061 338.53C50.8961 342.44 51.8261 346.34 52.5161 350.28C52.8161 352.01 52.6661 353.86 52.5061 355.63C52.2561 358.33 52.1461 361.1 51.3861 363.67C50.2461 367.5 49.0561 371.41 46.5961 374.65C43.7961 378.35 40.7561 381.87 37.8161 385.46C37.6161 385.71 37.3261 385.88 37.1261 386.12C34.2061 389.79 35.1361 393.38 39.4661 395.34C41.0961 396.08 42.6161 397.09 44.2861 397.7C46.8461 398.63 49.4361 399.59 52.1061 400.02C54.7761 400.45 57.5661 400.42 60.2861 400.27C66.2061 399.96 71.9761 398.97 77.4861 396.49C81.3261 394.76 85.4561 393.69 89.3561 392.08C93.5361 390.35 97.5661 388.23 101.736 386.46C109.016 383.37 116.616 381.32 124.546 381.91C129.676 382.3 134.676 383.72 139.416 386.04C144.046 388.31 148.886 390.12 153.656 392.1C155.896 393.03 158.246 393.73 160.426 394.8C164.306 396.71 168.566 397.17 172.686 398.09C176.176 398.87 179.776 399.24 183.346 399.51C188.096 399.87 192.856 400.01 197.616 400.13C204.026 400.29 210.266 399 216.446 397.51C221.586 396.27 226.626 394.63 231.756 393.34C236.696 392.1 240.976 389.4 245.586 387.42C247.816 386.46 250.046 385.52 252.296 384.6C254.156 383.84 256.046 383.14 257.906 382.37C260.396 381.34 262.756 380.22 265.586 379.95C269.556 379.57 273.646 378.59 277.466 379.48C281.976 380.54 286.746 380.09 291.086 382.28C293.676 383.59 296.826 383.72 299.516 384.87C305.226 387.31 310.926 389.84 316.406 392.75C325.526 397.6 334.936 401.54 345.346 402.04C350.696 402.29 356.126 402.65 361.496 401.26C366.996 399.83 372.626 398.93 378.166 397.68C379.976 397.27 381.676 396.39 383.476 395.86C385.986 395.13 388.556 394.58 391.076 393.87C395.546 392.61 400.006 391.32 404.456 389.99C407.766 389 411.046 387.91 414.356 386.9C415.366 386.59 416.426 386.22 417.466 386.22C420.606 386.22 423.476 385.05 426.466 384.4C428.676 383.92 430.756 382.9 433.256 383.43C434.626 383.72 436.246 382.72 437.776 382.47C440.996 381.93 444.226 381.48 447.456 381.03C448.086 380.94 448.736 381.08 449.366 381C457.246 380.09 464.846 381.86 472.476 383.38C478.046 384.49 483.626 385.57 489.186 386.77C492.486 387.48 495.746 388.36 499.006 389.2C508.086 391.53 517.116 394.04 526.256 396.13C529.176 396.8 532.356 396.4 535.416 396.37C539.436 396.33 543.446 396.07 547.456 396.07C553.616 396.07 559.646 395.07 565.686 394.03C568.076 393.62 569.676 392.16 571.336 390.77C572.526 389.77 573.426 388.41 574.376 387.15C574.676 386.75 574.876 386.16 574.866 385.66C574.706 379.37 573.746 373.44 568.136 369.32C565.676 367.51 563.616 365.14 561.126 363.39C557.336 360.73 553.356 358.34 549.416 355.91C544.906 353.13 540.346 350.45 535.816 347.71C531.326 344.99 526.356 342.79 522.486 339.36C517.256 334.71 511.456 330.42 508.086 323.92C507.276 322.36 505.736 321.2 504.646 319.77C500.886 314.78 496.606 310.27 491.746 306.4C489.336 304.48 486.406 303.16 483.576 301.84C479.896 300.11 476.076 298.68 472.346 297.03C471.716 296.75 471.186 296.1 470.796 295.5C470.556 295.13 470.486 294.4 470.706 294.07C470.916 293.74 471.616 293.52 472.056 293.59C472.876 293.71 473.766 293.91 474.446 294.36C478.596 297.14 483.386 298.56 487.736 300.85C491.706 302.95 495.346 305.68 498.596 308.98C503.506 313.97 507.856 319.34 511.946 325C514.606 328.68 517.926 331.77 521.316 334.82C526.596 339.58 532.786 342.85 538.816 346.42C541.986 348.29 545.006 350.4 548.146 352.32C549.396 353.08 550.836 353.52 552.086 354.27C559.356 358.59 566.306 363.41 572.356 369.31C574.356 371.26 575.466 374.33 576.396 377.08C577.216 379.51 577.276 382.21 577.526 384.81C577.606 385.7 577.426 386.73 577.026 387.52C575.946 389.65 574.636 391.64 572.606 393.03C570.196 394.68 568.056 396.98 564.706 396.51C558.096 399 551.126 398.42 544.286 398.98C543.646 399.03 542.996 398.96 542.376 399.08C539.436 399.63 536.546 399.81 533.556 399.17C531.726 398.78 529.716 399.25 527.846 398.94C524.006 398.3 520.176 397.51 516.396 396.57C508.486 394.6 500.626 392.45 492.716 390.47C487.186 389.09 481.646 387.7 476.056 386.64C469.426 385.38 462.756 384.21 456.056 383.49C452.556 383.11 448.916 383.63 445.376 384.03C440.646 384.56 435.946 385.31 431.246 386.07C429.056 386.43 426.926 387.08 424.756 387.53C421.566 388.19 418.346 388.74 415.156 389.43C413.816 389.72 412.546 390.28 411.216 390.65C404.816 392.43 398.316 393.9 392.046 396.04C384.656 398.56 377.126 400.56 369.636 402.64C363.086 404.46 356.286 404.74 349.486 404.8C341.036 404.88 332.906 403.34 325.206 399.93C320.096 397.67 315.226 394.86 310.176 392.47C306.226 390.6 301.986 389.27 298.176 387.16C294.936 385.37 291.286 385.41 287.956 384.03C285.296 382.92 282.196 382.62 279.266 382.44C274.426 382.15 269.546 381.62 264.746 382.89C263.236 383.29 261.706 383.68 260.256 384.26C254.206 386.68 248.026 388.76 242.266 391.91C236.046 395.32 229.186 397.13 222.356 398.9C217.856 400.07 213.356 401.57 208.766 401.94C201.356 402.54 193.946 403.9 186.426 402.26C182.416 401.38 178.196 401.52 174.116 400.87C168.676 400.01 163.266 398.94 158.096 396.93C154.846 395.67 151.526 394.56 148.306 393.22C144.906 391.8 141.566 390.22 138.236 388.65C133.376 386.36 128.426 384.93 122.906 384.68C115.006 384.33 107.996 386.71 100.986 389.72C92.1261 393.53 83.4061 397.67 74.1461 400.48C67.1561 402.6 60.0361 403.27 52.7961 402.83C51.3261 402.74 49.8461 402.39 48.4261 401.98C43.8061 400.65 39.5361 398.49 35.5361 395.92C32.3961 393.9 31.7861 390.21 33.7261 387.01C34.8661 385.12 35.9361 383.2 37.8561 381.82C38.9861 381.01 39.6261 379.51 40.5061 378.34C43.4761 374.39 46.8961 370.7 48.0461 365.68C48.6361 363.11 49.1561 360.52 49.7261 357.94C50.8761 352.7 49.7461 347.72 48.2861 342.7C47.2861 339.26 46.8361 335.67 45.9861 332.19C45.5161 330.25 44.7161 328.38 44.0761 326.48C43.1261 323.69 42.1861 320.9 41.2361 318.12C40.9261 317.21 40.5861 316.32 40.2761 315.41C39.4861 313.12 38.5561 310.86 37.9561 308.52C37.3261 306.08 37.0761 303.54 36.5661 301.07C35.8861 297.77 35.0461 294.49 34.4261 291.18C33.7261 287.43 32.9561 283.66 32.6561 279.86C32.4161 276.72 33.0261 273.53 32.8861 270.37C32.6261 264.37 32.3261 258.36 31.6161 252.4C31.0761 247.92 29.9061 243.51 28.9761 239.08C28.2361 235.57 27.4761 232.06 26.6661 228.56C25.9561 225.48 25.2161 222.41 24.3961 219.36C22.6661 212.98 20.6161 206.67 19.1661 200.23C17.7461 193.95 16.4161 187.57 15.9761 181.17C15.5261 174.57 14.1761 167.85 16.3361 161.26C16.6861 160.19 17.1061 159.05 17.8161 158.21C18.7161 157.13 19.1861 156 18.8761 154.7C18.0161 151.11 18.4161 147.27 16.6261 143.87C16.4861 143.61 16.4961 143.25 16.4761 142.94C16.0361 136.5 14.4861 130.25 13.3861 123.92C12.6961 119.96 12.7461 115.86 11.9461 111.93C10.5561 105.08 8.71608 98.3302 7.15608 91.5102C6.56608 88.9502 6.03608 86.3402 5.80608 83.7302C5.69608 82.5402 5.30608 81.8202 4.49608 81.0702C-0.00392294 76.9102 -1.23392 72.3902 1.29608 67.0202C2.17608 65.1602 4.16608 63.4902 6.06608 62.5302C7.84608 61.6402 10.1661 61.5002 12.2361 61.5802C15.7261 61.7102 17.1161 64.6502 18.2361 67.3002C19.8061 71.0102 18.3461 74.6002 16.7461 77.9702C16.2361 79.0402 14.9661 79.7402 13.5161 81.1202L13.5061 81.1102Z" fill="black"/>
<path d="M30.7761 180.151C33.3061 177.291 36.3261 176.321 39.2361 175.181C41.0861 174.451 42.9861 173.871 44.7861 173.041C46.7861 172.121 48.4261 172.911 48.5261 175.151C48.5761 176.191 48.1961 177.241 48.1461 178.301C47.9561 181.981 47.8161 185.671 47.6561 189.361C47.6261 190.001 47.6561 190.631 47.6061 191.271C47.4961 192.621 46.9661 194.081 45.6261 194.161C44.4561 194.231 42.9661 193.601 42.0661 192.791C40.2161 191.121 38.6661 189.131 37.0061 187.261C34.9861 184.991 32.9861 182.701 30.7661 180.171L30.7761 180.151Z" fill="black"/>
<path d="M36.296 56.2002C36.576 56.2802 37.4361 56.3902 38.1961 56.7302C40.2261 57.6502 40.716 59.6002 39.476 61.4402C38.276 63.2202 35.9761 64.1902 34.3261 63.6202C32.6861 63.0602 31.346 61.2202 31.546 59.8202C31.846 57.7602 33.586 56.2602 36.296 56.2002Z" fill="black"/>
<path d="M9.48607 75.8406C7.45607 75.6306 6.07607 74.9606 5.54607 73.0006C4.80607 70.2506 6.52607 67.7906 9.38607 67.8306C9.90607 67.8306 10.6561 68.2506 10.8861 68.6906C12.3461 71.4206 12.6761 73.5506 10.3061 75.1506C10.0461 75.3306 9.82607 75.5606 9.48607 75.8406Z" fill="black"/>
</svg>
