<svg width="26" height="18" viewBox="0 0 26 18" fill="none" xmlns="http://www.w3.org/2000/svg">
<g clip-path="url(#clip0_56_528)">
<path d="M21.3459 13.1681C21.3459 13.4401 21.1699 13.6001 20.9459 13.6001H20.1459C19.9219 13.6001 19.7459 13.4401 19.7459 13.1681V3.8721C19.1219 4.4001 17.4739 5.4881 16.8179 5.8561C16.6419 5.9521 16.4179 6.0161 16.2579 5.8401C16.0179 5.5681 16.2259 5.3121 16.4339 5.1681L18.3059 3.8561C20.3219 2.4321 20.5619 1.9201 20.9299 1.9201C21.1859 1.9201 21.3459 2.0961 21.3459 2.3521V13.1681Z" fill="#1D1D1B"/>
<path d="M4.06 11.8402C6.30228 11.8402 8.12 10.0225 8.12 7.78022C8.12 5.53794 6.30228 3.72021 4.06 3.72021C1.81772 3.72021 0 5.53794 0 7.78022C0 10.0225 1.81772 11.8402 4.06 11.8402Z" fill="#1D1D1B"/>
</g>
<defs>
<clipPath id="clip0_56_528">
<rect width="25.33" height="17.12" fill="white"/>
</clipPath>
</defs>
</svg>
