<svg width="419" height="419" viewBox="0 0 419 419" fill="none" xmlns="http://www.w3.org/2000/svg">
<path d="M62.0661 228.868C62.0661 229.14 61.8901 229.3 61.6661 229.3H60.8661C60.6421 229.3 60.4661 229.14 60.4661 228.868V219.572C59.8421 220.1 58.1941 221.188 57.5381 221.556C57.3621 221.652 57.1381 221.716 56.9781 221.54C56.7381 221.268 56.9461 221.012 57.1541 220.868L59.0261 219.556C61.0421 218.132 61.2821 217.62 61.6501 217.62C61.9061 217.62 62.0661 217.796 62.0661 218.052V228.868Z" fill="#1D1D1B"/>
<path d="M44.78 227.54C47.0222 227.54 48.84 225.722 48.84 223.48C48.84 221.238 47.0222 219.42 44.78 219.42C42.5377 219.42 40.72 221.238 40.72 223.48C40.72 225.722 42.5377 227.54 44.78 227.54Z" fill="#1D1D1B"/>
<path d="M193.692 242.378C193.66 242.65 193.516 242.81 193.244 242.81H186.764C186.364 242.81 186.108 242.714 186.108 242.314C186.108 241.098 187.404 239.37 189.26 237.93C190.956 236.602 191.868 235.498 191.9 234.154C191.916 233.562 191.676 232.058 189.98 232.058C188.556 232.058 187.788 233.082 187.164 234.042C186.956 234.362 186.652 234.314 186.508 234.218C186.012 233.882 186.732 232.922 187.372 232.282C187.804 231.85 188.844 231.13 190.284 231.13C192.748 231.13 193.66 232.682 193.66 234.01C193.66 235.114 193.452 236.202 191.58 237.482C189.644 238.794 187.612 240.202 187.612 241.37H192.972L193.1 240.97C193.196 240.682 193.276 240.506 193.516 240.506C193.772 240.506 193.852 240.698 193.82 240.97L193.692 242.378Z" fill="#1D1D1B"/>
<path d="M174.47 241.05C176.712 241.05 178.53 239.232 178.53 236.99C178.53 234.747 176.712 232.93 174.47 232.93C172.228 232.93 170.41 234.747 170.41 236.99C170.41 239.232 172.228 241.05 174.47 241.05Z" fill="#1D1D1B"/>
<path d="M178.024 364.096C178.024 362.304 175.752 361.584 174.152 363.6C173.896 363.92 173.608 363.872 173.48 363.776C173.176 363.552 173.384 363.056 173.88 362.592C174.328 362.176 175.192 361.44 176.728 361.44C178.28 361.44 179.528 362.176 179.688 363.392C179.896 364.944 178.728 366.224 177.912 366.48C178.232 366.4 179.992 366.656 180.44 368.224C181.368 371.424 178.28 374.816 173.96 374.56C173.688 374.544 173.224 374.512 173.208 374.208C173.192 373.792 173.624 373.856 174.168 373.84C176.84 373.76 178.52 371.744 178.824 369.584C179.016 368.272 178.28 367.024 176.28 367.36C175.992 367.408 175.704 367.36 175.656 367.072C175.608 366.784 175.896 366.64 176.12 366.512C176.376 366.368 178.024 365.536 178.024 364.096Z" fill="#1D1D1B"/>
<path d="M161.17 371.36C163.412 371.36 165.23 369.543 165.23 367.3C165.23 365.058 163.412 363.24 161.17 363.24C158.928 363.24 157.11 365.058 157.11 367.3C157.11 369.543 158.928 371.36 161.17 371.36Z" fill="#1D1D1B"/>
<path d="M42.4441 355.726C42.3801 355.502 42.5401 355.214 42.7961 354.862L48.0121 347.71C48.2201 347.438 48.4441 347.246 48.7161 347.31C49.1001 347.406 49.0681 347.758 49.0681 348.158V355.214H50.7161C50.9881 355.214 51.1481 355.39 51.1481 355.614C51.1481 355.838 50.9881 356.014 50.7161 356.014H49.0681V359.998C49.0681 360.27 48.8921 360.43 48.6681 360.43H47.8681C47.6441 360.43 47.4681 360.27 47.4681 359.998V356.014L42.9561 355.998C42.5881 355.998 42.4761 355.854 42.4441 355.726ZM43.7241 355.214H47.4681V349.934L43.7241 355.214Z" fill="#1D1D1B"/>
<path d="M31.26 357.23C33.5022 357.23 35.32 355.413 35.32 353.17C35.32 350.928 33.5022 349.11 31.26 349.11C29.0177 349.11 27.2 350.928 27.2 353.17C27.2 355.413 29.0177 357.23 31.26 357.23Z" fill="#1D1D1B"/>
<path d="M131.39 1H1V131.39H131.39V1Z" stroke="#1D1D1B" stroke-miterlimit="10"/>
<path d="M274.9 1H144.51V131.39H274.9V1Z" stroke="#1D1D1B" stroke-miterlimit="10"/>
<path d="M418.42 1H288.03V131.39H418.42V1Z" stroke="#1D1D1B" stroke-miterlimit="10"/>
<path d="M131.39 144.51H1V274.9H131.39V144.51Z" stroke="#1D1D1B" stroke-miterlimit="10"/>
<path d="M274.9 144.51H144.51V274.9H274.9V144.51Z" stroke="#1D1D1B" stroke-miterlimit="10"/>
<path d="M418.42 144.51H288.03V274.9H418.42V144.51Z" stroke="#1D1D1B" stroke-miterlimit="10"/>
<path d="M274.9 288.03H144.51V418.42H274.9V288.03Z" stroke="#1D1D1B" stroke-miterlimit="10"/>
<path d="M418.42 288.03H288.03V418.42H418.42V288.03Z" stroke="#1D1D1B" stroke-miterlimit="10"/>
</svg>
