<svg width="614" height="413" viewBox="0 0 614 413" fill="none" xmlns="http://www.w3.org/2000/svg">
<path d="M610.21 194.61L2.32996 411.78" stroke="#1D1D1B" stroke-miterlimit="10"/>
<path d="M0.47998 218.201L608.36 1.02051" stroke="#1D1D1B" stroke-miterlimit="10"/>
<path d="M28.2813 349.332C28.2813 349.602 28.1067 349.761 27.8844 349.761H27.0904C26.8681 349.761 26.6935 349.602 26.6935 349.332V340.106C26.0742 340.63 24.4387 341.71 23.7876 342.075C23.613 342.171 23.3907 342.234 23.2319 342.06C22.9937 341.79 23.2001 341.536 23.4065 341.393L25.2644 340.091C27.2651 338.677 27.5033 338.169 27.8685 338.169C28.1225 338.169 28.2813 338.344 28.2813 338.598V349.332Z" fill="#1E1E1C"/>
<path d="M14.06 348.6C16.3023 348.6 18.12 346.805 18.12 344.59C18.12 342.375 16.3023 340.58 14.06 340.58C11.8177 340.58 10 342.375 10 344.59C10 346.805 11.8177 348.6 14.06 348.6Z" fill="#1E1E1C"/>
<path d="M100.153 340.571C100.121 340.841 99.9781 341 99.7081 341H93.2772C92.8803 341 92.6262 340.905 92.6262 340.508C92.6262 339.301 93.9124 337.586 95.7543 336.157C97.4375 334.839 98.3426 333.743 98.3743 332.41C98.3902 331.822 98.152 330.329 96.4689 330.329C95.0556 330.329 94.2935 331.346 93.6742 332.298C93.4678 332.616 93.1661 332.568 93.0232 332.473C92.5309 332.14 93.2455 331.187 93.8806 330.552C94.3093 330.123 95.3415 329.408 96.7706 329.408C99.2159 329.408 100.121 330.949 100.121 332.267C100.121 333.362 99.9146 334.442 98.0567 335.712C96.1354 337.014 94.1188 338.412 94.1188 339.571H99.4382L99.5652 339.174C99.6605 338.888 99.7399 338.713 99.9781 338.713C100.232 338.713 100.312 338.904 100.28 339.174L100.153 340.571Z" fill="#1E1E1C"/>
<path d="M84.0101 339.84C86.2523 339.84 88.0701 338.045 88.0701 335.83C88.0701 333.616 86.2523 331.82 84.0101 331.82C81.7678 331.82 79.9501 333.616 79.9501 335.83C79.9501 338.045 81.7678 339.84 84.0101 339.84Z" fill="#1E1E1C"/>
<path d="M169.732 266.025C169.732 264.246 167.478 263.532 165.89 265.533C165.636 265.85 165.35 265.803 165.223 265.707C164.921 265.485 165.128 264.993 165.62 264.532C166.064 264.119 166.922 263.389 168.446 263.389C169.987 263.389 171.225 264.119 171.384 265.326C171.59 266.866 170.431 268.137 169.621 268.391C169.939 268.311 171.686 268.565 172.13 270.122C173.051 273.297 169.987 276.664 165.699 276.41C165.429 276.394 164.969 276.362 164.953 276.06C164.937 275.647 165.366 275.711 165.906 275.695C168.557 275.616 170.225 273.615 170.526 271.471C170.717 270.169 169.987 268.931 168.002 269.264C167.716 269.312 167.43 269.264 167.382 268.978C167.335 268.692 167.621 268.55 167.843 268.423C168.097 268.28 169.732 267.454 169.732 266.025Z" fill="#1E1E1C"/>
<path d="M155.94 273.82C158.182 273.82 160 272.024 160 269.81C160 267.595 158.182 265.8 155.94 265.8C153.698 265.8 151.88 267.595 151.88 269.81C151.88 272.024 153.698 273.82 155.94 273.82Z" fill="#1E1E1C"/>
<path d="M161.536 209.531C161.472 209.309 161.631 209.023 161.885 208.674L167.061 201.576C167.268 201.306 167.49 201.115 167.76 201.179C168.141 201.274 168.109 201.624 168.109 202.021V209.023H169.745C170.015 209.023 170.174 209.198 170.174 209.42C170.174 209.642 170.015 209.817 169.745 209.817H168.109V213.771C168.109 214.041 167.935 214.2 167.712 214.2H166.918C166.696 214.2 166.522 214.041 166.522 213.771V209.817L162.044 209.801C161.678 209.801 161.567 209.658 161.536 209.531ZM162.806 209.023H166.522V203.783L162.806 209.023Z" fill="#1E1E1C"/>
<path d="M153.38 211.6C155.622 211.6 157.44 209.805 157.44 207.59C157.44 205.375 155.622 203.58 153.38 203.58C151.138 203.58 149.32 205.375 149.32 207.59C149.32 209.805 151.138 211.6 153.38 211.6Z" fill="#1E1E1C"/>
<path d="M285.777 174.455C285.936 174.455 286.206 174.535 286.174 174.884L286.111 175.456C286.079 175.805 285.777 175.884 285.619 175.884H280.776L280.601 178.822C283.491 177.329 286.381 178.187 286.381 181.22C286.381 183.554 284.396 185.951 282.252 186.634C281.554 186.856 279.759 187.349 279.791 186.65C279.807 186.301 280.22 186.301 280.601 186.253C285.746 185.618 285.857 177.631 281.554 179.187C280.76 179.473 280.395 179.933 280.029 179.79C279.712 179.663 279.775 179.362 279.791 178.965L280.061 174.916C280.093 174.709 280.141 174.455 280.537 174.455H285.777Z" fill="#1E1E1C"/>
<path d="M270.27 184.4C272.512 184.4 274.33 182.605 274.33 180.39C274.33 178.175 272.512 176.38 270.27 176.38C268.028 176.38 266.21 178.175 266.21 180.39C266.21 182.605 268.028 184.4 270.27 184.4Z" fill="#1E1E1C"/>
<path d="M325.909 256.746C326.163 253.03 328.862 250.124 331.831 249.6C332.101 249.553 332.641 249.489 332.689 249.87C332.736 250.283 332.26 250.283 331.831 250.378C329.275 250.95 327.893 253.713 327.687 256.127C328.656 255.253 329.529 254.84 330.45 254.84C332.339 254.84 334.054 256.142 334.054 258.334C334.054 260.636 332.212 262.049 330.101 262.049C327.893 262.049 325.654 260.446 325.909 256.746ZM327.671 257.397C327.814 260.207 328.91 261.255 330.275 261.255C331.545 261.255 332.292 260.16 332.308 258.54C332.324 257.127 331.673 255.634 330.275 255.634C329.577 255.634 328.751 256.158 327.671 257.397Z" fill="#1E1E1C"/>
<path d="M317.34 262.081C319.582 262.081 321.4 260.285 321.4 258.071C321.4 255.856 319.582 254.061 317.34 254.061C315.098 254.061 313.28 255.856 313.28 258.071C313.28 260.285 315.098 262.081 317.34 262.081Z" fill="#1E1E1C"/>
<path d="M427.878 174.935C428.211 174.935 428.592 174.871 428.624 175.252C428.64 175.538 428.386 175.729 428.053 176.062C427.068 177.047 424.448 179.428 424.448 186.653C424.448 187.145 424.178 187.479 423.622 187.479C423.225 187.479 422.765 187.336 422.765 186.145C422.765 183.462 424.623 178.507 426.655 176.364H421.177L420.955 177.602C420.907 177.888 420.812 178.031 420.574 178.031C420.32 178.031 420.177 177.856 420.193 177.602L420.272 175.427C420.272 175.316 420.224 174.935 420.764 174.935H427.878Z" fill="#1E1E1C"/>
<path d="M412.18 184.88C414.422 184.88 416.24 183.085 416.24 180.87C416.24 178.656 414.422 176.86 412.18 176.86C409.938 176.86 408.12 178.656 408.12 180.87C408.12 183.085 409.938 184.88 412.18 184.88Z" fill="#1E1E1C"/>
<path d="M455.617 191.991C454.379 191.356 453.569 190.181 453.537 189.213C453.474 187.355 454.823 185.926 456.967 185.926C459.047 185.926 460.238 187.371 460.238 188.927C460.238 189.991 459.158 191.372 457.967 191.753C459.666 192.531 460.857 193.77 460.857 195.215C460.857 197.311 459.349 198.549 456.792 198.549C454.617 198.549 452.918 197.343 452.918 195.437C452.918 193.944 453.775 192.642 455.617 191.991ZM454.506 195.469C454.506 196.85 455.665 197.835 457.046 197.819C458.364 197.803 459.269 196.977 459.269 195.644C459.269 194.675 458.698 193.627 456.395 192.547C455.141 193.024 454.506 194.056 454.506 195.469ZM454.966 188.704C454.966 189.689 455.395 190.261 456.999 191.245C457.999 190.88 458.793 189.832 458.793 188.816C458.793 187.911 458.317 186.656 456.904 186.656C455.522 186.656 454.966 187.879 454.966 188.704Z" fill="#1E1E1C"/>
<path d="M444.28 198.57C446.522 198.57 448.34 196.774 448.34 194.56C448.34 192.345 446.522 190.55 444.28 190.55C442.038 190.55 440.22 192.345 440.22 194.56C440.22 196.774 442.038 198.57 444.28 198.57Z" fill="#1E1E1C"/>
<path d="M523.171 83.6349C523.171 81.3324 525.013 79.9192 527.125 79.9192C529.332 79.9192 531.571 81.523 531.317 85.2227C531.063 88.9384 528.363 92.3206 525.394 92.8446C525.124 92.8922 524.584 92.9557 524.536 92.5746C524.489 92.1618 524.965 92.1618 525.394 92.0665C527.95 91.4949 529.332 88.2556 529.538 85.842C528.57 86.7153 527.696 87.1282 526.775 87.1282C524.886 87.1282 523.171 85.8261 523.171 83.6349ZM524.917 83.4284C524.902 84.8416 525.553 86.3343 526.95 86.3343C527.633 86.3343 528.506 85.8579 529.554 84.6035C529.411 81.7612 528.316 80.7132 526.95 80.7132C525.68 80.7132 524.933 81.8088 524.917 83.4284Z" fill="#1E1E1C"/>
<path d="M514.65 90.3403C516.892 90.3403 518.71 88.545 518.71 86.3303C518.71 84.1157 516.892 82.3203 514.65 82.3203C512.408 82.3203 510.59 84.1157 510.59 86.3303C510.59 88.545 512.408 90.3403 514.65 90.3403Z" fill="#1E1E1C"/>
<path d="M597.561 131.252C597.561 131.522 597.387 131.681 597.164 131.681H596.37C596.148 131.681 595.973 131.522 595.973 131.252V122.026C595.354 122.55 593.719 123.63 593.068 123.995C592.893 124.091 592.671 124.154 592.512 123.979C592.274 123.71 592.48 123.455 592.686 123.313L594.544 122.01C596.545 120.597 596.783 120.089 597.148 120.089C597.402 120.089 597.561 120.264 597.561 120.518V131.252ZM611.411 126.171C611.411 129.346 609.331 131.681 607.076 131.681C604.821 131.681 602.741 129.346 602.741 126.171V125.599C602.741 122.423 604.821 120.089 607.076 120.089C609.331 120.089 611.395 122.423 611.395 125.599L611.411 126.171ZM604.488 125.869C604.488 128.441 605.551 130.887 607.076 130.887C608.584 130.887 609.664 128.441 609.664 125.869C609.664 123.281 608.584 120.883 607.076 120.883C605.551 120.883 604.488 123.281 604.488 125.869Z" fill="#1E1E1C"/>
<path d="M583.34 130.51C585.582 130.51 587.4 128.715 587.4 126.5C587.4 124.286 585.582 122.49 583.34 122.49C581.098 122.49 579.28 124.286 579.28 126.5C579.28 128.715 581.098 130.51 583.34 130.51Z" fill="#1E1E1C"/>
</svg>
