<svg width="383" height="436" viewBox="0 0 383 436" fill="none" xmlns="http://www.w3.org/2000/svg">
<path d="M21.3459 224.978C21.3459 225.25 21.1699 225.41 20.9459 225.41H20.1459C19.9219 225.41 19.7459 225.25 19.7459 224.978V215.682C19.1219 216.21 17.4739 217.298 16.8179 217.666C16.6419 217.762 16.4179 217.826 16.2579 217.65C16.0179 217.378 16.2259 217.122 16.4339 216.978L18.3059 215.666C20.3219 214.242 20.5619 213.73 20.9299 213.73C21.1859 213.73 21.3459 213.906 21.3459 214.162V224.978Z" fill="#1D1D1B"/>
<path d="M4.06 223.65C6.30228 223.65 8.12 221.833 8.12 219.59C8.12 217.348 6.30228 215.53 4.06 215.53C1.81772 215.53 0 217.348 0 219.59C0 221.833 1.81772 223.65 4.06 223.65Z" fill="#1D1D1B"/>
<path d="M288.782 274.108C288.75 274.38 288.606 274.54 288.334 274.54H281.854C281.454 274.54 281.198 274.444 281.198 274.044C281.198 272.828 282.494 271.1 284.35 269.66C286.046 268.332 286.958 267.228 286.99 265.884C287.006 265.292 286.766 263.788 285.07 263.788C283.646 263.788 282.878 264.812 282.254 265.772C282.046 266.092 281.742 266.044 281.598 265.948C281.102 265.612 281.822 264.652 282.462 264.012C282.894 263.58 283.934 262.86 285.374 262.86C287.838 262.86 288.75 264.412 288.75 265.74C288.75 266.844 288.542 267.932 286.67 269.212C284.734 270.524 282.702 271.932 282.702 273.1H288.062L288.19 272.7C288.286 272.412 288.366 272.236 288.606 272.236C288.862 272.236 288.942 272.428 288.91 272.7L288.782 274.108Z" fill="#1D1D1B"/>
<path d="M269.56 272.78C271.802 272.78 273.62 270.962 273.62 268.72C273.62 266.478 271.802 264.66 269.56 264.66C267.318 264.66 265.5 266.478 265.5 268.72C265.5 270.962 267.318 272.78 269.56 272.78Z" fill="#1D1D1B"/>
<path opacity="0.2" d="M3.83008 218.04C3.83008 98.17 88.4701 1 192.89 1C297.31 1 381.95 98.17 381.95 218.03C381.95 337.89 297.31 435.06 192.89 435.06" stroke="#1D1D1B" stroke-miterlimit="10"/>
<path opacity="0.2" d="M192.89 435.07C284.011 435.07 357.88 350.272 357.88 245.67C357.88 141.067 284.011 56.2695 192.89 56.2695C101.768 56.2695 27.8999 141.067 27.8999 245.67C27.8999 350.272 101.768 435.07 192.89 435.07Z" stroke="#1D1D1B" stroke-miterlimit="10"/>
<path opacity="0.2" d="M192.89 435.07C270.718 435.07 333.81 362.643 333.81 273.3C333.81 183.957 270.718 111.53 192.89 111.53C115.062 111.53 51.9697 183.957 51.9697 273.3C51.9697 362.643 115.062 435.07 192.89 435.07Z" stroke="#1D1D1B" stroke-miterlimit="10"/>
<path opacity="0.2" d="M192.89 435.07C257.419 435.07 309.73 375.018 309.73 300.94C309.73 226.862 257.419 166.81 192.89 166.81C128.361 166.81 76.0498 226.862 76.0498 300.94C76.0498 375.018 128.361 435.07 192.89 435.07Z" stroke="#1D1D1B" stroke-miterlimit="10"/>
<path opacity="0.2" d="M192.89 435.069C141.65 435.069 100.12 387.389 100.12 328.569C100.12 269.749 141.66 222.069 192.89 222.069C224.91 222.069 253.15 240.699 269.82 269.029" stroke="#1D1D1B" stroke-miterlimit="10"/>
</svg>
