<svg width="496" height="372" viewBox="0 0 496 372" fill="none" xmlns="http://www.w3.org/2000/svg">
<g clip-path="url(#clip0_62_278)">
<path d="M388.57 105L371.19 96.56V96.64V371.19H0.5V0.5H371.19V51.78L388.57 43.34" stroke="#1D1D1B" stroke-miterlimit="10"/>
<path d="M91.6013 320.861C91.6013 321.131 91.4267 321.29 91.2044 321.29H90.4104C90.1881 321.29 90.0135 321.131 90.0135 320.861V311.636C89.3942 312.16 87.7587 313.239 87.1076 313.605C86.933 313.7 86.7107 313.763 86.5519 313.589C86.3137 313.319 86.5201 313.065 86.7266 312.922L88.5844 311.62C90.5851 310.207 90.8233 309.699 91.1885 309.699C91.4426 309.699 91.6013 309.873 91.6013 310.127V320.861Z" fill="#1D1D1B"/>
<path d="M74.36 319.36C76.6023 319.36 78.42 317.565 78.42 315.35C78.42 313.135 76.6023 311.34 74.36 311.34C72.1177 311.34 70.3 313.135 70.3 315.35C70.3 317.565 72.1177 319.36 74.36 319.36Z" fill="#1D1D1B"/>
<path d="M493.183 78.8515C493.151 79.1215 493.008 79.2803 492.738 79.2803H486.307C485.91 79.2803 485.656 79.185 485.656 78.788C485.656 77.5812 486.942 75.8663 488.784 74.4372C490.467 73.1193 491.372 72.0237 491.404 70.6898C491.42 70.1023 491.182 68.6097 489.499 68.6097C488.086 68.6097 487.323 69.626 486.704 70.5787C486.498 70.8963 486.196 70.8486 486.053 70.7534C485.561 70.4199 486.275 69.4672 486.911 68.832C487.339 68.4033 488.371 67.6887 489.8 67.6887C492.246 67.6887 493.151 69.229 493.151 70.5469C493.151 71.6426 492.944 72.7223 491.087 73.9926C489.165 75.2947 487.149 76.692 487.149 77.8512H492.468L492.595 77.4542C492.69 77.1684 492.77 76.9937 493.008 76.9937C493.262 76.9937 493.341 77.1843 493.31 77.4542L493.183 78.8515Z" fill="#1D1D1B"/>
<path d="M474.02 77.3501C476.262 77.3501 478.08 75.5547 478.08 73.3401C478.08 71.1254 476.262 69.3301 474.02 69.3301C471.778 69.3301 469.96 71.1254 469.96 73.3401C469.96 75.5547 471.778 77.3501 474.02 77.3501Z" fill="#1D1D1B"/>
</g>
<defs>
<clipPath id="clip0_62_278">
<rect width="495.29" height="371.69" fill="white"/>
</clipPath>
</defs>
</svg>
