<svg width="446" height="329" viewBox="0 0 446 329" fill="none" xmlns="http://www.w3.org/2000/svg">
<path d="M88.3198 8.02C90.562 8.02 92.3798 6.22466 92.3798 4.01C92.3798 1.79534 90.562 0 88.3198 0C86.0775 0 84.2598 1.79534 84.2598 4.01C84.2598 6.22466 86.0775 8.02 88.3198 8.02Z" fill="white"/>
<path d="M213.62 232.83C215.862 232.83 217.68 231.034 217.68 228.82C217.68 226.605 215.862 224.81 213.62 224.81C211.378 224.81 209.56 226.605 209.56 228.82C209.56 231.034 211.378 232.83 213.62 232.83Z" fill="white"/>
<path d="M4.06 242.83C6.30228 242.83 8.12 241.034 8.12 238.82C8.12 236.605 6.30228 234.81 4.06 234.81C1.81772 234.81 0 236.605 0 238.82C0 241.034 1.81772 242.83 4.06 242.83Z" fill="white"/>
<path d="M272.26 328.32C274.502 328.32 276.32 326.524 276.32 324.31C276.32 322.095 274.502 320.3 272.26 320.3C270.018 320.3 268.2 322.095 268.2 324.31C268.2 326.524 270.018 328.32 272.26 328.32Z" fill="white"/>
<path d="M384.68 222.61C386.922 222.61 388.74 220.815 388.74 218.6C388.74 216.385 386.922 214.59 384.68 214.59C382.438 214.59 380.62 216.385 380.62 218.6C380.62 220.815 382.438 222.61 384.68 222.61Z" fill="white"/>
<path d="M441.13 52.1001C443.373 52.1001 445.19 50.3047 445.19 48.0901C445.19 45.8754 443.373 44.0801 441.13 44.0801C438.888 44.0801 437.07 45.8754 437.07 48.0901C437.07 50.3047 438.888 52.1001 441.13 52.1001Z" fill="white"/>
<path d="M321.06 96.02C323.302 96.02 325.12 94.2247 325.12 92.01C325.12 89.7953 323.302 88 321.06 88C318.818 88 317 89.7953 317 92.01C317 94.2247 318.818 96.02 321.06 96.02Z" fill="white"/>
<path d="M82.7602 126.72C85.0025 126.72 86.8202 124.925 86.8202 122.71C86.8202 120.496 85.0025 118.7 82.7602 118.7C80.5179 118.7 78.7002 120.496 78.7002 122.71C78.7002 124.925 80.5179 126.72 82.7602 126.72Z" fill="white"/>
</svg>
