<svg width="397" height="390" viewBox="0 0 397 390" fill="none" xmlns="http://www.w3.org/2000/svg">
<path d="M374.75 10.1807H4.06V380.871H374.75V10.1807Z" stroke="#1D1D1B" stroke-width="1.07" stroke-miterlimit="10"/>
<path d="M15.234 198.077C15.17 197.853 15.33 197.565 15.586 197.213L20.802 190.061C21.01 189.789 21.234 189.597 21.506 189.661C21.89 189.757 21.858 190.109 21.858 190.509V197.565H23.506C23.778 197.565 23.938 197.741 23.938 197.965C23.938 198.189 23.778 198.365 23.506 198.365H21.858V202.349C21.858 202.621 21.682 202.781 21.458 202.781H20.658C20.434 202.781 20.258 202.621 20.258 202.349V198.365L15.746 198.349C15.378 198.349 15.266 198.205 15.234 198.077ZM16.514 197.565H20.258V192.285L16.514 197.565Z" fill="#1D1D1B"/>
<path d="M4.06 199.591C6.30228 199.591 8.12 197.773 8.12 195.531C8.12 193.288 6.30228 191.471 4.06 191.471C1.81772 191.471 0 193.288 0 195.531C0 197.773 1.81772 199.591 4.06 199.591Z" fill="#1D1D1B"/>
<path d="M206.696 15.568C206.696 15.84 206.52 16 206.296 16H205.496C205.272 16 205.096 15.84 205.096 15.568V6.272C204.472 6.8 202.824 7.888 202.168 8.256C201.992 8.352 201.768 8.416 201.608 8.24C201.368 7.968 201.576 7.712 201.784 7.568L203.656 6.256C205.672 4.832 205.912 4.32 206.28 4.32C206.536 4.32 206.696 4.496 206.696 4.752V15.568Z" fill="#1D1D1B"/>
<path d="M189.4 14.2401C191.642 14.2401 193.46 12.4224 193.46 10.1801C193.46 7.93784 191.642 6.12012 189.4 6.12012C187.158 6.12012 185.34 7.93784 185.34 10.1801C185.34 12.4224 187.158 14.2401 189.4 14.2401Z" fill="#1D1D1B"/>
<path d="M393.903 200.941C393.871 201.211 393.728 201.37 393.458 201.37H387.027C386.63 201.37 386.376 201.275 386.376 200.878C386.376 199.671 387.662 197.956 389.504 196.527C391.187 195.209 392.092 194.114 392.124 192.78C392.14 192.192 391.902 190.7 390.219 190.7C388.806 190.7 388.043 191.716 387.424 192.669C387.218 192.986 386.916 192.938 386.773 192.843C386.281 192.51 386.995 191.557 387.63 190.922C388.059 190.493 389.091 189.779 390.52 189.779C392.966 189.779 393.871 191.319 393.871 192.637C393.871 193.732 393.664 194.812 391.807 196.082C389.885 197.385 387.869 198.782 387.869 199.941H393.188L393.315 199.544C393.41 199.258 393.49 199.084 393.728 199.084C393.982 199.084 394.061 199.274 394.03 199.544L393.903 200.941Z" fill="#1D1D1B"/>
<path d="M374.75 199.44C376.992 199.44 378.81 197.645 378.81 195.43C378.81 193.215 376.992 191.42 374.75 191.42C372.508 191.42 370.69 193.215 370.69 195.43C370.69 197.645 372.508 199.44 374.75 199.44Z" fill="#1D1D1B"/>
<path d="M206.543 377.745C206.543 375.966 204.288 375.252 202.7 377.252C202.446 377.57 202.16 377.522 202.033 377.427C201.731 377.205 201.938 376.712 202.43 376.252C202.875 375.839 203.732 375.109 205.256 375.109C206.797 375.109 208.035 375.839 208.194 377.046C208.4 378.586 207.241 379.856 206.432 380.11C206.749 380.031 208.496 380.285 208.94 381.841C209.861 385.017 206.797 388.383 202.509 388.129C202.24 388.113 201.779 388.082 201.763 387.78C201.747 387.367 202.176 387.431 202.716 387.415C205.368 387.335 207.035 385.335 207.337 383.191C207.527 381.889 206.797 380.65 204.812 380.984C204.526 381.031 204.24 380.984 204.193 380.698C204.145 380.412 204.431 380.269 204.653 380.142C204.907 379.999 206.543 379.174 206.543 377.745Z" fill="#1D1D1B"/>
<path d="M189.73 384.77C191.972 384.77 193.79 382.975 193.79 380.76C193.79 378.545 191.972 376.75 189.73 376.75C187.488 376.75 185.67 378.545 185.67 380.76C185.67 382.975 187.488 384.77 189.73 384.77Z" fill="#1D1D1B"/>
</svg>
