<svg width="549" height="425" viewBox="0 0 549 425" fill="none" xmlns="http://www.w3.org/2000/svg">
<path d="M284.192 15.568C284.16 15.84 284.016 16 283.744 16H277.264C276.864 16 276.608 15.904 276.608 15.504C276.608 14.288 277.904 12.56 279.76 11.12C281.456 9.792 282.368 8.688 282.4 7.344C282.416 6.752 282.176 5.248 280.48 5.248C279.056 5.248 278.288 6.272 277.664 7.232C277.456 7.552 277.152 7.504 277.008 7.408C276.512 7.072 277.232 6.112 277.872 5.472C278.304 5.04 279.344 4.32 280.784 4.32C283.248 4.32 284.16 5.872 284.16 7.2C284.16 8.304 283.952 9.392 282.08 10.672C280.144 11.984 278.112 13.392 278.112 14.56H283.472L283.6 14.16C283.696 13.872 283.776 13.696 284.016 13.696C284.272 13.696 284.352 13.888 284.32 14.16L284.192 15.568Z" fill="#1D1D1B"/>
<path d="M264.97 14.2401C267.212 14.2401 269.03 12.4224 269.03 10.1801C269.03 7.93784 267.212 6.12012 264.97 6.12012C262.728 6.12012 260.91 7.93784 260.91 10.1801C260.91 12.4224 262.728 14.2401 264.97 14.2401Z" fill="#1D1D1B"/>
<path d="M21.346 301.848C21.346 302.12 21.17 302.28 20.946 302.28H20.146C19.922 302.28 19.746 302.12 19.746 301.848V292.552C19.122 293.08 17.474 294.168 16.818 294.536C16.642 294.632 16.418 294.696 16.258 294.52C16.018 294.248 16.226 293.992 16.434 293.848L18.306 292.536C20.322 291.112 20.562 290.6 20.93 290.6C21.186 290.6 21.346 290.776 21.346 291.032V301.848Z" fill="#1D1D1B"/>
<path d="M4.06 300.52C6.30228 300.52 8.12 298.702 8.12 296.46C8.12 294.218 6.30228 292.4 4.06 292.4C1.81772 292.4 0 294.218 0 296.46C0 298.702 1.81772 300.52 4.06 300.52Z" fill="#1D1D1B"/>
<path d="M157.706 321.678C157.706 321.95 157.53 322.11 157.306 322.11H156.506C156.282 322.11 156.106 321.95 156.106 321.678V312.382C155.482 312.91 153.834 313.998 153.178 314.366C153.002 314.462 152.778 314.526 152.618 314.35C152.378 314.078 152.586 313.822 152.794 313.678L154.666 312.366C156.682 310.942 156.922 310.43 157.29 310.43C157.546 310.43 157.706 310.606 157.706 310.862V321.678Z" fill="#1D1D1B"/>
<path d="M140.41 320.35C142.652 320.35 144.47 318.532 144.47 316.29C144.47 314.048 142.652 312.23 140.41 312.23C138.168 312.23 136.35 314.048 136.35 316.29C136.35 318.532 138.168 320.35 140.41 320.35Z" fill="#1D1D1B"/>
<path d="M184.796 416.488C184.796 416.76 184.62 416.92 184.396 416.92H183.596C183.372 416.92 183.196 416.76 183.196 416.488V407.192C182.572 407.72 180.924 408.808 180.268 409.176C180.092 409.272 179.868 409.336 179.708 409.16C179.468 408.888 179.676 408.632 179.884 408.488L181.756 407.176C183.772 405.752 184.012 405.24 184.38 405.24C184.636 405.24 184.796 405.416 184.796 405.672V416.488Z" fill="#1D1D1B"/>
<path d="M167.5 415.16C169.742 415.16 171.56 413.342 171.56 411.1C171.56 408.858 169.742 407.04 167.5 407.04C165.258 407.04 163.44 408.858 163.44 411.1C163.44 413.342 165.258 415.16 167.5 415.16Z" fill="#1D1D1B"/>
<path d="M243.566 381.828C243.566 382.1 243.39 382.26 243.166 382.26H242.366C242.142 382.26 241.966 382.1 241.966 381.828V372.532C241.342 373.06 239.694 374.148 239.038 374.516C238.862 374.612 238.638 374.676 238.478 374.5C238.238 374.228 238.446 373.972 238.654 373.828L240.526 372.516C242.542 371.092 242.782 370.58 243.15 370.58C243.406 370.58 243.566 370.756 243.566 371.012V381.828Z" fill="#1D1D1B"/>
<path d="M226.28 380.5C228.522 380.5 230.34 378.682 230.34 376.44C230.34 374.198 228.522 372.38 226.28 372.38C224.038 372.38 222.22 374.198 222.22 376.44C222.22 378.682 224.038 380.5 226.28 380.5Z" fill="#1D1D1B"/>
<path d="M381.756 267.308C381.756 267.58 381.58 267.74 381.356 267.74H380.556C380.332 267.74 380.156 267.58 380.156 267.308V258.012C379.532 258.54 377.884 259.628 377.228 259.996C377.052 260.092 376.828 260.156 376.668 259.98C376.428 259.708 376.636 259.452 376.844 259.308L378.716 257.996C380.732 256.572 380.972 256.06 381.34 256.06C381.596 256.06 381.756 256.236 381.756 256.492V267.308Z" fill="#1D1D1B"/>
<path d="M364.46 265.98C366.702 265.98 368.52 264.162 368.52 261.92C368.52 259.678 366.702 257.86 364.46 257.86C362.218 257.86 360.4 259.678 360.4 261.92C360.4 264.162 362.218 265.98 364.46 265.98Z" fill="#1D1D1B"/>
<path d="M381.756 421.428C381.756 421.7 381.58 421.86 381.356 421.86H380.556C380.332 421.86 380.156 421.7 380.156 421.428V412.132C379.532 412.66 377.884 413.748 377.228 414.116C377.052 414.212 376.828 414.276 376.668 414.1C376.428 413.828 376.636 413.572 376.844 413.428L378.716 412.116C380.732 410.692 380.972 410.18 381.34 410.18C381.596 410.18 381.756 410.356 381.756 410.612V421.428Z" fill="#1D1D1B"/>
<path d="M364.46 420.1C366.702 420.1 368.52 418.282 368.52 416.04C368.52 413.798 366.702 411.98 364.46 411.98C362.218 411.98 360.4 413.798 360.4 416.04C360.4 418.282 362.218 420.1 364.46 420.1Z" fill="#1D1D1B"/>
<path d="M341.036 386.768C341.036 387.04 340.86 387.2 340.636 387.2H339.836C339.612 387.2 339.436 387.04 339.436 386.768V377.472C338.812 378 337.164 379.088 336.508 379.456C336.332 379.552 336.108 379.616 335.948 379.44C335.708 379.168 335.916 378.912 336.124 378.768L337.996 377.456C340.012 376.032 340.252 375.52 340.62 375.52C340.876 375.52 341.036 375.696 341.036 375.952V386.768Z" fill="#1D1D1B"/>
<path d="M323.74 385.44C325.982 385.44 327.8 383.622 327.8 381.38C327.8 379.138 325.982 377.32 323.74 377.32C321.498 377.32 319.68 379.138 319.68 381.38C319.68 383.622 321.498 385.44 323.74 385.44Z" fill="#1D1D1B"/>
<path d="M35.476 389.928C35.476 390.2 35.3 390.36 35.076 390.36H34.276C34.052 390.36 33.876 390.2 33.876 389.928V380.632C33.252 381.16 31.604 382.248 30.948 382.616C30.772 382.712 30.548 382.776 30.388 382.6C30.148 382.328 30.356 382.072 30.564 381.928L32.436 380.616C34.452 379.192 34.692 378.68 35.06 378.68C35.316 378.68 35.476 378.856 35.476 379.112V389.928Z" fill="#1D1D1B"/>
<path d="M18.19 388.6C20.4323 388.6 22.25 386.782 22.25 384.54C22.25 382.298 20.4323 380.48 18.19 380.48C15.9477 380.48 14.13 382.298 14.13 384.54C14.13 386.782 15.9477 388.6 18.19 388.6Z" fill="#1D1D1B"/>
<path d="M500.396 378.838C500.396 379.11 500.22 379.27 499.996 379.27H499.196C498.972 379.27 498.796 379.11 498.796 378.838V369.542C498.172 370.07 496.524 371.158 495.868 371.526C495.692 371.622 495.468 371.686 495.308 371.51C495.068 371.238 495.276 370.982 495.484 370.838L497.356 369.526C499.372 368.102 499.612 367.59 499.98 367.59C500.236 367.59 500.396 367.766 500.396 368.022V378.838Z" fill="#1D1D1B"/>
<path d="M483.11 377.51C485.352 377.51 487.17 375.692 487.17 373.45C487.17 371.208 485.352 369.39 483.11 369.39C480.868 369.39 479.05 371.208 479.05 373.45C479.05 375.692 480.868 377.51 483.11 377.51Z" fill="#1D1D1B"/>
<path d="M544.066 316.738C544.066 317.01 543.89 317.17 543.666 317.17H542.866C542.642 317.17 542.466 317.01 542.466 316.738V307.442C541.842 307.97 540.194 309.058 539.538 309.426C539.362 309.522 539.138 309.586 538.978 309.41C538.738 309.138 538.946 308.882 539.154 308.738L541.026 307.426C543.042 306.002 543.282 305.49 543.65 305.49C543.906 305.49 544.066 305.666 544.066 305.922V316.738Z" fill="#1D1D1B"/>
<path d="M526.78 315.42C529.022 315.42 530.84 313.602 530.84 311.36C530.84 309.118 529.022 307.3 526.78 307.3C524.538 307.3 522.72 309.118 522.72 311.36C522.72 313.602 524.538 315.42 526.78 315.42Z" fill="#1D1D1B"/>
</svg>
