<svg width="521" height="458" viewBox="0 0 521 458" fill="none" xmlns="http://www.w3.org/2000/svg">
<path d="M515.496 15.568C515.496 15.84 515.32 16 515.096 16H514.296C514.072 16 513.896 15.84 513.896 15.568V6.272C513.272 6.8 511.624 7.888 510.968 8.256C510.792 8.352 510.568 8.416 510.408 8.24C510.168 7.968 510.376 7.712 510.584 7.568L512.456 6.256C514.472 4.832 514.712 4.32 515.08 4.32C515.336 4.32 515.496 4.496 515.496 4.752V15.568Z" fill="#1D1D1B"/>
<path d="M498.2 14.2401C500.442 14.2401 502.26 12.4224 502.26 10.1801C502.26 7.93784 500.442 6.12012 498.2 6.12012C495.957 6.12012 494.14 7.93784 494.14 10.1801C494.14 12.4224 495.957 14.2401 498.2 14.2401Z" fill="#1D1D1B"/>
<path d="M87.2062 279.978C87.2062 280.25 87.0302 280.41 86.8062 280.41H86.0062C85.7822 280.41 85.6062 280.25 85.6062 279.978V270.682C84.9822 271.21 83.3342 272.298 82.6782 272.666C82.5022 272.762 82.2782 272.826 82.1182 272.65C81.8782 272.378 82.0862 272.122 82.2942 271.978L84.1662 270.666C86.1822 269.242 86.4222 268.73 86.7902 268.73C87.0462 268.73 87.2062 268.906 87.2062 269.162V279.978ZM99.8974 269.21C100.233 269.21 100.617 269.146 100.649 269.53C100.665 269.818 100.409 270.01 100.073 270.346C99.0814 271.338 96.4414 273.738 96.4414 281.018C96.4414 281.514 96.1694 281.85 95.6094 281.85C95.2094 281.85 94.7454 281.706 94.7454 280.506C94.7454 277.802 96.6174 272.81 98.6654 270.65H93.1454L92.9214 271.898C92.8734 272.186 92.7774 272.33 92.5374 272.33C92.2814 272.33 92.1374 272.154 92.1534 271.898L92.2334 269.706C92.2334 269.594 92.1854 269.21 92.7294 269.21H99.8974Z" fill="#1D1D1B"/>
<path d="M69.9203 278.65C72.1626 278.65 73.9804 276.832 73.9804 274.59C73.9804 272.348 72.1626 270.53 69.9203 270.53C67.6781 270.53 65.8604 272.348 65.8604 274.59C65.8604 276.832 67.6781 278.65 69.9203 278.65Z" fill="#1D1D1B"/>
<path d="M206.294 207.586C206.23 207.362 206.39 207.074 206.646 206.722L211.862 199.57C212.07 199.298 212.294 199.106 212.566 199.17C212.95 199.266 212.918 199.618 212.918 200.018V207.074H214.566C214.838 207.074 214.998 207.25 214.998 207.474C214.998 207.698 214.838 207.874 214.566 207.874H212.918V211.858C212.918 212.13 212.742 212.29 212.518 212.29H211.718C211.494 212.29 211.318 212.13 211.318 211.858V207.874L206.806 207.858C206.438 207.858 206.326 207.714 206.294 207.586ZM207.574 207.074H211.318V201.794L207.574 207.074Z" fill="#1D1D1B"/>
<path d="M195.11 209.09C197.352 209.09 199.17 207.272 199.17 205.03C199.17 202.787 197.352 200.97 195.11 200.97C192.868 200.97 191.05 202.787 191.05 205.03C191.05 207.272 192.868 209.09 195.11 209.09Z" fill="#1D1D1B"/>
<path d="M198.276 302.648C198.276 302.92 198.1 303.08 197.876 303.08H197.076C196.852 303.08 196.676 302.92 196.676 302.648V293.352C196.052 293.88 194.404 294.968 193.748 295.336C193.572 295.432 193.348 295.496 193.188 295.32C192.948 295.048 193.156 294.792 193.364 294.648L195.236 293.336C197.252 291.912 197.492 291.4 197.86 291.4C198.116 291.4 198.276 291.576 198.276 291.832V302.648ZM203.783 296.536C204.039 292.792 206.759 289.864 209.751 289.336C210.023 289.288 210.567 289.224 210.615 289.608C210.663 290.024 210.183 290.024 209.751 290.12C207.175 290.696 205.783 293.48 205.575 295.912C206.551 295.032 207.431 294.616 208.359 294.616C210.263 294.616 211.991 295.928 211.991 298.136C211.991 300.456 210.135 301.88 208.007 301.88C205.783 301.88 203.527 300.264 203.783 296.536ZM205.559 297.192C205.703 300.024 206.807 301.08 208.183 301.08C209.463 301.08 210.215 299.976 210.231 298.344C210.247 296.92 209.591 295.416 208.183 295.416C207.479 295.416 206.647 295.944 205.559 297.192Z" fill="#1D1D1B"/>
<path d="M180.98 301.32C183.222 301.32 185.04 299.502 185.04 297.26C185.04 295.017 183.222 293.2 180.98 293.2C178.738 293.2 176.92 295.017 176.92 297.26C176.92 299.502 178.738 301.32 180.98 301.32Z" fill="#1D1D1B"/>
<path d="M262.98 253.356C263.236 249.612 265.956 246.684 268.948 246.156C269.22 246.108 269.764 246.044 269.812 246.428C269.86 246.844 269.38 246.844 268.948 246.94C266.372 247.516 264.98 250.3 264.772 252.732C265.748 251.852 266.628 251.436 267.556 251.436C269.46 251.436 271.188 252.748 271.188 254.956C271.188 257.276 269.332 258.7 267.204 258.7C264.98 258.7 262.724 257.084 262.98 253.356ZM264.756 254.012C264.9 256.844 266.004 257.9 267.38 257.9C268.66 257.9 269.412 256.796 269.428 255.164C269.444 253.74 268.788 252.236 267.38 252.236C266.676 252.236 265.844 252.764 264.756 254.012Z" fill="#1D1D1B"/>
<path d="M251.39 258.14C253.632 258.14 255.45 256.322 255.45 254.08C255.45 251.838 253.632 250.02 251.39 250.02C249.148 250.02 247.33 251.838 247.33 254.08C247.33 256.322 249.148 258.14 251.39 258.14Z" fill="#1D1D1B"/>
<path d="M380.002 318.274C380.002 315.954 381.858 314.53 383.986 314.53C386.21 314.53 388.466 316.146 388.21 319.874C387.954 323.618 385.234 327.026 382.242 327.554C381.97 327.602 381.426 327.666 381.378 327.282C381.33 326.866 381.81 326.866 382.242 326.77C384.818 326.194 386.21 322.93 386.418 320.498C385.442 321.378 384.562 321.794 383.634 321.794C381.73 321.794 380.002 320.482 380.002 318.274ZM381.762 318.066C381.746 319.49 382.402 320.994 383.81 320.994C384.498 320.994 385.378 320.514 386.434 319.25C386.29 316.386 385.186 315.33 383.81 315.33C382.53 315.33 381.778 316.434 381.762 318.066Z" fill="#1D1D1B"/>
<path d="M368.46 324.45C370.703 324.45 372.52 322.632 372.52 320.39C372.52 318.148 370.703 316.33 368.46 316.33C366.218 316.33 364.4 318.148 364.4 320.39C364.4 322.632 366.218 324.45 368.46 324.45Z" fill="#1D1D1B"/>
<path d="M91.3796 346.682C90.1316 346.042 89.3156 344.858 89.2836 343.882C89.2196 342.01 90.5796 340.57 92.7396 340.57C94.8356 340.57 96.0356 342.026 96.0356 343.594C96.0356 344.666 94.9476 346.058 93.7476 346.442C95.4596 347.226 96.6596 348.474 96.6596 349.93C96.6596 352.042 95.1396 353.29 92.5636 353.29C90.3716 353.29 88.6596 352.074 88.6596 350.154C88.6596 348.65 89.5236 347.338 91.3796 346.682ZM90.2596 350.186C90.2596 351.578 91.4276 352.57 92.8196 352.554C94.1476 352.538 95.0596 351.706 95.0596 350.362C95.0596 349.386 94.4836 348.33 92.1636 347.242C90.8996 347.722 90.2596 348.762 90.2596 350.186ZM90.7236 343.37C90.7236 344.362 91.1556 344.938 92.7716 345.93C93.7796 345.562 94.5796 344.506 94.5796 343.482C94.5796 342.57 94.0996 341.306 92.6756 341.306C91.2836 341.306 90.7236 342.538 90.7236 343.37Z" fill="#1D1D1B"/>
<path d="M76.9799 352.73C79.2222 352.73 81.0399 350.912 81.0399 348.67C81.0399 346.428 79.2222 344.61 76.9799 344.61C74.7377 344.61 72.9199 346.428 72.9199 348.67C72.9199 350.912 74.7377 352.73 76.9799 352.73Z" fill="#1D1D1B"/>
<path d="M195.252 411.698C195.22 411.97 195.076 412.13 194.804 412.13H188.324C187.924 412.13 187.668 412.034 187.668 411.634C187.668 410.418 188.964 408.69 190.82 407.25C192.516 405.922 193.428 404.818 193.46 403.474C193.476 402.882 193.236 401.378 191.54 401.378C190.116 401.378 189.348 402.402 188.724 403.362C188.516 403.682 188.212 403.634 188.068 403.538C187.572 403.202 188.292 402.242 188.932 401.602C189.364 401.17 190.404 400.45 191.844 400.45C194.308 400.45 195.22 402.002 195.22 403.33C195.22 404.434 195.012 405.522 193.14 406.802C191.204 408.114 189.172 409.522 189.172 410.69H194.532L194.66 410.29C194.756 410.002 194.836 409.826 195.076 409.826C195.332 409.826 195.412 410.018 195.38 410.29L195.252 411.698Z" fill="#1D1D1B"/>
<path d="M176.02 410.37C178.262 410.37 180.08 408.552 180.08 406.31C180.08 404.068 178.262 402.25 176.02 402.25C173.778 402.25 171.96 404.068 171.96 406.31C171.96 408.552 173.778 410.37 176.02 410.37Z" fill="#1D1D1B"/>
<path d="M245.616 454.058C245.616 454.33 245.44 454.49 245.216 454.49H244.416C244.192 454.49 244.016 454.33 244.016 454.058V444.762C243.392 445.29 241.744 446.378 241.088 446.746C240.912 446.842 240.688 446.906 240.528 446.73C240.288 446.458 240.496 446.202 240.704 446.058L242.576 444.746C244.592 443.322 244.832 442.81 245.2 442.81C245.456 442.81 245.616 442.986 245.616 443.242V454.058ZM250.708 451.226C250.644 451.002 250.804 450.714 251.06 450.362L256.276 443.21C256.484 442.938 256.708 442.746 256.98 442.81C257.364 442.906 257.332 443.258 257.332 443.658V450.714H258.98C259.252 450.714 259.412 450.89 259.412 451.114C259.412 451.338 259.252 451.514 258.98 451.514H257.332V455.498C257.332 455.77 257.156 455.93 256.932 455.93H256.132C255.908 455.93 255.732 455.77 255.732 455.498V451.514L251.22 451.498C250.852 451.498 250.74 451.354 250.708 451.226ZM251.988 450.714H255.732V445.434L251.988 450.714Z" fill="#1D1D1B"/>
<path d="M228.33 452.73C230.572 452.73 232.39 450.912 232.39 448.67C232.39 446.428 230.572 444.61 228.33 444.61C226.087 444.61 224.27 446.428 224.27 448.67C224.27 450.912 226.087 452.73 228.33 452.73Z" fill="#1D1D1B"/>
<path d="M311.846 305.828C311.846 306.1 311.67 306.26 311.446 306.26H310.646C310.422 306.26 310.246 306.1 310.246 305.828V296.532C309.622 297.06 307.974 298.148 307.318 298.516C307.142 298.612 306.918 298.676 306.758 298.5C306.518 298.228 306.726 297.972 306.934 297.828L308.806 296.516C310.822 295.092 311.062 294.58 311.43 294.58C311.686 294.58 311.846 294.756 311.846 295.012V305.828ZM323.049 305.828C323.049 306.1 322.873 306.26 322.649 306.26H321.849C321.625 306.26 321.449 306.1 321.449 305.828V296.532C320.825 297.06 319.177 298.148 318.521 298.516C318.345 298.612 318.121 298.676 317.961 298.5C317.721 298.228 317.929 297.972 318.137 297.828L320.009 296.516C322.025 295.092 322.265 294.58 322.633 294.58C322.889 294.58 323.049 294.756 323.049 295.012V305.828Z" fill="#1D1D1B"/>
<path d="M294.56 304.5C296.802 304.5 298.62 302.682 298.62 300.44C298.62 298.198 296.802 296.38 294.56 296.38C292.318 296.38 290.5 298.198 290.5 300.44C290.5 302.682 292.318 304.5 294.56 304.5Z" fill="#1D1D1B"/>
<path d="M261.606 358.988C261.606 359.26 261.43 359.42 261.206 359.42H260.406C260.182 359.42 260.006 359.26 260.006 358.988V349.692C259.382 350.22 257.734 351.308 257.078 351.676C256.902 351.772 256.678 351.836 256.518 351.66C256.278 351.388 256.486 351.132 256.694 350.988L258.566 349.676C260.582 348.252 260.822 347.74 261.19 347.74C261.446 347.74 261.606 347.916 261.606 348.172V358.988ZM272.377 350.396C272.377 348.604 270.105 347.884 268.505 349.9C268.249 350.22 267.961 350.172 267.833 350.076C267.529 349.852 267.737 349.356 268.233 348.892C268.681 348.476 269.545 347.74 271.081 347.74C272.633 347.74 273.881 348.476 274.041 349.692C274.249 351.244 273.081 352.524 272.265 352.78C272.585 352.7 274.345 352.956 274.793 354.524C275.721 357.724 272.633 361.116 268.313 360.86C268.041 360.844 267.577 360.812 267.561 360.508C267.545 360.092 267.977 360.156 268.521 360.14C271.193 360.06 272.873 358.044 273.177 355.884C273.369 354.572 272.633 353.324 270.633 353.66C270.345 353.708 270.057 353.66 270.009 353.372C269.961 353.084 270.249 352.94 270.473 352.812C270.729 352.668 272.377 351.836 272.377 350.396Z" fill="#1D1D1B"/>
<path d="M244.32 357.67C246.562 357.67 248.38 355.852 248.38 353.61C248.38 351.368 246.562 349.55 244.32 349.55C242.078 349.55 240.26 351.368 240.26 353.61C240.26 355.852 242.078 357.67 244.32 357.67Z" fill="#1D1D1B"/>
<path d="M373.026 444.178C373.026 444.45 372.85 444.61 372.626 444.61H371.826C371.602 444.61 371.426 444.45 371.426 444.178V434.882C370.802 435.41 369.154 436.498 368.498 436.866C368.322 436.962 368.098 437.026 367.938 436.85C367.698 436.578 367.906 436.322 368.114 436.178L369.986 434.866C372.002 433.442 372.242 432.93 372.61 432.93C372.866 432.93 373.026 433.106 373.026 433.362V444.178ZM386.165 444.178C386.133 444.45 385.989 444.61 385.717 444.61H379.237C378.837 444.61 378.581 444.514 378.581 444.114C378.581 442.898 379.877 441.17 381.733 439.73C383.429 438.402 384.341 437.298 384.373 435.954C384.389 435.362 384.149 433.858 382.453 433.858C381.029 433.858 380.261 434.882 379.637 435.842C379.429 436.162 379.125 436.114 378.981 436.018C378.485 435.682 379.205 434.722 379.845 434.082C380.277 433.65 381.317 432.93 382.757 432.93C385.221 432.93 386.133 434.482 386.133 435.81C386.133 436.914 385.925 438.002 384.053 439.282C382.117 440.594 380.085 442.002 380.085 443.17H385.445L385.573 442.77C385.669 442.482 385.749 442.306 385.989 442.306C386.245 442.306 386.325 442.498 386.293 442.77L386.165 444.178Z" fill="#1D1D1B"/>
<path d="M355.73 442.86C357.972 442.86 359.79 441.042 359.79 438.8C359.79 436.557 357.972 434.74 355.73 434.74C353.488 434.74 351.67 436.557 351.67 438.8C351.67 441.042 353.488 442.86 355.73 442.86Z" fill="#1D1D1B"/>
<path d="M87.2062 416.638C87.2062 416.91 87.0302 417.07 86.8062 417.07H86.0062C85.7822 417.07 85.6062 416.91 85.6062 416.638V407.342C84.9822 407.87 83.3342 408.958 82.6782 409.326C82.5022 409.422 82.2782 409.486 82.1182 409.31C81.8782 409.038 82.0862 408.782 82.2942 408.638L84.1662 407.326C86.1822 405.902 86.4222 405.39 86.7902 405.39C87.0462 405.39 87.2062 405.566 87.2062 405.822V416.638ZM99.7054 405.87C99.8654 405.87 100.137 405.95 100.105 406.302L100.041 406.878C100.009 407.23 99.7054 407.31 99.5454 407.31H94.6654L94.4894 410.27C97.4014 408.766 100.313 409.63 100.313 412.686C100.313 415.038 98.3134 417.454 96.1534 418.142C95.4494 418.366 93.6414 418.862 93.6734 418.158C93.6894 417.806 94.1054 417.806 94.4894 417.758C99.6734 417.118 99.7854 409.07 95.4494 410.638C94.6494 410.926 94.2814 411.39 93.9134 411.246C93.5934 411.118 93.6574 410.814 93.6734 410.414L93.9454 406.334C93.9774 406.126 94.0254 405.87 94.4254 405.87H99.7054Z" fill="#1D1D1B"/>
<path d="M69.9203 415.31C72.1626 415.31 73.9804 413.492 73.9804 411.25C73.9804 409.008 72.1626 407.19 69.9203 407.19C67.6781 407.19 65.8604 409.008 65.8604 411.25C65.8604 413.492 67.6781 415.31 69.9203 415.31Z" fill="#1D1D1B"/>
<path d="M285.794 395.99C286.13 395.99 286.514 395.926 286.546 396.31C286.562 396.598 286.306 396.79 285.97 397.126C284.978 398.118 282.338 400.518 282.338 407.798C282.338 408.294 282.066 408.63 281.506 408.63C281.106 408.63 280.642 408.486 280.642 407.286C280.642 404.582 282.514 399.59 284.562 397.43H279.042L278.818 398.678C278.77 398.966 278.674 399.11 278.434 399.11C278.178 399.11 278.034 398.934 278.05 398.678L278.13 396.486C278.13 396.374 278.082 395.99 278.626 395.99H285.794Z" fill="#1D1D1B"/>
<path d="M267.02 405.43C269.262 405.43 271.08 403.612 271.08 401.37C271.08 399.128 269.262 397.31 267.02 397.31C264.778 397.31 262.96 399.128 262.96 401.37C262.96 403.612 264.778 405.43 267.02 405.43Z" fill="#1D1D1B"/>
<path d="M327.806 374.948C327.806 375.22 327.63 375.38 327.406 375.38H326.606C326.382 375.38 326.206 375.22 326.206 374.948V365.652C325.582 366.18 323.934 367.268 323.278 367.636C323.102 367.732 322.878 367.796 322.718 367.62C322.478 367.348 322.686 367.092 322.894 366.948L324.766 365.636C326.782 364.212 327.022 363.7 327.39 363.7C327.646 363.7 327.806 363.876 327.806 364.132V374.948ZM341.761 369.828C341.761 373.028 339.665 375.38 337.393 375.38C335.121 375.38 333.025 373.028 333.025 369.828V369.252C333.025 366.052 335.121 363.7 337.393 363.7C339.665 363.7 341.745 366.052 341.745 369.252L341.761 369.828ZM334.785 369.524C334.785 372.116 335.857 374.58 337.393 374.58C338.913 374.58 340.001 372.116 340.001 369.524C340.001 366.916 338.913 364.5 337.393 364.5C335.857 364.5 334.785 366.916 334.785 369.524Z" fill="#1D1D1B"/>
<path d="M310.52 373.62C312.762 373.62 314.58 371.802 314.58 369.56C314.58 367.318 312.762 365.5 310.52 365.5C308.278 365.5 306.46 367.318 306.46 369.56C306.46 371.802 308.278 373.62 310.52 373.62Z" fill="#1D1D1B"/>
<path d="M113.764 152.626C113.764 150.834 111.492 150.114 109.892 152.13C109.636 152.45 109.348 152.402 109.22 152.306C108.916 152.082 109.124 151.586 109.62 151.122C110.068 150.706 110.932 149.97 112.468 149.97C114.02 149.97 115.268 150.706 115.428 151.922C115.636 153.474 114.468 154.754 113.652 155.01C113.972 154.93 115.732 155.186 116.18 156.754C117.108 159.954 114.02 163.346 109.7 163.09C109.428 163.074 108.964 163.042 108.948 162.738C108.932 162.322 109.364 162.386 109.908 162.37C112.58 162.29 114.26 160.274 114.564 158.114C114.756 156.802 114.02 155.554 112.02 155.89C111.732 155.938 111.444 155.89 111.396 155.602C111.348 155.314 111.636 155.17 111.86 155.042C112.116 154.898 113.764 154.066 113.764 152.626Z" fill="#1D1D1B"/>
<path d="M96.9096 159.89C99.1519 159.89 100.97 158.072 100.97 155.83C100.97 153.588 99.1519 151.77 96.9096 151.77C94.6673 151.77 92.8496 153.588 92.8496 155.83C92.8496 158.072 94.6673 159.89 96.9096 159.89Z" fill="#1D1D1B"/>
<path d="M21.3459 330.718C21.3459 330.99 21.1699 331.15 20.9459 331.15H20.1459C19.9219 331.15 19.7459 330.99 19.7459 330.718V321.422C19.1219 321.95 17.4739 323.038 16.8179 323.406C16.6419 323.502 16.4179 323.566 16.2579 323.39C16.0179 323.118 16.2259 322.862 16.4339 322.718L18.3059 321.406C20.3219 319.982 20.5619 319.47 20.9299 319.47C21.1859 319.47 21.3459 319.646 21.3459 319.902V330.718ZM29.653 323.342C28.405 322.702 27.589 321.518 27.557 320.542C27.493 318.67 28.853 317.23 31.013 317.23C33.109 317.23 34.309 318.686 34.309 320.254C34.309 321.326 33.221 322.718 32.021 323.102C33.733 323.886 34.933 325.134 34.933 326.59C34.933 328.702 33.413 329.95 30.837 329.95C28.645 329.95 26.933 328.734 26.933 326.814C26.933 325.31 27.797 323.998 29.653 323.342ZM28.533 326.846C28.533 328.238 29.701 329.23 31.093 329.214C32.421 329.198 33.333 328.366 33.333 327.022C33.333 326.046 32.757 324.99 30.437 323.902C29.173 324.382 28.533 325.422 28.533 326.846ZM28.997 320.03C28.997 321.022 29.429 321.598 31.045 322.59C32.053 322.222 32.853 321.166 32.853 320.142C32.853 319.23 32.373 317.966 30.949 317.966C29.557 317.966 28.997 319.198 28.997 320.03Z" fill="#1D1D1B"/>
<path d="M4.06 329.39C6.30228 329.39 8.12 327.572 8.12 325.33C8.12 323.088 6.30228 321.27 4.06 321.27C1.81772 321.27 0 323.088 0 325.33C0 327.572 1.81772 329.39 4.06 329.39Z" fill="#1D1D1B"/>
<path d="M76.4064 386.298C76.4064 386.57 76.2304 386.73 76.0064 386.73H75.2064C74.9824 386.73 74.8064 386.57 74.8064 386.298V377.002C74.1824 377.53 72.5344 378.618 71.8784 378.986C71.7024 379.082 71.4784 379.146 71.3184 378.97C71.0784 378.698 71.2864 378.442 71.4944 378.298L73.3664 376.986C75.3824 375.562 75.6224 375.05 75.9904 375.05C76.2464 375.05 76.4064 375.226 76.4064 375.482V386.298ZM81.8656 378.794C81.8656 376.474 83.7216 375.05 85.8496 375.05C88.0736 375.05 90.3296 376.666 90.0736 380.394C89.8176 384.138 87.0976 387.546 84.1056 388.074C83.8336 388.122 83.2896 388.186 83.2416 387.802C83.1936 387.386 83.6736 387.386 84.1056 387.29C86.6816 386.714 88.0736 383.45 88.2816 381.018C87.3056 381.898 86.4256 382.314 85.4976 382.314C83.5936 382.314 81.8656 381.002 81.8656 378.794ZM83.6256 378.586C83.6096 380.01 84.2656 381.514 85.6736 381.514C86.3616 381.514 87.2416 381.034 88.2976 379.77C88.1536 376.906 87.0496 375.85 85.6736 375.85C84.3936 375.85 83.6416 376.954 83.6256 378.586Z" fill="#1D1D1B"/>
<path d="M59.1196 384.97C61.3618 384.97 63.1796 383.152 63.1796 380.91C63.1796 378.668 61.3618 376.85 59.1196 376.85C56.8773 376.85 55.0596 378.668 55.0596 380.91C55.0596 383.152 56.8773 384.97 59.1196 384.97Z" fill="#1D1D1B"/>
<path d="M57.3424 205.478C57.3104 205.75 57.1664 205.91 56.8944 205.91H50.4144C50.0144 205.91 49.7584 205.814 49.7584 205.414C49.7584 204.198 51.0544 202.47 52.9104 201.03C54.6064 199.702 55.5184 198.598 55.5504 197.254C55.5664 196.662 55.3264 195.158 53.6304 195.158C52.2064 195.158 51.4384 196.182 50.8144 197.142C50.6064 197.462 50.3024 197.414 50.1584 197.318C49.6624 196.982 50.3824 196.022 51.0224 195.382C51.4544 194.95 52.4944 194.23 53.9344 194.23C56.3984 194.23 57.3104 195.782 57.3104 197.11C57.3104 198.214 57.1024 199.302 55.2304 200.582C53.2944 201.894 51.2624 203.302 51.2624 204.47H56.6224L56.7504 204.07C56.8464 203.782 56.9264 203.606 57.1664 203.606C57.4224 203.606 57.5024 203.798 57.4704 204.07L57.3424 205.478ZM69.3616 200.358C69.3616 203.558 67.2656 205.91 64.9936 205.91C62.7216 205.91 60.6256 203.558 60.6256 200.358V199.782C60.6256 196.582 62.7216 194.23 64.9936 194.23C67.2656 194.23 69.3456 196.582 69.3456 199.782L69.3616 200.358ZM62.3856 200.054C62.3856 202.646 63.4576 205.11 64.9936 205.11C66.5136 205.11 67.6016 202.646 67.6016 200.054C67.6016 197.446 66.5136 195.03 64.9936 195.03C63.4576 195.03 62.3856 197.446 62.3856 200.054Z" fill="#1D1D1B"/>
<path d="M38.1196 204.15C40.3618 204.15 42.1796 202.332 42.1796 200.09C42.1796 197.848 40.3618 196.03 38.1196 196.03C35.8773 196.03 34.0596 197.848 34.0596 200.09C34.0596 202.332 35.8773 204.15 38.1196 204.15Z" fill="#1D1D1B"/>
<path d="M99.6321 238.82C99.7921 238.82 100.064 238.9 100.032 239.252L99.9681 239.828C99.9361 240.18 99.6321 240.26 99.4721 240.26H94.5921L94.4161 243.22C97.3281 241.716 100.24 242.58 100.24 245.636C100.24 247.988 98.2401 250.404 96.0801 251.092C95.3761 251.316 93.5681 251.812 93.6001 251.108C93.6161 250.756 94.0321 250.756 94.4161 250.708C99.6001 250.068 99.7121 242.02 95.3761 243.588C94.5761 243.876 94.2081 244.34 93.8401 244.196C93.5201 244.068 93.5841 243.764 93.6001 243.364L93.8721 239.284C93.9041 239.076 93.9521 238.82 94.3521 238.82H99.6321Z" fill="#1D1D1B"/>
<path d="M81.0405 248.26C83.2827 248.26 85.1005 246.442 85.1005 244.2C85.1005 241.958 83.2827 240.14 81.0405 240.14C78.7982 240.14 76.9805 241.958 76.9805 244.2C76.9805 246.442 78.7982 248.26 81.0405 248.26Z" fill="#1D1D1B"/>
</svg>
