<svg width="484" height="476" viewBox="0 0 484 476" fill="none" xmlns="http://www.w3.org/2000/svg">
<path d="M346.73 45.6298C348.972 45.6298 350.79 43.812 350.79 41.5698C350.79 39.3275 348.972 37.5098 346.73 37.5098C344.488 37.5098 342.67 39.3275 342.67 41.5698C342.67 43.812 344.488 45.6298 346.73 45.6298Z" fill="#1D1D1B"/>
<path d="M430.35 129.25C432.592 129.25 434.41 127.432 434.41 125.19C434.41 122.948 432.592 121.13 430.35 121.13C428.108 121.13 426.29 122.948 426.29 125.19C426.29 127.432 428.108 129.25 430.35 129.25Z" fill="#1D1D1B"/>
<path d="M460.96 243.47C463.203 243.47 465.02 241.652 465.02 239.41C465.02 237.168 463.203 235.35 460.96 235.35C458.718 235.35 456.9 237.168 456.9 239.41C456.9 241.652 458.718 243.47 460.96 243.47Z" fill="#1D1D1B"/>
<path d="M430.35 357.7C432.592 357.7 434.41 355.882 434.41 353.64C434.41 351.398 432.592 349.58 430.35 349.58C428.108 349.58 426.29 351.398 426.29 353.64C426.29 355.882 428.108 357.7 430.35 357.7Z" fill="#1D1D1B"/>
<path d="M346.73 441.31C348.972 441.31 350.79 439.492 350.79 437.25C350.79 435.008 348.972 433.19 346.73 433.19C344.488 433.19 342.67 435.008 342.67 437.25C342.67 439.492 344.488 441.31 346.73 441.31Z" fill="#1D1D1B"/>
<path d="M228.45 467.86C228.45 465.62 230.27 463.8 232.51 463.8C234.75 463.8 236.57 465.62 236.57 467.86C236.57 470.1 234.75 471.92 232.51 471.92C230.27 471.92 228.45 470.1 228.45 467.86Z" fill="#1D1D1B"/>
<path d="M118.28 441.31C120.522 441.31 122.34 439.492 122.34 437.25C122.34 435.008 120.522 433.19 118.28 433.19C116.037 433.19 114.22 435.008 114.22 437.25C114.22 439.492 116.037 441.31 118.28 441.31Z" fill="#1D1D1B"/>
<path d="M34.6703 357.7C36.9126 357.7 38.7304 355.882 38.7304 353.64C38.7304 351.398 36.9126 349.58 34.6703 349.58C32.4281 349.58 30.6104 351.398 30.6104 353.64C30.6104 355.882 32.4281 357.7 34.6703 357.7Z" fill="#1D1D1B"/>
<path d="M4.06 235.35C6.3 235.35 8.12 237.17 8.12 239.41C8.12 241.65 6.3 243.47 4.06 243.47C1.82 243.47 0 241.65 0 239.41C0 237.17 1.82 235.35 4.06 235.35Z" fill="#1D1D1B"/>
<path d="M34.6703 129.25C36.9126 129.25 38.7304 127.432 38.7304 125.19C38.7304 122.948 36.9126 121.13 34.6703 121.13C32.4281 121.13 30.6104 122.948 30.6104 125.19C30.6104 127.432 32.4281 129.25 34.6703 129.25Z" fill="#1D1D1B"/>
<path d="M118.28 45.6298C120.522 45.6298 122.34 43.812 122.34 41.5698C122.34 39.3275 120.522 37.5098 118.28 37.5098C116.037 37.5098 114.22 39.3275 114.22 41.5698C114.22 43.812 116.037 45.6298 118.28 45.6298Z" fill="#1D1D1B"/>
<path d="M232.51 15.0199C234.752 15.0199 236.57 13.2022 236.57 10.9599C236.57 8.71763 234.752 6.8999 232.51 6.8999C230.268 6.8999 228.45 8.71763 228.45 10.9599C228.45 13.2022 230.268 15.0199 232.51 15.0199Z" fill="#1D1D1B"/>
<path d="M249.786 15.568C249.786 15.84 249.61 16 249.386 16H248.586C248.362 16 248.186 15.84 248.186 15.568V6.272C247.562 6.8 245.914 7.888 245.258 8.256C245.082 8.352 244.858 8.416 244.698 8.24C244.458 7.968 244.666 7.712 244.874 7.568L246.746 6.256C248.762 4.832 249.002 4.32 249.37 4.32C249.626 4.32 249.786 4.496 249.786 4.752V15.568Z" fill="#1D1D1B"/>
<path d="M365.952 46.1779C365.92 46.4499 365.776 46.6099 365.504 46.6099H359.024C358.624 46.6099 358.368 46.5139 358.368 46.1139C358.368 44.8979 359.664 43.1699 361.52 41.7299C363.216 40.4019 364.128 39.2979 364.16 37.9539C364.176 37.3619 363.936 35.8579 362.24 35.8579C360.816 35.8579 360.048 36.8819 359.424 37.8419C359.216 38.1619 358.912 38.1139 358.768 38.0179C358.272 37.6819 358.992 36.7219 359.632 36.0819C360.064 35.6499 361.104 34.9299 362.544 34.9299C365.008 34.9299 365.92 36.4819 365.92 37.8099C365.92 38.9139 365.712 40.0019 363.84 41.2819C361.904 42.5939 359.872 44.0019 359.872 45.1699H365.232L365.36 44.7699C365.456 44.4819 365.536 44.3059 365.776 44.3059C366.032 44.3059 366.112 44.4979 366.08 44.7699L365.952 46.1779Z" fill="#1D1D1B"/>
<path d="M447.194 121.206C447.194 119.414 444.922 118.694 443.322 120.71C443.066 121.03 442.778 120.982 442.65 120.886C442.346 120.662 442.554 120.166 443.05 119.702C443.498 119.286 444.362 118.55 445.898 118.55C447.45 118.55 448.698 119.286 448.858 120.502C449.066 122.054 447.898 123.334 447.082 123.59C447.402 123.51 449.162 123.766 449.61 125.334C450.538 128.534 447.45 131.926 443.13 131.67C442.858 131.654 442.394 131.622 442.378 131.318C442.362 130.902 442.794 130.966 443.338 130.95C446.01 130.87 447.69 128.854 447.994 126.694C448.186 125.382 447.45 124.134 445.45 124.47C445.162 124.518 444.874 124.47 444.826 124.182C444.778 123.894 445.066 123.75 445.29 123.622C445.546 123.478 447.194 122.646 447.194 121.206Z" fill="#1D1D1B"/>
<path d="M472.124 241.186C472.06 240.962 472.22 240.674 472.476 240.322L477.692 233.17C477.9 232.898 478.124 232.706 478.396 232.77C478.78 232.866 478.748 233.218 478.748 233.618V240.674H480.396C480.668 240.674 480.828 240.85 480.828 241.074C480.828 241.298 480.668 241.474 480.396 241.474H478.748V245.458C478.748 245.73 478.572 245.89 478.348 245.89H477.548C477.324 245.89 477.148 245.73 477.148 245.458V241.474L472.636 241.458C472.268 241.458 472.156 241.314 472.124 241.186ZM473.404 240.674H477.148V235.394L473.404 240.674Z" fill="#1D1D1B"/>
<path d="M448.922 347.48C449.082 347.48 449.354 347.56 449.322 347.912L449.258 348.488C449.226 348.84 448.922 348.92 448.762 348.92H443.882L443.706 351.88C446.618 350.376 449.53 351.24 449.53 354.296C449.53 356.648 447.53 359.064 445.37 359.752C444.666 359.976 442.858 360.472 442.89 359.768C442.906 359.416 443.322 359.416 443.706 359.368C448.89 358.728 449.002 350.68 444.666 352.248C443.866 352.536 443.498 353 443.13 352.856C442.81 352.728 442.874 352.424 442.89 352.024L443.162 347.944C443.194 347.736 443.242 347.48 443.642 347.48H448.922Z" fill="#1D1D1B"/>
<path d="M358.31 435.746C358.566 432.002 361.286 429.074 364.278 428.546C364.55 428.498 365.094 428.434 365.142 428.818C365.19 429.234 364.71 429.234 364.278 429.33C361.702 429.906 360.31 432.69 360.102 435.122C361.078 434.242 361.958 433.826 362.886 433.826C364.79 433.826 366.518 435.138 366.518 437.346C366.518 439.666 364.662 441.09 362.534 441.09C360.31 441.09 358.054 439.474 358.31 435.746ZM360.086 436.402C360.23 439.234 361.334 440.29 362.71 440.29C363.99 440.29 364.742 439.186 364.758 437.554C364.774 436.13 364.118 434.626 362.71 434.626C362.006 434.626 361.174 435.154 360.086 436.402Z" fill="#1D1D1B"/>
<path d="M251.274 461.7C251.61 461.7 251.994 461.636 252.026 462.02C252.042 462.308 251.786 462.5 251.45 462.836C250.458 463.828 247.818 466.228 247.818 473.508C247.818 474.004 247.546 474.34 246.986 474.34C246.586 474.34 246.122 474.196 246.122 472.996C246.122 470.292 247.994 465.3 250.042 463.14H244.522L244.298 464.388C244.25 464.676 244.154 464.82 243.914 464.82C243.658 464.82 243.514 464.644 243.53 464.388L243.61 462.196C243.61 462.084 243.562 461.7 244.106 461.7H251.274Z" fill="#1D1D1B"/>
<path d="M132.66 434.482C131.412 433.842 130.596 432.658 130.564 431.682C130.5 429.81 131.86 428.37 134.02 428.37C136.116 428.37 137.316 429.826 137.316 431.394C137.316 432.466 136.228 433.858 135.028 434.242C136.74 435.026 137.94 436.274 137.94 437.73C137.94 439.842 136.42 441.09 133.844 441.09C131.652 441.09 129.94 439.874 129.94 437.954C129.94 436.45 130.804 435.138 132.66 434.482ZM131.54 437.986C131.54 439.378 132.708 440.37 134.1 440.354C135.428 440.338 136.34 439.506 136.34 438.162C136.34 437.186 135.764 436.13 133.444 435.042C132.18 435.522 131.54 436.562 131.54 437.986ZM132.004 431.17C132.004 432.162 132.436 432.738 134.052 433.73C135.06 433.362 135.86 432.306 135.86 431.282C135.86 430.37 135.38 429.106 133.956 429.106C132.564 429.106 132.004 430.338 132.004 431.17Z" fill="#1D1D1B"/>
<path d="M46.2025 350.744C46.2025 348.424 48.0585 347 50.1865 347C52.4105 347 54.6665 348.616 54.4105 352.344C54.1545 356.088 51.4345 359.496 48.4425 360.024C48.1705 360.072 47.6265 360.136 47.5785 359.752C47.5305 359.336 48.0105 359.336 48.4425 359.24C51.0185 358.664 52.4105 355.4 52.6185 352.968C51.6425 353.848 50.7625 354.264 49.8345 354.264C47.9305 354.264 46.2025 352.952 46.2025 350.744ZM47.9625 350.536C47.9465 351.96 48.6025 353.464 50.0105 353.464C50.6985 353.464 51.5785 352.984 52.6345 351.72C52.4905 348.856 51.3865 347.8 50.0105 347.8C48.7305 347.8 47.9785 348.904 47.9625 350.536Z" fill="#1D1D1B"/>
<path d="M21.3361 244.018C21.3361 244.29 21.1601 244.45 20.9361 244.45H20.1361C19.9121 244.45 19.7361 244.29 19.7361 244.018V234.722C19.1121 235.25 17.4641 236.338 16.8081 236.706C16.6321 236.802 16.4081 236.866 16.2481 236.69C16.0081 236.418 16.2161 236.162 16.4241 236.018L18.2961 234.706C20.3121 233.282 20.5521 232.77 20.9201 232.77C21.1761 232.77 21.3361 232.946 21.3361 233.202V244.018ZM35.2912 238.898C35.2912 242.098 33.1952 244.45 30.9232 244.45C28.6512 244.45 26.5552 242.098 26.5552 238.898V238.322C26.5552 235.122 28.6512 232.77 30.9232 232.77C33.1952 232.77 35.2752 235.122 35.2752 238.322L35.2912 238.898ZM28.3152 238.594C28.3152 241.186 29.3872 243.65 30.9232 243.65C32.4432 243.65 33.5312 241.186 33.5312 238.594C33.5312 235.986 32.4432 233.57 30.9232 233.57C29.3872 233.57 28.3152 235.986 28.3152 238.594Z" fill="#1D1D1B"/>
<path d="M51.9465 129.798C51.9465 130.07 51.7705 130.23 51.5465 130.23H50.7465C50.5225 130.23 50.3465 130.07 50.3465 129.798V120.502C49.7225 121.03 48.0745 122.118 47.4185 122.486C47.2425 122.582 47.0185 122.646 46.8585 122.47C46.6185 122.198 46.8265 121.942 47.0345 121.798L48.9065 120.486C50.9225 119.062 51.1625 118.55 51.5305 118.55C51.7865 118.55 51.9465 118.726 51.9465 118.982V129.798ZM63.1496 129.798C63.1496 130.07 62.9736 130.23 62.7496 130.23H61.9496C61.7256 130.23 61.5496 130.07 61.5496 129.798V120.502C60.9256 121.03 59.2776 122.118 58.6216 122.486C58.4456 122.582 58.2216 122.646 58.0616 122.47C57.8216 122.198 58.0296 121.942 58.2376 121.798L60.1096 120.486C62.1256 119.062 62.3656 118.55 62.7336 118.55C62.9896 118.55 63.1496 118.726 63.1496 118.982V129.798Z" fill="#1D1D1B"/>
<path d="M135.556 46.1779C135.556 46.4499 135.38 46.6099 135.156 46.6099H134.356C134.132 46.6099 133.956 46.4499 133.956 46.1779V36.8819C133.332 37.4099 131.684 38.4979 131.028 38.8659C130.852 38.9619 130.628 39.0259 130.468 38.8499C130.228 38.5779 130.436 38.3219 130.644 38.1779L132.516 36.8659C134.532 35.4419 134.772 34.9299 135.14 34.9299C135.396 34.9299 135.556 35.1059 135.556 35.3619V46.1779ZM148.695 46.1779C148.663 46.4499 148.519 46.6099 148.247 46.6099H141.767C141.367 46.6099 141.111 46.5139 141.111 46.1139C141.111 44.8979 142.407 43.1699 144.263 41.7299C145.959 40.4019 146.871 39.2979 146.903 37.9539C146.919 37.3619 146.679 35.8579 144.983 35.8579C143.559 35.8579 142.791 36.8819 142.167 37.8419C141.959 38.1619 141.655 38.1139 141.511 38.0179C141.015 37.6819 141.735 36.7219 142.375 36.0819C142.807 35.6499 143.847 34.9299 145.287 34.9299C147.751 34.9299 148.663 36.4819 148.663 37.8099C148.663 38.9139 148.455 40.0019 146.583 41.2819C144.647 42.5939 142.615 44.0019 142.615 45.1699H147.975L148.103 44.7699C148.199 44.4819 148.279 44.3059 148.519 44.3059C148.775 44.3059 148.855 44.4979 148.823 44.7699L148.695 46.1779Z" fill="#1D1D1B"/>
</svg>
