<svg width="573" height="451" viewBox="0 0 573 451" fill="none" xmlns="http://www.w3.org/2000/svg">
<path d="M240.842 230.846C240.842 231.05 240.71 231.17 240.542 231.17H239.942C239.774 231.17 239.642 231.05 239.642 230.846V223.874C239.174 224.27 237.938 225.086 237.446 225.362C237.314 225.434 237.146 225.482 237.026 225.35C236.846 225.146 237.002 224.954 237.158 224.846L238.562 223.862C240.074 222.794 240.254 222.41 240.53 222.41C240.722 222.41 240.842 222.542 240.842 222.734V230.846Z" fill="#1D1D1B"/>
<path d="M225.36 229.42C227.602 229.42 229.42 227.602 229.42 225.36C229.42 223.118 227.602 221.3 225.36 221.3C223.118 221.3 221.3 223.118 221.3 225.36C221.3 227.602 223.118 229.42 225.36 229.42Z" fill="#1D1D1B"/>
<path d="M534.264 230.846C534.24 231.05 534.132 231.17 533.928 231.17H529.068C528.768 231.17 528.576 231.098 528.576 230.798C528.576 229.886 529.548 228.59 530.94 227.51C532.212 226.514 532.896 225.686 532.92 224.678C532.932 224.234 532.752 223.106 531.48 223.106C530.412 223.106 529.836 223.874 529.368 224.594C529.212 224.834 528.984 224.798 528.876 224.726C528.504 224.474 529.044 223.754 529.524 223.274C529.848 222.95 530.628 222.41 531.708 222.41C533.556 222.41 534.24 223.574 534.24 224.57C534.24 225.398 534.084 226.214 532.68 227.174C531.228 228.158 529.704 229.214 529.704 230.09H533.724L533.82 229.79C533.892 229.574 533.952 229.442 534.132 229.442C534.324 229.442 534.384 229.586 534.36 229.79L534.264 230.846Z" fill="#1D1D1B"/>
<path d="M517.33 229.42C519.572 229.42 521.39 227.602 521.39 225.36C521.39 223.118 519.572 221.3 517.33 221.3C515.088 221.3 513.27 223.118 513.27 225.36C513.27 227.602 515.088 229.42 517.33 229.42Z" fill="#1D1D1B"/>
<path d="M225.36 225.36L380.48 380.48" stroke="#1D1D1B" stroke-opacity="0.2" stroke-miterlimit="10" stroke-dasharray="4 4"/>
<path d="M375.88 381.12L379.61 379.61L381.12 375.88L384.71 384.71L375.88 381.12Z" fill="#1D1D1B" fill-opacity="0.2"/>
<path d="M225.36 225.36V444.74" stroke="#1D1D1B" stroke-opacity="0.2" stroke-miterlimit="10" stroke-dasharray="4 4"/>
<path d="M221.65 441.931L225.36 443.511L229.06 441.931L225.36 450.711L221.65 441.931Z" fill="#1D1D1B" fill-opacity="0.2"/>
<path d="M225.36 225.36L70.23 380.48" stroke="#1D1D1B" stroke-opacity="0.2" stroke-miterlimit="10" stroke-dasharray="4 4"/>
<path d="M69.59 375.88L71.1 379.61L74.83 381.12L66.01 384.71L69.59 375.88Z" fill="#1D1D1B" fill-opacity="0.2"/>
<path d="M225.36 225.36H5.96997" stroke="#1D1D1B" stroke-opacity="0.2" stroke-miterlimit="10" stroke-dasharray="4 4"/>
<path d="M8.78 221.65L7.21 225.36L8.78 229.06L0 225.36L8.78 221.65Z" fill="#1D1D1B" fill-opacity="0.2"/>
<path d="M225.36 225.359L70.23 70.2295" stroke="#1D1D1B" stroke-opacity="0.2" stroke-miterlimit="10" stroke-dasharray="4 4"/>
<path d="M74.83 69.5898L71.1 71.0998L69.59 74.8298L66.01 66.0098L74.83 69.5898Z" fill="#1D1D1B" fill-opacity="0.2"/>
<path d="M225.36 225.36V5.96973" stroke="#1D1D1B" stroke-opacity="0.2" stroke-miterlimit="10" stroke-dasharray="4 4"/>
<path d="M229.06 8.78L225.36 7.21L221.65 8.78L225.36 0L229.06 8.78Z" fill="#1D1D1B" fill-opacity="0.2"/>
<path d="M225.36 225.359L380.48 70.2295" stroke="#1D1D1B" stroke-opacity="0.2" stroke-miterlimit="10" stroke-dasharray="4 4"/>
<path d="M381.12 74.8298L379.61 71.0998L375.88 69.5898L384.71 66.0098L381.12 74.8298Z" fill="#1D1D1B" fill-opacity="0.2"/>
<path d="M225.36 225.36H565.65" stroke="#1D1D1B" stroke-miterlimit="10" stroke-dasharray="4 4"/>
<path d="M572.71 225.36L562.76 229.42L565.12 225.36L562.76 221.29L572.71 225.36Z" fill="#1D1D1B"/>
</svg>
