<svg width="576" height="539" viewBox="0 0 576 539" fill="none" xmlns="http://www.w3.org/2000/svg">
<path d="M393.21 271.09C393.21 319.133 354.263 358.08 306.22 358.08C258.177 358.08 219.23 319.133 219.23 271.09C219.23 223.047 258.177 184.1 306.22 184.1C354.263 184.1 393.21 223.047 393.21 271.09Z" stroke="black"/>
<g opacity="0.2">
<path d="M83.9501 38.35C86.1924 38.35 88.0101 36.5323 88.0101 34.29C88.0101 32.0477 86.1924 30.23 83.9501 30.23C81.7079 30.23 79.8901 32.0477 79.8901 34.29C79.8901 36.5323 81.7079 38.35 83.9501 38.35Z" fill="#1D1D1B"/>
<path d="M253.78 8.12C256.022 8.12 257.84 6.30228 257.84 4.06C257.84 1.81773 256.022 0 253.78 0C251.538 0 249.72 1.81773 249.72 4.06C249.72 6.30228 251.538 8.12 253.78 8.12Z" fill="#1D1D1B"/>
<path d="M195.95 157.88C198.192 157.88 200.01 156.062 200.01 153.82C200.01 151.578 198.192 149.76 195.95 149.76C193.708 149.76 191.89 151.578 191.89 153.82C191.89 156.062 193.708 157.88 195.95 157.88Z" fill="#1D1D1B"/>
<path d="M358.53 134.13C360.772 134.13 362.59 132.312 362.59 130.07C362.59 127.828 360.772 126.01 358.53 126.01C356.288 126.01 354.47 127.828 354.47 130.07C354.47 132.312 356.288 134.13 358.53 134.13Z" fill="#1D1D1B"/>
<path d="M372.39 153.82C374.632 153.82 376.45 152.002 376.45 149.76C376.45 147.518 374.632 145.7 372.39 145.7C370.148 145.7 368.33 147.518 368.33 149.76C368.33 152.002 370.148 153.82 372.39 153.82Z" fill="#1D1D1B"/>
<path d="M464.84 12.1801C467.083 12.1801 468.9 10.3623 468.9 8.12006C468.9 5.87778 467.083 4.06006 464.84 4.06006C462.598 4.06006 460.78 5.87778 460.78 8.12006C460.78 10.3623 462.598 12.1801 464.84 12.1801Z" fill="#1D1D1B"/>
<path d="M571.06 100.57C573.302 100.57 575.12 98.7525 575.12 96.5102C575.12 94.2679 573.302 92.4502 571.06 92.4502C568.818 92.4502 567 94.2679 567 96.5102C567 98.7525 568.818 100.57 571.06 100.57Z" fill="#1D1D1B"/>
<path d="M558.95 185C561.192 185 563.01 183.182 563.01 180.94C563.01 178.698 561.192 176.88 558.95 176.88C556.708 176.88 554.89 178.698 554.89 180.94C554.89 183.182 556.708 185 558.95 185Z" fill="#1D1D1B"/>
<path d="M462.46 332.38C464.702 332.38 466.52 330.562 466.52 328.32C466.52 326.077 464.702 324.26 462.46 324.26C460.218 324.26 458.4 326.077 458.4 328.32C458.4 330.562 460.218 332.38 462.46 332.38Z" fill="#1D1D1B"/>
<path d="M511.54 231.4C513.782 231.4 515.6 229.582 515.6 227.34C515.6 225.098 513.782 223.28 511.54 223.28C509.298 223.28 507.48 225.098 507.48 227.34C507.48 229.582 509.298 231.4 511.54 231.4Z" fill="#1D1D1B"/>
<path d="M499.11 424.69C501.352 424.69 503.17 422.872 503.17 420.63C503.17 418.388 501.352 416.57 499.11 416.57C496.868 416.57 495.05 418.388 495.05 420.63C495.05 422.872 496.868 424.69 499.11 424.69Z" fill="#1D1D1B"/>
<path d="M372.39 450.58C374.632 450.58 376.45 448.762 376.45 446.52C376.45 444.278 374.632 442.46 372.39 442.46C370.148 442.46 368.33 444.278 368.33 446.52C368.33 448.762 370.148 450.58 372.39 450.58Z" fill="#1D1D1B"/>
<path d="M145 328.32C147.242 328.32 149.06 326.502 149.06 324.26C149.06 322.018 147.242 320.2 145 320.2C142.758 320.2 140.94 322.018 140.94 324.26C140.94 326.502 142.758 328.32 145 328.32Z" fill="#1D1D1B"/>
<path d="M140.94 446.52C143.182 446.52 145 444.702 145 442.46C145 440.218 143.182 438.4 140.94 438.4C138.698 438.4 136.88 440.218 136.88 442.46C136.88 444.702 138.698 446.52 140.94 446.52Z" fill="#1D1D1B"/>
<path d="M350.41 424.69C352.652 424.69 354.47 422.872 354.47 420.63C354.47 418.388 352.652 416.57 350.41 416.57C348.168 416.57 346.35 418.388 346.35 420.63C346.35 422.872 348.168 424.69 350.41 424.69Z" fill="#1D1D1B"/>
<path d="M88.0102 253.95C90.2525 253.95 92.0702 252.132 92.0702 249.89C92.0702 247.648 90.2525 245.83 88.0102 245.83C85.7679 245.83 83.9502 247.648 83.9502 249.89C83.9502 252.132 85.7679 253.95 88.0102 253.95Z" fill="#1D1D1B"/>
<path d="M232.7 538.12C234.942 538.12 236.76 536.302 236.76 534.06C236.76 531.818 234.942 530 232.7 530C230.458 530 228.64 531.818 228.64 534.06C228.64 536.302 230.458 538.12 232.7 538.12Z" fill="#1D1D1B"/>
<path d="M4.60004 161.94C6.84231 161.94 8.66004 160.122 8.66004 157.88C8.66004 155.638 6.84231 153.82 4.60004 153.82C2.35776 153.82 0.540039 155.638 0.540039 157.88C0.540039 160.122 2.35776 161.94 4.60004 161.94Z" fill="#1D1D1B"/>
<path d="M53.4799 416.57C55.7222 416.57 57.5399 414.752 57.5399 412.51C57.5399 410.268 55.7222 408.45 53.4799 408.45C51.2377 408.45 49.4199 410.268 49.4199 412.51C49.4199 414.752 51.2377 416.57 53.4799 416.57Z" fill="#1D1D1B"/>
<path d="M441.64 521.88C443.882 521.88 445.7 520.062 445.7 517.82C445.7 515.577 443.882 513.76 441.64 513.76C439.398 513.76 437.58 515.577 437.58 517.82C437.58 520.062 439.398 521.88 441.64 521.88Z" fill="#1D1D1B"/>
<path d="M31.7299 197.82C33.9722 197.82 35.7899 196.002 35.7899 193.76C35.7899 191.518 33.9722 189.7 31.7299 189.7C29.4877 189.7 27.6699 191.518 27.6699 193.76C27.6699 196.002 29.4877 197.82 31.7299 197.82Z" fill="#1D1D1B"/>
</g>
<path d="M259.964 279.846C259.9 279.622 260.06 279.334 260.316 278.982L265.532 271.83C265.74 271.558 265.964 271.366 266.236 271.43C266.62 271.526 266.588 271.878 266.588 272.278V279.334H268.236C268.508 279.334 268.668 279.51 268.668 279.734C268.668 279.958 268.508 280.134 268.236 280.134H266.588V284.118C266.588 284.39 266.412 284.55 266.188 284.55H265.388C265.164 284.55 264.988 284.39 264.988 284.118V280.134L260.476 280.118C260.108 280.118 259.996 279.974 259.964 279.846ZM261.244 279.334H264.988V274.054L261.244 279.334Z" fill="#1D1D1B"/>
<path d="M248.79 281.35C251.032 281.35 252.85 279.532 252.85 277.29C252.85 275.048 251.032 273.23 248.79 273.23C246.548 273.23 244.73 275.048 244.73 277.29C244.73 279.532 246.548 281.35 248.79 281.35Z" fill="#1D1D1B"/>
<path d="M365.992 234.63C366.152 234.63 366.424 234.71 366.392 235.062L366.328 235.638C366.296 235.99 365.992 236.07 365.832 236.07H360.952L360.776 239.03C363.688 237.526 366.6 238.39 366.6 241.446C366.6 243.798 364.6 246.214 362.44 246.902C361.736 247.126 359.928 247.622 359.96 246.918C359.976 246.566 360.392 246.566 360.776 246.518C365.96 245.878 366.072 237.83 361.736 239.398C360.936 239.686 360.568 240.15 360.2 240.006C359.88 239.878 359.944 239.574 359.96 239.174L360.232 235.094C360.264 234.886 360.312 234.63 360.712 234.63H365.992Z" fill="#1D1D1B"/>
<path d="M347.4 244.07C349.642 244.07 351.46 242.252 351.46 240.01C351.46 237.767 349.642 235.95 347.4 235.95C345.158 235.95 343.34 237.767 343.34 240.01C343.34 242.252 345.158 244.07 347.4 244.07Z" fill="#1D1D1B"/>
<path d="M306.666 336.878C306.666 337.15 306.49 337.31 306.266 337.31H305.466C305.242 337.31 305.066 337.15 305.066 336.878V327.582C304.442 328.11 302.794 329.198 302.138 329.566C301.962 329.662 301.738 329.726 301.578 329.55C301.338 329.278 301.546 329.022 301.754 328.878L303.626 327.566C305.642 326.142 305.882 325.63 306.25 325.63C306.506 325.63 306.666 325.806 306.666 326.062V336.878Z" fill="#1D1D1B"/>
<path d="M289.38 335.56C291.622 335.56 293.44 333.742 293.44 331.5C293.44 329.258 291.622 327.44 289.38 327.44C287.138 327.44 285.32 329.258 285.32 331.5C285.32 333.742 287.138 335.56 289.38 335.56Z" fill="#1D1D1B"/>
<path d="M368.324 297.016C368.324 295.224 366.052 294.504 364.452 296.52C364.196 296.84 363.908 296.792 363.78 296.696C363.476 296.472 363.684 295.976 364.18 295.512C364.628 295.096 365.492 294.36 367.028 294.36C368.58 294.36 369.828 295.096 369.988 296.312C370.196 297.864 369.028 299.144 368.212 299.4C368.532 299.32 370.292 299.576 370.74 301.144C371.668 304.344 368.58 307.736 364.26 307.48C363.988 307.464 363.524 307.432 363.508 307.128C363.492 306.712 363.924 306.776 364.468 306.76C367.14 306.68 368.82 304.664 369.124 302.504C369.316 301.192 368.58 299.944 366.58 300.28C366.292 300.328 366.004 300.28 365.956 299.992C365.908 299.704 366.196 299.56 366.42 299.432C366.676 299.288 368.324 298.456 368.324 297.016Z" fill="#1D1D1B"/>
<path d="M351.46 304.28C353.702 304.28 355.52 302.462 355.52 300.22C355.52 297.977 353.702 296.16 351.46 296.16C349.218 296.16 347.4 297.977 347.4 300.22C347.4 302.462 349.218 304.28 351.46 304.28Z" fill="#1D1D1B"/>
<path d="M301.532 222.848C301.5 223.12 301.356 223.28 301.084 223.28H294.604C294.204 223.28 293.948 223.184 293.948 222.784C293.948 221.568 295.244 219.84 297.1 218.4C298.796 217.072 299.708 215.968 299.74 214.624C299.756 214.032 299.516 212.528 297.82 212.528C296.396 212.528 295.628 213.552 295.004 214.512C294.796 214.832 294.492 214.784 294.348 214.688C293.852 214.352 294.572 213.392 295.212 212.752C295.644 212.32 296.684 211.6 298.124 211.6C300.588 211.6 301.5 213.152 301.5 214.48C301.5 215.584 301.292 216.672 299.42 217.952C297.484 219.264 295.452 220.672 295.452 221.84H300.812L300.94 221.44C301.036 221.152 301.116 220.976 301.356 220.976C301.612 220.976 301.692 221.168 301.66 221.44L301.532 222.848Z" fill="#1D1D1B"/>
<path d="M282.31 221.52C284.552 221.52 286.37 219.702 286.37 217.46C286.37 215.218 284.552 213.4 282.31 213.4C280.068 213.4 278.25 215.218 278.25 217.46C278.25 219.702 280.068 221.52 282.31 221.52Z" fill="#1D1D1B"/>
</svg>
