<svg width="740" height="523" viewBox="0 0 740 523" fill="none" xmlns="http://www.w3.org/2000/svg">
<path d="M162.01 94.5444C161.074 94.0644 160.462 93.1764 160.438 92.4444C160.39 91.0404 161.41 89.9604 163.03 89.9604C164.602 89.9604 165.502 91.0524 165.502 92.2284C165.502 93.0324 164.686 94.0764 163.786 94.3644C165.07 94.9524 165.97 95.8884 165.97 96.9804C165.97 98.5644 164.83 99.5004 162.898 99.5004C161.254 99.5004 159.97 98.5884 159.97 97.1484C159.97 96.0204 160.618 95.0364 162.01 94.5444ZM161.17 97.1724C161.17 98.2164 162.046 98.9604 163.09 98.9484C164.086 98.9364 164.77 98.3124 164.77 97.3044C164.77 96.5724 164.338 95.7804 162.598 94.9644C161.65 95.3244 161.17 96.1044 161.17 97.1724ZM161.518 92.0604C161.518 92.8044 161.842 93.2364 163.054 93.9804C163.81 93.7044 164.41 92.9124 164.41 92.1444C164.41 91.4604 164.05 90.5124 162.982 90.5124C161.938 90.5124 161.518 91.4364 161.518 92.0604ZM173.556 92.0004C173.676 92.0004 173.88 92.0604 173.856 92.3244L173.808 92.7564C173.784 93.0204 173.556 93.0804 173.436 93.0804H169.776L169.644 95.3004C171.828 94.1724 174.012 94.8204 174.012 97.1124C174.012 98.8764 172.512 100.688 170.892 101.204C170.364 101.372 169.008 101.744 169.032 101.216C169.044 100.952 169.356 100.952 169.644 100.916C173.532 100.436 173.616 94.4004 170.364 95.5764C169.764 95.7924 169.488 96.1404 169.212 96.0324C168.972 95.9364 169.02 95.7084 169.032 95.4084L169.236 92.3484C169.26 92.1924 169.296 92.0004 169.596 92.0004H173.556ZM176.715 95.4924C176.907 92.6844 178.947 90.4884 181.191 90.0924C181.395 90.0564 181.803 90.0084 181.839 90.2964C181.875 90.6084 181.515 90.6084 181.191 90.6804C179.259 91.1124 178.215 93.2004 178.059 95.0244C178.791 94.3644 179.451 94.0524 180.147 94.0524C181.575 94.0524 182.871 95.0364 182.871 96.6924C182.871 98.4324 181.479 99.5004 179.883 99.5004C178.215 99.5004 176.523 98.2884 176.715 95.4924ZM178.047 95.9844C178.155 98.1084 178.983 98.9004 180.015 98.9004C180.975 98.9004 181.539 98.0724 181.551 96.8484C181.563 95.7804 181.071 94.6524 180.015 94.6524C179.487 94.6524 178.863 95.0484 178.047 95.9844ZM190.841 100.076C190.817 100.28 190.709 100.4 190.505 100.4H185.645C185.345 100.4 185.153 100.328 185.153 100.028C185.153 99.1164 186.125 97.8204 187.517 96.7404C188.789 95.7444 189.473 94.9164 189.497 93.9084C189.509 93.4644 189.329 92.3364 188.057 92.3364C186.989 92.3364 186.413 93.1044 185.945 93.8244C185.789 94.0644 185.561 94.0284 185.453 93.9564C185.081 93.7044 185.621 92.9844 186.101 92.5044C186.425 92.1804 187.205 91.6404 188.285 91.6404C190.133 91.6404 190.817 92.8044 190.817 93.8004C190.817 94.6284 190.661 95.4444 189.257 96.4044C187.805 97.3884 186.281 98.4444 186.281 99.3204H190.301L190.397 99.0204C190.469 98.8044 190.529 98.6724 190.709 98.6724C190.901 98.6724 190.961 98.8164 190.937 99.0204L190.841 100.076Z" fill="#1D1D1B"/>
<path d="M148.7 98.6503C150.942 98.6503 152.76 96.8326 152.76 94.5903C152.76 92.348 150.942 90.5303 148.7 90.5303C146.458 90.5303 144.64 92.348 144.64 94.5903C144.64 96.8326 146.458 98.6503 148.7 98.6503Z" fill="#1D1D1B"/>
<path d="M238.14 514.634C237.204 514.154 236.592 513.266 236.568 512.534C236.52 511.13 237.54 510.05 239.16 510.05C240.732 510.05 241.632 511.142 241.632 512.318C241.632 513.122 240.816 514.166 239.916 514.454C241.2 515.042 242.1 515.978 242.1 517.07C242.1 518.654 240.96 519.59 239.028 519.59C237.384 519.59 236.1 518.678 236.1 517.238C236.1 516.11 236.748 515.126 238.14 514.634ZM237.3 517.262C237.3 518.306 238.176 519.05 239.22 519.038C240.216 519.026 240.9 518.402 240.9 517.394C240.9 516.662 240.468 515.87 238.728 515.054C237.78 515.414 237.3 516.194 237.3 517.262ZM237.648 512.15C237.648 512.894 237.972 513.326 239.184 514.07C239.94 513.794 240.54 513.002 240.54 512.234C240.54 511.55 240.18 510.602 239.112 510.602C238.068 510.602 237.648 511.526 237.648 512.15ZM246.542 514.634C245.606 514.154 244.994 513.266 244.97 512.534C244.922 511.13 245.942 510.05 247.562 510.05C249.134 510.05 250.034 511.142 250.034 512.318C250.034 513.122 249.218 514.166 248.318 514.454C249.602 515.042 250.502 515.978 250.502 517.07C250.502 518.654 249.362 519.59 247.43 519.59C245.786 519.59 244.502 518.678 244.502 517.238C244.502 516.11 245.15 515.126 246.542 514.634ZM245.702 517.262C245.702 518.306 246.578 519.05 247.622 519.038C248.618 519.026 249.302 518.402 249.302 517.394C249.302 516.662 248.87 515.87 247.13 515.054C246.182 515.414 245.702 516.194 245.702 517.262ZM246.05 512.15C246.05 512.894 246.374 513.326 247.586 514.07C248.342 513.794 248.942 513.002 248.942 512.234C248.942 511.55 248.582 510.602 247.514 510.602C246.47 510.602 246.05 511.526 246.05 512.15Z" fill="#1D1D1B"/>
<path d="M224.83 518.73C227.072 518.73 228.89 516.913 228.89 514.67C228.89 512.428 227.072 510.61 224.83 510.61C222.588 510.61 220.77 512.428 220.77 514.67C220.77 516.913 222.588 518.73 224.83 518.73Z" fill="#1D1D1B"/>
<path d="M120.886 419.117L122.542 413.441H121.714C121.51 413.441 121.378 413.333 121.378 413.141C121.378 412.961 121.51 412.841 121.714 412.841H124.006C124.186 412.841 124.306 412.973 124.306 413.141C124.306 413.309 124.186 413.441 124.006 413.441H123.178L120.814 421.421C120.778 421.541 120.682 421.601 120.586 421.601C120.49 421.601 120.406 421.541 120.37 421.421L117.838 413.441H117.01C116.794 413.441 116.674 413.309 116.674 413.141C116.674 412.973 116.794 412.841 117.01 412.841H120.178C120.382 412.841 120.514 412.961 120.514 413.141C120.514 413.333 120.382 413.441 120.178 413.441H119.098L120.886 419.117ZM131.184 421.001C131.412 421.001 131.544 421.121 131.544 421.301C131.544 421.481 131.412 421.601 131.184 421.601H126.624C126.396 421.601 126.264 421.481 126.264 421.301C126.264 421.121 126.396 421.001 126.624 421.001H128.316V413.441H126.612C126.396 413.441 126.264 413.321 126.264 413.141C126.264 412.961 126.396 412.841 126.612 412.841H131.172C131.388 412.841 131.52 412.961 131.52 413.141C131.52 413.321 131.388 413.441 131.172 413.441H129.516V421.001H131.184ZM139.587 421.001C139.815 421.001 139.947 421.121 139.947 421.301C139.947 421.481 139.815 421.601 139.587 421.601H135.027C134.799 421.601 134.667 421.481 134.667 421.301C134.667 421.121 134.799 421.001 135.027 421.001H136.719V413.441H135.015C134.799 413.441 134.667 413.321 134.667 413.141C134.667 412.961 134.799 412.841 135.015 412.841H139.575C139.791 412.841 139.923 412.961 139.923 413.141C139.923 413.321 139.791 413.441 139.575 413.441H137.919V421.001H139.587ZM147.989 421.001C148.217 421.001 148.349 421.121 148.349 421.301C148.349 421.481 148.217 421.601 147.989 421.601H143.429C143.201 421.601 143.069 421.481 143.069 421.301C143.069 421.121 143.201 421.001 143.429 421.001H145.121V413.441H143.417C143.201 413.441 143.069 413.321 143.069 413.141C143.069 412.961 143.201 412.841 143.417 412.841H147.977C148.193 412.841 148.325 412.961 148.325 413.141C148.325 413.321 148.193 413.441 147.977 413.441H146.321V421.001H147.989Z" fill="#1D1D1B"/>
<path d="M106.22 419.841C108.462 419.841 110.28 418.023 110.28 415.781C110.28 413.538 108.462 411.721 106.22 411.721C103.978 411.721 102.16 413.538 102.16 415.781C102.16 418.023 103.978 419.841 106.22 419.841Z" fill="#1D1D1B"/>
<path d="M425.278 100.341C425.062 100.341 424.93 100.221 424.93 100.041C424.93 99.8608 425.062 99.7408 425.278 99.7408H426.13V92.2888L425.278 92.1928C425.062 92.1688 424.93 92.0368 424.93 91.8808C424.93 91.7008 425.074 91.5808 425.278 91.5808H428.938C430.378 91.5808 431.578 92.3368 431.578 93.6808C431.578 94.9528 430.738 95.4208 430.402 95.5528L430.066 95.6848L430.402 95.7688C430.75 95.8528 431.986 96.3808 431.986 97.8808C431.986 99.3088 430.774 100.341 429.418 100.341H425.278ZM427.33 99.7408H429.046C430.306 99.7408 430.786 98.8288 430.786 97.8808C430.786 96.6688 430.018 96.0208 429.046 96.0208H427.33V99.7408ZM427.33 95.4208H429.046C429.502 95.4208 430.378 94.8448 430.378 93.6808C430.378 92.5528 429.526 92.1808 429.046 92.1808H427.33V95.4208Z" fill="#1D1D1B"/>
<path d="M414.14 98.5809C416.382 98.5809 418.2 96.7632 418.2 94.5209C418.2 92.2787 416.382 90.4609 414.14 90.4609C411.898 90.4609 410.08 92.2787 410.08 94.5209C410.08 96.7632 411.898 98.5809 414.14 98.5809Z" fill="#1D1D1B"/>
<path d="M272.322 265.216C272.322 265.42 272.19 265.54 272.022 265.54H271.422C271.254 265.54 271.122 265.42 271.122 265.216V258.244C270.654 258.64 269.418 259.456 268.926 259.732C268.794 259.804 268.626 259.852 268.506 259.72C268.326 259.516 268.482 259.324 268.638 259.216L270.042 258.232C271.554 257.164 271.734 256.78 272.01 256.78C272.202 256.78 272.322 256.912 272.322 257.104V265.216Z" fill="#1D1D1B"/>
<path d="M256.84 263.78C259.082 263.78 260.9 261.962 260.9 259.72C260.9 257.478 259.082 255.66 256.84 255.66C254.598 255.66 252.78 257.478 252.78 259.72C252.78 261.962 254.598 263.78 256.84 263.78Z" fill="#1D1D1B"/>
<path d="M487.9 11.7C487.9 11.532 488.02 11.4 488.236 11.4H488.872L490.996 7.764L489.028 3.84H488.236C488.02 3.84 487.9 3.708 487.9 3.54C487.9 3.372 488.02 3.24 488.236 3.24H490.888C491.092 3.24 491.224 3.36 491.224 3.54C491.224 3.72 491.092 3.84 490.888 3.84H490.396L491.74 6.492L493.288 3.84H492.484C492.268 3.84 492.148 3.708 492.148 3.54C492.148 3.372 492.268 3.24 492.484 3.24H494.968C495.172 3.24 495.304 3.36 495.304 3.54C495.304 3.72 495.172 3.84 494.968 3.84H494.128L492.124 7.272L494.212 11.4H494.968C495.172 11.4 495.304 11.52 495.304 11.7C495.304 11.88 495.172 12 494.968 12H492.268C492.052 12 491.932 11.868 491.932 11.7C491.932 11.532 492.052 11.4 492.268 11.4H492.832L491.392 8.532L489.712 11.4H490.504C490.708 11.4 490.84 11.52 490.84 11.7C490.84 11.88 490.708 12 490.504 12H488.236C488.02 12 487.9 11.868 487.9 11.7Z" fill="#1D1D1B"/>
<path d="M477.29 10.2401C479.532 10.2401 481.35 8.42239 481.35 6.18012C481.35 3.93784 479.532 2.12012 477.29 2.12012C475.048 2.12012 473.23 3.93784 473.23 6.18012C473.23 8.42239 475.048 10.2401 477.29 10.2401Z" fill="#1D1D1B"/>
<path d="M626.622 132.707C626.514 132.935 626.454 133.139 626.226 133.139C625.986 133.139 625.926 132.935 625.818 132.707L624.102 129.011V134.951H625.134C625.35 134.951 625.47 135.083 625.47 135.251C625.47 135.431 625.35 135.551 625.134 135.551H622.71C622.53 135.551 622.398 135.431 622.398 135.251C622.398 135.071 622.53 134.951 622.71 134.951H623.382L623.37 127.451L622.746 127.391C622.554 127.367 622.398 127.295 622.398 127.091C622.398 126.887 622.554 126.791 622.746 126.791H623.91C624.282 126.791 624.39 127.007 624.582 127.415L626.538 131.375L628.314 127.415C628.506 127.007 628.614 126.791 628.986 126.791H630.114C630.306 126.791 630.462 126.887 630.462 127.091C630.462 127.295 630.306 127.367 630.114 127.391L629.598 127.451L629.586 134.951H630.126C630.342 134.951 630.462 135.083 630.462 135.251C630.462 135.431 630.342 135.551 630.126 135.551H627.486C627.306 135.551 627.174 135.431 627.174 135.251C627.174 135.071 627.306 134.951 627.486 134.951H628.386V128.723L626.622 132.707Z" fill="#1D1D1B"/>
<path d="M612.16 133.791C614.402 133.791 616.22 131.973 616.22 129.731C616.22 127.489 614.402 125.671 612.16 125.671C609.918 125.671 608.1 127.489 608.1 129.731C608.1 131.973 609.918 133.791 612.16 133.791Z" fill="#1D1D1B"/>
<path d="M483.764 473.288C483.764 471.548 485.156 470.48 486.752 470.48C488.42 470.48 490.112 471.692 489.92 474.488C489.728 477.296 487.688 479.852 485.444 480.248C485.24 480.284 484.832 480.332 484.796 480.044C484.76 479.732 485.12 479.732 485.444 479.66C487.376 479.228 488.42 476.78 488.576 474.956C487.844 475.616 487.184 475.928 486.488 475.928C485.06 475.928 483.764 474.944 483.764 473.288ZM485.084 473.132C485.072 474.2 485.564 475.328 486.62 475.328C487.136 475.328 487.796 474.968 488.588 474.02C488.48 471.872 487.652 471.08 486.62 471.08C485.66 471.08 485.096 471.908 485.084 473.132ZM492.202 474.332C492.394 471.524 494.434 469.328 496.678 468.932C496.882 468.896 497.29 468.848 497.326 469.136C497.362 469.448 497.002 469.448 496.678 469.52C494.746 469.952 493.702 472.04 493.546 473.864C494.278 473.204 494.938 472.892 495.634 472.892C497.062 472.892 498.358 473.876 498.358 475.532C498.358 477.272 496.966 478.34 495.37 478.34C493.702 478.34 492.01 477.128 492.202 474.332ZM493.534 474.824C493.642 476.948 494.47 477.74 495.502 477.74C496.462 477.74 497.026 476.912 497.038 475.688C497.05 474.62 496.558 473.492 495.502 473.492C494.974 473.492 494.35 473.888 493.534 474.824Z" fill="#1D1D1B"/>
<path d="M472.59 477.48C474.832 477.48 476.65 475.663 476.65 473.42C476.65 471.178 474.832 469.36 472.59 469.36C470.348 469.36 468.53 471.178 468.53 473.42C468.53 475.663 470.348 477.48 472.59 477.48Z" fill="#1D1D1B"/>
<path d="M548.718 508.891C548.97 508.195 549.462 507.679 549.978 507.487C550.458 507.295 551.454 507.019 552.978 505.927C554.286 504.979 554.262 504.943 554.622 505.159C554.85 505.303 554.91 505.543 554.766 505.855L549.594 516.883C549.474 517.147 549.318 517.303 549.102 517.219C548.838 517.111 548.922 516.871 549.03 516.631L554.118 505.783C553.83 505.975 553.518 506.335 553.026 506.671C552.246 507.199 551.61 507.499 551.106 507.679C551.562 508.123 551.706 508.987 551.382 509.863C550.998 510.907 550.086 511.543 549.354 511.279C548.622 511.015 548.334 509.947 548.718 508.891ZM549.282 509.095C549.006 509.839 549.066 510.499 549.546 510.703C550.038 510.907 550.53 510.343 550.806 509.623C551.094 508.855 551.01 508.195 550.542 508.003C550.062 507.811 549.558 508.351 549.282 509.095ZM552.198 513.055C552.582 512.011 553.494 511.375 554.226 511.639C554.958 511.903 555.246 512.971 554.862 514.027C554.478 515.083 553.566 515.719 552.834 515.455C552.102 515.191 551.802 514.123 552.198 513.055ZM552.774 513.295C552.486 514.063 552.57 514.723 553.038 514.915C553.518 515.107 554.022 514.567 554.298 513.823C554.574 513.079 554.514 512.419 554.034 512.215C553.542 512.011 553.05 512.575 552.774 513.295Z" fill="#1D1D1B"/>
<path d="M537.64 513.791C539.882 513.791 541.7 511.973 541.7 509.731C541.7 507.489 539.882 505.671 537.64 505.671C535.398 505.671 533.58 507.489 533.58 509.731C533.58 511.973 535.398 513.791 537.64 513.791Z" fill="#1D1D1B"/>
<path d="M370.904 344.281C371.024 344.281 371.228 344.341 371.204 344.605L371.156 345.037C371.132 345.301 370.904 345.361 370.784 345.361H367.124L366.992 347.581C369.176 346.453 371.36 347.101 371.36 349.393C371.36 351.157 369.86 352.969 368.24 353.485C367.712 353.653 366.356 354.025 366.38 353.497C366.392 353.233 366.704 353.233 366.992 353.197C370.88 352.717 370.964 346.681 367.712 347.857C367.112 348.073 366.836 348.421 366.56 348.313C366.32 348.217 366.368 347.989 366.38 347.689L366.584 344.629C366.608 344.473 366.644 344.281 366.944 344.281H370.904ZM380.398 348.517C380.398 350.917 378.826 352.681 377.122 352.681C375.418 352.681 373.846 350.917 373.846 348.517V348.085C373.846 345.685 375.418 343.921 377.122 343.921C378.826 343.921 380.386 345.685 380.386 348.085L380.398 348.517ZM375.166 348.289C375.166 350.233 375.97 352.081 377.122 352.081C378.262 352.081 379.078 350.233 379.078 348.289C379.078 346.333 378.262 344.521 377.122 344.521C375.97 344.521 375.166 346.333 375.166 348.289ZM388.801 348.517C388.801 350.917 387.229 352.681 385.525 352.681C383.821 352.681 382.249 350.917 382.249 348.517V348.085C382.249 345.685 383.821 343.921 385.525 343.921C387.229 343.921 388.789 345.685 388.789 348.085L388.801 348.517ZM383.569 348.289C383.569 350.233 384.373 352.081 385.525 352.081C386.665 352.081 387.481 350.233 387.481 348.289C387.481 346.333 386.665 344.521 385.525 344.521C384.373 344.521 383.569 346.333 383.569 348.289Z" fill="#1D1D1B"/>
<path d="M354.45 350.921C356.692 350.921 358.51 349.103 358.51 346.861C358.51 344.619 356.692 342.801 354.45 342.801C352.208 342.801 350.39 344.619 350.39 346.861C350.39 349.103 352.208 350.921 354.45 350.921Z" fill="#1D1D1B"/>
<path d="M495.112 224.997C496.492 224.997 497.452 225.657 497.452 226.785V230.433C497.716 230.625 498.172 230.277 498.532 229.305C498.652 228.981 498.832 228.957 498.988 229.017C499.24 229.113 499.18 229.413 498.94 230.001C498.7 230.589 498.184 231.189 497.464 231.189C497.068 231.189 496.804 231.021 496.696 230.937L496.264 230.625L495.88 230.805C495.4 231.033 494.896 231.201 494.392 231.201C493.36 231.201 492.592 230.649 492.592 229.485C492.592 228.393 493.204 227.949 494.404 227.769L495.184 227.649C496.132 227.493 496.276 227.061 496.276 226.641V226.425C496.276 225.837 495.82 225.561 495.136 225.561C494.692 225.561 494.356 225.669 494.26 225.861V226.701C494.26 227.073 494.032 227.325 493.552 227.325C493.192 227.325 492.82 227.073 492.82 226.521C492.82 225.705 493.96 224.997 495.112 224.997ZM493.792 229.365C493.792 230.013 494.08 230.541 494.752 230.541C495.208 230.541 495.724 230.253 496.108 229.869C496.228 229.749 496.252 229.593 496.252 229.473V227.997L495.232 228.237C494.236 228.477 493.792 228.657 493.792 229.365Z" fill="#1D1D1B"/>
<path d="M481.25 229.381C483.492 229.381 485.31 227.563 485.31 225.321C485.31 223.078 483.492 221.261 481.25 221.261C479.008 221.261 477.19 223.078 477.19 225.321C477.19 227.563 479.008 229.381 481.25 229.381Z" fill="#1D1D1B"/>
<path d="M649.24 319.261C649.24 316.501 650.848 314.821 652.612 314.821C654.388 314.821 655.972 316.477 655.972 319.261C655.972 322.033 654.412 323.677 652.648 323.701L651.82 324.397C652.756 324.481 653.44 325.261 653.956 325.261C654.184 325.261 654.424 325.201 654.844 324.529C655.048 324.217 655.312 324.181 655.48 324.301C655.648 324.409 655.72 324.649 655.576 324.889L655.348 325.273C654.916 326.005 654.244 326.041 653.944 326.041C653.128 326.041 652.396 325.177 651.676 325.177C651.436 325.177 651.208 325.345 650.872 325.633C650.548 325.909 650.212 325.849 650.032 325.657C649.864 325.465 649.852 325.153 650.164 324.889L651.736 323.557C650.332 323.113 649.24 321.577 649.24 319.261ZM650.56 319.261C650.56 321.337 651.256 323.101 652.612 323.101C653.956 323.101 654.652 321.337 654.652 319.261C654.652 317.197 653.956 315.421 652.612 315.421C651.256 315.421 650.56 317.197 650.56 319.261Z" fill="#1D1D1B"/>
<path d="M638.33 321.881C640.572 321.881 642.39 320.063 642.39 317.821C642.39 315.578 640.572 313.761 638.33 313.761C636.088 313.761 634.27 315.578 634.27 317.821C634.27 320.063 636.088 321.881 638.33 321.881Z" fill="#1D1D1B"/>
<path d="M1 263.79L8.53 257.96" stroke="#1D1D1B" stroke-width="0.25" stroke-miterlimit="10"/>
<path d="M1 270.53L17.25 257.96" stroke="#1D1D1B" stroke-width="0.25" stroke-miterlimit="10"/>
<path d="M1 277.27L25.98 257.96" stroke="#1D1D1B" stroke-width="0.25" stroke-miterlimit="10"/>
<path d="M4.55005 281.27L34.7 257.96" stroke="#1D1D1B" stroke-width="0.25" stroke-miterlimit="10"/>
<path d="M13.27 281.27L43.42 257.96" stroke="#1D1D1B" stroke-width="0.25" stroke-miterlimit="10"/>
<path d="M21.99 281.27L52.15 257.96" stroke="#1D1D1B" stroke-width="0.25" stroke-miterlimit="10"/>
<path d="M30.72 281.27L60.87 257.96" stroke="#1D1D1B" stroke-width="0.25" stroke-miterlimit="10"/>
<path d="M39.4399 281.27L69.5899 257.96" stroke="#1D1D1B" stroke-width="0.25" stroke-miterlimit="10"/>
<path d="M48.16 281.27L78.32 257.96" stroke="#1D1D1B" stroke-width="0.25" stroke-miterlimit="10"/>
<path d="M56.89 281.27L87.04 257.96" stroke="#1D1D1B" stroke-width="0.25" stroke-miterlimit="10"/>
<path d="M65.61 281.27L95.76 257.96" stroke="#1D1D1B" stroke-width="0.25" stroke-miterlimit="10"/>
<path d="M74.33 281.27L104.49 257.96" stroke="#1D1D1B" stroke-width="0.25" stroke-miterlimit="10"/>
<path d="M83.0601 281.27L113.21 257.96" stroke="#1D1D1B" stroke-width="0.25" stroke-miterlimit="10"/>
<path d="M91.78 281.27L121.93 257.96" stroke="#1D1D1B" stroke-width="0.25" stroke-miterlimit="10"/>
<path d="M100.5 281.27L130.65 257.96" stroke="#1D1D1B" stroke-width="0.25" stroke-miterlimit="10"/>
<path d="M109.23 281.27L139.38 257.96" stroke="#1D1D1B" stroke-width="0.25" stroke-miterlimit="10"/>
<path d="M117.95 281.27L148.1 257.96" stroke="#1D1D1B" stroke-width="0.25" stroke-miterlimit="10"/>
<path d="M126.67 281.27L156.82 257.96" stroke="#1D1D1B" stroke-width="0.25" stroke-miterlimit="10"/>
<path d="M135.39 281.27L165.55 257.96" stroke="#1D1D1B" stroke-width="0.25" stroke-miterlimit="10"/>
<path d="M144.12 281.27L174.27 257.96" stroke="#1D1D1B" stroke-width="0.25" stroke-miterlimit="10"/>
<path d="M152.84 281.27L182.99 257.96" stroke="#1D1D1B" stroke-width="0.25" stroke-miterlimit="10"/>
<path d="M161.56 281.27L191.72 257.96" stroke="#1D1D1B" stroke-width="0.25" stroke-miterlimit="10"/>
<path d="M170.29 281.27L200.44 257.96" stroke="#1D1D1B" stroke-width="0.25" stroke-miterlimit="10"/>
<path d="M179.01 281.27L209.16 257.96" stroke="#1D1D1B" stroke-width="0.25" stroke-miterlimit="10"/>
<path d="M187.73 281.27L217.89 257.96" stroke="#1D1D1B" stroke-width="0.25" stroke-miterlimit="10"/>
<path d="M196.46 281.27L226.61 257.96" stroke="#1D1D1B" stroke-width="0.25" stroke-miterlimit="10"/>
<path d="M205.18 281.27L235.33 257.96" stroke="#1D1D1B" stroke-width="0.25" stroke-miterlimit="10"/>
<path d="M213.9 281.27L244.06 257.96" stroke="#1D1D1B" stroke-width="0.25" stroke-miterlimit="10"/>
<path d="M222.63 281.27L252.78 257.96" stroke="#1D1D1B" stroke-width="0.25" stroke-miterlimit="10"/>
<path d="M231.35 281.27L261.5 257.96" stroke="#1D1D1B" stroke-width="0.25" stroke-miterlimit="10"/>
<path d="M240.07 281.27L270.23 257.96" stroke="#1D1D1B" stroke-width="0.25" stroke-miterlimit="10"/>
<path d="M248.8 281.27L278.95 257.96" stroke="#1D1D1B" stroke-width="0.25" stroke-miterlimit="10"/>
<path d="M257.52 281.27L287.67 257.96" stroke="#1D1D1B" stroke-width="0.25" stroke-miterlimit="10"/>
<path d="M266.24 281.27L296.39 257.96" stroke="#1D1D1B" stroke-width="0.25" stroke-miterlimit="10"/>
<path d="M274.96 281.27L305.12 257.96" stroke="#1D1D1B" stroke-width="0.25" stroke-miterlimit="10"/>
<path d="M283.69 281.27L313.84 257.96" stroke="#1D1D1B" stroke-width="0.25" stroke-miterlimit="10"/>
<path d="M292.41 281.27L322.56 257.96" stroke="#1D1D1B" stroke-width="0.25" stroke-miterlimit="10"/>
<path d="M301.13 281.27L331.29 257.96" stroke="#1D1D1B" stroke-width="0.25" stroke-miterlimit="10"/>
<path d="M309.86 281.27L340.01 257.96" stroke="#1D1D1B" stroke-width="0.25" stroke-miterlimit="10"/>
<path d="M318.58 281.27L348.73 257.96" stroke="#1D1D1B" stroke-width="0.25" stroke-miterlimit="10"/>
<path d="M327.3 281.27L357.46 257.96" stroke="#1D1D1B" stroke-width="0.25" stroke-miterlimit="10"/>
<path d="M336.03 281.27L366.18 257.96" stroke="#1D1D1B" stroke-width="0.25" stroke-miterlimit="10"/>
<path d="M344.75 281.27L374.9 257.96" stroke="#1D1D1B" stroke-width="0.25" stroke-miterlimit="10"/>
<path d="M353.47 281.27L383.63 257.96" stroke="#1D1D1B" stroke-width="0.25" stroke-miterlimit="10"/>
<path d="M362.2 281.27L392.35 257.96" stroke="#1D1D1B" stroke-width="0.25" stroke-miterlimit="10"/>
<path d="M370.92 281.27L401.07 257.96" stroke="#1D1D1B" stroke-width="0.25" stroke-miterlimit="10"/>
<path d="M379.64 281.27L409.8 257.96" stroke="#1D1D1B" stroke-width="0.25" stroke-miterlimit="10"/>
<path d="M388.37 281.27L418.52 257.96" stroke="#1D1D1B" stroke-width="0.25" stroke-miterlimit="10"/>
<path d="M397.09 281.27L427.24 257.96" stroke="#1D1D1B" stroke-width="0.25" stroke-miterlimit="10"/>
<path d="M405.81 281.27L435.96 257.96" stroke="#1D1D1B" stroke-width="0.25" stroke-miterlimit="10"/>
<path d="M414.53 281.27L444.69 257.96" stroke="#1D1D1B" stroke-width="0.25" stroke-miterlimit="10"/>
<path d="M423.26 281.27L453.41 257.96" stroke="#1D1D1B" stroke-width="0.25" stroke-miterlimit="10"/>
<path d="M431.98 281.27L462.13 257.96" stroke="#1D1D1B" stroke-width="0.25" stroke-miterlimit="10"/>
<path d="M440.7 281.27L470.86 257.96" stroke="#1D1D1B" stroke-width="0.25" stroke-miterlimit="10"/>
<path d="M449.43 281.27L479.58 257.96" stroke="#1D1D1B" stroke-width="0.25" stroke-miterlimit="10"/>
<path d="M458.15 281.27L488.3 257.96" stroke="#1D1D1B" stroke-width="0.25" stroke-miterlimit="10"/>
<path d="M466.87 281.27L497.03 257.96" stroke="#1D1D1B" stroke-width="0.25" stroke-miterlimit="10"/>
<path d="M475.6 281.27L505.75 257.96" stroke="#1D1D1B" stroke-width="0.25" stroke-miterlimit="10"/>
<path d="M484.32 281.27L514.47 257.96" stroke="#1D1D1B" stroke-width="0.25" stroke-miterlimit="10"/>
<path d="M493.04 281.27L523.2 257.96" stroke="#1D1D1B" stroke-width="0.25" stroke-miterlimit="10"/>
<path d="M501.77 281.27L531.92 257.96" stroke="#1D1D1B" stroke-width="0.25" stroke-miterlimit="10"/>
<path d="M510.49 281.27L540.64 257.96" stroke="#1D1D1B" stroke-width="0.25" stroke-miterlimit="10"/>
<path d="M519.21 281.27L549.37 257.96" stroke="#1D1D1B" stroke-width="0.25" stroke-miterlimit="10"/>
<path d="M527.94 281.27L558.09 257.96" stroke="#1D1D1B" stroke-width="0.25" stroke-miterlimit="10"/>
<path d="M536.66 281.27L566.81 257.96" stroke="#1D1D1B" stroke-width="0.25" stroke-miterlimit="10"/>
<path d="M545.38 281.27L575.54 257.96" stroke="#1D1D1B" stroke-width="0.25" stroke-miterlimit="10"/>
<path d="M554.11 281.27L584.26 257.96" stroke="#1D1D1B" stroke-width="0.25" stroke-miterlimit="10"/>
<path d="M562.83 281.27L592.98 257.96" stroke="#1D1D1B" stroke-width="0.25" stroke-miterlimit="10"/>
<path d="M571.55 281.27L601.7 257.96" stroke="#1D1D1B" stroke-width="0.25" stroke-miterlimit="10"/>
<path d="M580.27 281.27L610.43 257.96" stroke="#1D1D1B" stroke-width="0.25" stroke-miterlimit="10"/>
<path d="M589 281.27L619.15 257.96" stroke="#1D1D1B" stroke-width="0.25" stroke-miterlimit="10"/>
<path d="M597.72 281.27L627.87 257.96" stroke="#1D1D1B" stroke-width="0.25" stroke-miterlimit="10"/>
<path d="M606.44 281.27L636.6 257.96" stroke="#1D1D1B" stroke-width="0.25" stroke-miterlimit="10"/>
<path d="M615.17 281.27L645.32 257.96" stroke="#1D1D1B" stroke-width="0.25" stroke-miterlimit="10"/>
<path d="M623.89 281.27L654.04 257.96" stroke="#1D1D1B" stroke-width="0.25" stroke-miterlimit="10"/>
<path d="M632.61 281.27L662.77 257.96" stroke="#1D1D1B" stroke-width="0.25" stroke-miterlimit="10"/>
<path d="M641.34 281.27L671.49 257.96" stroke="#1D1D1B" stroke-width="0.25" stroke-miterlimit="10"/>
<path d="M650.06 281.27L680.21 257.96" stroke="#1D1D1B" stroke-width="0.25" stroke-miterlimit="10"/>
<path d="M658.78 281.27L688.94 257.96" stroke="#1D1D1B" stroke-width="0.25" stroke-miterlimit="10"/>
<path d="M667.51 281.27L697.66 257.96" stroke="#1D1D1B" stroke-width="0.25" stroke-miterlimit="10"/>
<path d="M676.23 281.27L706.38 257.96" stroke="#1D1D1B" stroke-width="0.25" stroke-miterlimit="10"/>
<path d="M684.95 281.27L715.11 257.96" stroke="#1D1D1B" stroke-width="0.25" stroke-miterlimit="10"/>
<path d="M693.68 281.27L723.83 257.96" stroke="#1D1D1B" stroke-width="0.25" stroke-miterlimit="10"/>
<path d="M702.4 281.27L732.55 257.96" stroke="#1D1D1B" stroke-width="0.25" stroke-miterlimit="10"/>
<path d="M711.12 281.27L741.27 257.96" stroke="#1D1D1B" stroke-width="0.25" stroke-miterlimit="10"/>
<path d="M719.84 281.27L750 257.96" stroke="#1D1D1B" stroke-width="0.25" stroke-miterlimit="10"/>
<path d="M728.57 281.27L758.17 258.39" stroke="#1D1D1B" stroke-width="0.25" stroke-miterlimit="10"/>
<path d="M737.29 281.27L758.17 265.13" stroke="#1D1D1B" stroke-width="0.25" stroke-miterlimit="10"/>
</svg>
