<svg width="257" height="264" viewBox="0 0 257 264" fill="none" xmlns="http://www.w3.org/2000/svg">
<path d="M81.3801 143.35C83.6223 143.35 85.4401 141.555 85.4401 139.34C85.4401 137.125 83.6223 135.33 81.3801 135.33C79.1378 135.33 77.3201 137.125 77.3201 139.34C77.3201 141.555 79.1378 143.35 81.3801 143.35Z" fill="#1E1E1C"/>
<path d="M95.1726 135.565C95.1726 133.786 92.9178 133.072 91.3299 135.073C91.0758 135.39 90.79 135.343 90.663 135.247C90.3613 135.025 90.5677 134.533 91.0599 134.072C91.5046 133.659 92.362 132.929 93.8864 132.929C95.4266 132.929 96.6652 133.659 96.8239 134.866C97.0304 136.406 95.8712 137.677 95.0614 137.931C95.379 137.851 97.1256 138.105 97.5703 139.662C98.4912 142.837 95.4266 146.204 91.1393 145.95C90.8694 145.934 90.4089 145.902 90.393 145.6C90.3772 145.187 90.8059 145.251 91.3458 145.235C93.9975 145.156 95.6648 143.155 95.9665 141.011C96.157 139.709 95.4266 138.471 93.4418 138.804C93.1559 138.852 92.8701 138.804 92.8225 138.518C92.7749 138.233 93.0607 138.09 93.283 137.963C93.537 137.82 95.1726 136.994 95.1726 135.565Z" fill="#1E1E1C"/>
<path d="M4.06 14.8305C6.30228 14.8305 8.12 13.0352 8.12 10.8205C8.12 8.60588 6.30228 6.81055 4.06 6.81055C1.81772 6.81055 0 8.60588 0 10.8205C0 13.0352 1.81772 14.8305 4.06 14.8305Z" fill="#1E1E1C"/>
<path d="M12.581 8.12411C12.581 5.82169 14.4229 4.40847 16.5348 4.40847C18.7419 4.40847 20.9809 6.01223 20.7268 9.71199C20.4727 13.4276 17.7733 16.8098 14.804 17.3338C14.5341 17.3815 13.9942 17.445 13.9465 17.0639C13.8989 16.651 14.3753 16.651 14.804 16.5558C17.3605 15.9841 18.7419 12.7448 18.9484 10.3313C17.9798 11.2046 17.1064 11.6174 16.1855 11.6174C14.2959 11.6174 12.581 10.3154 12.581 8.12411ZM14.3276 7.91769C14.3118 9.3309 14.9628 10.8235 16.3601 10.8235C17.0429 10.8235 17.9162 10.3471 18.9642 9.09272C18.8213 6.25041 17.7257 5.20241 16.3601 5.20241C15.0898 5.20241 14.3435 6.29805 14.3276 7.91769ZM23.6992 8.12411C23.6992 5.82169 25.5412 4.40847 27.6531 4.40847C29.8602 4.40847 32.0991 6.01223 31.8451 9.71199C31.591 13.4276 28.8916 16.8098 25.9223 17.3338C25.6523 17.3815 25.1124 17.445 25.0648 17.0639C25.0172 16.651 25.4935 16.651 25.9223 16.5558C28.4788 15.9841 29.8602 12.7448 30.0666 10.3313C29.098 11.2046 28.2247 11.6174 27.3037 11.6174C25.4141 11.6174 23.6992 10.3154 23.6992 8.12411ZM25.4459 7.91769C25.43 9.3309 26.0811 10.8235 27.4784 10.8235C28.1612 10.8235 29.0345 10.3471 30.0825 9.09272C29.9396 6.25041 28.844 5.20241 27.4784 5.20241C26.2081 5.20241 25.4618 6.29805 25.4459 7.91769ZM34.8175 8.12411C34.8175 5.82169 36.6594 4.40847 38.7713 4.40847C40.9785 4.40847 43.2174 6.01223 42.9633 9.71199C42.7093 13.4276 40.0099 16.8098 37.0405 17.3338C36.7706 17.3815 36.2307 17.445 36.1831 17.0639C36.1354 16.651 36.6118 16.651 37.0405 16.5558C39.597 15.9841 40.9785 12.7448 41.1849 10.3313C40.2163 11.2046 39.343 11.6174 38.422 11.6174C36.5324 11.6174 34.8175 10.3154 34.8175 8.12411ZM36.5642 7.91769C36.5483 9.3309 37.1993 10.8235 38.5967 10.8235C39.2794 10.8235 40.1528 10.3471 41.2008 9.09272C41.0579 6.25041 39.9622 5.20241 38.5967 5.20241C37.3263 5.20241 36.58 6.29805 36.5642 7.91769Z" fill="#1E1E1C"/>
<path d="M166.84 14.8305C169.082 14.8305 170.9 13.0352 170.9 10.8205C170.9 8.60588 169.082 6.81055 166.84 6.81055C164.598 6.81055 162.78 8.60588 162.78 10.8205C162.78 13.0352 164.598 14.8305 166.84 14.8305Z" fill="#1E1E1C"/>
<path d="M175.361 8.12411C175.361 5.82169 177.203 4.40847 179.315 4.40847C181.522 4.40847 183.761 6.01223 183.507 9.71199C183.253 13.4276 180.553 16.8098 177.584 17.3338C177.314 17.3815 176.774 17.445 176.726 17.0639C176.679 16.651 177.155 16.651 177.584 16.5558C180.14 15.9841 181.522 12.7448 181.728 10.3313C180.76 11.2046 179.886 11.6174 178.965 11.6174C177.076 11.6174 175.361 10.3154 175.361 8.12411ZM177.107 7.91769C177.092 9.3309 177.743 10.8235 179.14 10.8235C179.823 10.8235 180.696 10.3471 181.744 9.09272C181.601 6.25041 180.505 5.20241 179.14 5.20241C177.87 5.20241 177.123 6.29805 177.107 7.91769ZM186.479 8.12411C186.479 5.82169 188.321 4.40847 190.433 4.40847C192.64 4.40847 194.879 6.01223 194.625 9.71199C194.371 13.4276 191.671 16.8098 188.702 17.3338C188.432 17.3815 187.892 17.445 187.845 17.0639C187.797 16.651 188.273 16.651 188.702 16.5558C191.259 15.9841 192.64 12.7448 192.846 10.3313C191.878 11.2046 191.004 11.6174 190.084 11.6174C188.194 11.6174 186.479 10.3154 186.479 8.12411ZM188.226 7.91769C188.21 9.3309 188.861 10.8235 190.258 10.8235C190.941 10.8235 191.814 10.3471 192.862 9.09272C192.719 6.25041 191.624 5.20241 190.258 5.20241C188.988 5.20241 188.242 6.29805 188.226 7.91769ZM197.597 8.12411C197.597 5.82169 199.439 4.40847 201.551 4.40847C203.758 4.40847 205.997 6.01223 205.743 9.71199C205.489 13.4276 202.79 16.8098 199.82 17.3338C199.55 17.3815 199.01 17.445 198.963 17.0639C198.915 16.651 199.392 16.651 199.82 16.5558C202.377 15.9841 203.758 12.7448 203.965 10.3313C202.996 11.2046 202.123 11.6174 201.202 11.6174C199.312 11.6174 197.597 10.3154 197.597 8.12411ZM199.344 7.91769C199.328 9.3309 199.979 10.8235 201.376 10.8235C202.059 10.8235 202.933 10.3471 203.981 9.09272C203.838 6.25041 202.742 5.20241 201.376 5.20241C200.106 5.20241 199.36 6.29805 199.344 7.91769Z" fill="#1E1E1C"/>
<path d="M164.28 134.371C166.522 134.371 168.34 132.575 168.34 130.361C168.34 128.146 166.522 126.351 164.28 126.351C162.038 126.351 160.22 128.146 160.22 130.361C160.22 132.575 162.038 134.371 164.28 134.371Z" fill="#1E1E1C"/>
<path d="M179.787 124.415C179.946 124.415 180.216 124.495 180.184 124.844L180.121 125.415C180.089 125.765 179.787 125.844 179.629 125.844H174.786L174.611 128.782C177.501 127.289 180.391 128.147 180.391 131.179C180.391 133.514 178.406 135.911 176.262 136.594C175.564 136.816 173.769 137.309 173.801 136.61C173.817 136.261 174.23 136.261 174.611 136.213C179.756 135.578 179.867 127.591 175.564 129.147C174.77 129.433 174.404 129.893 174.039 129.75C173.722 129.623 173.785 129.322 173.801 128.925L174.071 124.876C174.103 124.669 174.15 124.415 174.547 124.415H179.787Z" fill="#1E1E1C"/>
<path d="M237.32 164.49C239.562 164.49 241.38 162.694 241.38 160.48C241.38 158.265 239.562 156.47 237.32 156.47C235.078 156.47 233.26 158.265 233.26 160.48C233.26 162.694 235.078 164.49 237.32 164.49Z" fill="#1E1E1C"/>
<path d="M253.018 154.535C253.351 154.535 253.732 154.472 253.764 154.853C253.78 155.139 253.526 155.329 253.193 155.663C252.208 156.647 249.588 159.029 249.588 166.254C249.588 166.746 249.318 167.079 248.762 167.079C248.365 167.079 247.905 166.937 247.905 165.746C247.905 163.062 249.763 158.108 251.795 155.964H246.317L246.095 157.203C246.047 157.489 245.952 157.632 245.714 157.632C245.46 157.632 245.317 157.457 245.333 157.203L245.412 155.027C245.412 154.916 245.364 154.535 245.904 154.535H253.018Z" fill="#1E1E1C"/>
<path d="M209.08 226.28C211.322 226.28 213.14 224.484 213.14 222.27C213.14 220.055 211.322 218.26 209.08 218.26C206.838 218.26 205.02 220.055 205.02 222.27C205.02 224.484 206.838 226.28 209.08 226.28Z" fill="#1E1E1C"/>
<path d="M217.601 219.574C217.601 217.272 219.443 215.859 221.555 215.859C223.762 215.859 226.001 217.462 225.747 221.162C225.493 224.878 222.793 228.26 219.824 228.784C219.554 228.832 219.014 228.895 218.967 228.514C218.919 228.101 219.395 228.101 219.824 228.006C222.381 227.434 223.762 224.195 223.968 221.781C223 222.655 222.126 223.068 221.205 223.068C219.316 223.068 217.601 221.766 217.601 219.574ZM219.348 219.368C219.332 220.781 219.983 222.274 221.38 222.274C222.063 222.274 222.936 221.797 223.984 220.543C223.841 217.701 222.746 216.653 221.38 216.653C220.11 216.653 219.364 217.748 219.348 219.368Z" fill="#1E1E1C"/>
<path d="M158.72 246.541C160.962 246.541 162.78 244.745 162.78 242.531C162.78 240.316 160.962 238.521 158.72 238.521C156.478 238.521 154.66 240.316 154.66 242.531C154.66 244.745 156.478 246.541 158.72 246.541Z" fill="#1E1E1C"/>
<path d="M172.941 247.281C172.941 247.551 172.767 247.71 172.544 247.71H171.75C171.528 247.71 171.353 247.551 171.353 247.281V238.056C170.734 238.58 169.099 239.659 168.448 240.025C168.273 240.12 168.051 240.183 167.892 240.009C167.654 239.739 167.86 239.485 168.067 239.342L169.924 238.04C171.925 236.627 172.163 236.118 172.529 236.118C172.783 236.118 172.941 236.293 172.941 236.547V247.281ZM184.06 247.281C184.06 247.551 183.885 247.71 183.663 247.71H182.869C182.646 247.71 182.472 247.551 182.472 247.281V238.056C181.852 238.58 180.217 239.659 179.566 240.025C179.391 240.12 179.169 240.183 179.01 240.009C178.772 239.739 178.978 239.485 179.185 239.342L181.043 238.04C183.043 236.627 183.282 236.118 183.647 236.118C183.901 236.118 184.06 236.293 184.06 236.547V247.281Z" fill="#1E1E1C"/>
<path d="M99.51 259.081C101.752 259.081 103.57 257.285 103.57 255.071C103.57 252.856 101.752 251.061 99.51 251.061C97.2677 251.061 95.45 252.856 95.45 255.071C95.45 257.285 97.2677 259.081 99.51 259.081Z" fill="#1E1E1C"/>
<path d="M113.731 259.821C113.731 260.091 113.557 260.25 113.334 260.25H112.54C112.318 260.25 112.144 260.091 112.144 259.821V250.596C111.524 251.12 109.889 252.199 109.238 252.565C109.063 252.66 108.841 252.723 108.682 252.549C108.444 252.279 108.65 252.025 108.857 251.882L110.714 250.58C112.715 249.167 112.953 248.658 113.319 248.658C113.573 248.658 113.731 248.833 113.731 249.087V259.821ZM124.421 251.294C124.421 249.516 122.166 248.801 120.578 250.802C120.324 251.12 120.038 251.072 119.911 250.977C119.61 250.754 119.816 250.262 120.308 249.802C120.753 249.389 121.61 248.658 123.135 248.658C124.675 248.658 125.914 249.389 126.072 250.596C126.279 252.136 125.12 253.406 124.31 253.66C124.627 253.581 126.374 253.835 126.819 255.391C127.74 258.567 124.675 261.933 120.388 261.679C120.118 261.663 119.657 261.631 119.641 261.33C119.626 260.917 120.054 260.98 120.594 260.965C123.246 260.885 124.913 258.884 125.215 256.741C125.405 255.439 124.675 254.2 122.69 254.534C122.404 254.581 122.119 254.534 122.071 254.248C122.023 253.962 122.309 253.819 122.531 253.692C122.785 253.549 124.421 252.723 124.421 251.294Z" fill="#1E1E1C"/>
<path d="M40.3 231.831C42.5423 231.831 44.36 230.035 44.36 227.821C44.36 225.606 42.5423 223.811 40.3 223.811C38.0577 223.811 36.24 225.606 36.24 227.821C36.24 230.035 38.0577 231.831 40.3 231.831Z" fill="#1E1E1C"/>
<path d="M54.5212 232.562C54.5212 232.831 54.3465 232.99 54.1242 232.99H53.3303C53.108 232.99 52.9333 232.831 52.9333 232.562V223.336C52.3141 223.86 50.6785 224.94 50.0275 225.305C49.8528 225.4 49.6305 225.464 49.4717 225.289C49.2336 225.019 49.44 224.765 49.6464 224.622L51.5042 223.32C53.505 221.907 53.7431 221.399 54.1084 221.399C54.3624 221.399 54.5212 221.573 54.5212 221.827V232.562ZM66.9257 221.875C67.0844 221.875 67.3544 221.954 67.3226 222.304L67.2591 222.875C67.2273 223.225 66.9257 223.304 66.7669 223.304H61.9238L61.7492 226.242C64.6391 224.749 67.529 225.607 67.529 228.639C67.529 230.974 65.5442 233.371 63.4006 234.054C62.7019 234.276 60.9076 234.769 60.9393 234.07C60.9552 233.721 61.3681 233.721 61.7492 233.673C66.8939 233.038 67.005 225.051 62.7019 226.607C61.9079 226.893 61.5427 227.353 61.1775 227.21C60.8599 227.083 60.9235 226.782 60.9393 226.385L61.2093 222.336C61.241 222.129 61.2887 221.875 61.6856 221.875H66.9257Z" fill="#1E1E1C"/>
<path d="M24.35 181.05C26.5923 181.05 28.41 179.255 28.41 177.04C28.41 174.826 26.5923 173.03 24.35 173.03C22.1078 173.03 20.29 174.826 20.29 177.04C20.29 179.255 22.1078 181.05 24.35 181.05Z" fill="#1E1E1C"/>
<path d="M38.5713 181.791C38.5713 182.061 38.3966 182.22 38.1743 182.22H37.3803C37.158 182.22 36.9834 182.061 36.9834 181.791V172.565C36.3641 173.089 34.7286 174.169 34.0776 174.534C33.9029 174.63 33.6806 174.693 33.5218 174.519C33.2836 174.249 33.49 173.995 33.6965 173.852L35.5543 172.55C37.555 171.136 37.7932 170.628 38.1584 170.628C38.4125 170.628 38.5713 170.803 38.5713 171.057V181.791Z" fill="#1E1E1C"/>
</svg>
