<svg width="617" height="539" viewBox="0 0 617 539" fill="none" xmlns="http://www.w3.org/2000/svg">
<path d="M4.06 534.56C6.30228 534.56 8.12 532.765 8.12 530.55C8.12 528.335 6.30228 526.54 4.06 526.54C1.81772 526.54 0 528.335 0 530.55C0 532.765 1.81772 534.56 4.06 534.56Z" fill="#1E1E1C"/>
<path d="M50.54 515.19C52.7823 515.19 54.6 513.395 54.6 511.18C54.6 508.965 52.7823 507.17 50.54 507.17C48.2977 507.17 46.48 508.965 46.48 511.18C46.48 513.395 48.2977 515.19 50.54 515.19Z" fill="#1E1E1C"/>
<path d="M97.42 528.42C99.6623 528.42 101.48 526.625 101.48 524.41C101.48 522.196 99.6623 520.4 97.42 520.4C95.1777 520.4 93.36 522.196 93.36 524.41C93.36 526.625 95.1777 528.42 97.42 528.42Z" fill="#1E1E1C"/>
<path d="M139.15 511.28C141.392 511.28 143.21 509.484 143.21 507.27C143.21 505.055 141.392 503.26 139.15 503.26C136.908 503.26 135.09 505.055 135.09 507.27C135.09 509.484 136.908 511.28 139.15 511.28Z" fill="#1E1E1C"/>
<path d="M180.62 489.76C182.862 489.76 184.68 487.965 184.68 485.75C184.68 483.536 182.862 481.74 180.62 481.74C178.378 481.74 176.56 483.536 176.56 485.75C176.56 487.965 178.378 489.76 180.62 489.76Z" fill="#1E1E1C"/>
<path d="M198.83 451.82C201.072 451.82 202.89 450.024 202.89 447.81C202.89 445.595 201.072 443.8 198.83 443.8C196.588 443.8 194.77 445.595 194.77 447.81C194.77 450.024 196.588 451.82 198.83 451.82Z" fill="#1E1E1C"/>
<path d="M244.8 454.371C247.042 454.371 248.86 452.575 248.86 450.361C248.86 448.146 247.042 446.351 244.8 446.351C242.558 446.351 240.74 448.146 240.74 450.361C240.74 452.575 242.558 454.371 244.8 454.371Z" fill="#1E1E1C"/>
<path d="M295.79 446.05C298.032 446.05 299.85 444.255 299.85 442.04C299.85 439.826 298.032 438.03 295.79 438.03C293.548 438.03 291.73 439.826 291.73 442.04C291.73 444.255 293.548 446.05 295.79 446.05Z" fill="#1E1E1C"/>
<path d="M280.45 419.74C282.692 419.74 284.51 417.944 284.51 415.73C284.51 413.515 282.692 411.72 280.45 411.72C278.208 411.72 276.39 413.515 276.39 415.73C276.39 417.944 278.208 419.74 280.45 419.74Z" fill="#1E1E1C"/>
<path d="M320.54 388.18C322.782 388.18 324.6 386.385 324.6 384.17C324.6 381.955 322.782 380.16 320.54 380.16C318.298 380.16 316.48 381.955 316.48 384.17C316.48 386.385 318.298 388.18 320.54 388.18Z" fill="#1E1E1C"/>
<path d="M346.77 355.44C349.012 355.44 350.83 353.645 350.83 351.43C350.83 349.215 349.012 347.42 346.77 347.42C344.528 347.42 342.71 349.215 342.71 351.43C342.71 353.645 344.528 355.44 346.77 355.44Z" fill="#1E1E1C"/>
<path d="M392.42 378.45C394.662 378.45 396.48 376.654 396.48 374.44C396.48 372.225 394.662 370.43 392.42 370.43C390.178 370.43 388.36 372.225 388.36 374.44C388.36 376.654 390.178 378.45 392.42 378.45Z" fill="#1E1E1C"/>
<path d="M435.21 367.92C437.452 367.92 439.27 366.125 439.27 363.91C439.27 361.696 437.452 359.9 435.21 359.9C432.968 359.9 431.15 361.696 431.15 363.91C431.15 366.125 432.968 367.92 435.21 367.92Z" fill="#1E1E1C"/>
<path d="M435.16 331.68C437.402 331.68 439.22 329.885 439.22 327.67C439.22 325.455 437.402 323.66 435.16 323.66C432.918 323.66 431.1 325.455 431.1 327.67C431.1 329.885 432.918 331.68 435.16 331.68Z" fill="#1E1E1C"/>
<path d="M388.25 311.19C390.492 311.19 392.31 309.395 392.31 307.18C392.31 304.965 390.492 303.17 388.25 303.17C386.008 303.17 384.19 304.965 384.19 307.18C384.19 309.395 386.008 311.19 388.25 311.19Z" fill="#1E1E1C"/>
<path d="M341.23 292.67C343.472 292.67 345.29 290.875 345.29 288.66C345.29 286.446 343.472 284.65 341.23 284.65C338.988 284.65 337.17 286.446 337.17 288.66C337.17 290.875 338.988 292.67 341.23 292.67Z" fill="#1E1E1C"/>
<path d="M289.48 294.46C291.722 294.46 293.54 292.665 293.54 290.45C293.54 288.236 291.722 286.44 289.48 286.44C287.238 286.44 285.42 288.236 285.42 290.45C285.42 292.665 287.238 294.46 289.48 294.46Z" fill="#1E1E1C"/>
<path d="M237.9 292.5C240.142 292.5 241.96 290.705 241.96 288.49C241.96 286.276 240.142 284.48 237.9 284.48C235.658 284.48 233.84 286.276 233.84 288.49C233.84 290.705 235.658 292.5 237.9 292.5Z" fill="#1E1E1C"/>
<path d="M188.92 275.88C191.162 275.88 192.98 274.085 192.98 271.87C192.98 269.656 191.162 267.86 188.92 267.86C186.678 267.86 184.86 269.656 184.86 271.87C184.86 274.085 186.678 275.88 188.92 275.88Z" fill="#1E1E1C"/>
<path d="M148.74 259.02C150.982 259.02 152.8 257.225 152.8 255.01C152.8 252.795 150.982 251 148.74 251C146.498 251 144.68 252.795 144.68 255.01C144.68 257.225 146.498 259.02 148.74 259.02Z" fill="#1E1E1C"/>
<path d="M191.78 230.31C194.022 230.31 195.84 228.515 195.84 226.3C195.84 224.085 194.022 222.29 191.78 222.29C189.538 222.29 187.72 224.085 187.72 226.3C187.72 228.515 189.538 230.31 191.78 230.31Z" fill="#1E1E1C"/>
<path d="M231.27 223.43C233.512 223.43 235.33 221.635 235.33 219.42C235.33 217.206 233.512 215.41 231.27 215.41C229.028 215.41 227.21 217.206 227.21 219.42C227.21 221.635 229.028 223.43 231.27 223.43Z" fill="#1E1E1C"/>
<path d="M279.67 211.4C281.912 211.4 283.73 209.605 283.73 207.39C283.73 205.175 281.912 203.38 279.67 203.38C277.428 203.38 275.61 205.175 275.61 207.39C275.61 209.605 277.428 211.4 279.67 211.4Z" fill="#1E1E1C"/>
<path d="M330.32 212.52C332.562 212.52 334.38 210.725 334.38 208.51C334.38 206.295 332.562 204.5 330.32 204.5C328.078 204.5 326.26 206.295 326.26 208.51C326.26 210.725 328.078 212.52 330.32 212.52Z" fill="#1E1E1C"/>
<path d="M381.41 204.13C383.652 204.13 385.47 202.335 385.47 200.12C385.47 197.906 383.652 196.11 381.41 196.11C379.168 196.11 377.35 197.906 377.35 200.12C377.35 202.335 379.168 204.13 381.41 204.13Z" fill="#1E1E1C"/>
<path d="M431.37 191.09C433.612 191.09 435.43 189.295 435.43 187.08C435.43 184.866 433.612 183.07 431.37 183.07C429.128 183.07 427.31 184.866 427.31 187.08C427.31 189.295 429.128 191.09 431.37 191.09Z" fill="#1E1E1C"/>
<path d="M442.6 157.371C444.842 157.371 446.66 155.575 446.66 153.361C446.66 151.146 444.842 149.351 442.6 149.351C440.358 149.351 438.54 151.146 438.54 153.361C438.54 155.575 440.358 157.371 442.6 157.371Z" fill="#1E1E1C"/>
<path d="M472.5 168.69C474.742 168.69 476.56 166.895 476.56 164.68C476.56 162.465 474.742 160.67 472.5 160.67C470.258 160.67 468.44 162.465 468.44 164.68C468.44 166.895 470.258 168.69 472.5 168.69Z" fill="#1E1E1C"/>
<path d="M483.23 218.96C485.472 218.96 487.29 217.165 487.29 214.95C487.29 212.736 485.472 210.94 483.23 210.94C480.988 210.94 479.17 212.736 479.17 214.95C479.17 217.165 480.988 218.96 483.23 218.96Z" fill="#1E1E1C"/>
<path d="M513.97 251.371C516.212 251.371 518.03 249.575 518.03 247.361C518.03 245.146 516.212 243.351 513.97 243.351C511.728 243.351 509.91 245.146 509.91 247.361C509.91 249.575 511.728 251.371 513.97 251.371Z" fill="#1E1E1C"/>
<path d="M547.97 220.92C550.212 220.92 552.03 219.125 552.03 216.91C552.03 214.696 550.212 212.9 547.97 212.9C545.728 212.9 543.91 214.696 543.91 216.91C543.91 219.125 545.728 220.92 547.97 220.92Z" fill="#1E1E1C"/>
<path d="M524.86 178.02C527.102 178.02 528.92 176.225 528.92 174.01C528.92 171.795 527.102 170 524.86 170C522.618 170 520.8 171.795 520.8 174.01C520.8 176.225 522.618 178.02 524.86 178.02Z" fill="#1E1E1C"/>
<path d="M519.08 134.47C521.322 134.47 523.14 132.675 523.14 130.46C523.14 128.246 521.322 126.45 519.08 126.45C516.838 126.45 515.02 128.246 515.02 130.46C515.02 132.675 516.838 134.47 519.08 134.47Z" fill="#1E1E1C"/>
<path d="M544.81 89.8305C547.052 89.8305 548.87 88.0352 548.87 85.8205C548.87 83.6059 547.052 81.8105 544.81 81.8105C542.568 81.8105 540.75 83.6059 540.75 85.8205C540.75 88.0352 542.568 89.8305 544.81 89.8305Z" fill="#1E1E1C"/>
<path d="M517.35 65.6499C519.592 65.6499 521.41 63.8545 521.41 61.6399C521.41 59.4252 519.592 57.6299 517.35 57.6299C515.108 57.6299 513.29 59.4252 513.29 61.6399C513.29 63.8545 515.108 65.6499 517.35 65.6499Z" fill="#1E1E1C"/>
<path d="M493.28 45.3305C495.522 45.3305 497.34 43.5352 497.34 41.3205C497.34 39.1059 495.522 37.3105 493.28 37.3105C491.038 37.3105 489.22 39.1059 489.22 41.3205C489.22 43.5352 491.038 45.3305 493.28 45.3305Z" fill="#1E1E1C"/>
<path d="M542.38 34.2104C544.622 34.2104 546.44 32.4151 546.44 30.2004C546.44 27.9858 544.622 26.1904 542.38 26.1904C540.138 26.1904 538.32 27.9858 538.32 30.2004C538.32 32.4151 540.138 34.2104 542.38 34.2104Z" fill="#1E1E1C"/>
<path d="M586.13 14.8305C588.372 14.8305 590.19 13.0352 590.19 10.8205C590.19 8.60588 588.372 6.81055 586.13 6.81055C583.888 6.81055 582.07 8.60588 582.07 10.8205C582.07 13.0352 583.888 14.8305 586.13 14.8305Z" fill="#1E1E1C"/>
<path d="M18.2813 535.302C18.2813 535.572 18.1067 535.73 17.8844 535.73H17.0904C16.8681 535.73 16.6935 535.572 16.6935 535.302V526.076C16.0742 526.6 14.4387 527.68 13.7876 528.045C13.613 528.14 13.3907 528.204 13.2319 528.029C12.9937 527.759 13.2001 527.505 13.4065 527.362L15.2644 526.06C17.2651 524.647 17.5033 524.139 17.8685 524.139C18.1225 524.139 18.2813 524.314 18.2813 524.568V535.302Z" fill="#1E1E1C"/>
<path d="M66.6827 515.922C66.6509 516.192 66.508 516.351 66.238 516.351H59.8071C59.4102 516.351 59.1561 516.255 59.1561 515.858C59.1561 514.652 60.4423 512.937 62.2842 511.508C63.9674 510.19 64.8725 509.094 64.9042 507.76C64.9201 507.173 64.6819 505.68 62.9988 505.68C61.5856 505.68 60.8234 506.696 60.2041 507.649C59.9977 507.967 59.696 507.919 59.5531 507.824C59.0608 507.49 59.7754 506.537 60.4105 505.902C60.8393 505.474 61.8714 504.759 63.3005 504.759C65.7458 504.759 66.6509 506.299 66.6509 507.617C66.6509 508.713 66.4445 509.793 64.5866 511.063C62.6653 512.365 60.6487 513.762 60.6487 514.921H65.9681L66.0951 514.525C66.1904 514.239 66.2698 514.064 66.508 514.064C66.762 514.064 66.8414 514.255 66.8097 514.525L66.6827 515.922Z" fill="#1E1E1C"/>
<path d="M111.213 520.634C111.213 518.856 108.958 518.141 107.37 520.142C107.116 520.46 106.83 520.412 106.703 520.317C106.401 520.094 106.608 519.602 107.1 519.142C107.545 518.729 108.402 517.998 109.926 517.998C111.467 517.998 112.705 518.729 112.864 519.936C113.07 521.476 111.911 522.746 111.101 523C111.419 522.921 113.166 523.175 113.61 524.731C114.531 527.907 111.467 531.273 107.179 531.019C106.909 531.003 106.449 530.971 106.433 530.67C106.417 530.257 106.846 530.32 107.386 530.304C110.038 530.225 111.705 528.224 112.007 526.081C112.197 524.779 111.467 523.54 109.482 523.873C109.196 523.921 108.91 523.873 108.863 523.588C108.815 523.302 109.101 523.159 109.323 523.032C109.577 522.889 111.213 522.063 111.213 520.634Z" fill="#1E1E1C"/>
<path d="M147.306 509.211C147.242 508.989 147.401 508.703 147.655 508.353L152.831 501.256C153.038 500.986 153.26 500.795 153.53 500.859C153.911 500.954 153.879 501.303 153.879 501.7V508.703H155.515C155.785 508.703 155.944 508.877 155.944 509.1C155.944 509.322 155.785 509.497 155.515 509.497H153.879V513.451C153.879 513.72 153.705 513.879 153.482 513.879H152.689C152.466 513.879 152.292 513.72 152.292 513.451V509.497L147.814 509.481C147.449 509.481 147.337 509.338 147.306 509.211ZM148.576 508.703H152.292V503.463L148.576 508.703Z" fill="#1E1E1C"/>
<path d="M196.127 479.805C196.286 479.805 196.556 479.884 196.524 480.233L196.461 480.805C196.429 481.154 196.127 481.234 195.969 481.234H191.126L190.951 484.171C193.841 482.679 196.731 483.536 196.731 486.569C196.731 488.903 194.746 491.301 192.602 491.984C191.904 492.206 190.109 492.698 190.141 492C190.157 491.65 190.57 491.65 190.951 491.603C196.096 490.968 196.207 482.981 191.904 484.537C191.11 484.822 190.745 485.283 190.379 485.14C190.062 485.013 190.125 484.711 190.141 484.314L190.411 480.265C190.443 480.059 190.49 479.805 190.887 479.805H196.127Z" fill="#1E1E1C"/>
<path d="M207.399 446.486C207.653 442.77 210.352 439.865 213.321 439.341C213.591 439.293 214.131 439.229 214.179 439.611C214.226 440.023 213.75 440.023 213.321 440.119C210.765 440.69 209.383 443.453 209.177 445.867C210.146 444.993 211.019 444.581 211.94 444.581C213.829 444.581 215.544 445.883 215.544 448.074C215.544 450.376 213.702 451.79 211.591 451.79C209.383 451.79 207.144 450.186 207.399 446.486ZM209.161 447.137C209.304 449.948 210.4 450.996 211.765 450.996C213.035 450.996 213.782 449.9 213.798 448.28C213.814 446.867 213.163 445.375 211.765 445.375C211.067 445.375 210.241 445.899 209.161 447.137Z" fill="#1E1E1C"/>
<path d="M260.498 444.425C260.832 444.425 261.213 444.361 261.244 444.742C261.26 445.028 261.006 445.219 260.673 445.552C259.688 446.537 257.068 448.919 257.068 456.143C257.068 456.636 256.798 456.969 256.243 456.969C255.846 456.969 255.385 456.826 255.385 455.635C255.385 452.952 257.243 447.998 259.275 445.854H253.797L253.575 447.093C253.527 447.378 253.432 447.521 253.194 447.521C252.94 447.521 252.797 447.347 252.813 447.093L252.892 444.917C252.892 444.806 252.844 444.425 253.384 444.425H260.498Z" fill="#1E1E1C"/>
<path d="M307.137 439.461C305.899 438.826 305.089 437.651 305.057 436.682C304.994 434.824 306.343 433.395 308.487 433.395C310.567 433.395 311.758 434.84 311.758 436.396C311.758 437.46 310.678 438.842 309.487 439.223C311.186 440.001 312.377 441.24 312.377 442.685C312.377 444.781 310.869 446.019 308.312 446.019C306.137 446.019 304.438 444.812 304.438 442.907C304.438 441.414 305.295 440.112 307.137 439.461ZM306.026 442.939C306.026 444.32 307.185 445.305 308.566 445.289C309.884 445.273 310.789 444.447 310.789 443.113C310.789 442.145 310.218 441.097 307.915 440.017C306.661 440.493 306.026 441.525 306.026 442.939ZM306.486 436.174C306.486 437.159 306.915 437.73 308.519 438.715C309.519 438.35 310.313 437.302 310.313 436.285C310.313 435.38 309.837 434.126 308.423 434.126C307.042 434.126 306.486 435.348 306.486 436.174Z" fill="#1E1E1C"/>
<path d="M288.971 413.025C288.971 410.722 290.813 409.309 292.925 409.309C295.132 409.309 297.371 410.913 297.117 414.612C296.863 418.328 294.163 421.71 291.194 422.234C290.924 422.282 290.384 422.345 290.336 421.964C290.289 421.551 290.765 421.551 291.194 421.456C293.75 420.885 295.132 417.645 295.338 415.232C294.37 416.105 293.496 416.518 292.575 416.518C290.686 416.518 288.971 415.216 288.971 413.025ZM290.718 412.818C290.702 414.231 291.353 415.724 292.75 415.724C293.433 415.724 294.306 415.248 295.354 413.993C295.211 411.151 294.116 410.103 292.75 410.103C291.48 410.103 290.733 411.198 290.718 412.818Z" fill="#1E1E1C"/>
<path d="M334.761 388.922C334.761 389.192 334.587 389.351 334.364 389.351H333.57C333.348 389.351 333.173 389.192 333.173 388.922V379.696C332.554 380.22 330.919 381.3 330.268 381.665C330.093 381.761 329.871 381.824 329.712 381.649C329.474 381.379 329.68 381.125 329.887 380.982L331.744 379.68C333.745 378.267 333.983 377.759 334.348 377.759C334.603 377.759 334.761 377.934 334.761 378.188V388.922ZM348.611 383.841C348.611 387.016 346.531 389.351 344.276 389.351C342.021 389.351 339.941 387.016 339.941 383.841V383.269C339.941 380.093 342.021 377.759 344.276 377.759C346.531 377.759 348.595 380.093 348.595 383.269L348.611 383.841ZM341.688 383.539C341.688 386.111 342.751 388.557 344.276 388.557C345.784 388.557 346.864 386.111 346.864 383.539C346.864 380.951 345.784 378.553 344.276 378.553C342.751 378.553 341.688 380.951 341.688 383.539Z" fill="#1E1E1C"/>
<path d="M360.991 356.182C360.991 356.452 360.817 356.61 360.594 356.61H359.8C359.578 356.61 359.403 356.452 359.403 356.182V346.956C358.784 347.48 357.149 348.56 356.498 348.925C356.323 349.02 356.101 349.084 355.942 348.909C355.704 348.639 355.91 348.385 356.117 348.242L357.974 346.94C359.975 345.527 360.213 345.019 360.578 345.019C360.833 345.019 360.991 345.193 360.991 345.448V356.182ZM372.11 356.182C372.11 356.452 371.935 356.61 371.713 356.61H370.919C370.696 356.61 370.522 356.452 370.522 356.182V346.956C369.902 347.48 368.267 348.56 367.616 348.925C367.441 349.02 367.219 349.084 367.06 348.909C366.822 348.639 367.028 348.385 367.235 348.242L369.093 346.94C371.093 345.527 371.331 345.019 371.697 345.019C371.951 345.019 372.11 345.193 372.11 345.448V356.182Z" fill="#1E1E1C"/>
<path d="M406.641 379.182C406.641 379.452 406.467 379.61 406.244 379.61H405.45C405.228 379.61 405.053 379.452 405.053 379.182V369.956C404.434 370.48 402.799 371.56 402.148 371.925C401.973 372.02 401.751 372.084 401.592 371.909C401.354 371.639 401.56 371.385 401.767 371.242L403.624 369.94C405.625 368.527 405.863 368.019 406.228 368.019C406.483 368.019 406.641 368.193 406.641 368.448V379.182ZM419.681 379.182C419.649 379.452 419.506 379.61 419.236 379.61H412.805C412.408 379.61 412.154 379.515 412.154 379.118C412.154 377.911 413.441 376.196 415.282 374.767C416.966 373.449 417.871 372.354 417.902 371.02C417.918 370.432 417.68 368.94 415.997 368.94C414.584 368.94 413.822 369.956 413.202 370.909C412.996 371.226 412.694 371.179 412.551 371.083C412.059 370.75 412.774 369.797 413.409 369.162C413.838 368.733 414.87 368.019 416.299 368.019C418.744 368.019 419.649 369.559 419.649 370.877C419.649 371.973 419.443 373.052 417.585 374.323C415.664 375.625 413.647 377.022 413.647 378.181H418.966L419.093 377.784C419.189 377.498 419.268 377.324 419.506 377.324C419.76 377.324 419.84 377.514 419.808 377.784L419.681 379.182Z" fill="#1E1E1C"/>
<path d="M449.431 368.661C449.431 368.931 449.257 369.09 449.034 369.09H448.24C448.018 369.09 447.843 368.931 447.843 368.661V359.436C447.224 359.96 445.589 361.039 444.938 361.405C444.763 361.5 444.541 361.563 444.382 361.389C444.144 361.119 444.35 360.865 444.557 360.722L446.414 359.42C448.415 358.006 448.653 357.498 449.019 357.498C449.273 357.498 449.431 357.673 449.431 357.927V368.661ZM460.121 360.134C460.121 358.356 457.866 357.641 456.278 359.642C456.024 359.96 455.738 359.912 455.611 359.817C455.31 359.594 455.516 359.102 456.008 358.642C456.453 358.229 457.31 357.498 458.835 357.498C460.375 357.498 461.614 358.229 461.772 359.436C461.979 360.976 460.82 362.246 460.01 362.5C460.327 362.421 462.074 362.675 462.519 364.231C463.44 367.407 460.375 370.773 456.088 370.519C455.818 370.503 455.357 370.471 455.341 370.17C455.325 369.757 455.754 369.82 456.294 369.804C458.946 369.725 460.613 367.724 460.915 365.581C461.105 364.279 460.375 363.04 458.39 363.373C458.104 363.421 457.818 363.373 457.771 363.088C457.723 362.802 458.009 362.659 458.231 362.532C458.485 362.389 460.121 361.563 460.121 360.134Z" fill="#1E1E1C"/>
<path d="M449.381 332.411C449.381 332.681 449.207 332.84 448.984 332.84H448.19C447.968 332.84 447.793 332.681 447.793 332.411V323.186C447.174 323.71 445.539 324.789 444.888 325.155C444.713 325.25 444.491 325.313 444.332 325.139C444.094 324.869 444.3 324.615 444.507 324.472L446.364 323.17C448.365 321.756 448.603 321.248 448.968 321.248C449.223 321.248 449.381 321.423 449.381 321.677V332.411ZM454.434 329.601C454.37 329.378 454.529 329.092 454.783 328.743L459.96 321.645C460.166 321.375 460.388 321.185 460.658 321.248C461.039 321.344 461.008 321.693 461.008 322.09V329.092H462.643C462.913 329.092 463.072 329.267 463.072 329.489C463.072 329.712 462.913 329.886 462.643 329.886H461.008V333.84C461.008 334.11 460.833 334.269 460.611 334.269H459.817C459.594 334.269 459.42 334.11 459.42 333.84V329.886L454.942 329.871C454.577 329.871 454.466 329.728 454.434 329.601ZM455.704 329.092H459.42V323.852L455.704 329.092Z" fill="#1E1E1C"/>
<path d="M402.471 311.932C402.471 312.202 402.297 312.36 402.074 312.36H401.28C401.058 312.36 400.884 312.202 400.884 311.932V302.706C400.264 303.23 398.629 304.31 397.978 304.675C397.803 304.77 397.581 304.834 397.422 304.659C397.184 304.389 397.39 304.135 397.597 303.992L399.454 302.69C401.455 301.277 401.693 300.769 402.059 300.769C402.313 300.769 402.471 300.943 402.471 301.198V311.932ZM414.876 301.245C415.035 301.245 415.305 301.325 415.273 301.674L415.209 302.246C415.178 302.595 414.876 302.674 414.717 302.674H409.874L409.699 305.612C412.589 304.119 415.479 304.977 415.479 308.01C415.479 310.344 413.494 312.741 411.351 313.424C410.652 313.647 408.858 314.139 408.89 313.44C408.905 313.091 409.318 313.091 409.699 313.043C414.844 312.408 414.955 304.421 410.652 305.977C409.858 306.263 409.493 306.723 409.128 306.58C408.81 306.453 408.874 306.152 408.89 305.755L409.159 301.706C409.191 301.499 409.239 301.245 409.636 301.245H414.876Z" fill="#1E1E1C"/>
<path d="M355.451 293.411C355.451 293.681 355.277 293.84 355.054 293.84H354.26C354.038 293.84 353.863 293.681 353.863 293.411V284.186C353.244 284.71 351.609 285.789 350.958 286.155C350.783 286.25 350.561 286.313 350.402 286.139C350.164 285.869 350.37 285.615 350.577 285.472L352.434 284.17C354.435 282.756 354.673 282.248 355.039 282.248C355.293 282.248 355.451 282.423 355.451 282.677V293.411ZM360.917 287.345C361.171 283.63 363.87 280.724 366.84 280.2C367.11 280.152 367.649 280.089 367.697 280.47C367.745 280.883 367.268 280.883 366.84 280.978C364.283 281.55 362.902 284.313 362.695 286.726C363.664 285.853 364.537 285.44 365.458 285.44C367.348 285.44 369.063 286.742 369.063 288.933C369.063 291.236 367.221 292.649 365.109 292.649C362.902 292.649 360.663 291.045 360.917 287.345ZM362.679 287.996C362.822 290.807 363.918 291.855 365.283 291.855C366.554 291.855 367.3 290.759 367.316 289.14C367.332 287.727 366.681 286.234 365.283 286.234C364.585 286.234 363.759 286.758 362.679 287.996Z" fill="#1E1E1C"/>
<path d="M303.701 295.201C303.701 295.471 303.527 295.63 303.304 295.63H302.51C302.288 295.63 302.113 295.471 302.113 295.201V285.976C301.494 286.5 299.859 287.579 299.208 287.945C299.033 288.04 298.811 288.103 298.652 287.929C298.414 287.659 298.62 287.405 298.827 287.262L300.684 285.96C302.685 284.546 302.923 284.038 303.289 284.038C303.543 284.038 303.701 284.213 303.701 284.467V295.201ZM316.296 284.515C316.63 284.515 317.011 284.451 317.043 284.832C317.059 285.118 316.804 285.309 316.471 285.642C315.487 286.627 312.867 289.008 312.867 296.233C312.867 296.726 312.597 297.059 312.041 297.059C311.644 297.059 311.183 296.916 311.183 295.725C311.183 293.042 313.041 288.087 315.074 285.944H309.596L309.373 287.182C309.326 287.468 309.23 287.611 308.992 287.611C308.738 287.611 308.595 287.436 308.611 287.182L308.69 285.007C308.69 284.896 308.643 284.515 309.183 284.515H316.296Z" fill="#1E1E1C"/>
<path d="M252.121 293.231C252.121 293.501 251.947 293.66 251.724 293.66H250.93C250.708 293.66 250.533 293.501 250.533 293.231V284.006C249.914 284.53 248.279 285.61 247.628 285.975C247.453 286.07 247.231 286.134 247.072 285.959C246.834 285.689 247.04 285.435 247.247 285.292L249.104 283.99C251.105 282.577 251.343 282.069 251.708 282.069C251.963 282.069 252.121 282.243 252.121 282.497V293.231ZM260.366 285.911C259.127 285.276 258.317 284.101 258.285 283.133C258.222 281.275 259.572 279.846 261.715 279.846C263.795 279.846 264.986 281.291 264.986 282.847C264.986 283.911 263.906 285.292 262.716 285.673C264.415 286.451 265.606 287.69 265.606 289.135C265.606 291.231 264.097 292.469 261.541 292.469C259.365 292.469 257.666 291.262 257.666 289.357C257.666 287.864 258.524 286.562 260.366 285.911ZM259.254 289.389C259.254 290.77 260.413 291.755 261.795 291.739C263.113 291.723 264.018 290.897 264.018 289.563C264.018 288.595 263.446 287.547 261.144 286.467C259.889 286.943 259.254 287.976 259.254 289.389ZM259.714 282.624C259.714 283.609 260.143 284.181 261.747 285.165C262.747 284.8 263.541 283.752 263.541 282.736C263.541 281.83 263.065 280.576 261.652 280.576C260.27 280.576 259.714 281.799 259.714 282.624Z" fill="#1E1E1C"/>
<path d="M203.141 276.621C203.141 276.891 202.967 277.05 202.744 277.05H201.95C201.728 277.05 201.553 276.891 201.553 276.621V267.395C200.934 267.919 199.299 268.999 198.648 269.364C198.473 269.46 198.251 269.523 198.092 269.349C197.854 269.079 198.06 268.825 198.267 268.682L200.124 267.38C202.125 265.966 202.363 265.458 202.728 265.458C202.983 265.458 203.141 265.633 203.141 265.887V276.621ZM208.559 269.174C208.559 266.871 210.401 265.458 212.513 265.458C214.72 265.458 216.959 267.062 216.705 270.762C216.451 274.477 213.751 277.86 210.782 278.384C210.512 278.431 209.972 278.495 209.925 278.114C209.877 277.701 210.353 277.701 210.782 277.606C213.339 277.034 214.72 273.795 214.926 271.381C213.958 272.254 213.085 272.667 212.164 272.667C210.274 272.667 208.559 271.365 208.559 269.174ZM210.306 268.967C210.29 270.381 210.941 271.873 212.338 271.873C213.021 271.873 213.894 271.397 214.942 270.143C214.799 267.3 213.704 266.252 212.338 266.252C211.068 266.252 210.322 267.348 210.306 268.967Z" fill="#1E1E1C"/>
<path d="M164.873 259.762C164.841 260.032 164.698 260.19 164.428 260.19H157.997C157.6 260.19 157.346 260.095 157.346 259.698C157.346 258.491 158.632 256.776 160.474 255.347C162.157 254.029 163.063 252.934 163.094 251.6C163.11 251.012 162.872 249.52 161.189 249.52C159.776 249.52 159.013 250.536 158.394 251.489C158.188 251.806 157.886 251.759 157.743 251.664C157.251 251.33 157.965 250.377 158.601 249.742C159.029 249.313 160.061 248.599 161.491 248.599C163.936 248.599 164.841 250.139 164.841 251.457C164.841 252.553 164.635 253.632 162.777 254.903C160.855 256.205 158.839 257.602 158.839 258.761H164.158L164.285 258.364C164.38 258.079 164.46 257.904 164.698 257.904C164.952 257.904 165.032 258.094 165 258.364L164.873 259.762ZM176.801 254.68C176.801 257.856 174.721 260.19 172.466 260.19C170.211 260.19 168.131 257.856 168.131 254.68V254.109C168.131 250.933 170.211 248.599 172.466 248.599C174.721 248.599 176.785 250.933 176.785 254.109L176.801 254.68ZM169.878 254.379C169.878 256.951 170.942 259.396 172.466 259.396C173.974 259.396 175.054 256.951 175.054 254.379C175.054 251.791 173.974 249.393 172.466 249.393C170.942 249.393 169.878 251.791 169.878 254.379Z" fill="#1E1E1C"/>
<path d="M207.923 231.052C207.891 231.322 207.748 231.48 207.478 231.48H201.047C200.65 231.48 200.396 231.385 200.396 230.988C200.396 229.781 201.682 228.067 203.524 226.637C205.207 225.319 206.112 224.224 206.144 222.89C206.16 222.303 205.922 220.81 204.239 220.81C202.826 220.81 202.063 221.826 201.444 222.779C201.238 223.096 200.936 223.049 200.793 222.954C200.301 222.62 201.015 221.667 201.651 221.032C202.079 220.603 203.111 219.889 204.54 219.889C206.986 219.889 207.891 221.429 207.891 222.747C207.891 223.843 207.684 224.923 205.827 226.193C203.905 227.495 201.889 228.892 201.889 230.051H207.208L207.335 229.654C207.43 229.369 207.51 229.194 207.748 229.194C208.002 229.194 208.081 229.384 208.05 229.654L207.923 231.052ZM217.12 231.052C217.12 231.322 216.945 231.48 216.723 231.48H215.929C215.706 231.48 215.532 231.322 215.532 231.052V221.826C214.912 222.35 213.277 223.43 212.626 223.795C212.451 223.89 212.229 223.954 212.07 223.779C211.832 223.509 212.038 223.255 212.245 223.112L214.103 221.81C216.103 220.397 216.342 219.889 216.707 219.889C216.961 219.889 217.12 220.064 217.12 220.318V231.052Z" fill="#1E1E1C"/>
<path d="M247.413 224.172C247.381 224.442 247.238 224.601 246.968 224.601H240.537C240.14 224.601 239.886 224.505 239.886 224.108C239.886 222.902 241.172 221.187 243.014 219.758C244.697 218.44 245.603 217.344 245.634 216.01C245.65 215.423 245.412 213.93 243.729 213.93C242.316 213.93 241.553 214.946 240.934 215.899C240.728 216.217 240.426 216.169 240.283 216.074C239.791 215.74 240.505 214.787 241.141 214.152C241.569 213.724 242.601 213.009 244.031 213.009C246.476 213.009 247.381 214.549 247.381 215.867C247.381 216.963 247.175 218.043 245.317 219.313C243.395 220.615 241.379 222.012 241.379 223.171H246.698L246.825 222.775C246.921 222.489 247 222.314 247.238 222.314C247.492 222.314 247.572 222.505 247.54 222.775L247.413 224.172ZM258.531 224.172C258.499 224.442 258.356 224.601 258.086 224.601H251.655C251.259 224.601 251.004 224.505 251.004 224.108C251.004 222.902 252.291 221.187 254.133 219.758C255.816 218.44 256.721 217.344 256.753 216.01C256.768 215.423 256.53 213.93 254.847 213.93C253.434 213.93 252.672 214.946 252.052 215.899C251.846 216.217 251.544 216.169 251.401 216.074C250.909 215.74 251.624 214.787 252.259 214.152C252.688 213.724 253.72 213.009 255.149 213.009C257.594 213.009 258.499 214.549 258.499 215.867C258.499 216.963 258.293 218.043 256.435 219.313C254.514 220.615 252.497 222.012 252.497 223.171H257.816L257.944 222.775C258.039 222.489 258.118 222.314 258.356 222.314C258.61 222.314 258.69 222.505 258.658 222.775L258.531 224.172Z" fill="#1E1E1C"/>
<path d="M295.813 212.142C295.781 212.412 295.638 212.57 295.368 212.57H288.937C288.54 212.57 288.286 212.475 288.286 212.078C288.286 210.871 289.572 209.156 291.414 207.727C293.097 206.409 294.002 205.314 294.034 203.98C294.05 203.392 293.812 201.9 292.129 201.9C290.716 201.9 289.953 202.916 289.334 203.869C289.128 204.186 288.826 204.139 288.683 204.043C288.191 203.71 288.905 202.757 289.541 202.122C289.969 201.693 291.001 200.979 292.43 200.979C294.876 200.979 295.781 202.519 295.781 203.837C295.781 204.933 295.574 206.012 293.717 207.283C291.795 208.585 289.779 209.982 289.779 211.141H295.098L295.225 210.744C295.32 210.458 295.4 210.284 295.638 210.284C295.892 210.284 295.971 210.474 295.94 210.744L295.813 212.142ZM298.944 209.331C298.88 209.109 299.039 208.823 299.293 208.474L304.47 201.376C304.676 201.106 304.898 200.915 305.168 200.979C305.549 201.074 305.518 201.423 305.518 201.82V208.823H307.153C307.423 208.823 307.582 208.998 307.582 209.22C307.582 209.442 307.423 209.617 307.153 209.617H305.518V213.571C305.518 213.841 305.343 213.999 305.121 213.999H304.327C304.104 213.999 303.93 213.841 303.93 213.571V209.617L299.452 209.601C299.087 209.601 298.976 209.458 298.944 209.331ZM300.214 208.823H303.93V203.583L300.214 208.823Z" fill="#1E1E1C"/>
<path d="M346.463 213.262C346.431 213.532 346.288 213.69 346.018 213.69H339.587C339.19 213.69 338.936 213.595 338.936 213.198C338.936 211.991 340.222 210.276 342.064 208.847C343.747 207.529 344.652 206.434 344.684 205.1C344.7 204.512 344.462 203.02 342.779 203.02C341.366 203.02 340.603 204.036 339.984 204.989C339.778 205.306 339.476 205.259 339.333 205.164C338.841 204.83 339.555 203.877 340.191 203.242C340.619 202.813 341.651 202.099 343.08 202.099C345.526 202.099 346.431 203.639 346.431 204.957C346.431 206.053 346.224 207.132 344.367 208.403C342.445 209.705 340.429 211.102 340.429 212.261H345.748L345.875 211.864C345.97 211.579 346.05 211.404 346.288 211.404C346.542 211.404 346.621 211.594 346.59 211.864L346.463 213.262ZM356.946 202.575C357.105 202.575 357.375 202.655 357.343 203.004L357.279 203.576C357.247 203.925 356.946 204.004 356.787 204.004H351.944L351.769 206.942C354.659 205.449 357.549 206.307 357.549 209.34C357.549 211.674 355.564 214.072 353.421 214.754C352.722 214.977 350.928 215.469 350.959 214.77C350.975 214.421 351.388 214.421 351.769 214.373C356.914 213.738 357.025 205.751 352.722 207.307C351.928 207.593 351.563 208.053 351.198 207.911C350.88 207.784 350.944 207.482 350.959 207.085L351.229 203.036C351.261 202.829 351.309 202.575 351.706 202.575H356.946Z" fill="#1E1E1C"/>
<path d="M397.543 204.861C397.511 205.131 397.368 205.29 397.098 205.29H390.667C390.27 205.29 390.016 205.195 390.016 204.798C390.016 203.591 391.302 201.876 393.144 200.447C394.827 199.129 395.732 198.033 395.764 196.7C395.78 196.112 395.542 194.619 393.859 194.619C392.446 194.619 391.683 195.636 391.064 196.588C390.858 196.906 390.556 196.858 390.413 196.763C389.921 196.43 390.635 195.477 391.271 194.842C391.699 194.413 392.731 193.699 394.16 193.699C396.606 193.699 397.511 195.239 397.511 196.557C397.511 197.652 397.304 198.732 395.447 200.002C393.525 201.304 391.509 202.702 391.509 203.861H396.828L396.955 203.464C397.05 203.178 397.13 203.003 397.368 203.003C397.622 203.003 397.701 203.194 397.67 203.464L397.543 204.861ZM401.087 198.796C401.341 195.08 404.04 192.174 407.01 191.65C407.279 191.603 407.819 191.539 407.867 191.92C407.915 192.333 407.438 192.333 407.01 192.428C404.453 193 403.072 195.763 402.865 198.176C403.834 197.303 404.707 196.89 405.628 196.89C407.518 196.89 409.233 198.192 409.233 200.383C409.233 202.686 407.391 204.099 405.279 204.099C403.072 204.099 400.833 202.495 401.087 198.796ZM402.849 199.447C402.992 202.257 404.088 203.305 405.453 203.305C406.724 203.305 407.47 202.21 407.486 200.59C407.502 199.177 406.851 197.684 405.453 197.684C404.755 197.684 403.929 198.208 402.849 199.447Z" fill="#1E1E1C"/>
<path d="M447.513 191.831C447.481 192.101 447.338 192.26 447.068 192.26H440.637C440.24 192.26 439.986 192.164 439.986 191.768C439.986 190.561 441.272 188.846 443.114 187.417C444.797 186.099 445.702 185.003 445.734 183.669C445.75 183.082 445.512 181.589 443.829 181.589C442.416 181.589 441.653 182.605 441.034 183.558C440.828 183.876 440.526 183.828 440.383 183.733C439.891 183.399 440.605 182.447 441.24 181.812C441.669 181.383 442.701 180.668 444.13 180.668C446.576 180.668 447.481 182.208 447.481 183.526C447.481 184.622 447.274 185.702 445.417 186.972C443.495 188.274 441.479 189.672 441.479 190.831H446.798L446.925 190.434C447.02 190.148 447.1 189.973 447.338 189.973C447.592 189.973 447.671 190.164 447.64 190.434L447.513 191.831ZM458.186 181.145C458.52 181.145 458.901 181.081 458.933 181.462C458.948 181.748 458.694 181.939 458.361 182.272C457.376 183.256 454.756 185.638 454.756 192.863C454.756 193.355 454.487 193.689 453.931 193.689C453.534 193.689 453.073 193.546 453.073 192.355C453.073 189.672 454.931 184.717 456.964 182.574H451.485L451.263 183.812C451.215 184.098 451.12 184.241 450.882 184.241C450.628 184.241 450.485 184.066 450.501 183.812L450.58 181.637C450.58 181.526 450.533 181.145 451.073 181.145H458.186Z" fill="#1E1E1C"/>
<path d="M458.743 158.102C458.711 158.371 458.568 158.53 458.298 158.53H451.867C451.47 158.53 451.216 158.435 451.216 158.038C451.216 156.831 452.502 155.116 454.344 153.687C456.028 152.369 456.933 151.274 456.964 149.94C456.98 149.352 456.742 147.86 455.059 147.86C453.646 147.86 452.884 148.876 452.264 149.829C452.058 150.146 451.756 150.099 451.613 150.003C451.121 149.67 451.836 148.717 452.471 148.082C452.899 147.653 453.932 146.939 455.361 146.939C457.806 146.939 458.711 148.479 458.711 149.797C458.711 150.893 458.505 151.972 456.647 153.243C454.725 154.545 452.709 155.942 452.709 157.101H458.028L458.155 156.704C458.251 156.418 458.33 156.244 458.568 156.244C458.822 156.244 458.902 156.434 458.87 156.704L458.743 158.102ZM465.066 150.781C463.827 150.146 463.017 148.971 462.986 148.003C462.922 146.145 464.272 144.716 466.415 144.716C468.496 144.716 469.686 146.161 469.686 147.717C469.686 148.781 468.607 150.162 467.416 150.543C469.115 151.321 470.306 152.56 470.306 154.005C470.306 156.101 468.797 157.339 466.241 157.339C464.065 157.339 462.366 156.133 462.366 154.227C462.366 152.735 463.224 151.432 465.066 150.781ZM463.954 154.259C463.954 155.64 465.113 156.625 466.495 156.609C467.813 156.593 468.718 155.767 468.718 154.434C468.718 153.465 468.146 152.417 465.844 151.337C464.589 151.814 463.954 152.846 463.954 154.259ZM464.415 147.495C464.415 148.479 464.843 149.051 466.447 150.035C467.448 149.67 468.241 148.622 468.241 147.606C468.241 146.701 467.765 145.446 466.352 145.446C464.97 145.446 464.415 146.669 464.415 147.495Z" fill="#1E1E1C"/>
<path d="M488.643 169.422C488.611 169.692 488.468 169.851 488.198 169.851H481.767C481.37 169.851 481.116 169.755 481.116 169.358C481.116 168.152 482.402 166.437 484.244 165.008C485.927 163.69 486.833 162.594 486.864 161.26C486.88 160.673 486.642 159.18 484.959 159.18C483.546 159.18 482.783 160.196 482.164 161.149C481.958 161.467 481.656 161.419 481.513 161.324C481.021 160.99 481.735 160.037 482.371 159.402C482.799 158.974 483.831 158.259 485.261 158.259C487.706 158.259 488.611 159.799 488.611 161.117C488.611 162.213 488.405 163.293 486.547 164.563C484.625 165.865 482.609 167.262 482.609 168.421H487.928L488.055 168.025C488.15 167.739 488.23 167.564 488.468 167.564C488.722 167.564 488.802 167.755 488.77 168.025L488.643 169.422ZM492.139 161.975C492.139 159.672 493.981 158.259 496.093 158.259C498.3 158.259 500.539 159.863 500.285 163.563C500.031 167.278 497.332 170.66 494.362 171.184C494.092 171.232 493.552 171.296 493.505 170.914C493.457 170.502 493.933 170.502 494.362 170.406C496.919 169.835 498.3 166.595 498.507 164.182C497.538 165.055 496.665 165.468 495.744 165.468C493.854 165.468 492.139 164.166 492.139 161.975ZM493.886 161.768C493.87 163.181 494.521 164.674 495.918 164.674C496.601 164.674 497.474 164.198 498.522 162.943C498.38 160.101 497.284 159.053 495.918 159.053C494.648 159.053 493.902 160.149 493.886 161.768Z" fill="#1E1E1C"/>
<path d="M497.023 211.174C497.023 209.396 494.768 208.681 493.18 210.682C492.926 211 492.64 210.952 492.513 210.857C492.211 210.634 492.418 210.142 492.91 209.682C493.355 209.269 494.212 208.538 495.736 208.538C497.277 208.538 498.515 209.269 498.674 210.476C498.88 212.016 497.721 213.286 496.912 213.54C497.229 213.461 498.976 213.715 499.42 215.271C500.341 218.447 497.277 221.813 492.989 221.559C492.719 221.543 492.259 221.511 492.243 221.21C492.227 220.797 492.656 220.86 493.196 220.844C495.848 220.765 497.515 218.764 497.817 216.621C498.007 215.319 497.277 214.08 495.292 214.414C495.006 214.461 494.72 214.414 494.673 214.128C494.625 213.842 494.911 213.699 495.133 213.572C495.387 213.429 497.023 212.603 497.023 211.174ZM511.301 214.62C511.301 217.796 509.221 220.13 506.966 220.13C504.711 220.13 502.631 217.796 502.631 214.62V214.048C502.631 210.873 504.711 208.538 506.966 208.538C509.221 208.538 511.285 210.873 511.285 214.048L511.301 214.62ZM504.378 214.318C504.378 216.891 505.442 219.336 506.966 219.336C508.474 219.336 509.554 216.891 509.554 214.318C509.554 211.73 508.474 209.332 506.966 209.332C505.442 209.332 504.378 211.73 504.378 214.318Z" fill="#1E1E1C"/>
<path d="M527.763 243.584C527.763 241.806 525.508 241.091 523.92 243.092C523.666 243.41 523.38 243.362 523.253 243.267C522.951 243.045 523.158 242.552 523.65 242.092C524.095 241.679 524.952 240.949 526.476 240.949C528.017 240.949 529.255 241.679 529.414 242.886C529.62 244.426 528.461 245.696 527.651 245.95C527.969 245.871 529.716 246.125 530.16 247.681C531.081 250.857 528.017 254.223 523.729 253.969C523.459 253.953 522.999 253.921 522.983 253.62C522.967 253.207 523.396 253.27 523.936 253.255C526.588 253.175 528.255 251.174 528.557 249.031C528.747 247.729 528.017 246.49 526.032 246.824C525.746 246.871 525.46 246.824 525.413 246.538C525.365 246.252 525.651 246.109 525.873 245.982C526.127 245.839 527.763 245.013 527.763 243.584ZM539.31 252.111C539.31 252.381 539.135 252.54 538.913 252.54H538.119C537.896 252.54 537.722 252.381 537.722 252.111V242.886C537.102 243.41 535.467 244.489 534.816 244.855C534.641 244.95 534.419 245.013 534.26 244.839C534.022 244.569 534.228 244.315 534.435 244.172L536.293 242.87C538.293 241.457 538.532 240.949 538.897 240.949C539.151 240.949 539.31 241.123 539.31 241.377V252.111Z" fill="#1E1E1C"/>
<path d="M561.763 213.134C561.763 211.356 559.508 210.641 557.92 212.642C557.666 212.96 557.38 212.912 557.253 212.817C556.951 212.594 557.158 212.102 557.65 211.642C558.095 211.229 558.952 210.498 560.476 210.498C562.017 210.498 563.255 211.229 563.414 212.436C563.62 213.976 562.461 215.246 561.651 215.5C561.969 215.421 563.716 215.675 564.16 217.231C565.081 220.407 562.017 223.773 557.729 223.519C557.459 223.503 556.999 223.471 556.983 223.17C556.967 222.757 557.396 222.82 557.936 222.804C560.588 222.725 562.255 220.724 562.557 218.581C562.747 217.279 562.017 216.04 560.032 216.373C559.746 216.421 559.46 216.373 559.413 216.088C559.365 215.802 559.651 215.659 559.873 215.532C560.127 215.389 561.763 214.563 561.763 213.134ZM575.231 221.661C575.199 221.931 575.056 222.09 574.786 222.09H568.355C567.958 222.09 567.704 221.995 567.704 221.598C567.704 220.391 568.991 218.676 570.833 217.247C572.516 215.929 573.421 214.833 573.453 213.499C573.468 212.912 573.23 211.419 571.547 211.419C570.134 211.419 569.372 212.436 568.752 213.388C568.546 213.706 568.244 213.658 568.101 213.563C567.609 213.229 568.324 212.277 568.959 211.642C569.388 211.213 570.42 210.498 571.849 210.498C574.294 210.498 575.199 212.039 575.199 213.357C575.199 214.452 574.993 215.532 573.135 216.802C571.214 218.104 569.197 219.502 569.197 220.661H574.516L574.643 220.264C574.739 219.978 574.818 219.803 575.056 219.803C575.31 219.803 575.39 219.994 575.358 220.264L575.231 221.661Z" fill="#1E1E1C"/>
<path d="M538.653 170.224C538.653 168.446 536.398 167.731 534.81 169.732C534.556 170.049 534.27 170.002 534.143 169.906C533.841 169.684 534.048 169.192 534.54 168.731C534.985 168.319 535.842 167.588 537.366 167.588C538.907 167.588 540.145 168.319 540.304 169.525C540.51 171.066 539.351 172.336 538.541 172.59C538.859 172.511 540.606 172.765 541.05 174.321C541.971 177.497 538.907 180.863 534.619 180.609C534.349 180.593 533.889 180.561 533.873 180.259C533.857 179.847 534.286 179.91 534.826 179.894C537.478 179.815 539.145 177.814 539.446 175.67C539.637 174.368 538.907 173.13 536.922 173.463C536.636 173.511 536.35 173.463 536.302 173.177C536.255 172.892 536.541 172.749 536.763 172.622C537.017 172.479 538.653 171.653 538.653 170.224ZM549.771 170.224C549.771 168.446 547.516 167.731 545.928 169.732C545.674 170.049 545.388 170.002 545.261 169.906C544.96 169.684 545.166 169.192 545.658 168.731C546.103 168.319 546.96 167.588 548.485 167.588C550.025 167.588 551.263 168.319 551.422 169.525C551.629 171.066 550.469 172.336 549.66 172.59C549.977 172.511 551.724 172.765 552.168 174.321C553.089 177.497 550.025 180.863 545.738 180.609C545.468 180.593 545.007 180.561 544.991 180.259C544.975 179.847 545.404 179.91 545.944 179.894C548.596 179.815 550.263 177.814 550.565 175.67C550.755 174.368 550.025 173.13 548.04 173.463C547.754 173.511 547.468 173.463 547.421 173.177C547.373 172.892 547.659 172.749 547.881 172.622C548.135 172.479 549.771 171.653 549.771 170.224Z" fill="#1E1E1C"/>
<path d="M532.873 126.684C532.873 124.906 530.618 124.191 529.03 126.192C528.776 126.509 528.49 126.462 528.363 126.366C528.061 126.144 528.268 125.652 528.76 125.191C529.205 124.779 530.062 124.048 531.587 124.048C533.127 124.048 534.365 124.779 534.524 125.985C534.731 127.526 533.571 128.796 532.762 129.05C533.079 128.971 534.826 129.225 535.27 130.781C536.191 133.956 533.127 137.323 528.84 137.069C528.57 137.053 528.109 137.021 528.093 136.719C528.077 136.307 528.506 136.37 529.046 136.354C531.698 136.275 533.365 134.274 533.667 132.13C533.857 130.828 533.127 129.59 531.142 129.923C530.856 129.971 530.57 129.923 530.523 129.637C530.475 129.352 530.761 129.209 530.983 129.082C531.237 128.939 532.873 128.113 532.873 126.684ZM538.354 132.4C538.291 132.178 538.449 131.892 538.703 131.543L543.88 124.445C544.086 124.175 544.309 123.985 544.579 124.048C544.96 124.143 544.928 124.493 544.928 124.89V131.892H546.563C546.833 131.892 546.992 132.067 546.992 132.289C546.992 132.512 546.833 132.686 546.563 132.686H544.928V136.64C544.928 136.91 544.753 137.069 544.531 137.069H543.737C543.515 137.069 543.34 136.91 543.34 136.64V132.686L538.862 132.67C538.497 132.67 538.386 132.527 538.354 132.4ZM539.624 131.892H543.34V126.652L539.624 131.892Z" fill="#1E1E1C"/>
<path d="M558.603 82.0444C558.603 80.2659 556.348 79.5514 554.76 81.5521C554.506 81.8697 554.22 81.8221 554.093 81.7268C553.791 81.5045 553.998 81.0122 554.49 80.5517C554.935 80.1389 555.792 79.4085 557.317 79.4085C558.857 79.4085 560.095 80.1389 560.254 81.3457C560.461 82.8859 559.301 84.1562 558.492 84.4103C558.809 84.3309 560.556 84.585 561 86.1411C561.921 89.3168 558.857 92.6832 554.57 92.4291C554.3 92.4132 553.839 92.3815 553.823 92.0798C553.807 91.6669 554.236 91.7304 554.776 91.7145C557.428 91.6352 559.095 89.6344 559.397 87.4908C559.587 86.1887 558.857 84.9502 556.872 85.2836C556.586 85.3313 556.3 85.2836 556.253 84.9978C556.205 84.712 556.491 84.5691 556.713 84.4421C556.967 84.2991 558.603 83.4734 558.603 82.0444ZM571.436 79.8848C571.595 79.8848 571.865 79.9642 571.833 80.3136L571.769 80.8852C571.738 81.2345 571.436 81.3139 571.277 81.3139H566.434L566.259 84.2515C569.149 82.7589 572.039 83.6164 572.039 86.6492C572.039 88.9834 570.054 91.3811 567.911 92.0639C567.212 92.2862 565.418 92.7784 565.45 92.0798C565.465 91.7304 565.878 91.7304 566.259 91.6828C571.404 91.0476 571.515 83.0606 567.212 84.6167C566.418 84.9025 566.053 85.363 565.688 85.2201C565.37 85.0931 565.434 84.7914 565.45 84.3944L565.72 80.3453C565.751 80.1389 565.799 79.8848 566.196 79.8848H571.436Z" fill="#1E1E1C"/>
<path d="M531.143 57.8647C531.143 56.0862 528.888 55.3717 527.3 57.3724C527.046 57.69 526.76 57.6424 526.633 57.5471C526.331 57.3248 526.538 56.8325 527.03 56.3721C527.475 55.9592 528.332 55.2288 529.856 55.2288C531.397 55.2288 532.635 55.9592 532.794 57.166C533 58.7062 531.841 59.9765 531.031 60.2306C531.349 60.1512 533.096 60.4053 533.54 61.9614C534.461 65.1372 531.397 68.5035 527.109 68.2494C526.839 68.2335 526.379 68.2018 526.363 67.9001C526.347 67.4872 526.776 67.5507 527.316 67.5349C529.967 67.4555 531.635 65.4547 531.936 63.3111C532.127 62.009 531.397 60.7705 529.412 61.1039C529.126 61.1516 528.84 61.1039 528.792 60.8181C528.745 60.5323 529.031 60.3894 529.253 60.2624C529.507 60.1195 531.143 59.2938 531.143 57.8647ZM537.037 60.3259C537.291 56.6102 539.99 53.7044 542.959 53.1804C543.229 53.1328 543.769 53.0693 543.817 53.4504C543.865 53.8632 543.388 53.8632 542.959 53.9585C540.403 54.5301 539.022 57.293 538.815 59.7066C539.784 58.8333 540.657 58.4204 541.578 58.4204C543.468 58.4204 545.182 59.7225 545.182 61.9138C545.182 64.2162 543.341 65.6294 541.229 65.6294C539.022 65.6294 536.783 64.0256 537.037 60.3259ZM538.799 60.9769C538.942 63.7875 540.038 64.8355 541.403 64.8355C542.674 64.8355 543.42 63.7398 543.436 62.1202C543.452 60.707 542.801 59.2144 541.403 59.2144C540.705 59.2144 539.879 59.7384 538.799 60.9769Z" fill="#1E1E1C"/>
<path d="M507.072 37.5444C507.072 35.7659 504.818 35.0514 503.23 37.0521C502.976 37.3697 502.69 37.3221 502.563 37.2268C502.261 37.0045 502.468 36.5122 502.96 36.0517C503.404 35.6389 504.262 34.9085 505.786 34.9085C507.327 34.9085 508.565 35.6389 508.724 36.8457C508.93 38.3859 507.771 39.6562 506.961 39.9103C507.279 39.8309 509.026 40.085 509.47 41.6411C510.391 44.8168 507.327 48.1832 503.039 47.9291C502.769 47.9132 502.309 47.8815 502.293 47.5798C502.277 47.1669 502.706 47.2304 503.246 47.2145C505.897 47.1352 507.565 45.1344 507.866 42.9908C508.057 41.6887 507.327 40.4502 505.342 40.7836C505.056 40.8313 504.77 40.7836 504.722 40.4978C504.675 40.212 504.961 40.0691 505.183 39.9421C505.437 39.7991 507.072 38.9734 507.072 37.5444ZM520.096 35.3848C520.43 35.3848 520.811 35.3213 520.842 35.7024C520.858 35.9882 520.604 36.1788 520.271 36.5122C519.286 37.4967 516.666 39.8785 516.666 47.1034C516.666 47.5956 516.396 47.9291 515.841 47.9291C515.444 47.9291 514.983 47.7862 514.983 46.5953C514.983 43.9118 516.841 38.9576 518.874 36.8139H513.395L513.173 38.0525C513.125 38.3383 513.03 38.4812 512.792 38.4812C512.538 38.4812 512.395 38.3065 512.411 38.0525L512.49 35.8771C512.49 35.7659 512.443 35.3848 512.982 35.3848H520.096Z" fill="#1E1E1C"/>
<path d="M556.173 26.4242C556.173 24.6458 553.918 23.9313 552.33 25.932C552.076 26.2496 551.79 26.2019 551.663 26.1067C551.361 25.8844 551.568 25.3921 552.06 24.9316C552.505 24.5188 553.362 23.7884 554.886 23.7884C556.427 23.7884 557.665 24.5188 557.824 25.7256C558.03 27.2658 556.871 28.5361 556.061 28.7902C556.379 28.7108 558.126 28.9648 558.57 30.521C559.491 33.6967 556.427 37.063 552.139 36.809C551.869 36.7931 551.409 36.7613 551.393 36.4596C551.377 36.0468 551.806 36.1103 552.346 36.0944C554.998 36.015 556.665 34.0143 556.966 31.8707C557.157 30.5686 556.427 29.3301 554.442 29.6635C554.156 29.7111 553.87 29.6635 553.822 29.3777C553.775 29.0919 554.061 28.949 554.283 28.8219C554.537 28.679 556.173 27.8533 556.173 26.4242ZM564.845 27.631C563.607 26.9959 562.797 25.8208 562.765 24.8522C562.702 22.9944 564.052 21.5653 566.195 21.5653C568.275 21.5653 569.466 23.0103 569.466 24.5664C569.466 25.6303 568.386 27.0118 567.196 27.3928C568.895 28.1709 570.085 29.4095 570.085 30.8544C570.085 32.9504 568.577 34.189 566.021 34.189C563.845 34.189 562.146 32.9822 562.146 31.0767C562.146 29.5841 563.004 28.2821 564.845 27.631ZM563.734 31.1085C563.734 32.4899 564.893 33.4744 566.275 33.4585C567.593 33.4427 568.498 32.617 568.498 31.2832C568.498 30.3145 567.926 29.2665 565.624 28.1868C564.369 28.6631 563.734 29.6953 563.734 31.1085ZM564.194 24.3441C564.194 25.3286 564.623 25.9002 566.227 26.8847C567.227 26.5195 568.021 25.4715 568.021 24.4553C568.021 23.5502 567.545 22.2957 566.132 22.2957C564.75 22.2957 564.194 23.5184 564.194 24.3441Z" fill="#1E1E1C"/>
<path d="M599.923 7.04435C599.923 5.26593 597.668 4.55138 596.08 6.55211C595.826 6.86969 595.54 6.82205 595.413 6.72678C595.111 6.50447 595.318 6.01223 595.81 5.55175C596.255 5.1389 597.112 4.40847 598.636 4.40847C600.177 4.40847 601.415 5.1389 601.574 6.34569C601.78 7.88593 600.621 9.15624 599.811 9.4103C600.129 9.3309 601.876 9.58496 602.32 11.1411C603.241 14.3168 600.177 17.6832 595.889 17.4291C595.619 17.4132 595.159 17.3815 595.143 17.0798C595.127 16.6669 595.556 16.7304 596.096 16.7145C598.748 16.6352 600.415 14.6344 600.716 12.4908C600.907 11.1887 600.177 9.95018 598.192 10.2836C597.906 10.3313 597.62 10.2836 597.572 9.99781C597.525 9.71199 597.811 9.56908 598.033 9.44205C598.287 9.29914 599.923 8.47345 599.923 7.04435ZM605.769 8.12411C605.769 5.82169 607.611 4.40847 609.723 4.40847C611.93 4.40847 614.169 6.01223 613.915 9.71199C613.661 13.4276 610.961 16.8098 607.992 17.3338C607.722 17.3815 607.182 17.445 607.135 17.0639C607.087 16.651 607.563 16.651 607.992 16.5558C610.549 15.9841 611.93 12.7448 612.136 10.3313C611.168 11.2046 610.295 11.6174 609.374 11.6174C607.484 11.6174 605.769 10.3154 605.769 8.12411ZM607.516 7.91769C607.5 9.3309 608.151 10.8235 609.548 10.8235C610.231 10.8235 611.104 10.3471 612.152 9.09272C612.009 6.25041 610.914 5.20241 609.548 5.20241C608.278 5.20241 607.532 6.29805 607.516 7.91769Z" fill="#1E1E1C"/>
<path d="M4.06006 530.55L586.13 10.8203" stroke="black" stroke-width="0.5" stroke-miterlimit="10" stroke-dasharray="3 3"/>
</svg>
