<svg width="632" height="487" viewBox="0 0 632 487" fill="none" xmlns="http://www.w3.org/2000/svg">
<path d="M99.37 131.144C98.434 130.664 97.822 129.776 97.798 129.044C97.75 127.64 98.77 126.56 100.39 126.56C101.962 126.56 102.862 127.652 102.862 128.828C102.862 129.632 102.046 130.676 101.146 130.964C102.43 131.552 103.33 132.488 103.33 133.58C103.33 135.164 102.19 136.1 100.258 136.1C98.614 136.1 97.33 135.188 97.33 133.748C97.33 132.62 97.978 131.636 99.37 131.144ZM98.53 133.772C98.53 134.816 99.406 135.56 100.45 135.548C101.446 135.536 102.13 134.912 102.13 133.904C102.13 133.172 101.698 132.38 99.958 131.564C99.01 131.924 98.53 132.704 98.53 133.772ZM98.878 128.66C98.878 129.404 99.202 129.836 100.414 130.58C101.17 130.304 101.77 129.512 101.77 128.744C101.77 128.06 101.41 127.112 100.342 127.112C99.298 127.112 98.878 128.036 98.878 128.66ZM110.916 128.6C111.036 128.6 111.24 128.66 111.216 128.924L111.168 129.356C111.144 129.62 110.916 129.68 110.796 129.68H107.136L107.004 131.9C109.188 130.772 111.372 131.42 111.372 133.712C111.372 135.476 109.872 137.288 108.252 137.804C107.724 137.972 106.368 138.344 106.392 137.816C106.404 137.552 106.716 137.552 107.004 137.516C110.892 137.036 110.976 131 107.724 132.176C107.124 132.392 106.848 132.74 106.572 132.632C106.332 132.536 106.38 132.308 106.392 132.008L106.596 128.948C106.62 128.792 106.656 128.6 106.956 128.6H110.916ZM114.075 132.092C114.267 129.284 116.307 127.088 118.551 126.692C118.755 126.656 119.163 126.608 119.199 126.896C119.235 127.208 118.875 127.208 118.551 127.28C116.619 127.712 115.575 129.8 115.419 131.624C116.151 130.964 116.811 130.652 117.507 130.652C118.935 130.652 120.231 131.636 120.231 133.292C120.231 135.032 118.839 136.1 117.243 136.1C115.575 136.1 113.883 134.888 114.075 132.092ZM115.407 132.584C115.515 134.708 116.343 135.5 117.375 135.5C118.335 135.5 118.899 134.672 118.911 133.448C118.923 132.38 118.431 131.252 117.375 131.252C116.847 131.252 116.223 131.648 115.407 132.584ZM128.201 136.676C128.177 136.88 128.069 137 127.865 137H123.005C122.705 137 122.513 136.928 122.513 136.628C122.513 135.716 123.485 134.42 124.877 133.34C126.149 132.344 126.833 131.516 126.857 130.508C126.869 130.064 126.689 128.936 125.417 128.936C124.349 128.936 123.773 129.704 123.305 130.424C123.149 130.664 122.921 130.628 122.813 130.556C122.441 130.304 122.981 129.584 123.461 129.104C123.785 128.78 124.565 128.24 125.645 128.24C127.493 128.24 128.177 129.404 128.177 130.4C128.177 131.228 128.021 132.044 126.617 133.004C125.165 133.988 123.641 135.044 123.641 135.92H127.661L127.757 135.62C127.829 135.404 127.889 135.272 128.069 135.272C128.261 135.272 128.321 135.416 128.297 135.62L128.201 136.676Z" fill="#1D1D1B"/>
<path d="M86.06 135.25C88.3023 135.25 90.12 133.432 90.12 131.19C90.12 128.948 88.3023 127.13 86.06 127.13C83.8177 127.13 82 128.948 82 131.19C82 133.432 83.8177 135.25 86.06 135.25Z" fill="#1D1D1B"/>
<path d="M174.97 478.634C174.034 478.154 173.422 477.266 173.398 476.534C173.35 475.13 174.37 474.05 175.99 474.05C177.562 474.05 178.462 475.142 178.462 476.318C178.462 477.122 177.646 478.166 176.746 478.454C178.03 479.042 178.93 479.978 178.93 481.07C178.93 482.654 177.79 483.59 175.858 483.59C174.214 483.59 172.93 482.678 172.93 481.238C172.93 480.11 173.578 479.126 174.97 478.634ZM174.13 481.262C174.13 482.306 175.006 483.05 176.05 483.038C177.046 483.026 177.73 482.402 177.73 481.394C177.73 480.662 177.298 479.87 175.558 479.054C174.61 479.414 174.13 480.194 174.13 481.262ZM174.478 476.15C174.478 476.894 174.802 477.326 176.014 478.07C176.77 477.794 177.37 477.002 177.37 476.234C177.37 475.55 177.01 474.602 175.942 474.602C174.898 474.602 174.478 475.526 174.478 476.15ZM183.372 478.634C182.436 478.154 181.824 477.266 181.8 476.534C181.752 475.13 182.772 474.05 184.392 474.05C185.964 474.05 186.864 475.142 186.864 476.318C186.864 477.122 186.048 478.166 185.148 478.454C186.432 479.042 187.332 479.978 187.332 481.07C187.332 482.654 186.192 483.59 184.26 483.59C182.616 483.59 181.332 482.678 181.332 481.238C181.332 480.11 181.98 479.126 183.372 478.634ZM182.532 481.262C182.532 482.306 183.408 483.05 184.452 483.038C185.448 483.026 186.132 482.402 186.132 481.394C186.132 480.662 185.7 479.87 183.96 479.054C183.012 479.414 182.532 480.194 182.532 481.262ZM182.88 476.15C182.88 476.894 183.204 477.326 184.416 478.07C185.172 477.794 185.772 477.002 185.772 476.234C185.772 475.55 185.412 474.602 184.344 474.602C183.3 474.602 182.88 475.526 182.88 476.15Z" fill="#1D1D1B"/>
<path d="M161.66 482.73C163.902 482.73 165.72 480.913 165.72 478.67C165.72 476.428 163.902 474.61 161.66 474.61C159.418 474.61 157.6 476.428 157.6 478.67C157.6 480.913 159.418 482.73 161.66 482.73Z" fill="#1D1D1B"/>
<path d="M75.726 358.516L77.382 352.84H76.554C76.35 352.84 76.218 352.732 76.218 352.54C76.218 352.36 76.35 352.24 76.554 352.24H78.846C79.026 352.24 79.146 352.372 79.146 352.54C79.146 352.708 79.026 352.84 78.846 352.84H78.018L75.654 360.82C75.618 360.94 75.522 361 75.426 361C75.33 361 75.246 360.94 75.21 360.82L72.678 352.84H71.85C71.634 352.84 71.514 352.708 71.514 352.54C71.514 352.372 71.634 352.24 71.85 352.24H75.018C75.222 352.24 75.354 352.36 75.354 352.54C75.354 352.732 75.222 352.84 75.018 352.84H73.938L75.726 358.516ZM86.0243 360.4C86.2523 360.4 86.3843 360.52 86.3843 360.7C86.3843 360.88 86.2523 361 86.0243 361H81.4643C81.2363 361 81.1043 360.88 81.1043 360.7C81.1043 360.52 81.2363 360.4 81.4643 360.4H83.1563V352.84H81.4523C81.2363 352.84 81.1043 352.72 81.1043 352.54C81.1043 352.36 81.2363 352.24 81.4523 352.24H86.0123C86.2283 352.24 86.3603 352.36 86.3603 352.54C86.3603 352.72 86.2283 352.84 86.0123 352.84H84.3563V360.4H86.0243ZM94.4267 360.4C94.6547 360.4 94.7867 360.52 94.7867 360.7C94.7867 360.88 94.6547 361 94.4267 361H89.8667C89.6387 361 89.5067 360.88 89.5067 360.7C89.5067 360.52 89.6387 360.4 89.8667 360.4H91.5587V352.84H89.8547C89.6387 352.84 89.5067 352.72 89.5067 352.54C89.5067 352.36 89.6387 352.24 89.8547 352.24H94.4147C94.6307 352.24 94.7627 352.36 94.7627 352.54C94.7627 352.72 94.6307 352.84 94.4147 352.84H92.7587V360.4H94.4267ZM102.829 360.4C103.057 360.4 103.189 360.52 103.189 360.7C103.189 360.88 103.057 361 102.829 361H98.269C98.041 361 97.909 360.88 97.909 360.7C97.909 360.52 98.041 360.4 98.269 360.4H99.961V352.84H98.257C98.041 352.84 97.909 352.72 97.909 352.54C97.909 352.36 98.041 352.24 98.257 352.24H102.817C103.033 352.24 103.165 352.36 103.165 352.54C103.165 352.72 103.033 352.84 102.817 352.84H101.161V360.4H102.829Z" fill="#1D1D1B"/>
<path d="M61.06 359.24C63.3023 359.24 65.12 357.422 65.12 355.18C65.12 352.938 63.3023 351.12 61.06 351.12C58.8177 351.12 57 352.938 57 355.18C57 357.422 58.8177 359.24 61.06 359.24Z" fill="#1D1D1B"/>
<path d="M362.108 64.3408C361.892 64.3408 361.76 64.2208 361.76 64.0408C361.76 63.8608 361.892 63.7408 362.108 63.7408H362.96V56.2888L362.108 56.1928C361.892 56.1688 361.76 56.0368 361.76 55.8808C361.76 55.7008 361.904 55.5808 362.108 55.5808H365.768C367.208 55.5808 368.408 56.3368 368.408 57.6808C368.408 58.9528 367.568 59.4208 367.232 59.5528L366.896 59.6848L367.232 59.7688C367.58 59.8528 368.816 60.3808 368.816 61.8808C368.816 63.3088 367.604 64.3408 366.248 64.3408H362.108ZM364.16 63.7408H365.876C367.136 63.7408 367.616 62.8288 367.616 61.8808C367.616 60.6688 366.848 60.0208 365.876 60.0208H364.16V63.7408ZM364.16 59.4208H365.876C366.332 59.4208 367.208 58.8448 367.208 57.6808C367.208 56.5528 366.356 56.1808 365.876 56.1808H364.16V59.4208Z" fill="#1D1D1B"/>
<path d="M350.97 62.5809C353.212 62.5809 355.03 60.7632 355.03 58.5209C355.03 56.2787 353.212 54.4609 350.97 54.4609C348.728 54.4609 346.91 56.2787 346.91 58.5209C346.91 60.7632 348.728 62.5809 350.97 62.5809Z" fill="#1D1D1B"/>
<path d="M209.152 229.216C209.152 229.42 209.02 229.54 208.852 229.54H208.252C208.084 229.54 207.952 229.42 207.952 229.216V222.244C207.484 222.64 206.248 223.456 205.756 223.732C205.624 223.804 205.456 223.852 205.336 223.72C205.156 223.516 205.312 223.324 205.468 223.216L206.872 222.232C208.384 221.164 208.564 220.78 208.84 220.78C209.032 220.78 209.152 220.912 209.152 221.104V229.216Z" fill="#1D1D1B"/>
<path d="M193.67 227.78C195.912 227.78 197.73 225.962 197.73 223.72C197.73 221.478 195.912 219.66 193.67 219.66C191.428 219.66 189.61 221.478 189.61 223.72C189.61 225.962 191.428 227.78 193.67 227.78Z" fill="#1D1D1B"/>
<path d="M247.67 11.7C247.67 11.532 247.79 11.4 248.006 11.4H248.642L250.766 7.764L248.798 3.84H248.006C247.79 3.84 247.67 3.708 247.67 3.54C247.67 3.372 247.79 3.24 248.006 3.24H250.658C250.862 3.24 250.994 3.36 250.994 3.54C250.994 3.72 250.862 3.84 250.658 3.84H250.166L251.51 6.492L253.058 3.84H252.254C252.038 3.84 251.918 3.708 251.918 3.54C251.918 3.372 252.038 3.24 252.254 3.24H254.738C254.942 3.24 255.074 3.36 255.074 3.54C255.074 3.72 254.942 3.84 254.738 3.84H253.898L251.894 7.272L253.982 11.4H254.738C254.942 11.4 255.074 11.52 255.074 11.7C255.074 11.88 254.942 12 254.738 12H252.038C251.822 12 251.702 11.868 251.702 11.7C251.702 11.532 251.822 11.4 252.038 11.4H252.602L251.162 8.532L249.482 11.4H250.274C250.478 11.4 250.61 11.52 250.61 11.7C250.61 11.88 250.478 12 250.274 12H248.006C247.79 12 247.67 11.868 247.67 11.7Z" fill="#1D1D1B"/>
<path d="M237.06 10.2401C239.302 10.2401 241.12 8.42239 241.12 6.18012C241.12 3.93784 239.302 2.12012 237.06 2.12012C234.818 2.12012 233 3.93784 233 6.18012C233 8.42239 234.818 10.2401 237.06 10.2401Z" fill="#1D1D1B"/>
<path d="M563.452 96.7068C563.344 96.9348 563.284 97.1388 563.056 97.1388C562.816 97.1388 562.756 96.9348 562.648 96.7068L560.932 93.0108V98.9508H561.964C562.18 98.9508 562.3 99.0828 562.3 99.2508C562.3 99.4308 562.18 99.5508 561.964 99.5508H559.54C559.36 99.5508 559.228 99.4308 559.228 99.2508C559.228 99.0708 559.36 98.9508 559.54 98.9508H560.212L560.2 91.4508L559.576 91.3908C559.384 91.3668 559.228 91.2948 559.228 91.0908C559.228 90.8868 559.384 90.7908 559.576 90.7908H560.74C561.112 90.7908 561.22 91.0068 561.412 91.4148L563.368 95.3748L565.144 91.4148C565.336 91.0068 565.444 90.7908 565.816 90.7908H566.944C567.136 90.7908 567.292 90.8868 567.292 91.0908C567.292 91.2948 567.136 91.3668 566.944 91.3908L566.428 91.4508L566.416 98.9508H566.956C567.172 98.9508 567.292 99.0828 567.292 99.2508C567.292 99.4308 567.172 99.5508 566.956 99.5508H564.316C564.136 99.5508 564.004 99.4308 564.004 99.2508C564.004 99.0708 564.136 98.9508 564.316 98.9508H565.216V92.7228L563.452 96.7068Z" fill="#1D1D1B"/>
<path d="M548.99 97.7909C551.232 97.7909 553.05 95.9732 553.05 93.7309C553.05 91.4886 551.232 89.6709 548.99 89.6709C546.748 89.6709 544.93 91.4886 544.93 93.7309C544.93 95.9732 546.748 97.7909 548.99 97.7909Z" fill="#1D1D1B"/>
<path d="M420.594 437.288C420.594 435.548 421.986 434.48 423.582 434.48C425.25 434.48 426.942 435.692 426.75 438.488C426.558 441.296 424.518 443.852 422.274 444.248C422.07 444.284 421.662 444.332 421.626 444.044C421.59 443.732 421.95 443.732 422.274 443.66C424.206 443.228 425.25 440.78 425.406 438.956C424.674 439.616 424.014 439.928 423.318 439.928C421.89 439.928 420.594 438.944 420.594 437.288ZM421.914 437.132C421.902 438.2 422.394 439.328 423.45 439.328C423.966 439.328 424.626 438.968 425.418 438.02C425.31 435.872 424.482 435.08 423.45 435.08C422.49 435.08 421.926 435.908 421.914 437.132ZM429.032 438.332C429.224 435.524 431.264 433.328 433.508 432.932C433.712 432.896 434.12 432.848 434.156 433.136C434.192 433.448 433.832 433.448 433.508 433.52C431.576 433.952 430.532 436.04 430.376 437.864C431.108 437.204 431.768 436.892 432.464 436.892C433.892 436.892 435.188 437.876 435.188 439.532C435.188 441.272 433.796 442.34 432.2 442.34C430.532 442.34 428.84 441.128 429.032 438.332ZM430.364 438.824C430.472 440.948 431.3 441.74 432.332 441.74C433.292 441.74 433.856 440.912 433.868 439.688C433.88 438.62 433.388 437.492 432.332 437.492C431.804 437.492 431.18 437.888 430.364 438.824Z" fill="#1D1D1B"/>
<path d="M409.42 441.48C411.662 441.48 413.48 439.663 413.48 437.42C413.48 435.178 411.662 433.36 409.42 433.36C407.178 433.36 405.36 435.178 405.36 437.42C405.36 439.663 407.178 441.48 409.42 441.48Z" fill="#1D1D1B"/>
<path d="M476.138 463.34C476.39 462.644 476.882 462.128 477.398 461.936C477.878 461.744 478.874 461.468 480.398 460.376C481.706 459.428 481.682 459.392 482.042 459.608C482.27 459.752 482.33 459.992 482.186 460.304L477.014 471.332C476.894 471.596 476.738 471.752 476.522 471.668C476.258 471.56 476.342 471.32 476.45 471.08L481.538 460.232C481.25 460.424 480.938 460.784 480.446 461.12C479.666 461.648 479.03 461.948 478.526 462.128C478.982 462.572 479.126 463.436 478.802 464.312C478.418 465.356 477.506 465.992 476.774 465.728C476.042 465.464 475.754 464.396 476.138 463.34ZM476.702 463.544C476.426 464.288 476.486 464.948 476.966 465.152C477.458 465.356 477.95 464.792 478.226 464.072C478.514 463.304 478.43 462.644 477.962 462.452C477.482 462.26 476.978 462.8 476.702 463.544ZM479.618 467.504C480.002 466.46 480.914 465.824 481.646 466.088C482.378 466.352 482.666 467.42 482.282 468.476C481.898 469.532 480.986 470.168 480.254 469.904C479.522 469.64 479.222 468.572 479.618 467.504ZM480.194 467.744C479.906 468.512 479.99 469.172 480.458 469.364C480.938 469.556 481.442 469.016 481.718 468.272C481.994 467.528 481.934 466.868 481.454 466.664C480.962 466.46 480.47 467.024 480.194 467.744Z" fill="#1D1D1B"/>
<path d="M465.06 468.24C467.302 468.24 469.12 466.422 469.12 464.18C469.12 461.938 467.302 460.12 465.06 460.12C462.818 460.12 461 461.938 461 464.18C461 466.422 462.818 468.24 465.06 468.24Z" fill="#1D1D1B"/>
<path d="M307.734 308.281C307.854 308.281 308.058 308.341 308.034 308.605L307.986 309.037C307.962 309.301 307.734 309.361 307.614 309.361H303.954L303.822 311.581C306.006 310.453 308.19 311.101 308.19 313.393C308.19 315.157 306.69 316.969 305.07 317.485C304.542 317.653 303.186 318.025 303.21 317.497C303.222 317.233 303.534 317.233 303.822 317.197C307.71 316.717 307.794 310.681 304.542 311.857C303.942 312.073 303.666 312.421 303.39 312.313C303.15 312.217 303.198 311.989 303.21 311.689L303.414 308.629C303.438 308.473 303.474 308.281 303.774 308.281H307.734ZM317.228 312.517C317.228 314.917 315.656 316.681 313.952 316.681C312.248 316.681 310.676 314.917 310.676 312.517V312.085C310.676 309.685 312.248 307.921 313.952 307.921C315.656 307.921 317.216 309.685 317.216 312.085L317.228 312.517ZM311.996 312.289C311.996 314.233 312.8 316.081 313.952 316.081C315.092 316.081 315.908 314.233 315.908 312.289C315.908 310.333 315.092 308.521 313.952 308.521C312.8 308.521 311.996 310.333 311.996 312.289ZM325.631 312.517C325.631 314.917 324.059 316.681 322.355 316.681C320.651 316.681 319.079 314.917 319.079 312.517V312.085C319.079 309.685 320.651 307.921 322.355 307.921C324.059 307.921 325.619 309.685 325.619 312.085L325.631 312.517ZM320.399 312.289C320.399 314.233 321.203 316.081 322.355 316.081C323.495 316.081 324.311 314.233 324.311 312.289C324.311 310.333 323.495 308.521 322.355 308.521C321.203 308.521 320.399 310.333 320.399 312.289Z" fill="#1D1D1B"/>
<path d="M291.28 314.921C293.522 314.921 295.34 313.103 295.34 310.861C295.34 308.619 293.522 306.801 291.28 306.801C289.038 306.801 287.22 308.619 287.22 310.861C287.22 313.103 289.038 314.921 291.28 314.921Z" fill="#1D1D1B"/>
<path d="M431.942 188.997C433.322 188.997 434.282 189.657 434.282 190.785V194.433C434.546 194.625 435.002 194.277 435.362 193.305C435.482 192.981 435.662 192.957 435.818 193.017C436.07 193.113 436.01 193.413 435.77 194.001C435.53 194.589 435.014 195.189 434.294 195.189C433.898 195.189 433.634 195.021 433.526 194.937L433.094 194.625L432.71 194.805C432.23 195.033 431.726 195.201 431.222 195.201C430.19 195.201 429.422 194.649 429.422 193.485C429.422 192.393 430.034 191.949 431.234 191.769L432.014 191.649C432.962 191.493 433.106 191.061 433.106 190.641V190.425C433.106 189.837 432.65 189.561 431.966 189.561C431.522 189.561 431.186 189.669 431.09 189.861V190.701C431.09 191.073 430.862 191.325 430.382 191.325C430.022 191.325 429.65 191.073 429.65 190.521C429.65 189.705 430.79 188.997 431.942 188.997ZM430.622 193.365C430.622 194.013 430.91 194.541 431.582 194.541C432.038 194.541 432.554 194.253 432.938 193.869C433.058 193.749 433.082 193.593 433.082 193.473V191.997L432.062 192.237C431.066 192.477 430.622 192.657 430.622 193.365Z" fill="#1D1D1B"/>
<path d="M418.08 193.381C420.322 193.381 422.14 191.563 422.14 189.321C422.14 187.078 420.322 185.261 418.08 185.261C415.838 185.261 414.02 187.078 414.02 189.321C414.02 191.563 415.838 193.381 418.08 193.381Z" fill="#1D1D1B"/>
<path d="M586.07 283.261C586.07 280.501 587.678 278.821 589.442 278.821C591.218 278.821 592.802 280.477 592.802 283.261C592.802 286.033 591.242 287.677 589.478 287.701L588.65 288.397C589.586 288.481 590.27 289.261 590.786 289.261C591.014 289.261 591.254 289.201 591.674 288.529C591.878 288.217 592.142 288.181 592.31 288.301C592.478 288.409 592.55 288.649 592.406 288.889L592.178 289.273C591.746 290.005 591.074 290.041 590.774 290.041C589.958 290.041 589.226 289.177 588.506 289.177C588.266 289.177 588.038 289.345 587.702 289.633C587.378 289.909 587.042 289.849 586.862 289.657C586.694 289.465 586.682 289.153 586.994 288.889L588.566 287.557C587.162 287.113 586.07 285.577 586.07 283.261ZM587.39 283.261C587.39 285.337 588.086 287.101 589.442 287.101C590.786 287.101 591.482 285.337 591.482 283.261C591.482 281.197 590.786 279.421 589.442 279.421C588.086 279.421 587.39 281.197 587.39 283.261Z" fill="#1D1D1B"/>
<path d="M575.16 285.881C577.402 285.881 579.22 284.063 579.22 281.821C579.22 279.578 577.402 277.761 575.16 277.761C572.918 277.761 571.1 279.578 571.1 281.821C571.1 284.063 572.918 285.881 575.16 285.881Z" fill="#1D1D1B"/>
<path d="M1 227.79L7.27356 221.96" stroke="#1D1D1B" stroke-width="0.25" stroke-miterlimit="10"/>
<path d="M1 234.53L14.5386 221.96" stroke="#1D1D1B" stroke-width="0.25" stroke-miterlimit="10"/>
<path d="M1 241.27L21.8119 221.96" stroke="#1D1D1B" stroke-width="0.25" stroke-miterlimit="10"/>
<path d="M3.95764 245.27L29.0769 221.96" stroke="#1D1D1B" stroke-width="0.25" stroke-miterlimit="10"/>
<path d="M11.2227 245.27L36.3419 221.96" stroke="#1D1D1B" stroke-width="0.25" stroke-miterlimit="10"/>
<path d="M18.4877 245.27L43.6152 221.96" stroke="#1D1D1B" stroke-width="0.25" stroke-miterlimit="10"/>
<path d="M25.761 245.27L50.8802 221.96" stroke="#1D1D1B" stroke-width="0.25" stroke-miterlimit="10"/>
<path d="M33.0259 245.27L58.1451 221.96" stroke="#1D1D1B" stroke-width="0.25" stroke-miterlimit="10"/>
<path d="M40.291 245.27L65.4186 221.96" stroke="#1D1D1B" stroke-width="0.25" stroke-miterlimit="10"/>
<path d="M47.5643 245.27L72.6836 221.96" stroke="#1D1D1B" stroke-width="0.25" stroke-miterlimit="10"/>
<path d="M54.8293 245.27L79.9486 221.96" stroke="#1D1D1B" stroke-width="0.25" stroke-miterlimit="10"/>
<path d="M62.0942 245.27L87.2218 221.96" stroke="#1D1D1B" stroke-width="0.25" stroke-miterlimit="10"/>
<path d="M69.3677 245.27L94.4869 221.96" stroke="#1D1D1B" stroke-width="0.25" stroke-miterlimit="10"/>
<path d="M76.6327 245.27L101.752 221.96" stroke="#1D1D1B" stroke-width="0.25" stroke-miterlimit="10"/>
<path d="M83.8976 245.27L109.017 221.96" stroke="#1D1D1B" stroke-width="0.25" stroke-miterlimit="10"/>
<path d="M91.1709 245.27L116.29 221.96" stroke="#1D1D1B" stroke-width="0.25" stroke-miterlimit="10"/>
<path d="M98.4359 245.27L123.555 221.96" stroke="#1D1D1B" stroke-width="0.25" stroke-miterlimit="10"/>
<path d="M105.701 245.27L130.82 221.96" stroke="#1D1D1B" stroke-width="0.25" stroke-miterlimit="10"/>
<path d="M112.966 245.27L138.094 221.96" stroke="#1D1D1B" stroke-width="0.25" stroke-miterlimit="10"/>
<path d="M120.239 245.27L145.358 221.96" stroke="#1D1D1B" stroke-width="0.25" stroke-miterlimit="10"/>
<path d="M127.504 245.27L152.624 221.96" stroke="#1D1D1B" stroke-width="0.25" stroke-miterlimit="10"/>
<path d="M134.769 245.27L159.897 221.96" stroke="#1D1D1B" stroke-width="0.25" stroke-miterlimit="10"/>
<path d="M142.043 245.27L167.162 221.96" stroke="#1D1D1B" stroke-width="0.25" stroke-miterlimit="10"/>
<path d="M149.308 245.27L174.427 221.96" stroke="#1D1D1B" stroke-width="0.25" stroke-miterlimit="10"/>
<path d="M156.573 245.27L181.7 221.96" stroke="#1D1D1B" stroke-width="0.25" stroke-miterlimit="10"/>
<path d="M163.846 245.27L188.965 221.96" stroke="#1D1D1B" stroke-width="0.25" stroke-miterlimit="10"/>
<path d="M171.111 245.27L196.23 221.96" stroke="#1D1D1B" stroke-width="0.25" stroke-miterlimit="10"/>
<path d="M178.376 245.27L203.504 221.96" stroke="#1D1D1B" stroke-width="0.25" stroke-miterlimit="10"/>
<path d="M185.649 245.27L210.768 221.96" stroke="#1D1D1B" stroke-width="0.25" stroke-miterlimit="10"/>
<path d="M192.914 245.27L218.033 221.96" stroke="#1D1D1B" stroke-width="0.25" stroke-miterlimit="10"/>
<path d="M200.179 245.27L225.307 221.96" stroke="#1D1D1B" stroke-width="0.25" stroke-miterlimit="10"/>
<path d="M207.453 245.27L232.572 221.96" stroke="#1D1D1B" stroke-width="0.25" stroke-miterlimit="10"/>
<path d="M214.718 245.27L239.837 221.96" stroke="#1D1D1B" stroke-width="0.25" stroke-miterlimit="10"/>
<path d="M221.983 245.27L247.102 221.96" stroke="#1D1D1B" stroke-width="0.25" stroke-miterlimit="10"/>
<path d="M229.248 245.27L254.375 221.96" stroke="#1D1D1B" stroke-width="0.25" stroke-miterlimit="10"/>
<path d="M236.521 245.27L261.64 221.96" stroke="#1D1D1B" stroke-width="0.25" stroke-miterlimit="10"/>
<path d="M243.786 245.27L268.905 221.96" stroke="#1D1D1B" stroke-width="0.25" stroke-miterlimit="10"/>
<path d="M251.051 245.27L276.178 221.96" stroke="#1D1D1B" stroke-width="0.25" stroke-miterlimit="10"/>
<path d="M258.324 245.27L283.443 221.96" stroke="#1D1D1B" stroke-width="0.25" stroke-miterlimit="10"/>
<path d="M265.589 245.27L290.708 221.96" stroke="#1D1D1B" stroke-width="0.25" stroke-miterlimit="10"/>
<path d="M272.854 245.27L297.982 221.96" stroke="#1D1D1B" stroke-width="0.25" stroke-miterlimit="10"/>
<path d="M280.128 245.27L305.247 221.96" stroke="#1D1D1B" stroke-width="0.25" stroke-miterlimit="10"/>
<path d="M287.393 245.27L312.512 221.96" stroke="#1D1D1B" stroke-width="0.25" stroke-miterlimit="10"/>
<path d="M294.657 245.27L319.785 221.96" stroke="#1D1D1B" stroke-width="0.25" stroke-miterlimit="10"/>
<path d="M301.931 245.27L327.05 221.96" stroke="#1D1D1B" stroke-width="0.25" stroke-miterlimit="10"/>
<path d="M309.196 245.27L334.315 221.96" stroke="#1D1D1B" stroke-width="0.25" stroke-miterlimit="10"/>
<path d="M316.461 245.27L341.588 221.96" stroke="#1D1D1B" stroke-width="0.25" stroke-miterlimit="10"/>
<path d="M323.734 245.27L348.853 221.96" stroke="#1D1D1B" stroke-width="0.25" stroke-miterlimit="10"/>
<path d="M330.999 245.27L356.118 221.96" stroke="#1D1D1B" stroke-width="0.25" stroke-miterlimit="10"/>
<path d="M338.264 245.27L363.383 221.96" stroke="#1D1D1B" stroke-width="0.25" stroke-miterlimit="10"/>
<path d="M345.529 245.27L370.657 221.96" stroke="#1D1D1B" stroke-width="0.25" stroke-miterlimit="10"/>
<path d="M352.802 245.27L377.922 221.96" stroke="#1D1D1B" stroke-width="0.25" stroke-miterlimit="10"/>
<path d="M360.068 245.27L385.187 221.96" stroke="#1D1D1B" stroke-width="0.25" stroke-miterlimit="10"/>
<path d="M367.332 245.27L392.46 221.96" stroke="#1D1D1B" stroke-width="0.25" stroke-miterlimit="10"/>
<path d="M374.606 245.27L399.725 221.96" stroke="#1D1D1B" stroke-width="0.25" stroke-miterlimit="10"/>
<path d="M381.871 245.27L406.99 221.96" stroke="#1D1D1B" stroke-width="0.25" stroke-miterlimit="10"/>
<path d="M389.136 245.27L414.263 221.96" stroke="#1D1D1B" stroke-width="0.25" stroke-miterlimit="10"/>
<path d="M396.409 245.27L421.528 221.96" stroke="#1D1D1B" stroke-width="0.25" stroke-miterlimit="10"/>
<path d="M403.674 245.27L428.793 221.96" stroke="#1D1D1B" stroke-width="0.25" stroke-miterlimit="10"/>
<path d="M410.939 245.27L436.067 221.96" stroke="#1D1D1B" stroke-width="0.25" stroke-miterlimit="10"/>
<path d="M418.212 245.27L443.332 221.96" stroke="#1D1D1B" stroke-width="0.25" stroke-miterlimit="10"/>
<path d="M425.477 245.27L450.597 221.96" stroke="#1D1D1B" stroke-width="0.25" stroke-miterlimit="10"/>
<path d="M432.742 245.27L457.87 221.96" stroke="#1D1D1B" stroke-width="0.25" stroke-miterlimit="10"/>
<path d="M440.016 245.27L465.135 221.96" stroke="#1D1D1B" stroke-width="0.25" stroke-miterlimit="10"/>
<path d="M447.281 245.27L472.4 221.96" stroke="#1D1D1B" stroke-width="0.25" stroke-miterlimit="10"/>
<path d="M454.546 245.27L479.673 221.96" stroke="#1D1D1B" stroke-width="0.25" stroke-miterlimit="10"/>
<path d="M461.819 245.27L486.938 221.96" stroke="#1D1D1B" stroke-width="0.25" stroke-miterlimit="10"/>
<path d="M469.084 245.27L494.203 221.96" stroke="#1D1D1B" stroke-width="0.25" stroke-miterlimit="10"/>
<path d="M476.349 245.27L501.468 221.96" stroke="#1D1D1B" stroke-width="0.25" stroke-miterlimit="10"/>
<path d="M483.614 245.27L508.742 221.96" stroke="#1D1D1B" stroke-width="0.25" stroke-miterlimit="10"/>
<path d="M490.887 245.27L516.007 221.96" stroke="#1D1D1B" stroke-width="0.25" stroke-miterlimit="10"/>
<path d="M498.152 245.27L523.272 221.96" stroke="#1D1D1B" stroke-width="0.25" stroke-miterlimit="10"/>
<path d="M505.417 245.27L530.545 221.96" stroke="#1D1D1B" stroke-width="0.25" stroke-miterlimit="10"/>
<path d="M512.691 245.27L537.81 221.96" stroke="#1D1D1B" stroke-width="0.25" stroke-miterlimit="10"/>
<path d="M519.956 245.27L545.075 221.96" stroke="#1D1D1B" stroke-width="0.25" stroke-miterlimit="10"/>
<path d="M527.221 245.27L552.348 221.96" stroke="#1D1D1B" stroke-width="0.25" stroke-miterlimit="10"/>
<path d="M534.494 245.27L559.613 221.96" stroke="#1D1D1B" stroke-width="0.25" stroke-miterlimit="10"/>
<path d="M541.759 245.27L566.878 221.96" stroke="#1D1D1B" stroke-width="0.25" stroke-miterlimit="10"/>
<path d="M549.024 245.27L574.152 221.96" stroke="#1D1D1B" stroke-width="0.25" stroke-miterlimit="10"/>
<path d="M556.297 245.27L581.417 221.96" stroke="#1D1D1B" stroke-width="0.25" stroke-miterlimit="10"/>
<path d="M563.562 245.27L588.682 221.96" stroke="#1D1D1B" stroke-width="0.25" stroke-miterlimit="10"/>
<path d="M570.827 245.27L595.955 221.96" stroke="#1D1D1B" stroke-width="0.25" stroke-miterlimit="10"/>
<path d="M578.101 245.27L603.22 221.96" stroke="#1D1D1B" stroke-width="0.25" stroke-miterlimit="10"/>
<path d="M585.366 245.27L610.485 221.96" stroke="#1D1D1B" stroke-width="0.25" stroke-miterlimit="10"/>
<path d="M592.631 245.27L617.75 221.96" stroke="#1D1D1B" stroke-width="0.25" stroke-miterlimit="10"/>
<path d="M599.896 245.27L625.023 221.96" stroke="#1D1D1B" stroke-width="0.25" stroke-miterlimit="10"/>
<path d="M607.169 245.27L631.83 222.39" stroke="#1D1D1B" stroke-width="0.25" stroke-miterlimit="10"/>
<path d="M614.434 245.27L631.83 229.13" stroke="#1D1D1B" stroke-width="0.25" stroke-miterlimit="10"/>
<path d="M621.699 245.27L631.83 235.87" stroke="#1D1D1B" stroke-width="0.25" stroke-miterlimit="10"/>
<path d="M628.972 245.27L631.83 242.61" stroke="#1D1D1B" stroke-width="0.25" stroke-miterlimit="10"/>
</svg>
