<svg width="538" height="495" viewBox="0 0 538 495" fill="none" xmlns="http://www.w3.org/2000/svg">
<path d="M445.186 306.508C447.026 306.508 448.306 307.388 448.306 308.892V313.756C448.658 314.012 449.266 313.548 449.746 312.252C449.906 311.82 450.146 311.788 450.354 311.868C450.69 311.996 450.61 312.396 450.29 313.18C449.97 313.964 449.282 314.764 448.322 314.764C447.794 314.764 447.442 314.54 447.298 314.428L446.722 314.012L446.21 314.252C445.57 314.556 444.898 314.78 444.226 314.78C442.85 314.78 441.826 314.044 441.826 312.492C441.826 311.036 442.642 310.444 444.242 310.204L445.282 310.044C446.546 309.836 446.738 309.26 446.738 308.7V308.412C446.738 307.628 446.13 307.26 445.218 307.26C444.626 307.26 444.178 307.404 444.05 307.66V308.78C444.05 309.276 443.746 309.612 443.106 309.612C442.626 309.612 442.13 309.276 442.13 308.54C442.13 307.452 443.65 306.508 445.186 306.508ZM443.426 312.332C443.426 313.196 443.81 313.9 444.706 313.9C445.314 313.9 446.002 313.516 446.514 313.004C446.674 312.844 446.706 312.636 446.706 312.476V310.508L445.346 310.828C444.018 311.148 443.426 311.388 443.426 312.332Z" fill="#1D1D1B"/>
<path d="M430.06 312.95C432.302 312.95 434.12 311.132 434.12 308.89C434.12 306.648 432.302 304.83 430.06 304.83C427.818 304.83 426 306.648 426 308.89C426 311.132 427.818 312.95 430.06 312.95Z" fill="#1D1D1B"/>
<path d="M387.182 345.092C387.758 345.092 388.478 345.316 388.99 345.54L389.518 345.78V342.468L388.398 342.356C388.11 342.324 387.934 342.148 387.934 341.94C387.934 341.7 388.126 341.54 388.398 341.54H390.622C390.734 341.54 391.118 341.492 391.118 342.036V352.42H392.686C392.926 352.42 393.118 352.596 393.118 352.82C393.118 353.044 392.926 353.22 392.686 353.22H390.158C389.934 353.22 389.918 353.204 389.486 352.66C389.118 352.852 388.302 353.348 387.214 353.348C384.734 353.348 383.598 351.172 383.598 349.156C383.598 346.756 385.102 345.092 387.182 345.092ZM385.326 349.156C385.342 350.756 385.678 352.468 387.454 352.468C388.046 352.468 388.542 352.164 389.182 351.684C389.502 351.444 389.518 351.284 389.518 350.788V347.284L389.054 346.9C388.462 346.42 387.95 345.892 387.182 345.892C386.046 345.892 385.31 347.268 385.326 349.156Z" fill="#1D1D1B"/>
<path d="M372.52 351.46C374.762 351.46 376.58 349.642 376.58 347.4C376.58 345.158 374.762 343.34 372.52 343.34C370.278 343.34 368.46 345.158 368.46 347.4C368.46 349.642 370.278 351.46 372.52 351.46Z" fill="#1D1D1B"/>
<path d="M487.132 449.228C487.132 446.028 489.836 445.02 491.34 445.02C492.892 445.02 494.428 445.9 494.428 447.26C494.428 447.996 493.9 448.332 493.452 448.332C492.62 448.332 492.476 447.772 492.476 447.34V446.108C492.252 445.9 491.772 445.82 491.34 445.82C489.5 445.82 488.892 447.868 488.892 449.228C488.892 450.444 489.404 452.46 491.212 452.46C492.524 452.46 493.084 451.708 493.74 450.924C493.98 450.636 494.252 450.588 494.444 450.748C494.684 450.956 494.604 451.34 493.996 451.98C493.1 452.924 492.22 453.26 491.036 453.26C489.324 453.26 487.132 452.108 487.132 449.228Z" fill="#1D1D1B"/>
<path d="M475.19 451.42C477.432 451.42 479.25 449.602 479.25 447.36C479.25 445.118 477.432 443.3 475.19 443.3C472.948 443.3 471.13 445.118 471.13 447.36C471.13 449.602 472.948 451.42 475.19 451.42Z" fill="#1D1D1B"/>
<path d="M368.216 405.71C368.216 405.486 368.408 405.31 368.648 405.31H371.48V399.134L368.648 398.91C368.408 398.91 368.216 398.734 368.216 398.51C368.216 398.286 368.408 398.11 368.648 398.11H372.536C372.696 398.11 373.08 398.11 373.08 398.574V405.31H375.912C376.152 405.31 376.344 405.486 376.344 405.71C376.344 405.934 376.152 406.11 375.912 406.11H368.648C368.408 406.11 368.216 405.934 368.216 405.71ZM371.096 395.294C371.096 394.75 371.544 394.35 372.088 394.35C372.632 394.35 373.08 394.75 373.08 395.294C373.08 395.838 372.632 396.238 372.088 396.238C371.544 396.238 371.096 395.838 371.096 395.294Z" fill="#1D1D1B"/>
<path d="M356.61 404.36C358.852 404.36 360.67 402.543 360.67 400.3C360.67 398.058 358.852 396.24 356.61 396.24C354.368 396.24 352.55 398.058 352.55 400.3C352.55 402.543 354.368 404.36 356.61 404.36Z" fill="#1D1D1B"/>
<path d="M496.198 340.32C497.51 340.32 498.07 339.568 498.726 338.784C498.966 338.496 499.238 338.448 499.43 338.608C499.67 338.816 499.59 339.2 498.982 339.84C498.086 340.784 497.206 341.12 496.022 341.12C494.31 341.12 492.038 339.968 492.038 337.088C492.038 335.04 493.43 332.896 495.958 332.896C498.038 332.896 499.702 334.272 499.702 336.976C499.702 337.248 499.462 337.248 499.366 337.248H493.798C493.798 338.624 494.39 340.32 496.198 340.32ZM493.846 335.936C493.814 336.144 493.798 336.448 494.086 336.448H497.942C497.942 335.536 497.654 333.696 495.974 333.696C494.582 333.696 493.99 335.008 493.846 335.936Z" fill="#1D1D1B"/>
<path d="M480.15 339.28C482.392 339.28 484.21 337.462 484.21 335.22C484.21 332.978 482.392 331.16 480.15 331.16C477.908 331.16 476.09 332.978 476.09 335.22C476.09 337.462 477.908 339.28 480.15 339.28Z" fill="#1D1D1B"/>
<path d="M417.35 434.058C416.614 434.058 415.942 433.802 415.398 433.386C415.222 433.546 415.062 433.69 414.934 433.834C414.678 434.106 414.55 434.298 414.55 434.474C414.55 434.954 414.998 434.954 415.894 434.954H416.038H417.83C419.798 434.954 421.078 435.418 421.078 436.842C421.078 438.522 419.622 439.53 416.678 439.53C414.374 439.53 413.366 438.73 413.366 437.53C413.366 437.066 413.718 436.442 414.422 436.106C413.83 435.818 413.558 435.306 413.558 434.65C413.558 434.314 413.766 433.914 414.022 433.626C414.294 433.306 414.566 433.018 414.822 432.794C414.438 432.282 414.214 431.642 414.214 430.954C414.214 429.258 415.622 427.85 417.35 427.85C418.406 427.85 419.334 428.378 419.894 429.162C420.006 428.058 420.694 427.85 421.014 427.85C421.702 427.85 422.038 428.362 422.038 428.794C422.038 429.594 421.494 429.786 421.094 429.786H420.534C420.422 429.786 420.326 429.786 420.246 429.786C420.406 430.154 420.486 430.554 420.486 430.954C420.486 432.682 419.062 434.058 417.35 434.058ZM414.342 437.53C414.342 438.33 414.87 438.73 416.678 438.73C418.758 438.73 419.814 438.09 419.91 437.434C420.038 436.57 419.27 436.394 417.702 436.394H416.118C414.87 436.41 414.342 437.114 414.342 437.53ZM415.814 430.954C415.814 432.01 416.134 433.258 417.35 433.258C418.55 433.258 418.87 432.01 418.87 430.954C418.87 429.898 418.55 428.65 417.35 428.65C416.134 428.65 415.814 429.898 415.814 430.954Z" fill="#1D1D1B"/>
<path d="M401.92 434.25C404.163 434.25 405.98 432.432 405.98 430.19C405.98 427.948 404.163 426.13 401.92 426.13C399.678 426.13 397.86 427.948 397.86 430.19C397.86 432.432 399.678 434.25 401.92 434.25Z" fill="#1D1D1B"/>
<path d="M440.286 378.27C440.446 378.27 440.83 378.27 440.83 378.734V385.774C440.83 387.166 441.006 389.71 437.566 389.71C435.918 389.71 434.59 388.414 434.974 387.102C435.182 386.398 435.79 386.238 436.222 386.366C437.022 386.606 436.99 387.182 436.862 387.614C436.766 387.886 436.574 388.574 436.574 388.574C436.574 388.574 436.654 388.99 437.566 388.99C439.23 388.99 439.23 387.166 439.23 385.774V379.294L436.398 379.07C436.158 379.07 435.966 378.894 435.966 378.67C435.966 378.446 436.158 378.27 436.398 378.27H440.286ZM438.846 375.454C438.846 374.91 439.294 374.51 439.838 374.51C440.382 374.51 440.83 374.91 440.83 375.454C440.83 375.998 440.382 376.398 439.838 376.398C439.294 376.398 438.846 375.998 438.846 375.454Z" fill="#1D1D1B"/>
<path d="M422.99 384.51C425.232 384.51 427.05 382.692 427.05 380.45C427.05 378.208 425.232 376.39 422.99 376.39C420.747 376.39 418.93 378.208 418.93 380.45C418.93 382.692 420.747 384.51 422.99 384.51Z" fill="#1D1D1B"/>
<path d="M482.17 371.686C481.882 371.654 481.706 371.478 481.706 371.27C481.706 371.03 481.898 370.87 482.17 370.87H484.394C484.506 370.87 484.89 370.822 484.89 371.366V375.11L485.418 374.87C485.93 374.646 486.65 374.422 487.226 374.422C489.306 374.422 490.81 376.086 490.81 378.486C490.81 380.502 489.674 382.678 487.194 382.678C486.106 382.678 485.29 382.182 484.922 381.99C484.49 382.534 484.474 382.55 484.25 382.55H483.53C483.29 382.55 483.29 382.47 483.29 382.166V371.798L482.17 371.686ZM484.89 380.118C484.89 380.614 484.906 380.774 485.226 381.014C485.866 381.494 486.362 381.798 486.954 381.798C488.73 381.798 489.066 380.086 489.082 378.486C489.098 376.598 488.362 375.222 487.226 375.222C486.458 375.222 485.946 375.75 485.354 376.23L484.89 376.614V380.118Z" fill="#1D1D1B"/>
<path d="M471.13 380.79C473.373 380.79 475.19 378.972 475.19 376.73C475.19 374.488 473.373 372.67 471.13 372.67C468.888 372.67 467.07 374.488 467.07 376.73C467.07 378.972 468.888 380.79 471.13 380.79Z" fill="#1D1D1B"/>
<path d="M453.835 480.718C453.547 480.686 453.403 480.574 453.403 480.334C453.403 480.078 453.579 479.95 453.835 479.95H456.187C456.299 479.95 456.683 479.902 456.683 480.446V487.87L460.123 484.43H458.859C458.587 484.43 458.363 484.302 458.363 484.03C458.363 483.758 458.587 483.63 458.859 483.63H462.523C462.795 483.63 463.019 483.758 463.019 484.03C463.019 484.302 462.795 484.43 462.523 484.43H461.259L458.667 487.022L462.043 490.83H463.163C463.435 490.83 463.659 490.958 463.659 491.23C463.659 491.502 463.435 491.63 463.163 491.63H459.499C459.227 491.63 459.003 491.502 459.003 491.23C459.003 490.958 459.227 490.83 459.499 490.83H460.075L457.611 488.078L456.683 489.006V490.83H457.771C458.043 490.83 458.267 490.958 458.267 491.23C458.267 491.502 458.043 491.63 457.771 491.63H454.107C453.835 491.63 453.611 491.502 453.611 491.23C453.611 490.958 453.835 490.83 454.107 490.83H455.051V480.862L453.835 480.718Z" fill="#1D1D1B"/>
<path d="M442.871 489.87C445.113 489.87 446.931 488.052 446.931 485.81C446.931 483.568 445.113 481.75 442.871 481.75C440.628 481.75 438.811 483.568 438.811 485.81C438.811 488.052 440.628 489.87 442.871 489.87Z" fill="#1D1D1B"/>
<path d="M533.34 399.562C533.052 399.322 532.7 399.226 532.22 399.226C530.972 399.226 530.78 400.49 530.78 401.114V402.346H532.588C532.828 402.346 533.02 402.522 533.02 402.746C533.02 402.97 532.828 403.146 532.588 403.146H530.78V409.37H532.588C532.828 409.37 533.02 409.546 533.02 409.77C533.02 409.994 532.828 410.17 532.588 410.17H527.308C527.068 410.17 526.876 409.994 526.876 409.77C526.876 409.546 527.068 409.37 527.308 409.37H529.18L529.164 403.146H527.292C527.052 403.146 526.876 402.97 526.876 402.746C526.876 402.522 527.052 402.346 527.292 402.346H529.164V401.706C529.164 400.362 529.852 398.442 532.22 398.442C534.38 398.442 535.356 399.994 535.068 401.13C534.86 401.93 534.252 402.122 533.676 401.962C533.052 401.786 532.892 401.226 532.972 400.858C533.036 400.57 533.308 399.674 533.34 399.562Z" fill="#1D1D1B"/>
<path d="M515.02 408.42C517.262 408.42 519.08 406.602 519.08 404.36C519.08 402.118 517.262 400.3 515.02 400.3C512.778 400.3 510.96 402.118 510.96 404.36C510.96 406.602 512.778 408.42 515.02 408.42Z" fill="#1D1D1B"/>
<path d="M394.664 462.718C394.376 462.686 394.232 462.574 394.232 462.334C394.232 462.078 394.408 461.95 394.664 461.95H397.016C397.128 461.95 397.512 461.902 397.512 462.446V466.462L398.184 466.11C398.856 465.758 399.544 465.502 400.264 465.502C401.992 465.502 402.712 466.59 402.712 468.222V472.83H403.832C404.072 472.83 404.264 472.99 404.264 473.23C404.264 473.47 404.072 473.63 403.832 473.63H400.008C399.768 473.63 399.576 473.454 399.576 473.23C399.576 473.006 399.768 472.83 400.008 472.83H401.112V467.95C401.112 466.878 400.52 466.43 399.784 466.43C399.24 466.43 398.696 466.718 398.152 467.166L397.48 467.726V472.83H398.584C398.824 472.83 399.016 473.006 399.016 473.23C399.016 473.454 398.824 473.63 398.584 473.63H394.776C394.536 473.63 394.344 473.454 394.344 473.23C394.344 473.006 394.536 472.83 394.776 472.83H395.88V462.862L394.664 462.718Z" fill="#1D1D1B"/>
<path d="M383.41 471.88C385.652 471.88 387.47 470.062 387.47 467.82C387.47 465.577 385.652 463.76 383.41 463.76C381.167 463.76 379.35 465.577 379.35 467.82C379.35 470.062 381.167 471.88 383.41 471.88Z" fill="#1D1D1B"/>
<path d="M66.612 60.1681C66.58 60.4401 66.436 60.6001 66.164 60.6001H59.684C59.284 60.6001 59.028 60.5041 59.028 60.1041C59.028 58.8881 60.324 57.1601 62.18 55.7201C63.876 54.3921 64.788 53.2881 64.82 51.9441C64.836 51.3521 64.596 49.8481 62.9 49.8481C61.476 49.8481 60.708 50.8721 60.084 51.8321C59.876 52.1521 59.572 52.1041 59.428 52.0081C58.932 51.6721 59.652 50.7121 60.292 50.0721C60.724 49.6401 61.764 48.9201 63.204 48.9201C65.668 48.9201 66.58 50.4721 66.58 51.8001C66.58 52.9041 66.372 53.9921 64.5 55.2721C62.564 56.5841 60.532 57.9921 60.532 59.1601H65.892L66.02 58.7601C66.116 58.4721 66.196 58.2961 66.436 58.2961C66.692 58.2961 66.772 58.4881 66.74 58.7601L66.612 60.1681ZM75.8791 60.1681C75.8791 60.4401 75.7031 60.6001 75.4791 60.6001H74.6791C74.4551 60.6001 74.2791 60.4401 74.2791 60.1681V50.8721C73.6551 51.4001 72.0071 52.4881 71.3511 52.8561C71.1751 52.9521 70.9511 53.0161 70.7911 52.8401C70.5511 52.5681 70.7591 52.3121 70.9671 52.1681L72.8391 50.8561C74.8551 49.4321 75.0951 48.9201 75.4631 48.9201C75.7191 48.9201 75.8791 49.0961 75.8791 49.3521V60.1681Z" fill="#1D1D1B"/>
<path d="M47.3803 58.8402C49.6226 58.8402 51.4403 57.0225 51.4403 54.7802C51.4403 52.5379 49.6226 50.7202 47.3803 50.7202C45.138 50.7202 43.3203 52.5379 43.3203 54.7802C43.3203 57.0225 45.138 58.8402 47.3803 58.8402Z" fill="#1D1D1B"/>
<path d="M21.3459 132.938C21.3459 133.21 21.1699 133.37 20.9459 133.37H20.1459C19.9219 133.37 19.7459 133.21 19.7459 132.938V123.642C19.1219 124.17 17.4739 125.258 16.8179 125.626C16.6419 125.722 16.4179 125.786 16.2579 125.61C16.0179 125.338 16.2259 125.082 16.4339 124.938L18.3059 123.626C20.3219 122.202 20.5619 121.69 20.9299 121.69C21.1859 121.69 21.3459 121.866 21.3459 122.122V132.938ZM35.301 127.818C35.301 131.018 33.205 133.37 30.933 133.37C28.661 133.37 26.565 131.018 26.565 127.818V127.242C26.565 124.042 28.661 121.69 30.933 121.69C33.205 121.69 35.285 124.042 35.285 127.242L35.301 127.818ZM28.325 127.514C28.325 130.106 29.397 132.57 30.933 132.57C32.453 132.57 33.541 130.106 33.541 127.514C33.541 124.906 32.453 122.49 30.933 122.49C29.397 122.49 28.325 124.906 28.325 127.514Z" fill="#1D1D1B"/>
<path d="M4.06 131.61C6.30228 131.61 8.12 129.793 8.12 127.55C8.12 125.308 6.30228 123.49 4.06 123.49C1.81772 123.49 0 125.308 0 127.55C0 129.793 1.81772 131.61 4.06 131.61Z" fill="#1D1D1B"/>
<path d="M112.126 124.818C112.126 125.09 111.95 125.25 111.726 125.25H110.926C110.702 125.25 110.526 125.09 110.526 124.818V115.522C109.902 116.05 108.254 117.138 107.598 117.506C107.422 117.602 107.198 117.666 107.038 117.49C106.798 117.218 107.006 116.962 107.214 116.818L109.086 115.506C111.102 114.082 111.342 113.57 111.71 113.57C111.966 113.57 112.126 113.746 112.126 114.002V124.818ZM117.585 117.314C117.585 114.994 119.441 113.57 121.569 113.57C123.793 113.57 126.049 115.186 125.793 118.914C125.537 122.658 122.817 126.066 119.825 126.594C119.553 126.642 119.009 126.706 118.961 126.322C118.913 125.906 119.393 125.906 119.825 125.81C122.401 125.234 123.793 121.97 124.001 119.538C123.025 120.418 122.145 120.834 121.217 120.834C119.313 120.834 117.585 119.522 117.585 117.314ZM119.345 117.106C119.329 118.53 119.985 120.034 121.393 120.034C122.081 120.034 122.961 119.554 124.017 118.29C123.873 115.426 122.769 114.37 121.393 114.37C120.113 114.37 119.361 115.474 119.345 117.106Z" fill="#1D1D1B"/>
<path d="M94.8403 123.49C97.0825 123.49 98.9003 121.672 98.9003 119.43C98.9003 117.188 97.0825 115.37 94.8403 115.37C92.598 115.37 90.7803 117.188 90.7803 119.43C90.7803 121.672 92.598 123.49 94.8403 123.49Z" fill="#1D1D1B"/>
<path d="M74.2743 244.26C74.6103 244.26 74.9943 244.196 75.0263 244.58C75.0423 244.868 74.7863 245.06 74.4503 245.396C73.4583 246.388 70.8183 248.788 70.8183 256.068C70.8183 256.564 70.5463 256.9 69.9863 256.9C69.5863 256.9 69.1223 256.756 69.1223 255.556C69.1223 252.852 70.9943 247.86 73.0423 245.7H67.5223L67.2983 246.948C67.2503 247.236 67.1543 247.38 66.9143 247.38C66.6583 247.38 66.5143 247.204 66.5303 246.948L66.6103 244.756C66.6103 244.644 66.5623 244.26 67.1063 244.26H74.2743Z" fill="#1D1D1B"/>
<path d="M55.5004 253.7C57.7427 253.7 59.5604 251.882 59.5604 249.64C59.5604 247.398 57.7427 245.58 55.5004 245.58C53.2582 245.58 51.4404 247.398 51.4404 249.64C51.4404 251.882 53.2582 253.7 55.5004 253.7Z" fill="#1D1D1B"/>
<path d="M211.956 145.998C211.956 146.27 211.78 146.43 211.556 146.43H210.756C210.532 146.43 210.356 146.27 210.356 145.998V136.702C209.732 137.23 208.084 138.318 207.428 138.686C207.252 138.782 207.028 138.846 206.868 138.67C206.628 138.398 206.836 138.142 207.044 137.998L208.916 136.686C210.932 135.262 211.172 134.75 211.54 134.75C211.796 134.75 211.956 134.926 211.956 135.182V145.998ZM222.727 137.406C222.727 135.614 220.455 134.894 218.855 136.91C218.599 137.23 218.311 137.182 218.183 137.086C217.879 136.862 218.087 136.366 218.583 135.902C219.031 135.486 219.895 134.75 221.431 134.75C222.983 134.75 224.231 135.486 224.391 136.702C224.599 138.254 223.431 139.534 222.615 139.79C222.935 139.71 224.695 139.966 225.143 141.534C226.071 144.734 222.983 148.126 218.663 147.87C218.391 147.854 217.927 147.822 217.911 147.518C217.895 147.102 218.327 147.166 218.871 147.15C221.543 147.07 223.223 145.054 223.527 142.894C223.719 141.582 222.983 140.334 220.983 140.67C220.695 140.718 220.407 140.67 220.359 140.382C220.311 140.094 220.599 139.95 220.823 139.822C221.079 139.678 222.727 138.846 222.727 137.406Z" fill="#1D1D1B"/>
<path d="M194.66 144.67C196.902 144.67 198.72 142.852 198.72 140.61C198.72 138.368 196.902 136.55 194.66 136.55C192.417 136.55 190.6 138.368 190.6 140.61C190.6 142.852 192.417 144.67 194.66 144.67Z" fill="#1D1D1B"/>
<path d="M279.224 173.836C279.16 173.612 279.32 173.324 279.576 172.972L284.792 165.82C285 165.548 285.224 165.356 285.496 165.42C285.88 165.516 285.848 165.868 285.848 166.268V173.324H287.496C287.768 173.324 287.928 173.5 287.928 173.724C287.928 173.948 287.768 174.124 287.496 174.124H285.848V178.108C285.848 178.38 285.672 178.54 285.448 178.54H284.648C284.424 178.54 284.248 178.38 284.248 178.108V174.124L279.736 174.108C279.368 174.108 279.256 173.964 279.224 173.836ZM280.504 173.324H284.248V168.044L280.504 173.324Z" fill="#1D1D1B"/>
<path d="M268.04 175.34C270.283 175.34 272.1 173.522 272.1 171.28C272.1 169.038 270.283 167.22 268.04 167.22C265.798 167.22 263.98 169.038 263.98 171.28C263.98 173.522 265.798 175.34 268.04 175.34Z" fill="#1D1D1B"/>
<path d="M131.41 296.846C131.666 293.102 134.386 290.174 137.378 289.646C137.65 289.598 138.194 289.534 138.242 289.918C138.29 290.334 137.81 290.334 137.378 290.43C134.802 291.006 133.41 293.79 133.202 296.222C134.178 295.342 135.058 294.926 135.986 294.926C137.89 294.926 139.618 296.238 139.618 298.446C139.618 300.766 137.762 302.19 135.634 302.19C133.41 302.19 131.154 300.574 131.41 296.846ZM133.186 297.502C133.33 300.334 134.434 301.39 135.81 301.39C137.09 301.39 137.842 300.286 137.858 298.654C137.874 297.23 137.218 295.726 135.81 295.726C135.106 295.726 134.274 296.254 133.186 297.502Z" fill="#1D1D1B"/>
<path d="M119.82 301.63C122.062 301.63 123.88 299.812 123.88 297.57C123.88 295.327 122.062 293.51 119.82 293.51C117.577 293.51 115.76 295.327 115.76 297.57C115.76 299.812 117.577 301.63 119.82 301.63Z" fill="#1D1D1B"/>
<path d="M138.156 16.3478C138.156 16.6198 137.98 16.7798 137.756 16.7798H136.956C136.732 16.7798 136.556 16.6198 136.556 16.3478V7.05178C135.932 7.57978 134.284 8.66778 133.628 9.03578C133.452 9.13178 133.228 9.19578 133.068 9.01978C132.828 8.74778 133.036 8.49179 133.244 8.34778L135.116 7.03578C137.132 5.61178 137.372 5.09978 137.74 5.09978C137.996 5.09978 138.156 5.27578 138.156 5.53179V16.3478ZM143.664 10.2358C143.92 6.49179 146.64 3.56378 149.632 3.03578C149.904 2.98778 150.448 2.92378 150.496 3.30778C150.544 3.72378 150.064 3.72378 149.632 3.81978C147.056 4.39578 145.664 7.17978 145.456 9.61178C146.432 8.73178 147.312 8.31578 148.24 8.31578C150.144 8.31578 151.872 9.62778 151.872 11.8358C151.872 14.1558 150.016 15.5798 147.888 15.5798C145.664 15.5798 143.408 13.9638 143.664 10.2358ZM145.44 10.8918C145.584 13.7238 146.688 14.7798 148.064 14.7798C149.344 14.7798 150.096 13.6758 150.112 12.0438C150.128 10.6198 149.472 9.11578 148.064 9.11578C147.36 9.11578 146.528 9.64378 145.44 10.8918Z" fill="#1D1D1B"/>
<path d="M120.87 15.0199C123.112 15.0199 124.93 13.2022 124.93 10.9599C124.93 8.71763 123.112 6.8999 120.87 6.8999C118.627 6.8999 116.81 8.71763 116.81 10.9599C116.81 13.2022 118.627 15.0199 120.87 15.0199Z" fill="#1D1D1B"/>
<path d="M148.382 146.614C148.382 144.294 150.238 142.87 152.366 142.87C154.59 142.87 156.846 144.486 156.59 148.214C156.334 151.958 153.614 155.366 150.622 155.894C150.35 155.942 149.806 156.006 149.758 155.622C149.71 155.206 150.19 155.206 150.622 155.11C153.198 154.534 154.59 151.27 154.798 148.838C153.822 149.718 152.942 150.134 152.014 150.134C150.11 150.134 148.382 148.822 148.382 146.614ZM150.142 146.406C150.126 147.83 150.782 149.334 152.19 149.334C152.878 149.334 153.758 148.854 154.814 147.59C154.67 144.726 153.566 143.67 152.19 143.67C150.91 143.67 150.158 144.774 150.142 146.406Z" fill="#1D1D1B"/>
<path d="M136.83 152.79C139.072 152.79 140.89 150.972 140.89 148.73C140.89 146.488 139.072 144.67 136.83 144.67C134.587 144.67 132.77 146.488 132.77 148.73C132.77 150.972 134.587 152.79 136.83 152.79Z" fill="#1D1D1B"/>
<path d="M303.636 127.998C303.636 128.27 303.46 128.43 303.236 128.43H302.436C302.212 128.43 302.036 128.27 302.036 127.998V118.702C301.412 119.23 299.764 120.318 299.108 120.686C298.932 120.782 298.708 120.846 298.548 120.67C298.308 120.398 298.516 120.142 298.724 119.998L300.596 118.686C302.612 117.262 302.852 116.75 303.22 116.75C303.476 116.75 303.636 116.926 303.636 117.182V127.998ZM316.775 127.998C316.743 128.27 316.599 128.43 316.327 128.43H309.847C309.447 128.43 309.191 128.334 309.191 127.934C309.191 126.718 310.487 124.99 312.343 123.55C314.039 122.222 314.951 121.118 314.983 119.774C314.999 119.182 314.759 117.678 313.063 117.678C311.639 117.678 310.871 118.702 310.247 119.662C310.039 119.982 309.735 119.934 309.591 119.838C309.095 119.502 309.815 118.542 310.455 117.902C310.887 117.47 311.927 116.75 313.367 116.75C315.831 116.75 316.743 118.302 316.743 119.63C316.743 120.734 316.535 121.822 314.663 123.102C312.727 124.414 310.695 125.822 310.695 126.99H316.055L316.183 126.59C316.279 126.302 316.359 126.126 316.599 126.126C316.855 126.126 316.935 126.318 316.903 126.59L316.775 127.998Z" fill="#1D1D1B"/>
<path d="M286.35 126.67C288.592 126.67 290.41 124.852 290.41 122.61C290.41 120.368 288.592 118.55 286.35 118.55C284.108 118.55 282.29 120.368 282.29 122.61C282.29 124.852 284.108 126.67 286.35 126.67Z" fill="#1D1D1B"/>
<path d="M263.836 104.178C263.836 104.45 263.66 104.61 263.436 104.61H262.636C262.412 104.61 262.236 104.45 262.236 104.178V94.8819C261.612 95.4099 259.964 96.4979 259.308 96.8659C259.132 96.9619 258.908 97.0259 258.748 96.8499C258.508 96.5779 258.716 96.3219 258.924 96.1779L260.796 94.8659C262.812 93.4419 263.052 92.9299 263.42 92.9299C263.676 92.9299 263.836 93.1059 263.836 93.3619V104.178ZM276.335 93.4099C276.495 93.4099 276.767 93.4899 276.735 93.8419L276.671 94.4179C276.639 94.7699 276.335 94.8499 276.175 94.8499H271.295L271.119 97.8099C274.031 96.3059 276.943 97.1699 276.943 100.226C276.943 102.578 274.943 104.994 272.783 105.682C272.079 105.906 270.271 106.402 270.303 105.698C270.319 105.346 270.735 105.346 271.119 105.298C276.303 104.658 276.415 96.6099 272.079 98.1779C271.279 98.4659 270.911 98.9299 270.543 98.7859C270.223 98.6579 270.287 98.3539 270.303 97.9539L270.575 93.8739C270.607 93.6659 270.655 93.4099 271.055 93.4099H276.335Z" fill="#1D1D1B"/>
<path d="M246.55 102.86C248.793 102.86 250.61 101.043 250.61 98.8002C250.61 96.558 248.793 94.7402 246.55 94.7402C244.308 94.7402 242.49 96.558 242.49 98.8002C242.49 101.043 244.308 102.86 246.55 102.86Z" fill="#1D1D1B"/>
<path d="M288.954 262.136C288.954 260.344 286.682 259.624 285.082 261.64C284.826 261.96 284.538 261.912 284.41 261.816C284.106 261.592 284.314 261.096 284.81 260.632C285.258 260.216 286.122 259.48 287.658 259.48C289.21 259.48 290.458 260.216 290.618 261.432C290.826 262.984 289.658 264.264 288.842 264.52C289.162 264.44 290.922 264.696 291.37 266.264C292.298 269.464 289.21 272.856 284.89 272.6C284.618 272.584 284.154 272.552 284.138 272.248C284.122 271.832 284.554 271.896 285.098 271.88C287.77 271.8 289.45 269.784 289.754 267.624C289.946 266.312 289.21 265.064 287.21 265.4C286.922 265.448 286.634 265.4 286.586 265.112C286.538 264.824 286.826 264.68 287.05 264.552C287.306 264.408 288.954 263.576 288.954 262.136Z" fill="#1D1D1B"/>
<path d="M272.1 269.4C274.342 269.4 276.16 267.583 276.16 265.34C276.16 263.098 274.342 261.28 272.1 261.28C269.858 261.28 268.04 263.098 268.04 265.34C268.04 267.583 269.858 269.4 272.1 269.4Z" fill="#1D1D1B"/>
<path d="M134.096 237.128C134.096 237.4 133.92 237.56 133.696 237.56H132.896C132.672 237.56 132.496 237.4 132.496 237.128V227.832C131.872 228.36 130.224 229.448 129.568 229.816C129.392 229.912 129.168 229.976 129.008 229.8C128.768 229.528 128.976 229.272 129.184 229.128L131.056 227.816C133.072 226.392 133.312 225.88 133.68 225.88C133.936 225.88 134.096 226.056 134.096 226.312V237.128ZM142.403 229.752C141.155 229.112 140.339 227.928 140.307 226.952C140.243 225.08 141.603 223.64 143.763 223.64C145.859 223.64 147.059 225.096 147.059 226.664C147.059 227.736 145.971 229.128 144.771 229.512C146.483 230.296 147.683 231.544 147.683 233C147.683 235.112 146.163 236.36 143.587 236.36C141.395 236.36 139.683 235.144 139.683 233.224C139.683 231.72 140.547 230.408 142.403 229.752ZM141.283 233.256C141.283 234.648 142.451 235.64 143.843 235.624C145.171 235.608 146.083 234.776 146.083 233.432C146.083 232.456 145.507 231.4 143.187 230.312C141.923 230.792 141.283 231.832 141.283 233.256ZM141.747 226.44C141.747 227.432 142.179 228.008 143.795 229C144.803 228.632 145.603 227.576 145.603 226.552C145.603 225.64 145.123 224.376 143.699 224.376C142.307 224.376 141.747 225.608 141.747 226.44Z" fill="#1D1D1B"/>
<path d="M116.81 235.8C119.052 235.8 120.87 233.982 120.87 231.74C120.87 229.498 119.052 227.68 116.81 227.68C114.568 227.68 112.75 229.498 112.75 231.74C112.75 233.982 114.568 235.8 116.81 235.8Z" fill="#1D1D1B"/>
<path d="M249.706 24.9181C249.706 25.1901 249.53 25.3501 249.306 25.3501H248.506C248.282 25.3501 248.106 25.1901 248.106 24.9181V15.6221C247.482 16.1501 245.834 17.2381 245.178 17.6061C245.002 17.7021 244.778 17.7661 244.618 17.5901C244.378 17.3181 244.586 17.0621 244.794 16.9181L246.666 15.6061C248.682 14.1821 248.922 13.6701 249.29 13.6701C249.546 13.6701 249.706 13.8461 249.706 14.1021V24.9181ZM254.797 22.0861C254.733 21.8621 254.893 21.5741 255.149 21.2221L260.365 14.0701C260.573 13.7981 260.797 13.6061 261.069 13.6701C261.453 13.7661 261.421 14.1181 261.421 14.5181V21.5741H263.069C263.341 21.5741 263.501 21.7501 263.501 21.9741C263.501 22.1981 263.341 22.3741 263.069 22.3741H261.421V26.3581C261.421 26.6301 261.245 26.7901 261.021 26.7901H260.221C259.997 26.7901 259.821 26.6301 259.821 26.3581V22.3741L255.309 22.3581C254.941 22.3581 254.829 22.2141 254.797 22.0861ZM256.077 21.5741H259.821V16.2941L256.077 21.5741Z" fill="#1D1D1B"/>
<path d="M232.41 23.6C234.652 23.6 236.47 21.7823 236.47 19.54C236.47 17.2977 234.652 15.48 232.41 15.48C230.167 15.48 228.35 17.2977 228.35 19.54C228.35 21.7823 230.167 23.6 232.41 23.6Z" fill="#1D1D1B"/>
<path d="M252.052 231.3C252.212 231.3 252.484 231.38 252.452 231.732L252.388 232.308C252.356 232.66 252.052 232.74 251.892 232.74H247.012L246.836 235.7C249.748 234.196 252.66 235.06 252.66 238.116C252.66 240.468 250.66 242.884 248.5 243.572C247.796 243.796 245.988 244.292 246.02 243.588C246.036 243.236 246.452 243.236 246.836 243.188C252.02 242.548 252.132 234.5 247.796 236.068C246.996 236.356 246.628 236.82 246.26 236.676C245.94 236.548 246.004 236.244 246.02 235.844L246.292 231.764C246.324 231.556 246.372 231.3 246.772 231.3H252.052Z" fill="#1D1D1B"/>
<path d="M233.47 240.74C235.712 240.74 237.53 238.922 237.53 236.68C237.53 234.438 235.712 232.62 233.47 232.62C231.228 232.62 229.41 234.438 229.41 236.68C229.41 238.922 231.228 240.74 233.47 240.74Z" fill="#1D1D1B"/>
<path d="M166.132 260.848C166.1 261.12 165.956 261.28 165.684 261.28H159.204C158.804 261.28 158.548 261.184 158.548 260.784C158.548 259.568 159.844 257.84 161.7 256.4C163.396 255.072 164.308 253.968 164.34 252.624C164.356 252.032 164.116 250.528 162.42 250.528C160.996 250.528 160.228 251.552 159.604 252.512C159.396 252.832 159.092 252.784 158.948 252.688C158.452 252.352 159.172 251.392 159.812 250.752C160.244 250.32 161.284 249.6 162.724 249.6C165.188 249.6 166.1 251.152 166.1 252.48C166.1 253.584 165.892 254.672 164.02 255.952C162.084 257.264 160.052 258.672 160.052 259.84H165.412L165.54 259.44C165.636 259.152 165.716 258.976 165.956 258.976C166.212 258.976 166.292 259.168 166.26 259.44L166.132 260.848Z" fill="#1D1D1B"/>
<path d="M146.9 259.52C149.142 259.52 150.96 257.702 150.96 255.46C150.96 253.218 149.142 251.4 146.9 251.4C144.658 251.4 142.84 253.218 142.84 255.46C142.84 257.702 144.658 259.52 146.9 259.52Z" fill="#1D1D1B"/>
<path d="M181.386 125.698C181.386 125.97 181.21 126.13 180.986 126.13H180.186C179.962 126.13 179.786 125.97 179.786 125.698V116.402C179.162 116.93 177.514 118.018 176.858 118.386C176.682 118.482 176.458 118.546 176.298 118.37C176.058 118.098 176.266 117.842 176.474 117.698L178.346 116.386C180.362 114.962 180.602 114.45 180.97 114.45C181.226 114.45 181.386 114.626 181.386 114.882V125.698Z" fill="#1D1D1B"/>
<path d="M164.09 124.37C166.333 124.37 168.15 122.552 168.15 120.31C168.15 118.068 166.333 116.25 164.09 116.25C161.848 116.25 160.03 118.068 160.03 120.31C160.03 122.552 161.848 124.37 164.09 124.37Z" fill="#1D1D1B"/>
<path d="M219.016 203.888C219.016 204.16 218.84 204.32 218.616 204.32H217.816C217.592 204.32 217.416 204.16 217.416 203.888V194.592C216.792 195.12 215.144 196.208 214.488 196.576C214.312 196.672 214.088 196.736 213.928 196.56C213.688 196.288 213.896 196.032 214.104 195.888L215.976 194.576C217.992 193.152 218.232 192.64 218.6 192.64C218.856 192.64 219.016 192.816 219.016 193.072V203.888ZM230.219 203.888C230.219 204.16 230.043 204.32 229.819 204.32H229.019C228.795 204.32 228.619 204.16 228.619 203.888V194.592C227.995 195.12 226.347 196.208 225.691 196.576C225.515 196.672 225.291 196.736 225.131 196.56C224.891 196.288 225.099 196.032 225.307 195.888L227.179 194.576C229.195 193.152 229.435 192.64 229.803 192.64C230.059 192.64 230.219 192.816 230.219 193.072V203.888Z" fill="#1D1D1B"/>
<path d="M201.73 202.56C203.972 202.56 205.79 200.742 205.79 198.5C205.79 196.258 203.972 194.44 201.73 194.44C199.488 194.44 197.67 196.258 197.67 198.5C197.67 200.742 199.488 202.56 201.73 202.56Z" fill="#1D1D1B"/>
<path d="M92.0895 191.572C90.8415 190.932 90.0255 189.748 89.9935 188.772C89.9295 186.9 91.2895 185.46 93.4495 185.46C95.5455 185.46 96.7455 186.916 96.7455 188.484C96.7455 189.556 95.6575 190.948 94.4575 191.332C96.1695 192.116 97.3695 193.364 97.3695 194.82C97.3695 196.932 95.8495 198.18 93.2735 198.18C91.0815 198.18 89.3695 196.964 89.3695 195.044C89.3695 193.54 90.2335 192.228 92.0895 191.572ZM90.9695 195.076C90.9695 196.468 92.1375 197.46 93.5295 197.444C94.8575 197.428 95.7695 196.596 95.7695 195.252C95.7695 194.276 95.1935 193.22 92.8735 192.132C91.6095 192.612 90.9695 193.652 90.9695 195.076ZM91.4335 188.26C91.4335 189.252 91.8655 189.828 93.4815 190.82C94.4895 190.452 95.2895 189.396 95.2895 188.372C95.2895 187.46 94.8095 186.196 93.3855 186.196C91.9935 186.196 91.4335 187.428 91.4335 188.26Z" fill="#1D1D1B"/>
<path d="M77.6996 197.62C79.9419 197.62 81.7597 195.802 81.7597 193.56C81.7597 191.318 79.9419 189.5 77.6996 189.5C75.4574 189.5 73.6396 191.318 73.6396 193.56C73.6396 195.802 75.4574 197.62 77.6996 197.62Z" fill="#1D1D1B"/>
<path d="M176.252 90.7179C176.22 90.9899 176.076 91.1499 175.804 91.1499H169.324C168.924 91.1499 168.668 91.0539 168.668 90.6539C168.668 89.4379 169.964 87.7099 171.82 86.2699C173.516 84.9419 174.428 83.8379 174.46 82.4939C174.476 81.9019 174.236 80.3979 172.54 80.3979C171.116 80.3979 170.348 81.4219 169.724 82.3819C169.516 82.7019 169.212 82.6539 169.068 82.5579C168.572 82.2219 169.292 81.2619 169.932 80.6219C170.364 80.1899 171.404 79.4699 172.844 79.4699C175.308 79.4699 176.22 81.0219 176.22 82.3499C176.22 83.4539 176.012 84.5419 174.14 85.8219C172.204 87.1339 170.172 88.5419 170.172 89.7099H175.532L175.66 89.3099C175.756 89.0219 175.836 88.8459 176.076 88.8459C176.332 88.8459 176.412 89.0379 176.38 89.3099L176.252 90.7179ZM188.271 85.5979C188.271 88.7979 186.175 91.1499 183.903 91.1499C181.631 91.1499 179.535 88.7979 179.535 85.5979V85.0219C179.535 81.8219 181.631 79.4699 183.903 79.4699C186.175 79.4699 188.255 81.8219 188.255 85.0219L188.271 85.5979ZM181.295 85.2939C181.295 87.8859 182.367 90.3499 183.903 90.3499C185.423 90.3499 186.511 87.8859 186.511 85.2939C186.511 82.6859 185.423 80.2699 183.903 80.2699C182.367 80.2699 181.295 82.6859 181.295 85.2939Z" fill="#1D1D1B"/>
<path d="M157.03 89.39C159.272 89.39 161.09 87.5723 161.09 85.33C161.09 83.0877 159.272 81.27 157.03 81.27C154.787 81.27 152.97 83.0877 152.97 85.33C152.97 87.5723 154.787 89.39 157.03 89.39Z" fill="#1D1D1B"/>
<path d="M28.4162 216.948C28.4162 217.22 28.2402 217.38 28.0162 217.38H27.2162C26.9922 217.38 26.8162 217.22 26.8162 216.948V207.652C26.1922 208.18 24.5442 209.268 23.8882 209.636C23.7122 209.732 23.4882 209.796 23.3282 209.62C23.0882 209.348 23.2962 209.092 23.5042 208.948L25.3762 207.636C27.3922 206.212 27.6322 205.7 28.0002 205.7C28.2562 205.7 28.4162 205.876 28.4162 206.132V216.948ZM41.1073 206.18C41.4433 206.18 41.8273 206.116 41.8593 206.5C41.8753 206.788 41.6193 206.98 41.2833 207.316C40.2913 208.308 37.6513 210.708 37.6513 217.988C37.6513 218.484 37.3793 218.82 36.8193 218.82C36.4193 218.82 35.9553 218.676 35.9553 217.476C35.9553 214.772 37.8273 209.78 39.8753 207.62H34.3553L34.1313 208.868C34.0833 209.156 33.9873 209.3 33.7473 209.3C33.4913 209.3 33.3473 209.124 33.3633 208.868L33.4433 206.676C33.4433 206.564 33.3953 206.18 33.9393 206.18H41.1073Z" fill="#1D1D1B"/>
<path d="M11.1303 215.62C13.3726 215.62 15.1903 213.802 15.1903 211.56C15.1903 209.318 13.3726 207.5 11.1303 207.5C8.88804 207.5 7.07031 209.318 7.07031 211.56C7.07031 213.802 8.88804 215.62 11.1303 215.62Z" fill="#1D1D1B"/>
</svg>
