<svg width="487" height="379" viewBox="0 0 487 379" fill="none" xmlns="http://www.w3.org/2000/svg">
<path d="M4.06 241.17C6.30228 241.17 8.12 239.375 8.12 237.16C8.12 234.946 6.30228 233.15 4.06 233.15C1.81772 233.15 0 234.946 0 237.16C0 239.375 1.81772 241.17 4.06 241.17Z" fill="#1E1E1C"/>
<path d="M20.044 234.375C21.5525 234.375 21.8066 235.74 21.8066 236.264C21.8066 236.963 21.2984 237.281 20.8697 237.281C20.0758 237.281 19.8852 236.741 19.8852 236.344V235.089C19.2024 235.042 18.6149 237.027 18.1862 238.281L18.0592 238.63L18.8372 239.996C19.1865 240.615 19.52 241.346 19.9646 241.346C20.5362 241.346 20.7903 240.536 21.0444 239.805C21.1555 239.472 21.3778 239.361 21.5842 239.456C21.8859 239.599 21.8383 239.948 21.5207 240.726C21.2032 241.504 20.695 242.33 19.6312 242.33C19.1707 242.33 18.3291 242.33 17.551 240.949L17.2335 240.393C16.5824 241.441 15.6456 242.33 14.3276 242.33C12.6921 242.33 11.66 241.33 11.66 239.551C11.66 237.868 13.0891 236.614 14.5976 235.756C13.9148 234.581 13.6925 233.914 13.6925 233.073C13.6925 231.739 14.8358 230.739 16.2172 230.739C17.8369 230.739 18.3609 231.771 18.3609 232.708C18.3609 233.898 17.6781 234.74 16.376 235.677L17.5669 237.773L17.6622 237.519C18.2973 235.709 18.6943 234.375 20.044 234.375ZM13.2479 239.218C13.1685 240.234 13.5178 241.409 14.677 241.377C15.6297 241.346 16.3125 240.552 16.8047 239.631L14.9628 236.423C13.9624 237.122 13.3273 238.249 13.2479 239.218ZM15.2804 233.089C15.2804 233.803 15.7091 234.502 15.9949 235.01C17.027 234.295 17.551 233.517 17.551 232.692C17.551 231.532 16.7253 231.469 16.5189 231.469C15.5979 231.469 15.2804 232.358 15.2804 233.089Z" fill="#1E1E1C"/>
<path d="M150.61 70.4399C152.852 70.4399 154.67 68.6446 154.67 66.4299C154.67 64.2153 152.852 62.4199 150.61 62.4199C148.368 62.4199 146.55 64.2153 146.55 66.4299C146.55 68.6446 148.368 70.4399 150.61 70.4399Z" fill="#1E1E1C"/>
<path d="M159.131 63.7247C159.131 61.4223 160.973 60.0091 163.085 60.0091C165.292 60.0091 167.531 61.6128 167.277 65.3126C167.023 69.0282 164.323 72.4104 161.354 72.9344C161.084 72.982 160.544 73.0456 160.496 72.6645C160.449 72.2516 160.925 72.2516 161.354 72.1563C163.91 71.5847 165.292 68.3454 165.498 65.9319C164.53 66.8052 163.656 67.218 162.735 67.218C160.846 67.218 159.131 65.916 159.131 63.7247ZM160.877 63.5183C160.862 64.9315 161.513 66.4241 162.91 66.4241C163.593 66.4241 164.466 65.9477 165.514 64.6933C165.371 61.851 164.276 60.803 162.91 60.803C161.64 60.803 160.893 61.8986 160.877 63.5183ZM170.249 63.7247C170.249 61.4223 172.091 60.0091 174.203 60.0091C176.41 60.0091 178.649 61.6128 178.395 65.3126C178.141 69.0282 175.441 72.4104 172.472 72.9344C172.202 72.982 171.662 73.0456 171.615 72.6645C171.567 72.2516 172.043 72.2516 172.472 72.1563C175.029 71.5847 176.41 68.3454 176.616 65.9319C175.648 66.8052 174.774 67.218 173.854 67.218C171.964 67.218 170.249 65.916 170.249 63.7247ZM171.996 63.5183C171.98 64.9315 172.631 66.4241 174.028 66.4241C174.711 66.4241 175.584 65.9477 176.632 64.6933C176.489 61.851 175.394 60.803 174.028 60.803C172.758 60.803 172.012 61.8986 171.996 63.5183ZM181.367 63.7247C181.367 61.4223 183.209 60.0091 185.321 60.0091C187.528 60.0091 189.767 61.6128 189.513 65.3126C189.259 69.0282 186.56 72.4104 183.59 72.9344C183.32 72.982 182.781 73.0456 182.733 72.6645C182.685 72.2516 183.162 72.2516 183.59 72.1563C186.147 71.5847 187.528 68.3454 187.735 65.9319C186.766 66.8052 185.893 67.218 184.972 67.218C183.082 67.218 181.367 65.916 181.367 63.7247ZM183.114 63.5183C183.098 64.9315 183.749 66.4241 185.146 66.4241C185.829 66.4241 186.703 65.9477 187.751 64.6933C187.608 61.851 186.512 60.803 185.146 60.803C183.876 60.803 183.13 61.8986 183.114 63.5183Z" fill="#1E1E1C"/>
<path d="M365.01 82.5298C367.252 82.5298 369.07 80.7344 369.07 78.5198C369.07 76.3051 367.252 74.5098 365.01 74.5098C362.768 74.5098 360.95 76.3051 360.95 78.5198C360.95 80.7344 362.768 82.5298 365.01 82.5298Z" fill="#1E1E1C"/>
<path d="M377.643 72.1087C378.024 72.1087 378.199 72.2833 378.294 72.6009L381.565 82.9063H382.359C382.645 82.9063 382.82 83.065 382.82 83.3032C382.82 83.5414 382.645 83.7002 382.359 83.7002H378.802C378.517 83.7002 378.342 83.5414 378.342 83.3032C378.342 83.065 378.517 82.9063 378.802 82.9063H379.866L379.152 80.445H375.579L374.896 82.9063H375.801C376.087 82.9063 376.262 83.065 376.262 83.3032C376.262 83.5414 376.087 83.7002 375.801 83.7002H372.896C372.61 83.7002 372.435 83.5414 372.435 83.3032C372.435 83.065 372.61 82.9063 372.896 82.9063H373.848L376.992 72.6009C377.088 72.2992 377.278 72.1087 377.643 72.1087ZM375.817 79.6511H378.914L377.389 74.5064L375.817 79.6511Z" fill="#1E1E1C"/>
<path d="M153.17 184C155.412 184 157.23 182.205 157.23 179.99C157.23 177.776 155.412 175.98 153.17 175.98C150.928 175.98 149.11 177.776 149.11 179.99C149.11 182.205 150.928 184 153.17 184Z" fill="#1E1E1C"/>
<path d="M168.678 174.045C168.836 174.045 169.106 174.124 169.074 174.474L169.011 175.045C168.979 175.395 168.678 175.474 168.519 175.474H163.676L163.501 178.412C166.391 176.919 169.281 177.777 169.281 180.809C169.281 183.144 167.296 185.541 165.152 186.224C164.454 186.446 162.659 186.939 162.691 186.24C162.707 185.891 163.12 185.891 163.501 185.843C168.646 185.208 168.757 177.221 164.454 178.777C163.66 179.063 163.295 179.523 162.929 179.38C162.612 179.253 162.675 178.952 162.691 178.555L162.961 174.505C162.993 174.299 163.041 174.045 163.437 174.045H168.678Z" fill="#1E1E1C"/>
<path d="M467.79 183.51C470.032 183.51 471.85 181.715 471.85 179.5C471.85 177.286 470.032 175.49 467.79 175.49C465.548 175.49 463.73 177.286 463.73 179.5C463.73 181.715 465.548 183.51 467.79 183.51Z" fill="#1E1E1C"/>
<path d="M480.154 182.885C479.645 182.885 479.217 183.266 479.217 183.775C479.217 184.299 479.645 184.68 480.154 184.68C480.678 184.68 481.106 184.299 481.106 183.775C481.106 183.266 480.678 182.885 480.154 182.885ZM476.724 175.915C476.438 174.787 477.74 173.088 480.201 173.088C481.837 173.088 483.361 173.93 483.361 175.486C483.361 177.121 482.281 177.534 481.17 178.566C480.598 179.09 480.566 179.503 480.566 180.789V181.091C480.566 181.377 480.392 181.536 480.169 181.536C479.947 181.536 479.773 181.377 479.773 181.107V179.837C479.773 178.979 480.106 178.662 480.773 177.947C481.599 177.058 481.773 176.423 481.773 175.486C481.773 174.485 481.138 173.882 480.042 173.882C478.883 173.882 478.486 174.47 478.47 174.485C478.502 174.581 478.709 175.327 478.772 175.581C478.852 175.93 478.725 176.597 478.105 176.74C477.534 176.867 476.93 176.709 476.724 175.915ZM478.47 174.485C478.47 174.47 478.47 174.47 478.47 174.485V174.485Z" fill="#1E1E1C"/>
<path d="M444.98 374.71C447.222 374.71 449.04 372.915 449.04 370.7C449.04 368.486 447.222 366.69 444.98 366.69C442.738 366.69 440.92 368.486 440.92 370.7C440.92 372.915 442.738 374.71 444.98 374.71Z" fill="#1E1E1C"/>
<path d="M453.501 367.994C453.501 365.692 455.343 364.279 457.455 364.279C459.662 364.279 461.901 365.882 461.647 369.582C461.393 373.298 458.693 376.68 455.724 377.204C455.454 377.252 454.914 377.315 454.866 376.934C454.819 376.521 455.295 376.521 455.724 376.426C458.28 375.854 459.662 372.615 459.868 370.201C458.9 371.075 458.026 371.488 457.105 371.488C455.216 371.488 453.501 370.186 453.501 367.994ZM455.248 367.788C455.232 369.201 455.883 370.694 457.28 370.694C457.963 370.694 458.836 370.217 459.884 368.963C459.741 366.121 458.646 365.073 457.28 365.073C456.01 365.073 455.263 366.168 455.248 367.788Z" fill="#1E1E1C"/>
<path d="M158.73 309.34C160.972 309.34 162.79 307.545 162.79 305.33C162.79 303.116 160.972 301.32 158.73 301.32C156.488 301.32 154.67 303.116 154.67 305.33C154.67 307.545 156.488 309.34 158.73 309.34Z" fill="#1E1E1C"/>
<path d="M171.918 306.988L174.126 299.42H173.022C172.75 299.42 172.574 299.276 172.574 299.02C172.574 298.78 172.75 298.62 173.022 298.62H176.078C176.318 298.62 176.478 298.796 176.478 299.02C176.478 299.244 176.318 299.42 176.078 299.42H174.974L171.822 310.06C171.774 310.22 171.646 310.3 171.518 310.3C171.39 310.3 171.278 310.22 171.23 310.06L167.854 299.42H166.75C166.462 299.42 166.302 299.244 166.302 299.02C166.302 298.796 166.462 298.62 166.75 298.62H170.974C171.246 298.62 171.422 298.78 171.422 299.02C171.422 299.276 171.246 299.42 170.974 299.42H169.534L171.918 306.988ZM185.649 309.5C185.953 309.5 186.129 309.66 186.129 309.9C186.129 310.14 185.953 310.3 185.649 310.3H179.569C179.265 310.3 179.089 310.14 179.089 309.9C179.089 309.66 179.265 309.5 179.569 309.5H181.825V299.42H179.553C179.265 299.42 179.089 299.26 179.089 299.02C179.089 298.78 179.265 298.62 179.553 298.62H185.633C185.921 298.62 186.097 298.78 186.097 299.02C186.097 299.26 185.921 299.42 185.633 299.42H183.425V309.5H185.649Z" fill="#1E1E1C"/>
<path d="M302.6 244.69C304.842 244.69 306.66 242.895 306.66 240.68C306.66 238.465 304.842 236.67 302.6 236.67C300.358 236.67 298.54 238.465 298.54 240.68C298.54 242.895 300.358 244.69 302.6 244.69Z" fill="#1E1E1C"/>
<path d="M313.947 238.111C312.709 237.476 311.899 236.301 311.867 235.333C311.804 233.475 313.153 232.046 315.297 232.046C317.377 232.046 318.568 233.491 318.568 235.047C318.568 236.111 317.488 237.492 316.297 237.873C317.997 238.651 319.187 239.89 319.187 241.335C319.187 243.431 317.679 244.669 315.122 244.669C312.947 244.669 311.248 243.463 311.248 241.557C311.248 240.065 312.105 238.763 313.947 238.111ZM312.836 241.589C312.836 242.97 313.995 243.955 315.377 243.939C316.694 243.923 317.6 243.097 317.6 241.764C317.6 240.795 317.028 239.747 314.725 238.667C313.471 239.144 312.836 240.176 312.836 241.589ZM313.296 234.825C313.296 235.809 313.725 236.381 315.329 237.365C316.329 237 317.123 235.952 317.123 234.936C317.123 234.031 316.647 232.776 315.234 232.776C313.852 232.776 313.296 233.999 313.296 234.825ZM322.239 237.984C322.239 235.682 324.081 234.269 326.193 234.269C328.4 234.269 330.639 235.873 330.385 239.572C330.131 243.288 327.432 246.67 324.462 247.194C324.192 247.242 323.652 247.305 323.605 246.924C323.557 246.511 324.034 246.511 324.462 246.416C327.019 245.844 328.4 242.605 328.607 240.192C327.638 241.065 326.765 241.478 325.844 241.478C323.954 241.478 322.239 240.176 322.239 237.984ZM323.986 237.778C323.97 239.191 324.621 240.684 326.018 240.684C326.701 240.684 327.575 240.207 328.623 238.953C328.48 236.111 327.384 235.063 326.018 235.063C324.748 235.063 324.002 236.158 323.986 237.778ZM340.535 234.745C340.868 234.745 341.249 234.682 341.281 235.063C341.297 235.349 341.043 235.539 340.709 235.873C339.725 236.857 337.105 239.239 337.105 246.464C337.105 246.956 336.835 247.289 336.279 247.289C335.882 247.289 335.422 247.147 335.422 245.956C335.422 243.272 337.28 238.318 339.312 236.174H333.834L333.612 237.413C333.564 237.699 333.469 237.842 333.231 237.842C332.976 237.842 332.834 237.667 332.849 237.413L332.929 235.237C332.929 235.126 332.881 234.745 333.421 234.745H340.535ZM344.111 242.621C344.047 242.399 344.206 242.113 344.46 241.764L349.636 234.666C349.843 234.396 350.065 234.205 350.335 234.269C350.716 234.364 350.684 234.713 350.684 235.11V242.113H352.32C352.59 242.113 352.749 242.288 352.749 242.51C352.749 242.732 352.59 242.907 352.32 242.907H350.684V246.861C350.684 247.131 350.51 247.289 350.287 247.289H349.494C349.271 247.289 349.097 247.131 349.097 246.861V242.907L344.619 242.891C344.253 242.891 344.142 242.748 344.111 242.621ZM345.381 242.113H349.097V236.873L345.381 242.113Z" fill="#1E1E1C"/>
<path d="M112.39 359.64C114.632 359.64 116.45 357.845 116.45 355.63C116.45 353.415 114.632 351.62 112.39 351.62C110.148 351.62 108.33 353.415 108.33 355.63C108.33 357.845 110.148 359.64 112.39 359.64Z" fill="#1E1E1C"/>
<path d="M122.801 355.465V360.006H123.88C124.166 360.006 124.325 360.181 124.325 360.403C124.325 360.625 124.166 360.8 123.88 360.8H120.133C119.847 360.8 119.688 360.625 119.688 360.403C119.688 360.181 119.847 360.006 120.133 360.006H121.213V350.145L120.117 350.002C119.879 349.97 119.688 349.828 119.688 349.605C119.688 349.383 119.879 349.208 120.117 349.208H125.579C127.39 349.208 128.771 350.415 128.771 352.336C128.771 353.94 127.914 355.004 126.548 355.322C127.167 355.465 127.739 356.02 127.739 356.878V358.1C127.739 358.91 127.644 360.054 128.326 360.054C128.946 360.054 129.184 359.148 129.438 358.434C129.549 358.116 129.74 357.926 130.057 358.053C130.391 358.18 130.327 358.577 130.01 359.355C129.692 360.133 129.216 360.927 128.199 360.927C126.564 360.927 126.151 359.752 126.151 358.577V356.878C126.151 355.83 125.706 355.465 124.722 355.465H122.801ZM122.801 354.671H124.785C125.627 354.671 127.183 354.274 127.183 352.336C127.183 350.399 125.627 350.002 124.785 350.002H122.801V354.671Z" fill="#1E1E1C"/>
<path d="M76.4501 14.8305C78.6924 14.8305 80.5101 13.0352 80.5101 10.8205C80.5101 8.60588 78.6924 6.81055 76.4501 6.81055C74.2079 6.81055 72.3901 8.60588 72.3901 10.8205C72.3901 13.0352 74.2079 14.8305 76.4501 14.8305Z" fill="#1E1E1C"/>
<path d="M90.6711 15.5713C90.6711 15.8412 90.4964 16 90.2741 16H89.4802C89.2579 16 89.0832 15.8412 89.0832 15.5713V6.34569C88.464 6.86969 86.8284 7.94945 86.1774 8.31466C86.0027 8.40993 85.7804 8.47345 85.6216 8.29878C85.3835 8.02884 85.5899 7.77478 85.7963 7.63187L87.6541 6.32981C89.6549 4.91659 89.893 4.40847 90.2583 4.40847C90.5123 4.40847 90.6711 4.58314 90.6711 4.8372V15.5713Z" fill="#1E1E1C"/>
</svg>
