<svg width="603" height="408" viewBox="0 0 603 408" fill="none" xmlns="http://www.w3.org/2000/svg">
<path d="M4.06 206.53C6.30228 206.53 8.12 204.712 8.12 202.47C8.12 200.228 6.30228 198.41 4.06 198.41C1.81772 198.41 0 200.228 0 202.47C0 204.712 1.81772 206.53 4.06 206.53Z" fill="#1D1D1B"/>
<path d="M21.3361 207.078C21.3361 207.35 21.1601 207.51 20.9361 207.51H20.1361C19.9121 207.51 19.7361 207.35 19.7361 207.078V197.782C19.1121 198.31 17.4641 199.398 16.8081 199.766C16.6321 199.862 16.4081 199.926 16.2481 199.75C16.0081 199.478 16.2161 199.222 16.4241 199.078L18.2961 197.766C20.3121 196.342 20.5521 195.83 20.9201 195.83C21.1761 195.83 21.3361 196.006 21.3361 196.262V207.078Z" fill="#1D1D1B"/>
<path d="M119.26 206.53C121.502 206.53 123.32 204.712 123.32 202.47C123.32 200.228 121.502 198.41 119.26 198.41C117.018 198.41 115.2 200.228 115.2 202.47C115.2 204.712 117.018 206.53 119.26 206.53Z" fill="#1D1D1B"/>
<path d="M136.536 207.078C136.536 207.35 136.36 207.51 136.136 207.51H135.336C135.112 207.51 134.936 207.35 134.936 207.078V197.782C134.312 198.31 132.664 199.398 132.008 199.766C131.832 199.862 131.608 199.926 131.448 199.75C131.208 199.478 131.416 199.222 131.624 199.078L133.496 197.766C135.512 196.342 135.752 195.83 136.12 195.83C136.376 195.83 136.536 196.006 136.536 196.262V207.078Z" fill="#1D1D1B"/>
<path d="M234.46 206.53C236.703 206.53 238.52 204.712 238.52 202.47C238.52 200.228 236.703 198.41 234.46 198.41C232.218 198.41 230.4 200.228 230.4 202.47C230.4 204.712 232.218 206.53 234.46 206.53Z" fill="#1D1D1B"/>
<path d="M251.736 207.078C251.736 207.35 251.56 207.51 251.336 207.51H250.536C250.312 207.51 250.136 207.35 250.136 207.078V197.782C249.512 198.31 247.864 199.398 247.208 199.766C247.032 199.862 246.808 199.926 246.648 199.75C246.408 199.478 246.616 199.222 246.824 199.078L248.696 197.766C250.712 196.342 250.952 195.83 251.32 195.83C251.576 195.83 251.736 196.006 251.736 196.262V207.078Z" fill="#1D1D1B"/>
<path d="M349.66 206.53C351.902 206.53 353.72 204.712 353.72 202.47C353.72 200.228 351.902 198.41 349.66 198.41C347.417 198.41 345.6 200.228 345.6 202.47C345.6 204.712 347.417 206.53 349.66 206.53Z" fill="#1D1D1B"/>
<path d="M366.936 207.078C366.936 207.35 366.76 207.51 366.536 207.51H365.736C365.512 207.51 365.336 207.35 365.336 207.078V197.782C364.712 198.31 363.064 199.398 362.408 199.766C362.232 199.862 362.008 199.926 361.848 199.75C361.608 199.478 361.816 199.222 362.024 199.078L363.896 197.766C365.912 196.342 366.152 195.83 366.52 195.83C366.776 195.83 366.936 196.006 366.936 196.262V207.078Z" fill="#1D1D1B"/>
<path d="M464.86 206.53C467.102 206.53 468.92 204.712 468.92 202.47C468.92 200.228 467.102 198.41 464.86 198.41C462.618 198.41 460.8 200.228 460.8 202.47C460.8 204.712 462.618 206.53 464.86 206.53Z" fill="#1D1D1B"/>
<path d="M482.136 207.078C482.136 207.35 481.96 207.51 481.736 207.51H480.936C480.712 207.51 480.536 207.35 480.536 207.078V197.782C479.912 198.31 478.264 199.398 477.608 199.766C477.432 199.862 477.208 199.926 477.048 199.75C476.808 199.478 477.016 199.222 477.224 199.078L479.096 197.766C481.112 196.342 481.352 195.83 481.72 195.83C481.976 195.83 482.136 196.006 482.136 196.262V207.078Z" fill="#1D1D1B"/>
<path d="M580.06 206.53C582.302 206.53 584.12 204.712 584.12 202.47C584.12 200.228 582.302 198.41 580.06 198.41C577.818 198.41 576 200.228 576 202.47C576 204.712 577.818 206.53 580.06 206.53Z" fill="#1D1D1B"/>
<path d="M597.336 207.078C597.336 207.35 597.16 207.51 596.936 207.51H596.136C595.912 207.51 595.736 207.35 595.736 207.078V197.782C595.112 198.31 593.464 199.398 592.808 199.766C592.632 199.862 592.408 199.926 592.248 199.75C592.008 199.478 592.216 199.222 592.424 199.078L594.296 197.766C596.312 196.342 596.552 195.83 596.92 195.83C597.176 195.83 597.336 196.006 597.336 196.262V207.078Z" fill="#1D1D1B"/>
<path d="M70.2598 0V407.78" stroke="#1D1D1B" stroke-opacity="0.5" stroke-miterlimit="10" stroke-dasharray="4 4"/>
<path d="M185.46 0V407.78" stroke="#1D1D1B" stroke-opacity="0.5" stroke-miterlimit="10" stroke-dasharray="4 4"/>
<path d="M300.66 0V407.78" stroke="#1D1D1B" stroke-opacity="0.5" stroke-miterlimit="10" stroke-dasharray="4 4"/>
<path d="M415.86 0V407.78" stroke="#1D1D1B" stroke-opacity="0.5" stroke-miterlimit="10" stroke-dasharray="4 4"/>
<path d="M531.06 0V407.78" stroke="#1D1D1B" stroke-opacity="0.5" stroke-miterlimit="10" stroke-dasharray="4 4"/>
</svg>
