<svg width="615" height="413" viewBox="0 0 615 413" fill="none" xmlns="http://www.w3.org/2000/svg">
<path d="M315.324 6.976C315.324 5.184 313.052 4.464 311.452 6.48C311.196 6.8 310.908 6.752 310.78 6.656C310.476 6.432 310.684 5.936 311.18 5.472C311.628 5.056 312.492 4.32 314.028 4.32C315.58 4.32 316.828 5.056 316.988 6.272C317.196 7.824 316.028 9.104 315.212 9.36C315.532 9.28 317.292 9.536 317.74 11.104C318.668 14.304 315.58 17.696 311.26 17.44C310.988 17.424 310.524 17.392 310.508 17.088C310.492 16.672 310.924 16.736 311.468 16.72C314.14 16.64 315.82 14.624 316.124 12.464C316.316 11.152 315.58 9.904 313.58 10.24C313.292 10.288 313.004 10.24 312.956 9.952C312.908 9.664 313.196 9.52 313.42 9.392C313.676 9.248 315.324 8.416 315.324 6.976ZM326.895 15.056C326.895 16.368 326.111 17.824 325.215 18.64C324.575 19.216 324.271 19.36 324.031 19.12C323.871 18.96 323.807 18.688 324.159 18.384C324.463 18.128 325.647 17.04 325.647 16.144C325.503 16.16 325.423 16.16 325.263 16.16C324.463 16.16 323.807 15.504 323.807 14.688C323.807 13.904 324.479 13.248 325.263 13.248C326.063 13.248 326.895 13.904 326.895 15.056ZM332.818 12.048C332.818 8.848 335.522 7.84 337.026 7.84C338.578 7.84 340.114 8.72 340.114 10.08C340.114 10.816 339.586 11.152 339.138 11.152C338.306 11.152 338.162 10.592 338.162 10.16V8.928C337.938 8.72 337.458 8.64 337.026 8.64C335.186 8.64 334.578 10.688 334.578 12.048C334.578 13.264 335.09 15.28 336.898 15.28C338.21 15.28 338.77 14.528 339.426 13.744C339.666 13.456 339.938 13.408 340.13 13.568C340.37 13.776 340.29 14.16 339.682 14.8C338.786 15.744 337.906 16.08 336.722 16.08C335.01 16.08 332.818 14.928 332.818 12.048ZM349.301 15.056C349.301 16.368 348.517 17.824 347.621 18.64C346.981 19.216 346.677 19.36 346.437 19.12C346.277 18.96 346.213 18.688 346.565 18.384C346.869 18.128 348.053 17.04 348.053 16.144C347.909 16.16 347.829 16.16 347.669 16.16C346.869 16.16 346.213 15.504 346.213 14.688C346.213 13.904 346.885 13.248 347.669 13.248C348.469 13.248 349.301 13.904 349.301 15.056ZM362.009 15.2C362.313 15.2 362.489 15.36 362.489 15.6C362.489 15.84 362.313 16 362.009 16H355.929C355.625 16 355.449 15.84 355.449 15.6C355.449 15.36 355.625 15.2 355.929 15.2H358.185V5.12H355.913C355.625 5.12 355.449 4.96 355.449 4.72C355.449 4.48 355.625 4.32 355.913 4.32H361.993C362.281 4.32 362.457 4.48 362.457 4.72C362.457 4.96 362.281 5.12 361.993 5.12H359.785V15.2H362.009ZM373.212 15.2C373.516 15.2 373.692 15.36 373.692 15.6C373.692 15.84 373.516 16 373.212 16H367.132C366.828 16 366.652 15.84 366.652 15.6C366.652 15.36 366.828 15.2 367.132 15.2H369.388V5.12H367.116C366.828 5.12 366.652 4.96 366.652 4.72C366.652 4.48 366.828 4.32 367.116 4.32H373.196C373.484 4.32 373.66 4.48 373.66 4.72C373.66 4.96 373.484 5.12 373.196 5.12H370.988V15.2H373.212ZM384.415 15.2C384.719 15.2 384.895 15.36 384.895 15.6C384.895 15.84 384.719 16 384.415 16H378.335C378.031 16 377.855 15.84 377.855 15.6C377.855 15.36 378.031 15.2 378.335 15.2H380.591V5.12H378.319C378.031 5.12 377.855 4.96 377.855 4.72C377.855 4.48 378.031 4.32 378.319 4.32H384.399C384.687 4.32 384.863 4.48 384.863 4.72C384.863 4.96 384.687 5.12 384.399 5.12H382.191V15.2H384.415Z" fill="#1D1D1B"/>
<path d="M298.47 14.2401C300.712 14.2401 302.53 12.4224 302.53 10.1801C302.53 7.93784 300.712 6.12012 298.47 6.12012C296.228 6.12012 294.41 7.93784 294.41 10.1801C294.41 12.4224 296.228 14.2401 298.47 14.2401Z" fill="#1D1D1B"/>
<path d="M21.346 409.068C21.346 409.34 21.17 409.5 20.946 409.5H20.146C19.922 409.5 19.746 409.34 19.746 409.068V399.772C19.122 400.3 17.474 401.388 16.818 401.756C16.642 401.852 16.418 401.916 16.258 401.74C16.018 401.468 16.226 401.212 16.434 401.068L18.306 399.756C20.322 398.332 20.562 397.82 20.93 397.82C21.186 397.82 21.346 397.996 21.346 398.252V409.068Z" fill="#1D1D1B"/>
<path d="M4.06 407.74C6.30228 407.74 8.12 405.922 8.12 403.68C8.12 401.438 6.30228 399.62 4.06 399.62C1.81772 399.62 0 401.438 0 403.68C0 405.922 1.81772 407.74 4.06 407.74Z" fill="#1D1D1B"/>
<path d="M94.946 409.068C94.946 409.34 94.77 409.5 94.546 409.5H93.746C93.522 409.5 93.346 409.34 93.346 409.068V399.772C92.722 400.3 91.074 401.388 90.418 401.756C90.242 401.852 90.018 401.916 89.858 401.74C89.618 401.468 89.826 401.212 90.034 401.068L91.906 399.756C93.922 398.332 94.162 397.82 94.53 397.82C94.786 397.82 94.946 397.996 94.946 398.252V409.068Z" fill="#1D1D1B"/>
<path d="M77.66 407.74C79.9023 407.74 81.72 405.922 81.72 403.68C81.72 401.438 79.9023 399.62 77.66 399.62C75.4177 399.62 73.6 401.438 73.6 403.68C73.6 405.922 75.4177 407.74 77.66 407.74Z" fill="#1D1D1B"/>
<path d="M168.556 409.068C168.556 409.34 168.38 409.5 168.156 409.5H167.356C167.132 409.5 166.956 409.34 166.956 409.068V399.772C166.332 400.3 164.684 401.388 164.028 401.756C163.852 401.852 163.628 401.916 163.468 401.74C163.228 401.468 163.436 401.212 163.644 401.068L165.516 399.756C167.532 398.332 167.772 397.82 168.14 397.82C168.396 397.82 168.556 397.996 168.556 398.252V409.068Z" fill="#1D1D1B"/>
<path d="M151.26 407.74C153.502 407.74 155.32 405.922 155.32 403.68C155.32 401.438 153.502 399.62 151.26 399.62C149.018 399.62 147.2 401.438 147.2 403.68C147.2 405.922 149.018 407.74 151.26 407.74Z" fill="#1D1D1B"/>
<path d="M239.996 401.308C241.836 401.308 243.116 402.188 243.116 403.692V408.556C243.468 408.812 244.076 408.348 244.556 407.052C244.716 406.62 244.956 406.588 245.164 406.668C245.5 406.796 245.42 407.196 245.1 407.98C244.78 408.764 244.092 409.564 243.132 409.564C242.604 409.564 242.252 409.34 242.108 409.228L241.532 408.812L241.02 409.052C240.38 409.356 239.708 409.58 239.036 409.58C237.66 409.58 236.636 408.844 236.636 407.292C236.636 405.836 237.452 405.244 239.052 405.004L240.092 404.844C241.356 404.636 241.548 404.06 241.548 403.5V403.212C241.548 402.428 240.94 402.06 240.028 402.06C239.436 402.06 238.988 402.204 238.86 402.46V403.58C238.86 404.076 238.556 404.412 237.916 404.412C237.436 404.412 236.94 404.076 236.94 403.34C236.94 402.252 238.46 401.308 239.996 401.308ZM238.236 407.132C238.236 407.996 238.62 408.7 239.516 408.7C240.124 408.7 240.812 408.316 241.324 407.804C241.484 407.644 241.516 407.436 241.516 407.276V405.308L240.156 405.628C238.828 405.948 238.236 406.188 238.236 407.132Z" fill="#1D1D1B"/>
<path d="M224.87 407.74C227.112 407.74 228.93 405.922 228.93 403.68C228.93 401.438 227.112 399.62 224.87 399.62C222.628 399.62 220.81 401.438 220.81 403.68C220.81 405.922 222.628 407.74 224.87 407.74Z" fill="#1D1D1B"/>
<path d="M313.596 401.308C315.436 401.308 316.716 402.188 316.716 403.692V408.556C317.068 408.812 317.676 408.348 318.156 407.052C318.316 406.62 318.556 406.588 318.764 406.668C319.1 406.796 319.02 407.196 318.7 407.98C318.38 408.764 317.692 409.564 316.732 409.564C316.204 409.564 315.852 409.34 315.708 409.228L315.132 408.812L314.62 409.052C313.98 409.356 313.308 409.58 312.636 409.58C311.26 409.58 310.236 408.844 310.236 407.292C310.236 405.836 311.052 405.244 312.652 405.004L313.692 404.844C314.956 404.636 315.148 404.06 315.148 403.5V403.212C315.148 402.428 314.54 402.06 313.628 402.06C313.036 402.06 312.588 402.204 312.46 402.46V403.58C312.46 404.076 312.156 404.412 311.516 404.412C311.036 404.412 310.54 404.076 310.54 403.34C310.54 402.252 312.06 401.308 313.596 401.308ZM311.836 407.132C311.836 407.996 312.22 408.7 313.116 408.7C313.724 408.7 314.412 408.316 314.924 407.804C315.084 407.644 315.116 407.436 315.116 407.276V405.308L313.756 405.628C312.428 405.948 311.836 406.188 311.836 407.132Z" fill="#1D1D1B"/>
<path d="M298.47 407.74C300.712 407.74 302.53 405.922 302.53 403.68C302.53 401.438 300.712 399.62 298.47 399.62C296.228 399.62 294.41 401.438 294.41 403.68C294.41 405.922 296.228 407.74 298.47 407.74Z" fill="#1D1D1B"/>
<path d="M387.196 401.308C389.036 401.308 390.316 402.188 390.316 403.692V408.556C390.668 408.812 391.276 408.348 391.756 407.052C391.916 406.62 392.156 406.588 392.364 406.668C392.7 406.796 392.62 407.196 392.3 407.98C391.98 408.764 391.292 409.564 390.332 409.564C389.804 409.564 389.452 409.34 389.308 409.228L388.732 408.812L388.22 409.052C387.58 409.356 386.908 409.58 386.236 409.58C384.86 409.58 383.836 408.844 383.836 407.292C383.836 405.836 384.652 405.244 386.252 405.004L387.292 404.844C388.556 404.636 388.748 404.06 388.748 403.5V403.212C388.748 402.428 388.14 402.06 387.228 402.06C386.636 402.06 386.188 402.204 386.06 402.46V403.58C386.06 404.076 385.756 404.412 385.116 404.412C384.636 404.412 384.14 404.076 384.14 403.34C384.14 402.252 385.66 401.308 387.196 401.308ZM385.436 407.132C385.436 407.996 385.82 408.7 386.716 408.7C387.324 408.7 388.012 408.316 388.524 407.804C388.684 407.644 388.716 407.436 388.716 407.276V405.308L387.356 405.628C386.028 405.948 385.436 406.188 385.436 407.132Z" fill="#1D1D1B"/>
<path d="M372.07 407.74C374.312 407.74 376.13 405.922 376.13 403.68C376.13 401.438 374.312 399.62 372.07 399.62C369.828 399.62 368.01 401.438 368.01 403.68C368.01 405.922 369.828 407.74 372.07 407.74Z" fill="#1D1D1B"/>
<path d="M464.396 408.7C464.7 408.7 464.876 408.86 464.876 409.1C464.876 409.34 464.7 409.5 464.396 409.5H458.316C458.012 409.5 457.836 409.34 457.836 409.1C457.836 408.86 458.012 408.7 458.316 408.7H460.572V398.62H458.3C458.012 398.62 457.836 398.46 457.836 398.22C457.836 397.98 458.012 397.82 458.3 397.82H464.38C464.668 397.82 464.844 397.98 464.844 398.22C464.844 398.46 464.668 398.62 464.38 398.62H462.172V408.7H464.396Z" fill="#1D1D1B"/>
<path d="M445.67 407.74C447.912 407.74 449.73 405.922 449.73 403.68C449.73 401.438 447.912 399.62 445.67 399.62C443.428 399.62 441.61 401.438 441.61 403.68C441.61 405.922 443.428 407.74 445.67 407.74Z" fill="#1D1D1B"/>
<path d="M538.006 408.7C538.31 408.7 538.486 408.86 538.486 409.1C538.486 409.34 538.31 409.5 538.006 409.5H531.926C531.622 409.5 531.446 409.34 531.446 409.1C531.446 408.86 531.622 408.7 531.926 408.7H534.182V398.62H531.91C531.622 398.62 531.446 398.46 531.446 398.22C531.446 397.98 531.622 397.82 531.91 397.82H537.99C538.278 397.82 538.454 397.98 538.454 398.22C538.454 398.46 538.278 398.62 537.99 398.62H535.782V408.7H538.006Z" fill="#1D1D1B"/>
<path d="M519.27 407.74C521.512 407.74 523.33 405.922 523.33 403.68C523.33 401.438 521.512 399.62 519.27 399.62C517.028 399.62 515.21 401.438 515.21 403.68C515.21 405.922 517.028 407.74 519.27 407.74Z" fill="#1D1D1B"/>
<path d="M611.606 408.7C611.91 408.7 612.086 408.86 612.086 409.1C612.086 409.34 611.91 409.5 611.606 409.5H605.526C605.222 409.5 605.046 409.34 605.046 409.1C605.046 408.86 605.222 408.7 605.526 408.7H607.782V398.62H605.51C605.222 398.62 605.046 398.46 605.046 398.22C605.046 397.98 605.222 397.82 605.51 397.82H611.59C611.878 397.82 612.054 397.98 612.054 398.22C612.054 398.46 611.878 398.62 611.59 398.62H609.382V408.7H611.606Z" fill="#1D1D1B"/>
<path d="M592.88 407.74C595.122 407.74 596.94 405.922 596.94 403.68C596.94 401.438 595.122 399.62 592.88 399.62C590.638 399.62 588.82 401.438 588.82 403.68C588.82 405.922 590.638 407.74 592.88 407.74Z" fill="#1D1D1B"/>
<path d="M309.5 201.886C309.212 201.854 309.036 201.678 309.036 201.47C309.036 201.23 309.228 201.07 309.5 201.07H311.724C311.836 201.07 312.22 201.022 312.22 201.566V205.31L312.748 205.07C313.26 204.846 313.98 204.622 314.556 204.622C316.636 204.622 318.14 206.286 318.14 208.686C318.14 210.702 317.004 212.878 314.524 212.878C313.436 212.878 312.62 212.382 312.252 212.19C311.82 212.734 311.804 212.75 311.58 212.75H310.86C310.62 212.75 310.62 212.67 310.62 212.366V201.998L309.5 201.886ZM312.22 210.318C312.22 210.814 312.236 210.974 312.556 211.214C313.196 211.694 313.692 211.998 314.284 211.998C316.06 211.998 316.396 210.286 316.412 208.686C316.428 206.798 315.692 205.422 314.556 205.422C313.788 205.422 313.276 205.95 312.684 206.43L312.22 206.814V210.318Z" fill="#1D1D1B"/>
<path d="M298.47 210.99C300.712 210.99 302.53 209.172 302.53 206.93C302.53 204.688 300.712 202.87 298.47 202.87C296.228 202.87 294.41 204.688 294.41 206.93C294.41 209.172 296.228 210.99 298.47 210.99Z" fill="#1D1D1B"/>
<path d="M96.882 212.318C96.85 212.59 96.706 212.75 96.434 212.75H89.954C89.554 212.75 89.298 212.654 89.298 212.254C89.298 211.038 90.594 209.31 92.45 207.87C94.146 206.542 95.058 205.438 95.09 204.094C95.106 203.502 94.866 201.998 93.17 201.998C91.746 201.998 90.978 203.022 90.354 203.982C90.146 204.302 89.842 204.254 89.698 204.158C89.202 203.822 89.922 202.862 90.562 202.222C90.994 201.79 92.034 201.07 93.474 201.07C95.938 201.07 96.85 202.622 96.85 203.95C96.85 205.054 96.642 206.142 94.77 207.422C92.834 208.734 90.802 210.142 90.802 211.31H96.162L96.29 210.91C96.386 210.622 96.466 210.446 96.706 210.446C96.962 210.446 97.042 210.638 97.01 210.91L96.882 212.318Z" fill="#1D1D1B"/>
<path d="M77.66 210.99C79.9023 210.99 81.72 209.172 81.72 206.93C81.72 204.688 79.9023 202.87 77.66 202.87C75.4177 202.87 73.6 204.688 73.6 206.93C73.6 209.172 75.4177 210.99 77.66 210.99Z" fill="#1D1D1B"/>
<path d="M538.006 211.95C538.31 211.95 538.486 212.11 538.486 212.35C538.486 212.59 538.31 212.75 538.006 212.75H531.926C531.622 212.75 531.446 212.59 531.446 212.35C531.446 212.11 531.622 211.95 531.926 211.95H534.182V201.87H531.91C531.622 201.87 531.446 201.71 531.446 201.47C531.446 201.23 531.622 201.07 531.91 201.07H537.99C538.278 201.07 538.454 201.23 538.454 201.47C538.454 201.71 538.278 201.87 537.99 201.87H535.782V211.95H538.006ZM549.209 211.95C549.513 211.95 549.689 212.11 549.689 212.35C549.689 212.59 549.513 212.75 549.209 212.75H543.129C542.825 212.75 542.649 212.59 542.649 212.35C542.649 212.11 542.825 211.95 543.129 211.95H545.385V201.87H543.113C542.825 201.87 542.649 201.71 542.649 201.47C542.649 201.23 542.825 201.07 543.113 201.07H549.193C549.481 201.07 549.657 201.23 549.657 201.47C549.657 201.71 549.481 201.87 549.193 201.87H546.985V211.95H549.209Z" fill="#1D1D1B"/>
<path d="M519.27 210.99C521.512 210.99 523.33 209.172 523.33 206.93C523.33 204.688 521.512 202.87 519.27 202.87C517.028 202.87 515.21 204.688 515.21 206.93C515.21 209.172 517.028 210.99 519.27 210.99Z" fill="#1D1D1B"/>
</svg>
