<svg width="547" height="512" viewBox="0 0 547 512" fill="none" xmlns="http://www.w3.org/2000/svg">
<path d="M21.346 260.008C21.346 260.28 21.17 260.44 20.946 260.44H20.146C19.922 260.44 19.746 260.28 19.746 260.008V250.712C19.122 251.24 17.474 252.328 16.818 252.696C16.642 252.792 16.418 252.856 16.258 252.68C16.018 252.408 16.226 252.152 16.434 252.008L18.306 250.696C20.322 249.272 20.562 248.76 20.93 248.76C21.186 248.76 21.346 248.936 21.346 249.192V260.008Z" fill="#1D1D1B"/>
<path d="M4.06 258.69C6.30228 258.69 8.12 256.872 8.12 254.63C8.12 252.388 6.30228 250.57 4.06 250.57C1.81772 250.57 0 252.388 0 254.63C0 256.872 1.81772 258.69 4.06 258.69Z" fill="#1D1D1B"/>
<path d="M188.182 260.008C188.15 260.28 188.006 260.44 187.734 260.44H181.254C180.854 260.44 180.598 260.344 180.598 259.944C180.598 258.728 181.894 257 183.75 255.56C185.446 254.232 186.358 253.128 186.39 251.784C186.406 251.192 186.166 249.688 184.47 249.688C183.046 249.688 182.278 250.712 181.654 251.672C181.446 251.992 181.142 251.944 180.998 251.848C180.502 251.512 181.222 250.552 181.862 249.912C182.294 249.48 183.334 248.76 184.774 248.76C187.238 248.76 188.15 250.312 188.15 251.64C188.15 252.744 187.942 253.832 186.07 255.112C184.134 256.424 182.102 257.832 182.102 259H187.462L187.59 258.6C187.686 258.312 187.766 258.136 188.006 258.136C188.262 258.136 188.342 258.328 188.31 258.6L188.182 260.008Z" fill="#1D1D1B"/>
<path d="M168.96 258.69C171.202 258.69 173.02 256.872 173.02 254.63C173.02 252.388 171.202 250.57 168.96 250.57C166.718 250.57 164.9 252.388 164.9 254.63C164.9 256.872 166.718 258.69 168.96 258.69Z" fill="#1D1D1B"/>
<path d="M350.714 251.416C350.714 249.624 348.442 248.904 346.842 250.92C346.586 251.24 346.298 251.192 346.17 251.096C345.866 250.872 346.074 250.376 346.57 249.912C347.018 249.496 347.882 248.76 349.418 248.76C350.97 248.76 352.218 249.496 352.378 250.712C352.586 252.264 351.418 253.544 350.602 253.8C350.922 253.72 352.682 253.976 353.13 255.544C354.058 258.744 350.97 262.136 346.65 261.88C346.378 261.864 345.914 261.832 345.898 261.528C345.882 261.112 346.314 261.176 346.858 261.16C349.53 261.08 351.21 259.064 351.514 256.904C351.706 255.592 350.97 254.344 348.97 254.68C348.682 254.728 348.394 254.68 348.346 254.392C348.298 254.104 348.586 253.96 348.81 253.832C349.066 253.688 350.714 252.856 350.714 251.416Z" fill="#1D1D1B"/>
<path d="M333.86 258.69C336.102 258.69 337.92 256.872 337.92 254.63C337.92 252.388 336.102 250.57 333.86 250.57C331.618 250.57 329.8 252.388 329.8 254.63C329.8 256.872 331.618 258.69 333.86 258.69Z" fill="#1D1D1B"/>
<path d="M509.934 256.306C509.87 256.082 510.03 255.794 510.286 255.442L515.502 248.29C515.71 248.018 515.934 247.826 516.206 247.89C516.59 247.986 516.558 248.338 516.558 248.738V255.794H518.206C518.478 255.794 518.638 255.97 518.638 256.194C518.638 256.418 518.478 256.594 518.206 256.594H516.558V260.578C516.558 260.85 516.382 261.01 516.158 261.01H515.358C515.134 261.01 514.958 260.85 514.958 260.578V256.594L510.446 256.578C510.078 256.578 509.966 256.434 509.934 256.306ZM511.214 255.794H514.958V250.514L511.214 255.794Z" fill="#1D1D1B"/>
<path d="M498.76 257.81C501.002 257.81 502.82 255.992 502.82 253.75C502.82 251.508 501.002 249.69 498.76 249.69C496.518 249.69 494.7 251.508 494.7 253.75C494.7 255.992 496.518 257.81 498.76 257.81Z" fill="#1D1D1B"/>
<path d="M248.59 149.21C250.832 149.21 252.65 147.392 252.65 145.15C252.65 142.908 250.832 141.09 248.59 141.09C246.348 141.09 244.53 142.908 244.53 145.15C244.53 147.392 246.348 149.21 248.59 149.21Z" fill="#1D1D1B" fill-opacity="0.2"/>
<path d="M450.7 328.14C452.942 328.14 454.76 326.322 454.76 324.08C454.76 321.838 452.942 320.02 450.7 320.02C448.458 320.02 446.64 321.838 446.64 324.08C446.64 326.322 448.458 328.14 450.7 328.14Z" fill="#1D1D1B" fill-opacity="0.2"/>
<path d="M542.04 511.95C544.282 511.95 546.1 510.132 546.1 507.89C546.1 505.648 544.282 503.83 542.04 503.83C539.798 503.83 537.98 505.648 537.98 507.89C537.98 510.132 539.798 511.95 542.04 511.95Z" fill="#1D1D1B" fill-opacity="0.2"/>
<path d="M155.69 400.88C157.932 400.88 159.75 399.062 159.75 396.82C159.75 394.577 157.932 392.76 155.69 392.76C153.448 392.76 151.63 394.577 151.63 396.82C151.63 399.062 153.448 400.88 155.69 400.88Z" fill="#1D1D1B" fill-opacity="0.2"/>
<path d="M14.1301 23.0902C16.3723 23.0902 18.1901 21.2725 18.1901 19.0302C18.1901 16.7879 16.3723 14.9702 14.1301 14.9702C11.8878 14.9702 10.0701 16.7879 10.0701 19.0302C10.0701 21.2725 11.8878 23.0902 14.1301 23.0902Z" fill="#1D1D1B" fill-opacity="0.2"/>
<path d="M490.64 46.87C492.882 46.87 494.7 45.0523 494.7 42.81C494.7 40.5677 492.882 38.75 490.64 38.75C488.398 38.75 486.58 40.5677 486.58 42.81C486.58 45.0523 488.398 46.87 490.64 46.87Z" fill="#1D1D1B" fill-opacity="0.2"/>
<path d="M389.06 8.12C391.302 8.12 393.12 6.30228 393.12 4.06C393.12 1.81772 391.302 0 389.06 0C386.818 0 385 1.81772 385 4.06C385 6.30228 386.818 8.12 389.06 8.12Z" fill="#1D1D1B" fill-opacity="0.2"/>
<path d="M4.06 488.95C6.30228 488.95 8.12 487.132 8.12 484.89C8.12 482.648 6.30228 480.83 4.06 480.83C1.81772 480.83 0 482.648 0 484.89C0 487.132 1.81772 488.95 4.06 488.95Z" fill="#1D1D1B" fill-opacity="0.2"/>
</svg>
