<svg width="403" height="288" viewBox="0 0 403 288" fill="none" xmlns="http://www.w3.org/2000/svg">
<path d="M21.2912 283.841C21.2912 284.111 21.1166 284.27 20.8943 284.27H20.1003C19.878 284.27 19.7033 284.111 19.7033 283.841V274.615C19.0841 275.139 17.4486 276.219 16.7975 276.584C16.6229 276.679 16.4006 276.743 16.2418 276.568C16.0036 276.298 16.21 276.044 16.4164 275.901L18.2743 274.599C20.275 273.186 20.5132 272.678 20.8784 272.678C21.1324 272.678 21.2912 272.853 21.2912 273.107V283.841Z" fill="#1D1D1B"/>
<path d="M4.06 282.33C6.30228 282.33 8.12 280.534 8.12 278.32C8.12 276.105 6.30228 274.31 4.06 274.31C1.81772 274.31 0 276.105 0 278.32C0 280.534 1.81772 282.33 4.06 282.33Z" fill="#1D1D1B"/>
<path d="M289.085 38.7329C289.085 38.5106 289.243 38.3359 289.529 38.3359H290.371L293.181 33.5247L290.577 28.3323H289.529C289.243 28.3323 289.085 28.1576 289.085 27.9353C289.085 27.713 289.243 27.5384 289.529 27.5384H293.038C293.308 27.5384 293.483 27.6971 293.483 27.9353C293.483 28.1735 293.308 28.3323 293.038 28.3323H292.387L294.166 31.8415L296.214 28.3323H295.15C294.865 28.3323 294.706 28.1576 294.706 27.9353C294.706 27.713 294.865 27.5384 295.15 27.5384H298.437C298.707 27.5384 298.882 27.6971 298.882 27.9353C298.882 28.1735 298.707 28.3323 298.437 28.3323H297.326L294.674 32.8736L297.437 38.3359H298.437C298.707 38.3359 298.882 38.4947 298.882 38.7329C298.882 38.9711 298.707 39.1299 298.437 39.1299H294.865C294.579 39.1299 294.42 38.9552 294.42 38.7329C294.42 38.5106 294.579 38.3359 294.865 38.3359H295.611L293.705 34.5409L291.482 38.3359H292.53C292.8 38.3359 292.975 38.4947 292.975 38.7329C292.975 38.9711 292.8 39.1299 292.53 39.1299H289.529C289.243 39.1299 289.085 38.9552 289.085 38.7329Z" fill="#1D1D1B"/>
<path d="M278.3 37.1997C280.542 37.1997 282.36 35.4043 282.36 33.1897C282.36 30.975 280.542 29.1797 278.3 29.1797C276.058 29.1797 274.24 30.975 274.24 33.1897C274.24 35.4043 276.058 37.1997 278.3 37.1997Z" fill="#1D1D1B"/>
<path d="M326.528 47.7051C326.686 47.7051 326.956 47.7845 326.925 48.1339L326.861 48.7055C326.829 49.0548 326.528 49.1342 326.369 49.1342H321.526L321.351 52.0718C324.241 50.5792 327.131 51.4367 327.131 54.4695C327.131 56.8037 325.146 59.2014 323.003 59.8842C322.304 60.1065 320.51 60.5987 320.541 59.9001C320.557 59.5507 320.97 59.5507 321.351 59.5031C326.496 58.8679 326.607 50.8809 322.304 52.437C321.51 52.7229 321.145 53.1833 320.779 53.0404C320.462 52.9134 320.525 52.6117 320.541 52.2147L320.811 48.1656C320.843 47.9592 320.891 47.7051 321.288 47.7051H326.528ZM330.659 50.9444C330.659 48.642 332.501 47.2288 334.613 47.2288C336.82 47.2288 339.059 48.8325 338.805 52.5323C338.551 56.2479 335.852 59.6301 332.882 60.1541C332.612 60.2018 332.072 60.2653 332.025 59.8842C331.977 59.4713 332.453 59.4713 332.882 59.3761C335.439 58.8044 336.82 55.5652 337.027 53.1516C336.058 54.0249 335.185 54.4378 334.264 54.4378C332.374 54.4378 330.659 53.1357 330.659 50.9444ZM332.406 50.738C332.39 52.1512 333.041 53.6438 334.438 53.6438C335.121 53.6438 335.994 53.1675 337.042 51.913C336.9 49.0707 335.804 48.0227 334.438 48.0227C333.168 48.0227 332.422 49.1184 332.406 50.738Z" fill="#1D1D1B"/>
<path d="M308 56.8804C310.242 56.8804 312.06 55.085 312.06 52.8703C312.06 50.6557 310.242 48.8604 308 48.8604C305.758 48.8604 303.94 50.6557 303.94 52.8703C303.94 55.085 305.758 56.8804 308 56.8804Z" fill="#1D1D1B"/>
<path d="M323.716 15.1965C323.97 13.2275 325.256 11.9096 326.765 11.9096C327.527 11.9096 328.146 12.243 328.543 12.8147L328.559 12.7353C328.607 12.4018 328.781 12.3065 328.956 12.3065C329.226 12.3065 329.369 12.5288 329.337 12.7511L328.765 17.0702C328.67 17.7688 328.877 18.0229 329.353 18.007C330.337 17.9753 330.893 16.2445 330.893 15.0059C330.893 12.5288 329.083 10.5916 326.622 10.5916C324.161 10.5916 322.366 12.8464 322.366 15.1647C322.366 17.4671 324.176 19.7061 326.622 19.7061C327.336 19.7061 327.765 19.5473 328.051 19.5314C328.241 19.5155 328.353 19.5473 328.432 19.7378C328.638 20.2301 327.463 20.5 326.622 20.5C323.827 20.5 321.572 17.9435 321.572 15.1488C321.572 12.3383 323.827 9.79769 326.622 9.79769C329.432 9.79769 331.687 12.0366 331.687 14.9901C331.687 16.832 330.623 18.7692 329.305 18.7851C328.257 18.801 327.94 18.007 327.971 17.5465C327.416 18.1182 326.701 18.4516 325.939 18.4516C324.431 18.4516 323.462 17.1337 323.716 15.1965ZM325.082 15.1965C324.875 16.7208 324.955 17.8324 325.939 17.8324C326.923 17.8324 327.432 16.7208 327.638 15.1965C327.844 13.688 327.924 12.5447 326.765 12.5447C325.796 12.5447 325.288 13.688 325.082 15.1965Z" fill="#1D1D1B"/>
<path d="M311.01 18.56C313.252 18.56 315.07 16.7647 315.07 14.55C315.07 12.3354 313.252 10.54 311.01 10.54C308.768 10.54 306.95 12.3354 306.95 14.55C306.95 16.7647 308.768 18.56 311.01 18.56Z" fill="#1D1D1B"/>
<path d="M365.286 35.7C365.59 35.7 365.766 35.86 365.766 36.1C365.766 36.34 365.59 36.5 365.286 36.5H359.206C358.902 36.5 358.726 36.34 358.726 36.1C358.726 35.86 358.902 35.7 359.206 35.7H361.462V25.62H359.19C358.902 25.62 358.726 25.46 358.726 25.22C358.726 24.98 358.902 24.82 359.19 24.82H365.27C365.558 24.82 365.734 24.98 365.734 25.22C365.734 25.46 365.558 25.62 365.27 25.62H363.062V35.7H365.286ZM376.489 35.7C376.793 35.7 376.969 35.86 376.969 36.1C376.969 36.34 376.793 36.5 376.489 36.5H370.409C370.105 36.5 369.929 36.34 369.929 36.1C369.929 35.86 370.105 35.7 370.409 35.7H372.665V25.62H370.393C370.105 25.62 369.929 25.46 369.929 25.22C369.929 24.98 370.105 24.82 370.393 24.82H376.473C376.761 24.82 376.937 24.98 376.937 25.22C376.937 25.46 376.761 25.62 376.473 25.62H374.265V35.7H376.489ZM387.692 35.7C387.996 35.7 388.172 35.86 388.172 36.1C388.172 36.34 387.996 36.5 387.692 36.5H381.612C381.308 36.5 381.132 36.34 381.132 36.1C381.132 35.86 381.308 35.7 381.612 35.7H383.868V25.62H381.596C381.308 25.62 381.132 25.46 381.132 25.22C381.132 24.98 381.308 24.82 381.596 24.82H387.676C387.964 24.82 388.14 24.98 388.14 25.22C388.14 25.46 387.964 25.62 387.676 25.62H385.468V35.7H387.692Z" fill="#1D1D1B"/>
<path d="M346.55 34.77C348.792 34.77 350.61 32.9747 350.61 30.76C350.61 28.5453 348.792 26.75 346.55 26.75C344.308 26.75 342.49 28.5453 342.49 30.76C342.49 32.9747 344.308 34.77 346.55 34.77Z" fill="#1D1D1B"/>
<path d="M244.218 37.4599C246.044 37.4599 247.314 38.3332 247.314 39.8258V44.653C247.663 44.9071 248.267 44.4466 248.743 43.1604C248.902 42.7317 249.14 42.6999 249.347 42.7793C249.68 42.9063 249.601 43.3033 249.283 44.0814C248.965 44.8594 248.283 45.6534 247.33 45.6534C246.806 45.6534 246.457 45.4311 246.314 45.3199L245.742 44.9071L245.234 45.1452C244.599 45.4469 243.932 45.6692 243.265 45.6692C241.899 45.6692 240.883 44.9388 240.883 43.3986C240.883 41.9536 241.693 41.3661 243.281 41.1279L244.313 40.9691C245.567 40.7627 245.758 40.1911 245.758 39.6353V39.3495C245.758 38.5714 245.155 38.2062 244.249 38.2062C243.662 38.2062 243.217 38.3491 243.09 38.6032V39.7147C243.09 40.2069 242.789 40.5404 242.153 40.5404C241.677 40.5404 241.185 40.2069 241.185 39.4765C241.185 38.3967 242.693 37.4599 244.218 37.4599ZM242.471 43.2398C242.471 44.0972 242.852 44.7959 243.741 44.7959C244.345 44.7959 245.027 44.4148 245.536 43.9067C245.694 43.7479 245.726 43.5415 245.726 43.3827V41.4296L244.376 41.7472C243.059 42.0647 242.471 42.3029 242.471 43.2398Z" fill="#1D1D1B"/>
<path d="M229.13 43.6499C231.372 43.6499 233.19 41.8545 233.19 39.6399C233.19 37.4252 231.372 35.6299 229.13 35.6299C226.888 35.6299 225.07 37.4252 225.07 39.6399C225.07 41.8545 226.888 43.6499 229.13 43.6499Z" fill="#1D1D1B"/>
<path d="M302.64 67.62C357.382 67.62 401.76 52.5947 401.76 34.06C401.76 15.5253 357.382 0.5 302.64 0.5C247.898 0.5 203.52 15.5253 203.52 34.06C203.52 52.5947 247.898 67.62 302.64 67.62Z" stroke="#1D1D1B" stroke-miterlimit="10"/>
</svg>
