<svg width="341" height="501" viewBox="0 0 341 501" fill="none" xmlns="http://www.w3.org/2000/svg">
<path d="M112.416 66.7925C113.68 66.7925 114.704 65.7691 114.704 64.5066C114.704 63.2441 113.68 62.2207 112.416 62.2207C111.153 62.2207 110.129 63.2441 110.129 64.5066C110.129 65.7691 111.153 66.7925 112.416 66.7925Z" fill="#1D1D1B"/>
<path d="M52.1979 54.2202C53.461 54.2202 54.485 53.1968 54.485 51.9343C54.485 50.6719 53.461 49.6484 52.1979 49.6484C50.9347 49.6484 49.9108 50.6719 49.9108 51.9343C49.9108 53.1968 50.9347 54.2202 52.1979 54.2202Z" fill="#1D1D1B"/>
<path d="M111.635 16.5029C112.899 16.5029 113.923 15.4795 113.923 14.217C113.923 12.9546 112.899 11.9312 111.635 11.9312C110.372 11.9312 109.348 12.9546 109.348 14.217C109.348 15.4795 110.372 16.5029 111.635 16.5029Z" fill="#1D1D1B"/>
<path d="M137.268 51.9341C138.531 51.9341 139.555 50.9107 139.555 49.6482C139.555 48.3857 138.531 47.3623 137.268 47.3623C136.005 47.3623 134.981 48.3857 134.981 49.6482C134.981 50.9107 136.005 51.9341 137.268 51.9341Z" fill="#1D1D1B"/>
<path d="M175.452 4.57178C176.715 4.57178 177.739 3.54835 177.739 2.28589C177.739 1.02343 176.715 0 175.452 0C174.189 0 173.165 1.02343 173.165 2.28589C173.165 3.54835 174.189 4.57178 175.452 4.57178Z" fill="#1D1D1B"/>
<path d="M231.096 12.4888C232.359 12.4888 233.383 11.4653 233.383 10.2029C233.383 8.94042 232.359 7.91699 231.096 7.91699C229.833 7.91699 228.809 8.94042 228.809 10.2029C228.809 11.4653 229.833 12.4888 231.096 12.4888Z" fill="#1D1D1B"/>
<path d="M301.16 12.3213C302.423 12.3213 303.447 11.2979 303.447 10.0354C303.447 8.77294 302.423 7.74951 301.16 7.74951C299.897 7.74951 298.873 8.77294 298.873 10.0354C298.873 11.2979 299.897 12.3213 301.16 12.3213Z" fill="#1D1D1B"/>
<path d="M195.032 92.188C196.295 92.188 197.319 91.1646 197.319 89.9021C197.319 88.6396 196.295 87.6162 195.032 87.6162C193.769 87.6162 192.745 88.6396 192.745 89.9021C192.745 91.1646 193.769 92.188 195.032 92.188Z" fill="#1D1D1B"/>
<path d="M79.532 138.993C80.7952 138.993 81.8191 137.97 81.8191 136.707C81.8191 135.445 80.7952 134.421 79.532 134.421C78.2689 134.421 77.2449 135.445 77.2449 136.707C77.2449 137.97 78.2689 138.993 79.532 138.993Z" fill="#1D1D1B"/>
<path d="M142.986 138.993C144.249 138.993 145.273 137.97 145.273 136.707C145.273 135.445 144.249 134.421 142.986 134.421C141.723 134.421 140.699 135.445 140.699 136.707C140.699 137.97 141.723 138.993 142.986 138.993Z" fill="#1D1D1B"/>
<path d="M167.419 228.617C168.682 228.617 169.706 227.593 169.706 226.331C169.706 225.068 168.682 224.045 167.419 224.045C166.156 224.045 165.132 225.068 165.132 226.331C165.132 227.593 166.156 228.617 167.419 228.617Z" fill="#1D1D1B"/>
<path d="M185.326 181.756C186.589 181.756 187.613 180.732 187.613 179.47C187.613 178.207 186.589 177.184 185.326 177.184C184.062 177.184 183.038 178.207 183.038 179.47C183.038 180.732 184.062 181.756 185.326 181.756Z" fill="#1D1D1B"/>
<path d="M13.512 226.164C14.7751 226.164 15.7991 225.14 15.7991 223.878C15.7991 222.615 14.7751 221.592 13.512 221.592C12.2488 221.592 11.2249 222.615 11.2249 223.878C11.2249 225.14 12.2488 226.164 13.512 226.164Z" fill="#1D1D1B"/>
<path d="M70.5228 232.575C71.786 232.575 72.81 231.552 72.81 230.289C72.81 229.027 71.786 228.003 70.5228 228.003C69.2597 228.003 68.2357 229.027 68.2357 230.289C68.2357 231.552 69.2597 232.575 70.5228 232.575Z" fill="#1D1D1B"/>
<path d="M254.358 202.858C255.621 202.858 256.645 201.835 256.645 200.573C256.645 199.31 255.621 198.287 254.358 198.287C253.095 198.287 252.071 199.31 252.071 200.573C252.071 201.835 253.095 202.858 254.358 202.858Z" fill="#1D1D1B"/>
<path d="M277.341 173.672C278.604 173.672 279.628 172.648 279.628 171.386C279.628 170.124 278.604 169.1 277.341 169.1C276.078 169.1 275.054 170.124 275.054 171.386C275.054 172.648 276.078 173.672 277.341 173.672Z" fill="#1D1D1B"/>
<path d="M291.677 232.575C292.94 232.575 293.964 231.552 293.964 230.289C293.964 229.027 292.94 228.003 291.677 228.003C290.414 228.003 289.39 229.027 289.39 230.289C289.39 231.552 290.414 232.575 291.677 232.575Z" fill="#1D1D1B"/>
<path d="M312.875 145.517C314.138 145.517 315.162 144.493 315.162 143.231C315.162 141.968 314.138 140.945 312.875 140.945C311.612 140.945 310.588 141.968 310.588 143.231C310.588 144.493 311.612 145.517 312.875 145.517Z" fill="#1D1D1B"/>
<path d="M105.22 272.522C106.484 272.522 107.507 271.499 107.507 270.237C107.507 268.974 106.484 267.951 105.22 267.951C103.957 267.951 102.933 268.974 102.933 270.237C102.933 271.499 103.957 272.522 105.22 272.522Z" fill="#1D1D1B"/>
<path d="M254.358 272.522C255.621 272.522 256.645 271.499 256.645 270.237C256.645 268.974 255.621 267.951 254.358 267.951C253.095 267.951 252.071 268.974 252.071 270.237C252.071 271.499 253.095 272.522 254.358 272.522Z" fill="#1D1D1B"/>
<path d="M116.767 278.934C118.031 278.934 119.055 277.911 119.055 276.648C119.055 275.386 118.031 274.362 116.767 274.362C115.504 274.362 114.48 275.386 114.48 276.648C114.48 277.911 115.504 278.934 116.767 278.934Z" fill="#1D1D1B"/>
<path d="M99.0841 359.582C100.347 359.582 101.371 358.558 101.371 357.296C101.371 356.033 100.347 355.01 99.0841 355.01C97.821 355.01 96.797 356.033 96.797 357.296C96.797 358.558 97.821 359.582 99.0841 359.582Z" fill="#1D1D1B"/>
<path d="M142.651 308.316C143.914 308.316 144.938 307.293 144.938 306.031C144.938 304.768 143.914 303.745 142.651 303.745C141.388 303.745 140.364 304.768 140.364 306.031C140.364 307.293 141.388 308.316 142.651 308.316Z" fill="#1D1D1B"/>
<path d="M199.913 301.514C201.176 301.514 202.2 300.491 202.2 299.228C202.2 297.966 201.176 296.942 199.913 296.942C198.65 296.942 197.626 297.966 197.626 299.228C197.626 300.491 198.65 301.514 199.913 301.514Z" fill="#1D1D1B"/>
<path d="M226.159 286.851C227.422 286.851 228.446 285.828 228.446 284.565C228.446 283.303 227.422 282.279 226.159 282.279C224.896 282.279 223.872 283.303 223.872 284.565C223.872 285.828 224.896 286.851 226.159 286.851Z" fill="#1D1D1B"/>
<path d="M278.401 350.996C279.664 350.996 280.688 349.972 280.688 348.71C280.688 347.447 279.664 346.424 278.401 346.424C277.138 346.424 276.114 347.447 276.114 348.71C276.114 349.972 277.138 350.996 278.401 350.996Z" fill="#1D1D1B"/>
<path d="M281.413 368.669C282.676 368.669 283.7 367.645 283.7 366.383C283.7 365.121 282.676 364.097 281.413 364.097C280.15 364.097 279.126 365.121 279.126 366.383C279.126 367.645 280.15 368.669 281.413 368.669Z" fill="#1D1D1B"/>
<path d="M52.0864 407.529C53.3496 407.529 54.3736 406.506 54.3736 405.243C54.3736 403.981 53.3496 402.958 52.0864 402.958C50.8233 402.958 49.7993 403.981 49.7993 405.243C49.7993 406.506 50.8233 407.529 52.0864 407.529Z" fill="#1D1D1B"/>
<path d="M47.6795 494.56C48.9426 494.56 49.9666 493.537 49.9666 492.274C49.9666 491.012 48.9426 489.988 47.6795 489.988C46.4163 489.988 45.3923 491.012 45.3923 492.274C45.3923 493.537 46.4163 494.56 47.6795 494.56Z" fill="#1D1D1B"/>
<path d="M36.969 485.835C38.2322 485.835 39.2561 484.812 39.2561 483.549C39.2561 482.287 38.2322 481.263 36.969 481.263C35.7059 481.263 34.6819 482.287 34.6819 483.549C34.6819 484.812 35.7059 485.835 36.969 485.835Z" fill="#1D1D1B"/>
<path d="M103.658 434.57C104.921 434.57 105.945 433.546 105.945 432.284C105.945 431.021 104.921 429.998 103.658 429.998C102.395 429.998 101.371 431.021 101.371 432.284C101.371 433.546 102.395 434.57 103.658 434.57Z" fill="#1D1D1B"/>
<path d="M138.105 407.529C139.368 407.529 140.392 406.506 140.392 405.243C140.392 403.981 139.368 402.958 138.105 402.958C136.842 402.958 135.818 403.981 135.818 405.243C135.818 406.506 136.842 407.529 138.105 407.529Z" fill="#1D1D1B"/>
<path d="M188.366 444.745C189.629 444.745 190.653 443.721 190.653 442.459C190.653 441.196 189.629 440.173 188.366 440.173C187.103 440.173 186.079 441.196 186.079 442.459C186.079 443.721 187.103 444.745 188.366 444.745Z" fill="#1D1D1B"/>
<path d="M217.095 501C218.358 501 219.382 499.977 219.382 498.714C219.382 497.452 218.358 496.428 217.095 496.428C215.831 496.428 214.807 497.452 214.807 498.714C214.807 499.977 215.831 501 217.095 501Z" fill="#1D1D1B"/>
<path d="M239.938 494.477C241.201 494.477 242.225 493.453 242.225 492.191C242.225 490.928 241.201 489.905 239.938 489.905C238.675 489.905 237.651 490.928 237.651 492.191C237.651 493.453 238.675 494.477 239.938 494.477Z" fill="#1D1D1B"/>
<path d="M304.591 408.645C305.854 408.645 306.878 407.621 306.878 406.359C306.878 405.096 305.854 404.073 304.591 404.073C303.328 404.073 302.304 405.096 302.304 406.359C302.304 407.621 303.328 408.645 304.591 408.645Z" fill="#1D1D1B"/>
<path d="M322.051 408.645C323.314 408.645 324.338 407.621 324.338 406.359C324.338 405.096 323.314 404.073 322.051 404.073C320.788 404.073 319.764 405.096 319.764 406.359C319.764 407.621 320.788 408.645 322.051 408.645Z" fill="#1D1D1B"/>
<path d="M276.225 468.886C277.488 468.886 278.512 467.862 278.512 466.6C278.512 465.337 277.488 464.314 276.225 464.314C274.962 464.314 273.938 465.337 273.938 466.6C273.938 467.862 274.962 468.886 276.225 468.886Z" fill="#1D1D1B"/>
<path d="M272.153 501C273.416 501 274.44 499.977 274.44 498.714C274.44 497.452 273.416 496.428 272.153 496.428C270.89 496.428 269.866 497.452 269.866 498.714C269.866 499.977 270.89 501 272.153 501Z" fill="#1D1D1B"/>
<path d="M140.392 359.582C141.655 359.582 142.679 358.558 142.679 357.296C142.679 356.033 141.655 355.01 140.392 355.01C139.129 355.01 138.105 356.033 138.105 357.296C138.105 358.558 139.129 359.582 140.392 359.582Z" fill="#1D1D1B"/>
<path d="M191.574 214.121C192.837 214.121 193.861 213.097 193.861 211.835C193.861 210.572 192.837 209.549 191.574 209.549C190.31 209.549 189.286 210.572 189.286 211.835C189.286 213.097 190.31 214.121 191.574 214.121Z" fill="#1D1D1B"/>
<path d="M281.776 98.6558C283.039 98.6558 284.063 97.6323 284.063 96.3699C284.063 95.1074 283.039 94.084 281.776 94.084C280.512 94.084 279.488 95.1074 279.488 96.3699C279.488 97.6323 280.512 98.6558 281.776 98.6558Z" fill="#1D1D1B"/>
<path d="M231.291 92.188C232.554 92.188 233.578 91.1646 233.578 89.9021C233.578 88.6396 232.554 87.6162 231.291 87.6162C230.028 87.6162 229.004 88.6396 229.004 89.9021C229.004 91.1646 230.028 92.188 231.291 92.188Z" fill="#1D1D1B"/>
<path d="M288.302 12.3213C289.565 12.3213 290.589 11.2979 290.589 10.0354C290.589 8.77294 289.565 7.74951 288.302 7.74951C287.039 7.74951 286.015 8.77294 286.015 10.0354C286.015 11.2979 287.039 12.3213 288.302 12.3213Z" fill="#1D1D1B"/>
<path d="M174.531 8.66943C161.339 8.66943 153.919 27.6256 153.919 49.6482C153.919 71.6707 161.339 90.6269 174.531 90.6269C187.724 90.6269 195.032 71.8101 195.032 49.6482C195.032 27.4862 187.613 8.66943 174.531 8.66943Z" stroke="#1D1D1B" stroke-width="0.75"/>
<path d="M167.893 226.331C167.754 228.505 166.75 230.289 164.435 230.289H97.5501C95.2351 230.289 93.8405 229.007 93.8405 227.084C93.8405 225.16 95.2351 223.878 97.5501 223.878H109.46V144.374L70.5229 143.231V230.289H63.6057C58.3621 230.289 56.6886 228.756 54.513 224.268L21.2102 155.887V223.878H30.1913C32.5064 223.878 33.7894 225.3 33.7894 227.084C33.7894 229.007 32.5064 230.289 30.1913 230.289H4.55875C2.63422 230.289 1.23962 229.007 1.23962 227.084C1.23962 225.16 2.66211 223.878 4.55875 223.878H13.512L13.3726 143.844L6.84588 143.203C4.80978 142.952 3.13627 142.171 3.13627 139.997C3.13627 137.823 4.80978 136.791 6.84588 136.791H23.7483C27.5974 136.791 28.992 138.826 31.1675 143.203L62.7969 208.49V143.203H53.8436C51.9191 143.203 50.5245 141.92 50.5245 139.997C50.5245 138.073 51.947 136.791 53.8436 136.791H79.4762L300.965 10.4818C302.248 9.75703 303.029 8.41895 303.029 6.96937C303.029 4.73923 301.216 2.92725 298.985 2.92725H271.651C269.726 2.92725 268.332 4.20957 268.332 6.13307C268.332 8.05656 269.754 9.33888 271.651 9.33888H280.604V74.6261L248.975 9.33888C246.799 4.99012 245.377 2.92725 241.556 2.92725H224.653C222.617 2.92725 220.943 3.95868 220.943 6.13307C220.943 8.30745 222.617 9.08799 224.653 9.33888L231.18 9.98005L231.319 90.014" stroke="#1D1D1B" stroke-width="0.75"/>
<path d="M254.358 200.573C249.867 216.462 239.994 230.289 222.952 230.289C209.982 230.289 198.323 224.435 191.573 211.863" stroke="#1D1D1B" stroke-width="0.75"/>
<path d="M291.565 230.289H282.389C280.074 230.289 278.791 228.868 278.791 227.084C278.791 225.299 280.074 223.878 282.389 223.878H297.506V143.203H291.482C279.042 143.203 279.182 151.008 278.038 163.943L277.536 170.076C277.536 170.578 277.452 171.024 277.369 171.442" stroke="#1D1D1B" stroke-width="0.75"/>
<path d="M116.768 276.648H99.0841V357.324" stroke="#1D1D1B" stroke-width="0.75"/>
<path d="M199.913 299.089V359.721C199.913 363.679 197.235 363.679 192.996 363.679C187.752 363.679 186.079 362.146 183.903 357.658L150.6 289.276V357.267H159.581C161.896 357.267 163.179 358.689 163.179 360.473C163.179 362.397 161.896 363.679 159.581 363.679H133.949C132.024 363.679 130.63 362.397 130.63 360.473C130.63 358.55 132.052 357.267 133.949 357.267H140.392M142.763 136.819H164.407C166.722 136.819 167.726 138.603 167.865 140.777L169.901 167.037C170.041 169.351 168.869 170.884 166.582 170.884C164.295 170.884 163.375 169.351 163.263 167.037L162.761 159.873C161.98 154.632 160.335 143.481 147.895 143.23H124.828V179.86H134.172C140.95 179.86 142.623 174.87 143.516 169.88L144.157 166.173C144.548 163.998 145.189 162.465 147.365 162.465C149.54 162.465 150.572 163.998 150.572 166.173V198.705C150.572 200.879 149.54 202.412 147.365 202.412C145.189 202.412 144.548 200.879 144.157 198.705L143.516 194.997C142.623 190.007 140.95 186.3 134.172 186.3H124.828V223.933H147.895C158.354 223.933 169.734 216.379 174.476 207.291C178.771 199.067 184.043 185.742 185.605 178.076C191.573 148.833 203.79 136.874 222.952 136.874C232.937 136.874 240.747 142.645 244.847 147.886L245.349 140.582C245.488 138.157 247.022 136.874 248.668 136.874C251.234 136.874 252.517 138.408 252.517 140.582V169.128C252.517 171.441 250.843 172.835 248.166 172.835C245.488 172.835 244.958 171.163 244.317 169.128C239.575 154.158 235.475 143.258 221.641 143.258C208.838 143.258 202.033 161.573 202.033 183.596C202.033 205.618 208.81 223.933 222.924 223.933C231.765 223.933 239.436 216.044 244.345 204.587C251.206 188.586 271.344 140.944 271.344 140.944C272.46 138.435 273.129 136.846 274.942 136.846L335.411 136.707C337.838 136.707 339.009 138.631 339.009 140.944L339.79 170.131C339.79 172.445 338.647 174.09 336.192 174.09C333.738 174.09 332.985 172.417 332.873 170.131L332.371 164.11C331.228 151.175 331.339 143.23 318.927 143.23H312.903V223.905H328.02C330.335 223.905 331.618 225.327 331.618 227.111C331.618 228.895 330.335 230.317 328.02 230.317L104.886 270.264H65.5302C63.2152 270.264 61.8206 271.547 61.8206 273.47C61.8206 275.394 63.2152 276.676 65.5302 276.676H83.7157V357.351H65.6418C63.2152 357.351 61.7927 358.633 61.7927 360.557C61.7927 362.48 63.1873 363.763 65.6418 363.763H116.879C119.306 363.763 121.23 362.787 121.816 360.752L142.735 306.504V276.704H136.208C134.172 276.453 132.498 275.672 132.498 273.498C132.498 271.324 134.172 270.292 136.208 270.292H153.111C156.96 270.292 158.354 272.327 160.53 276.704L192.159 341.991V276.704H183.206C181.281 276.704 179.887 275.421 179.887 273.498C179.887 271.574 181.309 270.292 183.206 270.292H255.195" stroke="#1D1D1B" stroke-width="0.75"/>
<path d="M255.25 270.237C263.953 270.237 272.153 276.648 277.145 281.889L277.648 273.944C277.787 271.519 279.321 270.237 280.967 270.237C282.891 270.237 284.174 271.77 284.174 273.944V302.49C284.174 304.804 282.501 306.839 280.465 306.839C276.616 306.839 275.974 304.525 275.333 302.49C270.591 287.52 265.208 276.621 253.939 276.621C240.747 276.621 234.332 294.936 234.332 316.958C234.332 338.981 240.747 357.296 253.939 357.296C264.817 357.296 274.44 343.971 274.691 325.544H265.459C263.144 325.544 261.749 324.513 261.749 322.338C261.749 320.164 263.172 319.133 265.459 319.133H292.876C295.191 319.133 296.586 320.666 296.586 322.338C296.586 324.262 295.164 325.544 292.876 325.544H284.927L285.178 362.425C285.178 364.599 284.035 366.383 281.72 366.383L9.41187 405.244" stroke="#1D1D1B" stroke-width="0.75"/>
<path d="M52.0863 405.244C67.4547 405.244 88.3457 418.318 88.3457 452.355" stroke="#1D1D1B" stroke-width="0.75"/>
<path d="M137.407 492.944C150.461 492.944 157.908 474.127 157.908 451.965C157.908 429.803 150.489 410.986 137.407 410.986C124.326 410.986 116.795 429.943 116.795 451.965C116.795 473.988 124.215 492.944 137.407 492.944Z" stroke="#1D1D1B" stroke-width="0.75"/>
<path d="M217.094 498.714H196.566C194.251 498.714 192.968 497.292 192.968 495.508C192.968 493.724 194.251 492.302 196.566 492.302H211.683V411.627H205.659C193.219 411.627 193.359 419.433 192.215 432.367L191.713 438.5C191.573 440.814 190.82 442.459 188.394 442.459M327.351 404.463C325.092 404.463 322.944 405.383 321.382 407L239.715 492.274H227.052V411.599H233.077C245.516 411.599 245.377 419.544 246.52 432.479L247.022 438.5C247.162 440.814 247.915 442.459 250.342 442.459C252.768 442.459 253.94 440.786 253.94 438.5L253.159 409.313C253.159 407 252.015 405.076 249.561 405.076L189.091 405.216H137.352C157.601 405.216 174.504 422.248 174.504 451.937C174.504 481.626 157.601 499.299 137.352 499.299C117.102 499.299 100.06 481.626 100.06 451.937C100.06 444.745 101.092 438.222 102.933 432.479L36.9133 483.549L37.0528 411.599H50.7477C64.4426 411.599 72.9217 430.305 72.9217 452.299C72.9217 474.294 63.9684 492.247 50.8871 492.247H47.5401" stroke="#1D1D1B" stroke-width="0.75"/>
<path d="M327.351 404.463C329.275 404.463 330.558 405.885 330.558 408.17V433.399C330.558 435.713 329.526 436.995 327.49 436.995C325.315 436.995 324.924 435.071 324.171 433.287C319.569 422.527 307.52 411.655 295.721 411.655C286.768 411.655 282.026 416.394 282.026 425.231C282.026 434.821 292.793 438.918 301.997 442.905C318.788 450.069 333.515 452.634 333.515 474.015C333.515 495.397 317.505 499.996 303.28 499.996C289.055 499.996 279.321 492.944 275.36 486.03V495.118C275.36 497.432 273.938 498.714 272.153 498.714M276.002 465.15L276.894 471.032C278.93 484.107 292.012 493.557 303.029 493.557C310.448 493.557 321.605 489.069 321.605 477.026C321.605 466.907 306.99 461.276 295.721 457.178C279.711 451.296 268.192 446.027 268.192 428.883C268.192 415.195 279.209 405.188 295.721 405.188C298.622 405.188 301.607 405.578 304.535 406.359" stroke="#1D1D1B" stroke-width="0.75"/>
<path d="M278.401 348.849C273.798 356.654 264.957 363.707 253.939 363.707C233.578 363.707 217.68 349.239 217.68 316.986C217.68 302.88 220.72 292.147 225.964 284.565" stroke="#1D1D1B" stroke-width="0.75"/>
<path d="M88.3457 452.355C88.3457 489.737 67.0922 498.714 52.2258 498.714H9.41188C7.09686 498.714 5.70227 497.431 5.70227 495.508C5.70227 493.584 7.12475 492.302 9.41188 492.302H21.5727V411.627H9.41188C7.09686 411.627 5.70227 410.345 5.70227 408.421C5.70227 406.498 7.12475 405.215 9.41188 405.215" stroke="#1D1D1B" stroke-width="0.75"/>
<path d="M112.416 64.5065L109.85 70.6393C105.109 82.1524 98.582 89.9857 89.7403 89.9857C75.655 89.9857 68.8494 71.8101 68.8494 49.6482C68.8494 27.4862 75.6271 9.31061 88.4573 9.31061C102.292 9.31061 106.392 20.1825 111.133 35.1802C111.775 37.2152 112.416 38.8878 114.982 38.8878C117.66 38.8878 119.334 37.4661 119.334 35.1802V6.63445C119.334 4.46007 118.051 2.92685 115.484 2.92685C113.811 2.92685 112.277 4.20918 112.165 6.63445L111.663 13.9381C107.563 8.69733 99.7535 2.92685 89.7682 2.92685C69.4072 2.92685 52.2258 17.3949 52.2258 49.6482C52.2258 81.9015 69.3793 96.3695 89.7682 96.3695C106.81 96.3695 115.763 82.3197 120.979 66.653C128.064 45.4109 140.197 2.25781 174.587 2.25781C192.912 2.25781 211.739 19.9316 211.739 49.6203C211.739 68.2698 205.073 82.1803 195.088 89.9579" stroke="#1D1D1B" stroke-width="0.75"/>
<path d="M288.302 9.31104V92.4115C288.302 96.3699 285.625 96.3699 281.385 96.3699C276.141 96.3699 274.468 94.8367 272.292 90.3486L238.99 21.9671V89.9583H247.943C250.258 89.9583 251.541 91.38 251.541 93.1641C251.541 95.0876 250.258 96.3699 247.943 96.3699H174.559C154.198 96.3699 137.268 79.3373 137.268 49.6486" stroke="#1D1D1B" stroke-width="0.75"/>
</svg>
